<svg width="60" height="60" viewBox="0 0 60 60" fill="none" xmlns="http://www.w3.org/2000/svg">

<path d="M29.7299 0.170161C28.5691 0.592284 27.9711 1.22547 27.4317 2.59736L27.1151 3.42988L25.0162 3.48851C22.6242 3.55887 22.2138 3.67612 21.3461 4.54382C20.5488 5.34116 20.3612 5.88054 20.3143 7.6042C20.2674 8.9292 20.2908 9.12854 20.5136 9.56238C20.6778 9.8907 20.924 10.1369 21.2289 10.2894C21.6744 10.5239 21.8972 10.5239 30.8439 10.5239C39.7905 10.5239 40.0133 10.5239 40.4589 10.2894C40.7637 10.1369 41.01 9.8907 41.1741 9.56238C41.3969 9.12854 41.4204 8.9292 41.3735 7.6042C41.3266 5.88054 41.139 5.34116 40.3416 4.54382C39.4739 3.67612 39.0635 3.55887 36.6715 3.48851L34.5726 3.42988L34.2208 2.50356C33.6228 0.955778 32.5441 0.111533 31.0315 0.00600267C30.539 -0.0174486 30.1286 0.0294539 29.7299 0.170161Z" fill="currentColor"/>
<path d="M12.2114 7.13496C10.1945 7.53363 8.4826 9.28075 8.09566 11.3562C8.01358 11.79 7.99013 19.3413 8.00185 33.8108L8.03703 55.6087L8.28327 56.2888C8.9399 58.0593 10.4994 59.4899 12.2114 59.8768C12.9266 60.041 48.7601 60.041 49.4754 59.8768C51.1873 59.4899 52.7468 58.0593 53.4035 56.2888L53.6497 55.6087L53.6849 33.8108C53.6966 19.3413 53.6732 11.79 53.5911 11.3562C53.2041 9.23385 51.5039 7.52191 49.3816 7.12324C49.0298 7.06461 47.8924 7.00598 46.8371 7.00598H44.9141V8.04956C44.9141 8.61239 44.8555 9.36283 44.7969 9.7146C44.3982 11.8252 42.698 13.5254 40.5874 13.9241C39.7314 14.0883 21.9553 14.0883 21.0994 13.9241C18.9888 13.5254 17.2885 11.8252 16.8899 9.7146C16.8312 9.36283 16.7726 8.61239 16.7726 8.04956V7.00598L14.7558 7.01771C13.6419 7.02943 12.4928 7.07633 12.2114 7.13496ZM28.1465 17.8053C28.9673 18.2626 29.2956 19.2593 28.8969 20.0566C28.6507 20.5491 21.9084 27.3382 21.2401 27.7721C20.1261 28.4873 19.5985 28.2294 17.1127 25.6966C15.3304 23.8791 15.0138 23.457 15.0138 22.8238C15.0138 21.9796 15.9166 21.0767 16.7609 21.0767C17.3589 21.0767 17.8045 21.3816 19.0943 22.648L20.302 23.8205L23.1983 20.936C24.7929 19.3531 26.2821 17.9343 26.5049 17.8053C27.0325 17.4887 27.5836 17.4887 28.1465 17.8053ZM45.7349 21.3112C46.2626 21.5809 46.673 22.2493 46.673 22.8356C46.673 23.4219 46.2626 24.0902 45.7349 24.3599C45.2893 24.5827 45.0548 24.5944 39.6376 24.5944C34.2203 24.5944 33.9858 24.5827 33.5403 24.3599C33.0126 24.0902 32.6022 23.4219 32.6022 22.8356C32.6022 22.2493 33.0126 21.5809 33.5168 21.323C33.9272 21.1002 34.2086 21.0885 39.6141 21.0767C45.0665 21.0767 45.2893 21.0885 45.7349 21.3112ZM28.1465 30.1172C28.9673 30.5745 29.2956 31.5712 28.8969 32.3685C28.6507 32.861 21.9084 39.6501 21.2401 40.084C20.1261 40.7992 19.5985 40.5413 17.1127 38.0085C15.3304 36.1911 15.0138 35.7689 15.0138 35.1357C15.0138 34.2915 15.9166 33.3886 16.7609 33.3886C17.3589 33.3886 17.8045 33.6935 19.0943 34.9599L20.302 36.1324L23.1983 33.2479C24.7929 31.665 26.2821 30.2462 26.5049 30.1172C27.0325 29.8006 27.5836 29.8006 28.1465 30.1172ZM45.7349 33.6231C46.2626 33.8928 46.673 34.5612 46.673 35.1475C46.673 35.7338 46.2626 36.4021 45.7349 36.6718C45.2893 36.8946 45.0548 36.9063 39.6376 36.9063C34.2203 36.9063 33.9858 36.8946 33.5403 36.6718C33.0126 36.4021 32.6022 35.7338 32.6022 35.1475C32.6022 34.5612 33.0126 33.8928 33.5168 33.6349C33.9272 33.4121 34.2086 33.4004 39.6141 33.3886C45.0665 33.3886 45.2893 33.4004 45.7349 33.6231ZM28.1465 42.4291C28.9673 42.8864 29.2956 43.8831 28.8969 44.6804C28.6507 45.1729 21.9084 51.962 21.2401 52.3959C20.1261 53.1111 19.5985 52.8532 17.1127 50.3204C15.3304 48.503 15.0138 48.0808 15.0138 47.4476C15.0138 46.6034 15.9166 45.7005 16.7609 45.7005C17.3589 45.7005 17.8045 46.0054 19.0943 47.2718L20.302 48.4443L23.1983 45.5598C24.7929 43.9769 26.2821 42.5581 26.5049 42.4291C27.0325 42.1125 27.5836 42.1125 28.1465 42.4291ZM45.7349 45.935C46.2626 46.2047 46.673 46.8731 46.673 47.4594C46.673 48.0457 46.2626 48.714 45.7349 48.9837C45.2893 49.2065 45.0548 49.2182 39.6376 49.2182C34.2203 49.2182 33.9858 49.2065 33.5403 48.9837C33.0126 48.714 32.6022 48.0457 32.6022 47.4594C32.6022 46.8731 33.0126 46.2047 33.5168 45.9468C33.9272 45.724 34.2086 45.7123 39.6141 45.7005C45.0665 45.7005 45.2893 45.7123 45.7349 45.935Z" fill="currentColor"/>

</svg>
