<svg width="20" height="21" viewBox="0 0 20 21" fill="none" xmlns="http://www.w3.org/2000/svg">
<path fill-rule="evenodd" clip-rule="evenodd" d="M0.625006 10.5002C0.62516 8.69822 1.14463 6.93448 2.12122 5.4201C3.09782 3.90572 4.49016 2.70488 6.13156 1.96132C7.77297 1.21777 9.59388 0.963018 11.3763 1.22756C13.1588 1.4921 14.8272 2.26473 16.1819 3.45295C17.5366 4.64117 18.5202 6.19463 19.0148 7.92737C19.5095 9.66011 19.4943 11.4987 18.9711 13.223C18.4479 14.9474 17.4389 16.4844 16.0647 17.6501C14.6906 18.8158 13.0096 19.5608 11.2231 19.7959C11.0806 19.8178 10.9352 19.811 10.7954 19.776C10.6555 19.7409 10.5241 19.6783 10.4089 19.5917C10.2936 19.5051 10.1968 19.3964 10.1241 19.2719C10.0515 19.1474 10.0045 19.0096 9.98582 18.8667C9.96717 18.7237 9.97728 18.5785 10.0156 18.4395C10.0538 18.3005 10.1195 18.1706 10.2087 18.0574C10.2979 17.9441 10.4088 17.8499 10.535 17.7801C10.6611 17.7103 10.7999 17.6665 10.9433 17.6511C12.5606 17.4384 14.0581 16.6837 15.1913 15.5103C16.3245 14.3368 17.0264 12.8139 17.1826 11.1901C17.3387 9.56624 16.9397 7.93747 16.0509 6.5696C15.1621 5.20173 13.8358 4.17555 12.2886 3.65857C10.7414 3.14159 9.06459 3.16435 7.53198 3.72312C5.99937 4.2819 4.70144 5.34369 3.85003 6.73518C2.99863 8.12667 2.64406 9.76567 2.84418 11.3846C3.04431 13.0036 3.78732 14.5069 4.95193 15.6492V13.7454C4.95193 13.4585 5.0659 13.1833 5.26876 12.9805C5.47162 12.7776 5.74677 12.6636 6.03366 12.6636C6.32055 12.6636 6.5957 12.7776 6.79856 12.9805C7.00142 13.1833 7.11539 13.4585 7.11539 13.7454V18.0723C7.11539 18.3592 7.00142 18.6343 6.79856 18.8372C6.5957 19.0401 6.32055 19.154 6.03366 19.154H1.70674C1.41984 19.154 1.1447 19.0401 0.941838 18.8372C0.738974 18.6343 0.625006 18.3592 0.625006 18.0723C0.625006 17.7854 0.738974 17.5103 0.941838 17.3074C1.1447 17.1045 1.41984 16.9906 1.70674 16.9906H3.23558C1.55798 15.2466 0.622164 12.92 0.625006 10.5002ZM10 5.09153C10.2869 5.09153 10.562 5.2055 10.7649 5.40836C10.9678 5.61123 11.0817 5.88637 11.0817 6.17326V9.95932L12.5716 11.0771C12.6853 11.1623 12.781 11.2691 12.8534 11.3914C12.9258 11.5136 12.9734 11.6489 12.9935 11.7895C13.0136 11.9301 13.0057 12.0733 12.9705 12.211C12.9352 12.3486 12.8732 12.4779 12.788 12.5915C12.7028 12.7052 12.596 12.8009 12.4737 12.8733C12.3515 12.9457 12.2162 12.9933 12.0756 13.0134C11.935 13.0334 11.7917 13.0256 11.6541 12.9904C11.5165 12.9551 11.3872 12.8931 11.2736 12.8079L9.35097 11.3656C9.21662 11.2648 9.10758 11.1342 9.03248 10.9839C8.95737 10.8337 8.91828 10.6681 8.91828 10.5002V6.17326C8.91828 6.03121 8.94626 5.89054 9.00062 5.7593C9.05498 5.62806 9.13466 5.50881 9.23511 5.40836C9.33556 5.30791 9.4548 5.22823 9.58605 5.17387C9.71729 5.11951 9.85795 5.09153 10 5.09153Z" fill="currentColor"/>
</svg>
