<svg width="100" height="100" viewBox="0 0 100 100" fill="none" xmlns="http://www.w3.org/2000/svg">
<path d="M67.4279 40.9145C67.4279 44.7505 67.2247 45.609 65.7599 48.5845C65.2208 49.6753 64.6193 50.6684 63.9435 51.5777C62.2111 53.9093 59.9943 55.6712 57.1232 57.0137C54.7482 58.1239 53.5861 58.3248 50.0001 58.3248C46.4142 58.3248 45.2521 58.1239 42.8771 57.0137C40.006 55.6712 37.7892 53.9093 36.0568 51.5796C35.381 50.6704 34.7794 49.6753 34.2404 48.5845C32.7755 45.609 32.5724 44.7505 32.5724 40.9145C32.5724 39.8979 32.588 39.0745 32.6388 38.3662C32.7618 36.5789 33.0919 35.5116 33.8868 33.8492C36.2091 28.9049 39.8966 25.6738 45.0997 23.9587C46.3634 23.5548 48.6876 23.3031 50.8595 23.4533C57.5782 23.7577 63.1837 27.5411 66.1134 33.7985C66.9083 35.498 67.2384 36.575 67.3615 38.3662C67.4122 39.0764 67.4279 39.8979 67.4279 40.9145Z" fill="currentColor"/>
<path d="M83.2382 90.9758C80.8144 92.5387 74.3476 95.5162 71.0136 96.6772C58.4355 100.917 42.8261 101.118 30.5527 97.1825C27.0663 96.0723 18.7323 92.287 16.7616 90.9758C16.5761 90.8529 16.5097 90.3183 16.537 89.5163C16.6464 86.3886 18.1835 79.1809 19.5898 76.2893C22.1757 70.9294 28.7148 65.6651 34.3925 64.2641C34.5956 64.2134 34.7968 64.1685 34.998 64.1276C38.0273 63.5734 61.4667 63.5227 64.5995 64.1276C64.8222 64.1705 65.0468 64.2173 65.2714 64.27H65.2734C71.3847 65.7061 77.7284 70.6913 80.4101 76.2893C81.8105 79.1692 83.3398 86.3281 83.4609 89.4773C83.4921 90.3007 83.4277 90.849 83.2382 90.9758Z" fill="currentColor"/>
<path d="M30.6486 50.3778L30.6487 50.3779C31.5576 52.2172 32.6406 53.8535 33.9111 55.2976C32.6866 56.9163 31.1264 58.1434 29.1129 59.087C28.2641 59.4833 27.6378 59.7152 26.9056 59.8491C26.1714 59.9835 25.3265 60.0202 24.0389 60.0202C22.7514 60.0202 21.9065 59.9835 21.1722 59.8491C20.4401 59.7152 19.8138 59.4833 18.965 59.087C16.1178 57.7539 14.1752 55.8498 12.8062 53.0778C12.2802 52.0092 11.9856 51.3296 11.8206 50.5764C11.6554 49.8223 11.619 48.9895 11.619 47.6128C11.619 46.3264 11.6553 45.482 11.7895 44.7527C11.9233 44.0257 12.1553 43.409 12.5528 42.58L12.5531 42.5792C14.2094 39.051 16.8385 36.7493 20.5496 35.5264C21.441 35.2405 23.0976 35.0593 24.6493 35.168L24.6517 35.1681C26.1574 35.2366 27.5857 35.5495 28.8984 36.0864C28.6339 37.4513 28.5682 38.917 28.5682 40.9358C28.5682 43.1206 28.6502 44.5938 28.9524 45.9658C29.2547 47.3385 29.7764 48.6048 30.6486 50.3778Z" fill="currentColor" stroke="currentColor" stroke-width="0.195312"/>
<path d="M36.5568 47.6128C36.5568 49.5816 36.4825 50.4577 36.0568 51.5796C35.381 50.6703 34.7794 49.6752 34.2404 48.5845C32.7755 45.609 32.5724 44.7504 32.5724 40.9144C32.5724 39.8979 32.588 39.0745 32.6388 38.3662C33.8458 39.4881 34.8556 40.8793 35.6134 42.5007C36.4122 44.2041 36.5568 45.0392 36.5568 47.6128Z" fill="currentColor"/>
<path d="M16.0762 74.6055C14.6465 77.5479 13.6172 82.5858 13.334 84.059C12.9844 85.8911 12.7403 87.4423 12.6543 88.7555C11.7735 88.5389 10.9102 88.2969 10.0704 88.0277C7.56645 87.2296 1.58012 84.5116 0.164107 83.5692C-0.488237 83.1341 0.925825 75.6318 2.19731 73.0211C4.11918 69.0349 9.08989 65.1189 13.2637 64.2857C14.504 64.0594 20.502 63.9501 25.8516 63.9774C21.6915 66.7247 18.0059 70.6056 16.0762 74.6055Z" fill="currentColor"/>
<path d="M47.9142 83.5692C46.172 84.6931 41.5275 86.8316 39.1329 87.6647C34.299 89.294 28.8439 90.094 23.465 90.051C21.1212 90.0335 18.7931 89.8559 16.5372 89.5164C16.6466 86.3887 18.1837 79.181 19.59 76.2894C22.1759 70.9295 28.715 65.6652 34.3927 64.2642C34.4415 64.2701 34.4865 64.2779 34.5255 64.2857C36.9279 64.7462 39.4103 66.0008 41.5118 67.6983C43.379 69.2046 44.9415 71.0602 45.881 73.0211C47.1525 75.6318 48.5665 83.1341 47.9142 83.5692Z" fill="currentColor"/>
<path d="M67.4276 40.9144C67.4276 44.7504 67.2245 45.609 65.7596 48.5845C65.2206 49.6752 64.619 50.6684 63.9432 51.5776C63.5175 50.4557 63.4432 49.5796 63.4432 47.6128C63.4432 45.0392 63.5878 44.2041 64.3866 42.5378C65.162 40.8852 66.1503 39.4998 67.3612 38.3662C67.412 39.0764 67.4276 39.8979 67.4276 40.9144Z" fill="currentColor"/>
<path d="M88.4786 47.6128C88.4786 50.3659 88.3341 50.9825 87.2814 53.121C85.9025 55.9131 83.9435 57.8331 81.0763 59.1755C79.3712 59.9715 78.5372 60.1179 75.9611 60.1179C73.3849 60.1179 72.5509 59.9715 70.8458 59.1755C68.7911 58.2135 67.2032 56.955 65.9611 55.2907C67.2501 53.839 68.3478 52.1883 69.2657 50.3288C71.006 46.7952 71.3341 45.3026 71.3341 40.9358C71.3341 38.8695 71.2657 37.3905 70.9845 35.9954C71.4493 35.7867 71.9357 35.6013 72.4415 35.4335C73.3478 35.1428 75.0177 34.9613 76.5782 35.0706C81.4044 35.2872 85.4318 38.0071 87.5353 42.5007C88.3341 44.2041 88.4786 45.0392 88.4786 47.6128Z" fill="currentColor"/>
<path d="M80.4101 76.2893C81.8105 79.1692 83.3398 86.3281 83.4609 89.4773C81.2402 89.8149 78.9726 90.0041 76.707 90.0451H76.705C71.582 90.1349 66.4765 89.4656 61.9921 88.0276C59.4882 87.2296 53.5019 84.5116 52.0859 83.5691C51.4335 83.134 52.8476 75.6317 54.1191 73.0211C55.0331 71.1226 56.6386 69.2416 58.5214 67.7021C60.5917 66.0046 62.998 64.7227 65.1855 64.2856C65.2109 64.2817 65.2402 64.2759 65.2714 64.27H65.2734C71.3847 65.7061 77.7284 70.6914 80.4101 76.2893Z" fill="currentColor"/>
<path d="M99.8359 83.5692C98.0938 84.6931 93.4492 86.8316 91.0547 87.6647C89.8516 88.0706 88.6113 88.4237 87.3438 88.7262C87.2578 87.4189 87.0137 85.8794 86.666 84.0589C86.3848 82.5877 85.3574 77.5615 83.9277 74.6172C81.9531 70.4982 78.3379 66.6798 74.1406 63.9793C79.3965 63.9481 85.1914 64.0437 86.4473 64.2857C90.9824 65.1559 95.8086 68.8534 97.8027 73.0211C99.0742 75.6318 100.488 83.1341 99.8359 83.5692Z" fill="currentColor"/>
<path d="M67.3615 38.3662C67.2384 36.575 66.9083 35.498 66.1134 33.7985C63.1837 27.5411 57.5782 23.7577 50.8595 23.4533C48.6876 23.3031 46.3634 23.5548 45.0997 23.9587C39.8966 25.6738 36.2091 28.9049 33.8868 33.8492C33.0919 35.5116 32.7618 36.5789 32.6388 38.3662C32.588 39.0745 32.5724 39.8979 32.5724 40.9145C32.5724 44.7505 32.7755 45.609 34.2404 48.5845C34.7794 49.6753 35.381 50.6704 36.0568 51.5796C37.7892 53.9093 40.006 55.6712 42.8771 57.0137C45.2521 58.1239 46.4142 58.3248 50.0001 58.3248C53.5861 58.3248 54.7482 58.1239 57.1232 57.0137C59.9943 55.6712 62.2111 53.9093 63.9435 51.5796C64.6193 50.6684 65.2208 49.6753 65.7599 48.5845C67.2247 45.609 67.4279 44.7505 67.4279 40.9145C67.4279 39.8979 67.4122 39.0764 67.3615 38.3662ZM55.4669 53.5015C53.7521 54.3015 53.1935 54.4439 50.0001 54.4439C46.8068 54.4439 46.2482 54.3015 44.5353 53.5015C41.3673 52.0186 39.2716 49.9777 37.7443 46.8851C36.5685 44.4929 36.4786 44.2334 36.4786 40.9359C36.4786 37.6384 36.6193 37.2072 37.4103 35.5565L37.422 35.5292C39.2814 31.5742 42.1036 29.0844 46.3048 27.6932C46.965 27.4864 48.7697 27.2425 50.5861 27.3694L50.6837 27.3752C55.9415 27.6113 60.2775 30.5634 62.5763 35.4765C63.379 37.1877 63.5216 37.7477 63.5216 40.9359C63.5216 44.1241 63.4318 44.4929 62.2579 46.8812C60.7286 49.9777 58.6329 52.0186 55.4669 53.5015Z" fill="currentColor"/>
<path d="M83.4609 89.4773C83.3398 86.3281 81.8105 79.1692 80.4101 76.2893C77.7284 70.6913 71.3847 65.7061 65.2734 64.27H65.2714C65.0468 64.2173 64.8222 64.1705 64.5995 64.1276C61.4667 63.5227 38.0273 63.5734 34.998 64.1276C34.7968 64.1685 34.5956 64.2134 34.3925 64.2641C28.7148 65.6651 22.1757 70.9294 19.5898 76.2893C18.1835 79.1809 16.6464 86.3886 16.537 89.5163C16.5097 90.3183 16.5761 90.8529 16.7616 90.9758C18.7323 92.287 27.0663 96.0723 30.5527 97.1825C42.8261 101.118 58.4355 100.917 71.0136 96.6772C74.3476 95.5162 80.8144 92.5387 83.2382 90.9758C83.4277 90.849 83.4921 90.3007 83.4609 89.4773ZM76.705 90.0451C74.287 91.1963 71.539 92.3826 69.746 93.0089C63.9589 94.9562 57.3456 96.0313 50.6191 96.1152C43.8925 96.1991 37.3691 95.2918 31.7382 93.487C29.8007 92.8685 26.3359 91.3856 23.4648 90.0509C22.3515 89.5339 21.3261 89.0383 20.5155 88.6266C20.8378 85.7818 22.0566 80.1682 23.1093 78.0063C25.2363 73.5966 31.1191 68.9255 35.7226 67.985C36.5058 67.8543 38.6855 67.7587 41.5116 67.6982C46.5468 67.587 53.6308 67.5889 58.5214 67.7021C61.1679 67.7626 63.1718 67.8563 63.8613 67.9831C68.9433 68.9567 74.664 73.3547 76.8847 77.9965L76.8964 78.018C77.9472 80.176 79.1698 85.8169 79.4882 88.652C78.6816 89.0812 77.7245 89.5592 76.707 90.0451H76.705Z" fill="currentColor"/>
<path d="M58.0078 5.59603C57.7207 5.40286 57.1953 5.33067 55.2578 5.23311L52.8418 5.11214L52.0293 2.91316C51.4082 1.27026 51.0957 0.616618 50.8339 0.351257C50.4043 -0.0350766 49.83 -0.10727 49.3281 0.15809C48.8984 0.400037 48.7773 0.641983 47.9179 2.98535L47.1054 5.1375L44.9062 5.23506C42.4902 5.33262 42.0117 5.42823 41.6308 5.91212C41.3203 6.32382 41.2968 7.19405 41.6074 7.58038C41.7265 7.72477 42.5879 8.45061 43.4961 9.17645C44.4297 9.90229 45.1933 10.554 45.2422 10.5774C45.289 10.6262 45.1465 11.2291 44.9316 12.0759C44.8593 12.3666 44.7636 12.6808 44.6933 13.0183C44.2382 14.6866 44.1191 15.2173 44.1425 15.5802C44.1425 15.6778 44.166 15.75 44.1894 15.8456C44.4043 16.4505 45.0019 16.8368 45.5996 16.7646C45.8867 16.7158 46.748 16.2573 48.0156 15.4105L48.8047 14.8778L49.9765 14.1051L50.455 14.3959C50.5742 14.4681 50.8379 14.6378 51.1718 14.8544C51.5547 15.1197 52.0332 15.4339 52.4863 15.748C54.1132 16.8348 54.4707 16.9558 55.164 16.5948C55.498 16.4017 55.7382 16.0153 55.8105 15.5802C55.8105 15.508 55.834 15.4358 55.834 15.3636C55.834 15.1471 55.5703 14.0095 55.2363 12.8252C55.164 12.5344 55.0937 12.2925 55.0449 12.0759C54.7343 10.915 54.7109 10.6262 54.83 10.5052C54.9257 10.4076 55.7148 9.75595 56.623 9.05548C57.5078 8.32964 58.3457 7.60575 58.4414 7.45941C58.8007 6.92674 58.6093 5.98432 58.0117 5.59798L58.0078 5.59603ZM54.0859 8.47207C53.3203 9.07694 52.6504 9.72863 52.58 9.9218C52.4843 10.1872 52.5078 10.5501 52.8183 11.7579C52.8418 11.8554 52.8652 11.951 52.8906 12.0486L53.3457 13.8125L52.8906 13.5217C52.6269 13.3773 52.0058 12.9656 51.4804 12.6027C50.0449 11.6349 49.9023 11.6349 48.1562 12.7959C47.3437 13.3286 46.6738 13.7637 46.6504 13.7383C46.6269 13.7129 46.8183 12.9656 47.0566 12.0701C47.08 11.9491 47.1289 11.8281 47.1523 11.7325C47.6543 9.87107 47.5586 9.77546 45.9336 8.47012C45.2168 7.89062 44.6191 7.38331 44.666 7.35795C44.6894 7.33453 45.455 7.26039 46.3632 7.21356C47.6074 7.14137 48.0859 7.06917 48.3476 6.89942C48.707 6.65747 48.707 6.63406 49.5195 4.5541C49.9746 3.32095 50.0215 3.27218 50.1406 3.63509C50.2129 3.82826 50.5 4.57752 50.7871 5.30335C51.4804 7.06722 51.5293 7.09259 53.6816 7.23698C54.6152 7.28575 55.4043 7.33453 55.4277 7.33453C55.4277 7.35795 54.83 7.86721 54.0879 8.47012L54.0859 8.47207Z" fill="currentColor"/>
<path d="M55.4258 7.33658C55.4258 7.35999 54.8281 7.86925 54.086 8.47217C53.3203 9.07703 52.6504 9.72873 52.5801 9.92189C52.4844 10.1873 52.5078 10.5502 52.8184 11.758C52.8418 11.8555 52.8653 11.9511 52.8906 12.0487L53.3457 13.8125L52.8906 13.5218C52.627 13.3774 52.0059 12.9657 51.4805 12.6028C50.0449 11.635 49.9024 11.635 48.1563 12.796C47.3438 13.3287 46.6738 13.7638 46.6504 13.7384C46.627 13.713 46.8184 12.9657 47.0567 12.0701C47.0801 11.9492 47.1289 11.8282 47.1524 11.7326C47.6543 9.87116 47.5586 9.77555 45.9336 8.47021C45.2168 7.89071 44.6192 7.38341 44.666 7.35804C44.6895 7.33463 45.4551 7.26048 46.3633 7.21365C47.6074 7.14146 48.086 7.06927 48.3477 6.89951C48.707 6.65757 48.707 6.63415 49.5195 4.55419C49.9746 3.32105 50.0215 3.27227 50.1406 3.63519C50.2129 3.82835 50.5 4.57761 50.7871 5.30345C51.4805 7.06731 51.5293 7.09268 53.6817 7.23707C54.6153 7.28585 55.4043 7.33463 55.4278 7.33463L55.4258 7.33658Z" fill="currentColor"/>
<path d="M41.6992 12.9208C41.627 12.7277 41.5312 12.5579 41.4121 12.4135C41.0527 12.0018 40.9824 11.9784 39.7148 11.9062C38.998 11.8575 37.873 11.8087 37.2031 11.8087L36.0312 11.7853L35.5293 10.4565C35.2656 9.73066 34.8828 8.71605 34.6914 8.23216C34.5 7.72485 34.2852 7.24096 34.1895 7.11998C33.7598 6.5639 32.7793 6.44292 32.252 6.9034C32.0137 7.11998 31.6543 7.8946 31.1035 9.32092C30.6738 10.5053 30.2656 11.5199 30.2188 11.6175C30.1465 11.7384 29.7637 11.7872 29.0703 11.8106C28.4961 11.8106 27.3965 11.8594 26.6309 11.9082C25.2676 12.0057 25.2207 12.0057 24.8848 12.4155C24.5977 12.7296 24.502 12.9482 24.502 13.4067C24.502 14.0584 24.6445 14.2281 27.0371 16.113C27.8262 16.7647 28.4473 17.3461 28.4238 17.4417C28.4004 17.5139 28.0898 18.6261 27.7539 19.8592L27.1562 22.1304L27.3945 22.6143C27.4902 22.8075 27.6328 22.9772 27.8242 23.1216C28.1348 23.3636 28.541 23.4845 28.877 23.4123C29.0449 23.3636 30.0488 22.7353 31.1484 22.0348L33.1094 20.7295L33.8262 21.188L35.1172 22.0582C36.8633 23.2192 37.1973 23.387 37.6523 23.387C38.1309 23.4104 38.2734 23.3382 38.5859 22.9753C39.0879 22.4192 39.0645 22.0816 38.3945 19.5432C38.252 19.0105 38.1074 18.5285 38.0117 18.1422C37.8926 17.6837 37.8203 17.3695 37.8203 17.3442C37.8203 17.2954 38.6328 16.6183 39.6133 15.8223C40.5938 15.0242 41.502 14.2516 41.5977 14.1052C41.7656 13.7423 41.8125 13.3072 41.6934 12.9208H41.6992ZM37.8965 14.3959L37.2031 15.0476C36.0234 16.031 35.6406 17.2557 36.0547 18.7217C36.1016 18.8915 36.1504 19.0593 36.1738 19.2056C36.3418 19.8573 36.4844 20.3412 36.4609 20.3666C36.4375 20.3666 36.0312 20.1012 35.457 19.7383C35.3145 19.6407 35.1465 19.5451 34.9785 19.4241C33.9258 18.7237 33.4238 18.4817 33.1133 18.4817C32.8262 18.4817 32.2754 18.7471 31.1992 19.4241C30.8887 19.6173 30.6016 19.8105 30.3867 19.9568C29.9805 20.1988 29.7168 20.3431 29.7168 20.3197C29.7168 20.2709 29.9082 19.5939 30.123 18.7978C30.5527 17.2017 30.6016 16.671 30.3145 16.2359C30.2188 16.0915 29.5723 15.5101 28.9043 14.9793C28.2344 14.4467 27.6855 13.9647 27.6602 13.9394C27.6602 13.8906 28.4023 13.8418 29.2871 13.795C30.4102 13.7462 31.0566 13.674 31.2969 13.5296C31.752 13.2877 31.7754 13.2155 32.9238 10.1463L33.0195 9.88091L33.1387 10.1463C33.2109 10.2907 33.498 11.0399 33.7852 11.8145C34.263 13.0555 35.2513 13.7163 36.75 13.7969L38.5195 13.8945L37.8984 14.4018L37.8965 14.3959Z" fill="currentColor"/>
<path d="M38.5177 13.8867L37.8966 14.394L37.2032 15.0457C36.0236 16.0291 35.6407 17.2538 36.0548 18.7197C36.1017 18.8895 36.1505 19.0573 36.174 19.2036C36.3419 19.8553 36.4845 20.3392 36.4611 20.3646C36.4376 20.3646 36.0314 20.0992 35.4572 19.7363C35.3146 19.6387 35.1466 19.5431 34.9786 19.4222C33.9259 18.7217 33.4239 18.4797 33.1134 18.4797C32.8263 18.4797 32.2755 18.7451 31.1993 19.4222C30.8888 19.6153 30.6017 19.8085 30.3868 19.9548C29.9806 20.1968 29.7169 20.3412 29.7169 20.3178C29.7169 20.269 29.9083 19.5919 30.1232 18.7958C30.5529 17.1998 30.6017 16.669 30.3146 16.2339C30.2189 16.0895 29.5724 15.5081 28.9044 14.9774C28.2345 14.4447 27.6857 13.9628 27.6603 13.9374C27.6603 13.8886 28.4025 13.8398 29.2872 13.793C30.4103 13.7442 31.0568 13.672 31.297 13.5276C31.7521 13.2857 31.7755 13.2135 32.924 10.1443L33.0197 9.87894L33.1388 10.1443C33.2111 10.2887 33.4982 11.0379 33.7853 11.8126C34.2631 13.0535 35.2514 13.7143 36.7501 13.795L38.5197 13.8925L38.5177 13.8867Z" fill="currentColor"/>
<path d="M75.131 12.3882C74.7716 11.9765 74.7013 11.9531 73.4337 11.8809C72.7169 11.8321 71.5919 11.7833 70.9474 11.7833C69.9435 11.7599 69.7521 11.7345 69.6798 11.5414C69.6329 11.4204 69.2736 10.5014 68.9142 9.5102C67.9806 7.09268 67.9572 6.99707 67.5509 6.77854C67.0724 6.5366 66.547 6.53659 66.0919 6.85074C65.758 7.06732 65.59 7.38341 64.8966 9.26825C64.4415 10.476 64.0353 11.516 63.963 11.6136C63.8908 11.7345 63.4845 11.7833 62.7911 11.8067C62.2404 11.8067 61.1408 11.8555 60.3751 11.9043C59.0119 12.0019 58.965 12.0019 58.629 12.4116C58.4865 12.5814 58.3654 12.7745 58.3185 12.9677C58.1994 13.3794 58.2716 13.8145 58.5099 14.1521C58.6525 14.3452 59.5392 15.0945 60.4943 15.8691C61.6896 16.8369 62.2169 17.3188 62.1447 17.4652C62.0724 17.6817 62.0021 17.9237 61.9533 18.1656C61.4025 20.0993 60.9494 22.0817 61.0197 22.3236C61.1388 22.7821 61.6661 23.2914 62.1681 23.387C62.6701 23.4846 62.9806 23.3148 65.3244 21.7441L66.1134 21.2114L66.8556 20.7041L68.6486 21.9119C69.6525 22.5636 70.6329 23.1938 70.8244 23.2894C71.254 23.506 71.7326 23.4104 72.1154 23.1451C72.4494 22.9031 72.6896 22.5168 72.6896 22.0582C72.6896 21.7929 72.4259 20.6319 72.1154 19.4729C71.8048 18.3139 71.5412 17.3461 71.5412 17.3227C71.5412 17.2993 72.3536 16.6223 73.3341 15.8242C74.3146 15.0262 75.2228 14.2535 75.3185 14.1072C75.6056 13.5745 75.5333 12.874 75.1271 12.3901L75.131 12.3882ZM71.7111 14.394C71.3517 14.6847 70.7306 15.2408 70.3009 15.5784C69.2482 16.472 69.2013 16.6418 69.7501 18.6729C70.0138 19.6154 70.2052 20.3646 70.1798 20.3646C70.1544 20.3646 69.8458 20.1714 69.3908 19.8573C69.1994 19.7363 68.9611 19.5666 68.7208 19.4222C67.6681 18.7451 67.1662 18.4798 66.879 18.4798C66.5685 18.4798 66.0411 18.7451 64.965 19.4476C64.7736 19.5685 64.6056 19.6895 64.4396 19.7851C63.8654 20.148 63.4826 20.3646 63.4826 20.3646C63.4826 20.3412 63.6017 19.9061 63.7697 19.3012C63.8165 19.1081 63.8888 18.8895 63.9376 18.6729C64.3361 17.2382 63.9376 16.0297 62.7423 15.0476L62.1212 14.515L61.379 13.9101L63.0529 13.8379C64.8458 13.7404 65.3732 13.596 65.6349 13.0399C65.754 12.7979 66.4005 11.155 66.7579 10.1151C66.8536 9.8497 66.8771 9.89848 67.5001 11.5902C67.8107 12.437 68.1935 13.233 68.338 13.3794C68.6486 13.6701 69.4865 13.8145 71.1603 13.8379L72.379 13.8613L71.7091 14.394H71.7111Z" fill="currentColor"/>
<path d="M72.381 13.8633L71.7111 14.396C71.3517 14.6867 70.7306 15.2428 70.3009 15.5803C69.2482 16.474 69.2013 16.6437 69.7501 18.6749C70.0138 19.6173 70.2052 20.3666 70.1798 20.3666C70.1544 20.3666 69.8458 20.1734 69.3907 19.8593C69.1993 19.7383 68.9611 19.5686 68.7208 19.4242C67.6681 18.7471 67.1661 18.4818 66.879 18.4818C66.5685 18.4818 66.0411 18.7471 64.965 19.4495C64.7736 19.5705 64.6056 19.6915 64.4396 19.7871C63.8654 20.15 63.4825 20.3666 63.4825 20.3666C63.4825 20.3432 63.6017 19.9081 63.7697 19.3032C63.8165 19.11 63.8888 18.8915 63.9376 18.6749C64.3361 17.2401 63.9376 16.0317 62.7423 15.0496L62.1212 14.517L61.379 13.9121L63.0529 13.8399C64.8458 13.7423 65.3732 13.5979 65.6349 13.0419C65.754 12.7999 66.4005 11.157 66.7579 10.117C66.8536 9.85167 66.8771 9.90045 67.5001 11.5921C67.8107 12.4389 68.1935 13.235 68.338 13.3814C68.6486 13.6721 69.4864 13.8165 71.1603 13.8399L72.379 13.8633H72.381Z" fill="currentColor"/>
</svg>
