<svg width="60" height="60" viewBox="0 0 60 60" fill="none" xmlns="http://www.w3.org/2000/svg">

<path d="M56.8555 1.11639L58.5011 2.76195C60.7686 5.03226 60.4256 9.05692 57.7285 11.7512L23.7937 45.686L12.7991 49.7079C11.4185 50.2155 10.0742 49.5573 9.80085 48.2436C9.70848 47.7671 9.75197 47.2742 9.92636 46.8212L14.0263 35.7318L47.8663 1.88896C50.5634 -0.805296 54.588 -1.15393 56.8555 1.11639ZM22.3127 4.49118C22.679 4.49118 23.0416 4.56332 23.38 4.70349C23.7184 4.84365 24.0259 5.0491 24.2849 5.30809C24.5439 5.56708 24.7493 5.87454 24.8895 6.21293C25.0296 6.55132 25.1018 6.914 25.1018 7.28027C25.1018 7.64654 25.0296 8.00922 24.8895 8.34761C24.7493 8.68599 24.5439 8.99346 24.2849 9.25245C24.0259 9.51144 23.7184 9.71689 23.38 9.85705C23.0416 9.99722 22.679 10.0694 22.3127 10.0694H11.1563C9.67693 10.0694 8.25809 10.6571 7.21198 11.7032C6.16587 12.7493 5.57818 14.1681 5.57818 15.6475V49.1166C5.57818 50.596 6.16587 52.0148 7.21198 53.0609C8.25809 54.1071 9.67693 54.6948 11.1563 54.6948H44.6254C46.1048 54.6948 47.5237 54.1071 48.5698 53.0609C49.6159 52.0148 50.2036 50.596 50.2036 49.1166V37.9602C50.2036 37.2205 50.4974 36.5111 51.0205 35.988C51.5435 35.465 52.253 35.1711 52.9927 35.1711C53.7324 35.1711 54.4418 35.465 54.9648 35.988C55.4879 36.5111 55.7817 37.2205 55.7817 37.9602V49.1166C55.7817 52.0754 54.6064 54.9131 52.5141 57.0053C50.4219 59.0975 47.5842 60.2729 44.6254 60.2729H11.1563C8.1975 60.2729 5.35984 59.0975 3.26762 57.0053C1.1754 54.9131 0 52.0754 0 49.1166V15.6475C0 12.6887 1.1754 9.85102 3.26762 7.7588C5.35984 5.66658 8.1975 4.49118 11.1563 4.49118H22.3127Z" fill="currentColor"/>

</svg>
