<svg width="100" height="100" viewBox="0 0 100 100" fill="none" xmlns="http://www.w3.org/2000/svg">
<path d="M88.4718 64.1154C87.9998 63.3712 87.3307 62.8322 86.5759 62.5177C85.3763 62.0197 83.9622 62.0939 82.7841 62.8439L77.2057 66.3927C76.0257 67.1447 75.3566 68.3947 75.2981 69.6954C75.2903 69.8673 75.2942 70.0392 75.3079 70.2111H88.5517V64.2423L88.4718 64.1154ZM71.6039 68.0743C71.2138 67.715 70.8685 67.3009 70.576 66.8419L69.8328 65.672C69.3569 65.8243 68.8771 65.9689 68.3914 66.1036C67.5078 66.3458 66.6048 66.5568 65.6919 66.7365C46.0875 70.5665 27.0272 57.713 23.2023 38.0841C22.348 33.7013 22.3246 29.3458 23.0209 25.1837H4.54776C2.33395 25.2013 1.90094 25.2521 1.34895 25.547C0.951049 25.754 0.553148 26.1525 0.344444 26.5685C-0.000793457 27.2443 -0.000793457 27.5568 -0.000793457 48.7364V70.2111H71.401C71.3718 69.4923 71.44 68.7716 71.6039 68.0743ZM82.4525 58.7091L82.3901 58.6114L79.6048 54.2228C80.5859 53.3322 81.5046 52.381 82.3609 51.3771C85.1793 48.0763 87.2995 44.2032 88.5498 40.0118C88.542 27.4337 88.4952 27.1349 88.2065 26.5685C87.6175 25.4083 86.9426 25.1837 83.9681 25.1837H79.7375C79.9032 25.7618 80.0437 26.3536 80.1607 26.9552C82.4642 38.7736 74.7344 50.2677 62.93 52.5724C51.1276 54.879 39.6508 47.1407 37.3473 35.3204C36.6685 31.838 36.8616 28.3829 37.7745 25.1837H28.2346C27.4856 29.0118 27.4466 33.0411 28.2365 37.0997C31.5212 53.9493 47.8819 64.9825 64.7089 61.6954C65.493 61.5411 66.2673 61.3595 67.0261 61.1525C68.3134 60.795 69.5617 60.3634 70.7671 59.8575L73.5505 64.2462L73.607 64.3341L73.8704 64.7482C74.5452 65.8146 75.9574 66.129 77.0224 65.4513L82.0117 62.2794C83.0767 61.6017 83.3907 60.1876 82.7139 59.1212L82.4525 58.7091ZM86.256 54.7169C85.9303 55.0978 85.5967 55.4728 85.2554 55.8419L86.0063 57.0275C86.3009 57.4904 86.5252 57.9806 86.6832 58.4806C87.3288 58.6193 87.9568 58.8361 88.5517 59.131V51.7267C87.8398 52.7618 87.0733 53.7599 86.256 54.7169Z" fill="currentColor"/>
<path d="M73.4198 75.4083L79.993 85.7657C74.2819 85.7989 63.7863 85.799 44.2755 85.799C2.29884 85.799 2.05698 85.7989 1.38211 85.4532C0.933494 85.2267 0.570702 84.8634 0.344444 84.4142C0.0343155 83.7892 -0.000793457 83.4083 -0.000793457 79.5646V75.4083H73.4198Z" fill="currentColor"/>
<path d="M88.5518 75.4083V79.5646C88.5518 83.0802 88.5225 83.6993 88.2787 84.2579C88.2572 84.3087 88.2319 84.3615 88.2065 84.4142C87.9803 84.8634 87.6175 85.2267 87.1689 85.4532C86.9231 85.5782 86.7358 85.6583 84.5805 85.7111L78.0444 75.4083H88.5518Z" fill="currentColor"/>
<path d="M28.8806 92.8478L28.4476 94.7189L26.4581 94.8048C25.005 94.8732 24.3125 94.9786 23.9166 95.2032C23.2593 95.5489 22.6546 96.6232 22.6546 97.4025C22.6546 98.2677 23.2593 99.256 24.0375 99.6544C24.7124 100 25.0069 100 44.2739 100C63.5409 100 63.8354 100 64.5103 99.6544C65.2885 99.256 65.8932 98.2697 65.8932 97.4025C65.8932 96.6232 65.2885 95.5489 64.6312 95.2032C64.2333 94.9786 63.5409 94.8751 62.0897 94.8048L60.1002 94.7189L59.6672 92.8478L59.2518 90.9943H29.296L28.8806 92.8478Z" fill="currentColor"/>
<path d="M82.0121 62.2795L77.0227 65.4513C75.9578 66.1291 74.5456 65.8146 73.8707 64.7482L73.6074 64.3342L73.5509 64.2463L70.7675 59.8576L70.7012 59.7521C70.0244 58.6857 70.3384 57.2736 71.4034 56.5959L76.3927 53.422C77.4577 52.7443 78.8699 53.0607 79.5447 54.1271L79.6052 54.2228L82.3905 58.6115L82.4529 58.7092L82.7143 59.1213C83.3911 60.1877 83.0771 61.6017 82.0121 62.2795Z" fill="currentColor"/>
<path d="M98.0865 86.967L92.5081 90.5139C90.5869 91.7365 88.0395 91.1682 86.8205 89.2443L84.5794 85.7111L78.0432 75.4084L75.9367 72.0881C75.5661 71.5021 75.3594 70.8576 75.3067 70.2111C75.293 70.0393 75.2891 69.8674 75.2969 69.6955C75.3555 68.3947 76.0245 67.1447 77.2045 66.3928L82.7829 62.8439C83.961 62.0939 85.3752 62.0197 86.5747 62.5178C87.3296 62.8322 87.9986 63.3713 88.4706 64.1154L88.5506 64.2424L99.3544 81.2717C100.575 83.1935 100.006 85.7443 98.0865 86.967Z" fill="currentColor"/>
<path d="M89.2698 25.1739C85.9871 8.32628 69.6264 -2.70888 52.7995 0.580186C40.0237 3.07628 30.597 13.1192 28.2349 25.1837C27.4859 29.0118 27.4469 33.0411 28.2369 37.0997C31.5215 53.9493 47.8823 64.9825 64.7092 61.6954C65.4933 61.5411 66.2676 61.3595 67.0264 61.1524C68.3137 60.795 69.562 60.3634 70.7674 59.8575C74.0638 58.4747 77.0383 56.5548 79.6051 54.2228C80.5862 53.3321 81.5049 52.381 82.3612 51.3771C85.1796 48.0763 87.2998 44.2032 88.5501 40.0118C89.9467 35.3419 90.2646 30.2794 89.2698 25.1739ZM37.3476 35.3204C36.6688 31.838 36.8619 28.3829 37.7748 25.1837C39.9535 17.5235 46.2516 11.3282 54.5764 9.70128C65.78 7.51183 76.6891 14.3732 79.7378 25.1837C79.9035 25.7618 80.044 26.3536 80.161 26.9552C82.4646 38.7735 74.7347 50.2677 62.9303 52.5724C51.1279 54.879 39.6512 47.1407 37.3476 35.3204Z" fill="currentColor"/>
<path d="M57.825 15.3871C55.6639 15.8578 54.1503 17.5765 53.965 19.7836C53.9338 20.1176 54.1132 21.8734 54.7315 27.4203C55.1762 31.3832 55.5839 34.7777 55.6385 34.9633C55.9525 36.057 56.842 36.9359 57.9167 37.2211C59.5785 37.6547 61.3184 36.7074 61.8313 35.0883C62.0283 34.4828 63.5907 20.4711 63.5419 19.7836C63.3937 17.7426 61.9367 15.975 59.955 15.4554C59.4303 15.3129 58.3243 15.2816 57.825 15.3871Z" fill="currentColor"/>
<path d="M57.7763 39.7875C57.121 39.9613 56.6216 40.2504 56.1281 40.7465C55.2017 41.6742 54.8506 42.9477 55.1705 44.2035C55.3362 44.8656 55.621 45.3715 56.0969 45.8539C57.3511 47.1215 59.2528 47.3129 60.7274 46.3109C62.9939 44.7719 62.7969 41.4008 60.3627 40.0727C59.641 39.684 58.615 39.5727 57.7744 39.7875H57.7763Z" fill="currentColor"/>
</svg>
