<svg width="100" height="100" viewBox="0 0 100 100" fill="none" xmlns="http://www.w3.org/2000/svg">
<path d="M75.0242 58.8812C75.0242 49.1429 75.0281 42.1449 75.0125 37.0746L70.4789 41.5336L70.5081 58.3207C70.5451 84.0902 70.5081 91.7015 70.321 92.3558C70.0403 93.4222 68.865 94.6195 67.6331 95.0863C66.756 95.4222 65.7308 95.4418 37.9967 95.4984C6.75604 95.5531 8.04442 95.5902 6.36427 94.5258C5.48716 93.9633 4.96479 93.2719 4.68412 92.2621C4.5165 91.7015 4.47946 83.098 4.51649 58.3207C4.57302 26.3226 4.59056 25.1078 4.92776 24.4711C5.82241 22.7699 7.01723 21.7972 8.60382 21.4984C9.05211 21.4047 11.3657 21.3304 13.7554 21.3109L18.0649 21.2933L18.1409 24.5082C18.1955 27.5004 18.2345 27.7816 18.6067 28.3246C18.8309 28.641 19.2597 29.016 19.5404 29.1273C19.9321 29.2777 24.7465 29.3343 37.7355 29.2972L55.3907 29.2406L55.8955 28.7718C56.7901 27.9496 56.9207 27.3519 56.9207 24.1722V21.2543L61.737 21.3304L65.7893 21.3773L69.4848 17.7406C67.7267 16.9398 66.5241 16.8051 61.6435 16.8051H56.9207V14.8597C56.9207 12.5785 56.7726 12.0726 55.9501 11.5687C55.3907 11.2308 54.9989 11.1937 51.471 11.1937H47.6078L47.0114 9.92224C46.1908 8.22107 44.2124 6.23864 42.5128 5.41638C40.2557 4.34997 37.0085 3.9945 34.6383 4.57458C31.7828 5.26599 29.0385 7.41638 27.8086 9.92224L27.1926 11.1937H23.4406C18.252 11.1937 18.1039 11.2875 18.1039 14.8597V16.8051H13.4006C9.89219 16.8051 8.37967 16.8793 7.50256 17.0843C3.92006 17.9457 0.933998 20.9379 0.205025 24.434C0.0568909 25.1449 0.000366211 35.2054 0.000366211 58.9554C0.000366211 91.8324 0.000366211 92.5238 0.37265 93.7015C1.30628 96.7133 3.90057 98.975 7.33493 99.7426C8.52975 100.004 11.777 100.024 38.1662 99.9847L67.6526 99.9301L68.902 99.4437C71.1981 98.5453 73.2135 96.9008 74.0906 95.1801C75.0808 93.2152 75.0242 95.2172 75.0242 58.8812ZM22.7681 17.0355C22.7681 16.2953 23.3607 15.6918 24.0994 15.68L26.2025 15.6449C30.3268 15.5707 30.4204 15.5336 31.1864 13.5121C31.8939 11.6058 32.1746 11.1371 33.2193 10.2035C34.5818 8.96911 35.7396 8.557 37.6049 8.63122C38.7061 8.68786 39.3221 8.81872 39.938 9.13708C41.8053 10.0902 42.8675 11.3617 43.4289 13.2504C44.0818 15.5336 44.4171 15.682 48.8786 15.682H50.473C51.4573 15.682 52.2565 16.4828 52.2565 17.4691V22.7347C52.2565 23.9008 51.3131 24.8461 50.1495 24.8461H24.2222C23.4191 24.8461 22.7681 24.1937 22.7681 23.389V17.0355ZM74.9833 31.6293C74.9775 31.1761 74.9736 30.7484 74.9677 30.3441L72.2467 33.0707L70.4672 34.8519V36.0687L74.9833 31.6293ZM72.5878 20.1625L69.3796 23.3168C69.6096 23.6117 69.822 23.9535 70.0403 24.3597L70.0735 24.4203L71.8861 22.6L73.3733 21.1058C73.1453 20.7972 72.8783 20.4769 72.5878 20.1625Z" fill="currentColor"/>
<path d="M70.5091 58.3204L70.4799 41.5333L64.6462 47.2736L54.2651 51.6798C53.6979 51.881 53.1132 51.9786 52.5362 51.9786C51.2323 51.9786 49.9595 51.4806 48.9791 50.5392C47.8681 49.4708 47.3067 48.0001 47.3983 46.5079C40.9038 46.5333 35.5203 46.4962 35.1052 46.4454C33.9104 46.2579 33.0332 45.3595 33.0332 44.295C33.0332 43.3224 33.4815 42.5177 34.2281 42.1622C34.7329 41.92 36.6742 41.8634 48.3553 41.8634H49.1038L52.2828 34.6642L65.7903 21.3771L61.738 21.3302L56.9218 21.254V24.172C56.9218 27.3517 56.7912 27.9493 55.8965 28.7716L55.3917 29.2404L37.7365 29.297C24.7475 29.3341 19.9332 29.2775 19.5414 29.1271C19.2607 29.0157 18.8319 28.6407 18.6077 28.3243C18.2355 27.7814 18.1965 27.5001 18.1419 24.5079L18.0659 21.2931L13.7564 21.3107C11.3667 21.3302 9.05313 21.4044 8.60483 21.4982C7.01824 21.797 5.82342 22.7697 4.92877 24.4708C4.59157 25.1075 4.57403 26.3224 4.51751 58.3204C4.48047 83.0978 4.51751 91.7013 4.68513 92.2618C4.9658 93.2716 5.48817 93.963 6.36528 94.5255C8.04543 95.59 6.75705 95.5528 37.9977 95.4982C65.7318 95.4415 66.7571 95.422 67.6342 95.0861C68.866 94.6193 70.0413 93.422 70.322 92.3556C70.5091 91.7013 70.5462 84.09 70.5091 58.3204ZM24.1686 81.0236C19.1866 85.754 18.7013 86.1095 17.5825 85.6427C17.2648 85.5118 15.8088 84.1642 14.3158 82.6505C12.0938 80.4064 11.5714 79.7696 11.4798 79.2091C11.1991 77.6935 12.0938 76.4591 13.4757 76.4591C14.4659 76.4591 14.8186 76.7032 16.6859 78.6486C17.5065 79.5079 18.216 80.1993 18.2725 80.1993C18.329 80.1993 20.0267 78.629 22.0226 76.7208C24.0205 74.8146 25.9228 73.131 26.223 73.0001C26.987 72.6446 27.4159 72.6642 28.1624 73.0568C28.8348 73.4122 29.4878 74.4025 29.4878 75.0568C29.4878 75.8419 28.7042 76.7208 24.1686 81.0236ZM26.4335 63.5001C27.6186 64.6036 27.6868 66.4591 26.5875 67.6466C26.0105 68.2696 25.227 68.5841 24.4415 68.5841C23.7281 68.5841 23.0147 68.3263 22.4495 67.8009L19.7129 65.256L16.949 67.8673C16.3838 68.4005 15.6607 68.6661 14.9414 68.6661C14.1618 68.6661 13.386 68.3575 12.8091 67.7443C11.702 66.5646 11.7546 64.7091 12.9319 63.5978L15.4112 61.256L12.8227 58.8497C11.6377 57.7462 11.5675 55.8907 12.6688 54.7032C13.77 53.5157 15.6217 53.4454 16.8048 54.547L19.6817 57.2228L22.4904 54.5685C23.6657 53.4591 25.5174 53.5118 26.6284 54.6915C27.7375 55.8712 27.6829 57.7267 26.5056 58.84L23.9834 61.2228L26.4335 63.5001ZM24.1686 44.5568C19.1866 49.2872 18.6818 49.6232 17.5825 49.1759C17.2648 49.045 15.8088 47.6974 14.3158 46.1837C12.0938 43.9396 11.5714 43.3029 11.4798 42.7423C11.1991 41.2267 12.0938 39.9923 13.4757 39.9923C14.4834 39.9923 14.8576 40.254 16.6859 42.1818C17.489 43.0411 18.1965 43.7325 18.2725 43.7325C18.3271 43.7325 20.0267 42.1622 22.0226 40.254C24.0205 38.3478 25.9228 36.6642 26.223 36.5138C26.987 36.1779 27.4159 36.1974 28.1624 36.59C28.8348 36.9454 29.4878 37.9357 29.4878 38.59C29.4878 39.3751 28.7042 40.254 24.1686 44.5568ZM34.2281 60.3771C34.4347 60.2833 40.7791 60.2091 48.3008 60.2091C63.3227 60.1896 62.7633 60.1525 63.3617 61.3126C63.9581 62.4708 63.5293 63.8556 62.4086 64.3986C61.5139 64.8282 34.9746 64.8282 34.154 64.3986C32.6415 63.6114 32.698 60.9943 34.2281 60.3771ZM63.2116 81.9025C62.9699 82.2579 62.5021 82.631 62.1474 82.7618C61.2898 83.0607 35.7211 83.0978 34.6764 82.8185C33.1093 82.3693 32.4933 80.5001 33.5381 79.2657C33.7993 78.9278 34.2105 78.5919 34.4152 78.5177C34.6393 78.4239 40.9097 78.3478 48.3553 78.3478L61.9057 78.3302L62.5391 78.7599C63.6969 79.545 63.9581 80.7794 63.2116 81.9025ZM62.9036 42.4532C62.9738 42.5118 63.0381 42.5743 63.0966 42.6368C63.1317 42.6739 63.1648 42.7111 63.196 42.7501C63.2155 42.7736 63.235 42.7989 63.2545 42.8243C63.2662 42.84 63.2779 42.8556 63.2876 42.8712C63.309 42.8986 63.3285 42.9279 63.348 42.9572H63.35C63.3656 42.9825 63.3792 43.006 63.3929 43.0314L70.4701 36.0685V34.8517L62.8919 42.4435C62.8958 42.4474 62.8997 42.4513 62.9036 42.4532ZM55.9258 46.4689C55.8264 46.4689 55.725 46.4689 55.6236 46.4708C54.7894 46.4767 53.8577 46.4806 52.8149 46.4864C52.6473 46.4864 52.4777 46.4865 52.3043 46.4884C52.1308 46.4884 51.9554 46.4884 51.7761 46.4904C51.6299 46.4904 51.4817 46.4904 51.3317 46.4904C51.0763 47.4591 52.01 48.3341 52.965 47.9962L56.5729 46.4611C56.5027 46.4611 56.4325 46.463 56.3624 46.463C56.2961 46.463 56.2279 46.463 56.1616 46.463C56.0836 46.463 56.0057 46.463 55.9258 46.465V46.4689ZM70.0413 24.3595C69.823 23.9532 69.6106 23.6114 69.3806 23.3165L55.5457 36.9279L53.3665 41.8634H55.7016C55.8224 41.4845 55.953 41.0802 56.0914 40.6642L57.1888 37.3361L61.4437 33.0704L69.2734 25.2247L70.0745 24.42L70.0413 24.3595Z" fill="currentColor"/>
<path d="M91.6638 15.2168L91.3383 15.5371L74.9832 31.6289L70.469 36.0684L63.3917 43.0312L62.4406 43.9668L56.5717 46.4629L52.9639 47.998C52.0088 48.3359 51.0752 47.4609 51.3305 46.4922C51.3344 46.4746 51.3383 46.459 51.3442 46.4414L53.3654 41.8633L55.5446 36.9277L69.3795 23.3164L72.5877 20.1621L84.4423 8.49805L85.0115 7.93945L91.6677 14.7363C91.8003 14.8691 91.7983 15.0859 91.6638 15.2168Z" fill="currentColor"/>
<path d="M99.1719 7.83216L94.6772 12.254L94.1198 12.8009L87.2238 5.76185L87.791 5.20325L92.2759 0.793098C93.3655 -0.279167 95.1158 -0.261589 96.1858 0.830208L99.207 3.91224C100.277 5.00599 100.261 6.75989 99.1719 7.83216Z" fill="currentColor"/>
</svg>
