<svg width="30" height="30" viewBox="0 0 30 30" fill="none" xmlns="http://www.w3.org/2000/svg">
<path d="M15 2.34375C12.4968 2.34375 10.0499 3.08603 7.96857 4.47671C5.88726 5.8674 4.26508 7.84404 3.30716 10.1567C2.34923 12.4693 2.0986 15.014 2.58694 17.4691C3.07529 19.9242 4.28068 22.1793 6.05069 23.9493C7.82069 25.7193 10.0758 26.9247 12.5309 27.4131C14.986 27.9014 17.5307 27.6508 19.8433 26.6929C22.156 25.7349 24.1326 24.1127 25.5233 22.0314C26.914 19.9501 27.6563 17.5032 27.6563 15C27.6525 11.6445 26.3179 8.42749 23.9452 6.05479C21.5725 3.68209 18.3555 2.34747 15 2.34375ZM15 24.2578C13.9638 23.0451 13.1544 21.6558 12.6106 20.1562H17.3941C17.0846 21.0042 16.6921 21.8195 16.2223 22.5902C15.8607 23.1783 15.452 23.736 15 24.2578ZM11.8957 17.3438C11.6636 15.7899 11.6636 14.2101 11.8957 12.6562H18.1066C18.3387 14.2101 18.3387 15.7899 18.1066 17.3438H11.8957ZM5.15626 15C5.15623 14.2101 5.25185 13.4231 5.44102 12.6562H9.05274C8.8574 14.2126 8.8574 15.7874 9.05274 17.3438H5.44102C5.25185 16.5769 5.15623 15.7899 5.15626 15ZM15 5.74219C16.0362 6.95489 16.8456 8.34424 17.3895 9.84375H12.6082C12.9178 8.99582 13.3103 8.18054 13.7801 7.40977C14.1409 6.82176 14.5488 6.26406 15 5.74219ZM20.9449 12.6562H24.5566C24.9364 14.1957 24.9364 15.8043 24.5566 17.3438H20.9473C21.1426 15.7874 21.1426 14.2126 20.9473 12.6562H20.9449ZM23.3789 9.84375H20.3566C19.9344 8.42622 19.3234 7.0719 18.5402 5.81719C20.549 6.59691 22.2487 8.0106 23.3813 9.84375H23.3789ZM11.4598 5.81719C10.6766 7.0719 10.0656 8.42622 9.64337 9.84375H6.61876C7.75134 8.0106 9.45098 6.59691 11.4598 5.81719ZM6.61876 20.1562H9.64337C10.0656 21.5738 10.6766 22.9281 11.4598 24.1828C9.45098 23.4031 7.75134 21.9894 6.61876 20.1562ZM18.5402 24.1828C19.3234 22.9281 19.9344 21.5738 20.3566 20.1562H23.3813C22.2487 21.9894 20.549 23.4031 18.5402 24.1828Z" fill="currentColor"/>
</svg>
