<svg width="100" height="100" viewBox="0 0 100 100" fill="none" xmlns="http://www.w3.org/2000/svg">
<path d="M66.278 31.3297C66.0671 31.4214 64.6101 32.787 63.0495 34.3799C60.946 36.5271 60.0007 37.3704 59.4441 37.6295C58.7234 37.9665 58.5124 37.9824 53.3601 38.0741C47.698 38.1499 47.7585 38.1499 46.1355 38.9792C45.6999 39.2085 43.7468 41.0805 40.3386 44.5594C35.9382 49.037 35.1862 49.8783 35.0222 50.4306C34.737 51.4732 35.0066 52.1471 36.0886 53.0681C37.3054 54.0948 38.3718 54.5095 40.0984 54.5853C42.1862 54.677 43.1628 54.2942 45.2058 52.5917C48.1042 50.1854 50.8386 50.0319 54.0827 52.0853C56.2312 53.4489 57.612 53.8935 59.6706 53.8935C61.7292 53.8935 63.4851 53.2336 64.987 51.8401L65.8581 51.0426L73.5339 58.8775C77.7702 63.2017 81.2683 66.7264 81.3444 66.7264C81.405 66.7264 81.4343 65.6678 81.4187 64.3799C81.3581 61.1762 81.2683 61.3436 85.2038 57.2966C87.8327 54.5992 88.3425 53.9852 88.4323 53.5107C88.6726 52.2228 89.0026 52.6216 78.3991 41.7523C72.6472 35.8811 68.2448 31.4952 67.9753 31.3736C67.4187 31.1283 66.819 31.1124 66.278 31.3277V31.3297Z" fill="currentColor"/>
<path d="M31.8071 31.7583C31.5668 31.9118 26.9555 36.557 21.5629 42.0613C12.8207 51.0306 11.77 52.1491 11.6645 52.6714C11.4536 53.8516 11.7387 54.2962 14.3676 57.0554C15.7036 58.4509 17.0258 59.8923 17.2817 60.2452C17.8832 61.0267 18.8129 63.0362 19.2797 64.5374L19.6098 65.6419L20.4965 64.8145C21.518 63.8795 22.7192 63.1897 23.9809 62.8209C25.2133 62.4521 27.5707 62.5597 28.7719 63.0362C30.725 63.8177 32.5414 65.5821 33.1586 67.2826C33.309 67.6973 33.4731 68.0801 33.52 68.1419C33.5805 68.2037 34.1059 68.0801 34.7075 67.8668C35.9243 67.4381 37.6957 67.3464 39.018 67.6515C41.7524 68.2794 44.2289 70.8253 44.8149 73.6303C45.0551 74.7946 44.9204 77.0334 44.5297 78.1538C44.35 78.6443 44.2446 79.1048 44.3188 79.1507C44.3793 79.2125 44.7387 79.3799 45.145 79.5195C47.518 80.4246 49.4711 83.1538 49.7407 85.9748L49.8305 86.8939L50.8071 87.0015C52.9848 87.2168 54.2016 87.9664 57.0395 90.8034C58.1957 91.9676 59.352 93.0103 59.5922 93.1339C61.1547 93.9314 63.0766 93.3333 63.9633 91.7842C64.4731 90.8951 64.5493 89.4995 64.1137 88.6562C63.9633 88.3652 62.4321 86.6626 60.7036 84.9003C58.9907 83.1219 57.5043 81.4812 57.4301 81.236C56.7387 79.3799 58.3012 77.6495 60.2231 78.1538C60.4926 78.2156 61.7993 79.4417 63.8735 81.5271C65.645 83.3213 67.3422 84.9162 67.6293 85.0538C68.9653 85.7595 70.9028 85.1913 71.7895 83.8576C72.3754 82.9684 72.5258 82.1411 72.27 81.0984C72.1039 80.3468 71.9086 80.1176 68.8149 76.9138C67.0121 75.0438 65.4653 73.3412 65.3754 73.112C64.6996 71.2559 66.2621 69.5394 68.184 70.0298C68.4536 70.0916 69.7758 71.3177 71.9086 73.4649C75.4536 77.0514 75.6782 77.2208 77.1352 77.2049C78.1567 77.1889 79.1469 76.6227 79.7485 75.7336C80.3793 74.7687 80.5141 73.8476 80.1684 72.7292C79.9282 71.9019 79.6274 71.5789 72.8246 64.6351L65.7504 57.3983L64.4282 58.0582C62.6411 58.9633 61.0942 59.2842 58.9008 59.1925C56.2114 59.0849 54.1704 58.2416 51.9926 56.3716C50.3246 54.9142 49.4692 54.9142 47.8481 56.3416C45.6996 58.2436 43.6567 59.0709 40.8032 59.1925C38.6704 59.2683 37.1528 58.9633 35.3657 58.0582C31.8813 56.3097 30.0629 53.3512 30.5141 50.1176C30.8149 47.9565 31.1293 47.5119 35.9809 42.5438L40.3676 38.0522L37.1235 34.7707L33.895 31.4752H33.0844C32.5278 31.4752 32.1079 31.5669 31.8071 31.7663V31.7583Z" fill="currentColor"/>
<path d="M25.3796 67.2049C24.3874 67.4342 24.0573 67.7113 21.1296 70.7456C17.9753 73.9952 17.8405 74.2105 17.946 75.7735C18.0671 77.4302 19.2526 78.6403 20.9206 78.7938C22.4225 78.9314 22.6628 78.7938 25.862 75.5582C27.6803 73.734 28.8659 72.4003 29.0456 72.0175C29.4069 71.22 29.4069 69.9023 29.0456 69.1048C28.444 67.7412 26.7917 66.8819 25.3815 67.2029L25.3796 67.2049Z" fill="currentColor"/>
<path d="M36.4637 72.0793C36.2235 72.1411 35.8172 72.3085 35.5633 72.4481C35.3231 72.5717 33.1161 74.7487 30.6668 77.2627C25.7996 82.2607 25.786 82.2767 25.9051 83.9015C26.0262 85.5721 27.1961 86.7683 28.8485 86.9218C29.9305 87.0241 32.1082 85.4093 35.3817 82.0773C37.95 79.4716 39.993 77.2786 40.1727 76.9258C40.5477 76.1901 40.5926 74.8863 40.2625 74.0749C39.9168 73.2475 39.0008 72.4341 38.1454 72.173C37.3192 71.9278 37.1532 71.9118 36.4637 72.0813V72.0793Z" fill="currentColor"/>
<path d="M40.5177 83.732C39.6017 84.1606 34.2247 89.7886 33.9845 90.5542C33.6993 91.4433 33.879 92.8388 34.3458 93.5745C35.172 94.8325 36.84 95.4146 38.2814 94.9381C39.0333 94.6929 44.545 89.1885 44.965 88.2695C45.5353 87.0115 45.2208 85.2491 44.2599 84.3301C43.3146 83.4409 41.6915 83.1798 40.5197 83.732H40.5177Z" fill="currentColor"/>
<path d="M48.4792 91.856C47.6081 92.2707 45.3698 94.693 45.1296 95.4904C44.7683 96.7623 44.9948 97.8668 45.821 98.8018C46.8425 99.9521 48.3894 100.319 49.6804 99.7069C50.5358 99.3082 52.8191 96.856 53.0593 96.0885C53.6003 94.3859 52.864 92.5777 51.3327 91.858C50.5515 91.4892 49.2605 91.4892 48.4792 91.858V91.856Z" fill="currentColor"/>
<path d="M70.873 26.1643L95.0351 50.5264C96.8769 52.3844 100.002 51.0527 100.002 48.4091V12.6276C100.002 9.20859 90.9003 3.18386 87.8124 4.50564L72.3554 18.3513C69.2734 19.6711 68.496 23.768 70.8749 26.1663L70.873 26.1643Z" fill="currentColor"/>
<path d="M29.127 26.1642L4.9668 50.5262C3.12305 52.3843 0 51.0526 0 48.409V12.6275C0 9.20845 9.10156 3.18174 12.1895 4.50351L27.6465 18.3492C30.7285 19.669 31.5059 23.7659 29.127 26.1642Z" fill="currentColor"/>
<path d="M49.0544 0.257124C48.0564 0.831286 48.0134 1.14827 47.9939 7.43615C47.9939 11.238 48.0779 13.5107 48.2224 13.8297C48.4724 14.4039 49.4294 15.0398 50.0544 15.0398C50.7419 15.0398 51.449 14.6152 51.8025 13.9772C52.115 13.4669 52.156 12.6176 52.156 7.51988C52.156 3.44094 52.072 1.50912 51.906 1.12634C51.449 0.107602 50.074 -0.317039 49.0544 0.25513V0.257124Z" fill="currentColor"/>
<path d="M29.2436 6.94772C28.1206 8.09406 28.2651 8.54063 31.5737 13.8935C33.1968 16.5051 34.7573 18.8636 35.0483 19.0968C35.7983 19.6909 37.0874 19.5434 37.7319 18.7579C38.6675 17.6535 38.4819 17.1232 35.2768 11.9397C33.6753 9.32811 32.1147 6.99158 31.8218 6.75634C31.0307 6.11838 29.9897 6.2041 29.2417 6.94772H29.2436Z" fill="currentColor"/>
<path d="M68.3225 6.75627C68.0314 6.98952 66.4709 9.32605 64.8674 11.9397C61.6623 17.1231 61.4748 17.6534 62.4123 18.7579C63.0568 19.5434 64.3479 19.6929 65.0959 19.0968C65.3869 18.8635 66.9475 16.5051 68.5705 13.8934C70.9631 10.0059 71.5041 9.00906 71.5041 8.34917C71.5041 6.71441 69.59 5.73753 68.3205 6.75627H68.3225Z" fill="currentColor"/>
</svg>
