<svg width="100" height="100" viewBox="0 0 100 100" fill="none" xmlns="http://www.w3.org/2000/svg">
<path d="M1.52284 0.410156C1.0738 0.644531 0.624756 1.09375 0.390472 1.5625C0 2.32422 0 2.61719 0 50C0 97.3828 0 97.6758 0.390472 98.4375C0.64428 98.9453 1.05428 99.3555 1.56189 99.6094C2.32331 100 2.65521 100 25.7517 100H49.18L48.4967 98.5742C47.6637 96.8164 47.2472 90.7812 47.2472 80.4688C47.2472 68.9648 47.3057 66.2695 47.54 65.1367C48.4967 60.6055 52.3038 56.6406 56.8528 55.4883L58.2585 55.1367L58.5904 54.1211C59.6642 50.9766 62.1437 48.125 65.0332 46.6992C66.8879 45.8008 68.8989 45.3125 70.8903 45.3125H72.2374V17.5781H64.6037C57.048 17.5781 56.9504 17.5781 56.189 17.1484C54.6661 16.2891 54.6661 16.2695 54.6661 7.61719V0H28.4654C2.75283 0.0195312 2.22569 0.0195312 1.52284 0.410156ZM38.9301 12.3047C41.1363 12.8711 42.6396 13.7305 44.3186 15.4297C46.0172 17.1094 46.8762 18.6133 47.4424 20.8203C48.3014 24.1797 47.54 27.9492 45.4315 30.7031L44.7481 31.6016L45.9 32.3242C48.8286 34.1211 51.3081 36.9336 52.8309 40.1367C54.0219 42.6562 54.4904 44.6875 54.6076 47.8516C54.7052 50.293 54.6857 50.5664 54.2952 51.3281C54.0219 51.875 53.6314 52.2656 53.1043 52.5391C52.3624 52.9297 51.9914 52.9297 36.1187 52.9297C20.246 52.9297 19.875 52.9297 19.1332 52.5391C18.606 52.2656 18.2155 51.875 17.9422 51.3281C17.5517 50.5469 17.5322 50.293 17.6298 47.7539C17.7665 44.5703 18.157 42.7734 19.2893 40.3516C20.8317 37.0898 23.0183 34.5312 25.9469 32.5977L27.4697 31.582L26.7864 30.6836C25.3417 28.7891 24.4241 26.0156 24.4045 23.5156C24.4045 21.9727 25.0098 19.6289 25.8102 18.1055C26.6302 16.543 28.9926 14.1797 30.5935 13.3203C33.1706 11.9531 36.1773 11.6016 38.9301 12.3047ZM17.9617 59.1797C18.8403 59.6289 19.5236 60.7422 19.5236 61.7188C19.5236 62.6953 18.8403 63.8086 17.9617 64.2578C17.3175 64.5898 16.8098 64.6484 14.6232 64.6484C12.4365 64.6484 11.9875 64.6094 11.2847 64.2188C9.31277 63.1055 9.29324 60.4297 11.2456 59.2578C11.9485 58.8281 12.2218 58.7891 14.6037 58.7891C16.8098 58.7891 17.3175 58.8477 17.9617 59.1797ZM43.3424 59.1797C44.221 59.6289 44.9043 60.7422 44.9043 61.7188C44.9043 62.6953 44.221 63.8086 43.3424 64.2578C42.6201 64.6289 42.2101 64.6484 35.123 64.6484C28.0359 64.6484 27.665 64.6484 26.9036 64.2188C24.9317 63.1055 24.9121 60.4297 26.8645 59.2578L27.6259 58.7891H35.1035C42.2101 58.7891 42.6201 58.8086 43.3424 59.1797ZM17.9617 70.8984C18.8403 71.3477 19.5236 72.4609 19.5236 73.4375C19.5236 74.4141 18.8403 75.5273 17.9617 75.9766C17.3175 76.3086 16.8098 76.3672 14.6232 76.3672C12.4365 76.3672 11.9875 76.3281 11.2847 75.9375C9.31277 74.8242 9.29324 72.1484 11.2456 70.9766C11.9485 70.5469 12.2218 70.5078 14.6037 70.5078C16.8098 70.5078 17.3175 70.5664 17.9617 70.8984ZM43.3424 70.8984C44.221 71.3477 44.9043 72.4609 44.9043 73.4375C44.9043 74.4141 44.221 75.5273 43.3424 75.9766C42.6201 76.3477 42.2101 76.3672 35.123 76.3672C28.0359 76.3672 27.665 76.3672 26.9036 75.9375C24.9317 74.8242 24.9121 72.1484 26.8645 70.9766L27.6259 70.5078H35.1035C42.2101 70.5078 42.6201 70.5273 43.3424 70.8984ZM17.9617 82.6172C18.8403 83.0664 19.5236 84.1797 19.5236 85.1562C19.5236 86.1328 18.8403 87.2461 17.9617 87.6953C17.3175 88.0273 16.8098 88.0859 14.6232 88.0859C12.4365 88.0859 11.9875 88.0469 11.2847 87.6562C9.31277 86.543 9.29324 83.8672 11.2456 82.6953C11.9485 82.2656 12.2218 82.2266 14.6037 82.2266C16.8098 82.2266 17.3175 82.2852 17.9617 82.6172ZM43.3424 82.6172C44.221 83.0664 44.9043 84.1797 44.9043 85.1562C44.9043 86.1328 44.221 87.2461 43.3424 87.6953C42.6201 88.0664 42.2101 88.0859 35.123 88.0859C28.0359 88.0859 27.665 88.0859 26.9036 87.6562C24.9317 86.543 24.9121 83.8672 26.8645 82.6953L27.6259 82.2266H35.1035C42.2101 82.2266 42.6201 82.2461 43.3424 82.6172Z" fill="currentColor"/>
<path d="M34.2253 18.125C29.3249 19.8828 28.9149 26.5625 33.542 28.8477C35.1234 29.6289 37.1148 29.6289 38.6962 28.8477C40.7852 27.8125 41.8786 26.0352 41.8786 23.6328C41.8786 21.9727 41.4686 20.8594 40.4338 19.668C39.0281 18.086 36.2753 17.3828 34.2253 18.125Z" fill="currentColor"/>
<path d="M33.386 35.664C31.1603 36.1327 29.0127 37.3437 27.2361 39.1405C25.1275 41.2499 24.0147 43.3984 23.5266 46.328L23.4094 47.0702H48.8292L48.712 46.328C48.224 43.3984 47.1111 41.2499 45.0026 39.1405C43.7726 37.8905 43.0892 37.3827 41.7812 36.7382C39.0674 35.4101 36.2364 35.039 33.386 35.664Z" fill="currentColor"/>
<path d="M60.5236 6.05445V11.7185H66.1854C70.5782 11.7185 71.8473 11.6599 71.8473 11.4646C71.8473 11.0935 71.3397 9.57007 70.9102 8.59351C69.4068 5.2146 66.0097 2.0896 62.5345 0.859136C60.3283 0.0778856 60.5236 -0.429927 60.5236 6.05445Z" fill="currentColor"/>
<path d="M68.7821 51.4453C66.7711 52.0899 65.3459 53.3594 64.4478 55.2735C64.0183 56.1914 63.9402 56.6797 63.8816 58.6328L63.8035 60.8984L61.0312 60.9766C58.376 61.0352 58.2198 61.0547 56.9703 61.6797C55.467 62.4219 54.4322 63.4766 53.7098 65.0195C53.2413 66.0352 53.2022 66.3281 53.1437 69.375L53.0656 72.6563H100L99.9222 69.375C99.8637 66.1328 99.8637 66.0938 99.2194 64.8047C98.4775 63.3008 97.4232 62.2656 95.8809 61.543C94.8852 61.0938 94.5142 61.0352 92.0347 60.9766L89.2624 60.8984L89.1843 58.6328C89.1257 56.6797 89.0476 56.1914 88.5985 55.2539C87.8957 53.7109 86.861 52.6563 85.3576 51.9141L84.0495 51.2695L76.8258 51.2305C71.242 51.1914 69.4068 51.25 68.7821 51.4453ZM83.0538 57.3438C83.2881 57.5781 83.3662 58.0469 83.3662 59.2969V60.9375H69.6997V59.2969C69.6997 58.0469 69.7778 57.5781 70.0121 57.3438C70.2659 57.0703 71.1444 57.0313 76.5329 57.0313C81.9215 57.0313 82.8 57.0703 83.0538 57.3438Z" fill="currentColor"/>
<path d="M53.1437 86.6797L53.2022 94.8242L53.8465 96.1328C54.5884 97.6367 55.6427 98.6719 57.185 99.3945L58.2784 99.9023H94.7875L95.8809 99.3945C97.4232 98.6719 98.4775 97.6367 99.2194 96.1328L99.8637 94.8242L99.9223 86.6797L99.9808 78.5156H89.2233V80.2734C89.2233 82.4609 88.8328 83.3789 87.6614 83.9844C86.6657 84.4922 85.8457 84.4727 84.8891 83.9453C83.7176 83.2812 83.3662 82.4219 83.3662 80.2734V78.5156H69.6997V80.2734C69.6997 82.4609 69.3092 83.3789 68.1378 83.9844C67.1421 84.4922 66.3221 84.4727 65.3654 83.9453C64.194 83.2812 63.8426 82.4219 63.8426 80.2734V78.5156H53.0851L53.1437 86.6797Z" fill="currentColor"/>
</svg>
