<svg width="30" height="30" viewBox="0 0 30 30" fill="none" xmlns="http://www.w3.org/2000/svg">
<path d="M9.82437 0.0613825C8.3163 0.255383 6.81448 0.881191 5.55046 1.83868C3.8046 3.15913 2.67824 4.94269 2.14634 7.20811C2.00868 7.7776 2.00868 7.83392 1.9899 15.9006L1.96675 23.3283C1.9655 23.7094 1.66389 24.0217 1.2828 24.0361C0.550665 24.0549 0.406741 24.1112 0.131409 24.4867C0.00625755 24.6494 0 24.737 0 26.3954V28.1289L0.23153 28.6045C0.51312 29.174 0.876058 29.5244 1.45801 29.7998L1.87727 30.0001H28.0964L28.5157 29.7998C29.0977 29.5244 29.4606 29.174 29.7422 28.6045L29.9737 28.1289L29.9925 26.4893C30.0175 24.6431 29.9987 24.543 29.592 24.2364C29.373 24.0674 29.3167 24.0549 28.6847 24.0361C28.3073 24.0223 28.0082 23.7126 28.007 23.3346L27.9838 15.9006C27.965 7.86521 27.965 7.7776 27.8336 7.21437C27.5208 5.90643 27.0264 4.76746 26.3318 3.79746C25.8938 3.17791 24.9426 2.20165 24.3482 1.76358C23.1217 0.856159 21.5886 0.242867 20.0868 0.0613825C19.4047 -0.0199726 10.4814 -0.0199726 9.82437 0.0613825ZM13.9856 24.0236H6.91335C5.28952 24.0236 3.97355 22.7075 3.97355 21.0835V16.2448C3.97355 7.82766 3.97355 7.91528 4.31772 6.85766C5.12494 4.3732 7.31509 2.49578 9.85566 2.089C10.6629 1.96384 19.2232 1.95758 20.0555 2.089C21.526 2.30803 22.8651 2.99017 23.9352 4.0603C25.0302 5.16172 25.7123 6.53224 25.9376 8.09676C25.9751 8.36586 26.0002 11.4824 26.0002 16.2761V21.5754C26.0002 22.9278 24.9045 24.0236 23.5522 24.0236H15.9881" fill="currentColor"/>
<path d="M16.6713 24.3759V21.3845V18.3931L17.8102 18.3556C19.1556 18.3181 19.8126 18.1804 20.7638 17.7298C21.7963 17.2417 22.6536 16.5533 23.3106 15.6897C23.7486 15.1139 24.2743 14.0187 24.4745 13.274C24.6309 12.6733 24.6372 12.5856 24.6435 10.9773L24.6497 9.31267L24.4933 9.1437C24.4057 9.04983 24.2805 8.9497 24.2117 8.91841C24.1429 8.88712 23.3669 8.8746 22.4909 8.88712C21.0141 8.90589 20.8514 8.91841 20.2819 9.06861C19.5874 9.25009 18.6863 9.66312 18.1168 10.0449C16.6588 11.0336 15.5575 12.7609 15.2947 14.4631C15.1445 15.4018 15.182 15.3705 14.8566 14.9262C14.2058 14.025 13.1108 13.08 12.1346 12.5731C10.6891 11.8222 9.53145 11.5656 7.37259 11.5093C5.24502 11.4529 5.32011 11.3716 5.36391 13.7121C5.3952 15.4581 5.439 15.7835 5.78943 16.8286C6.82193 19.9326 9.50016 22.2043 12.7291 22.7237C13.067 22.7738 13.724 22.8176 14.2434 22.8176H15.1695V23.5999V24.3821M22.3469 10.364H23.1792V11.1901C23.1792 12.5043 22.9915 13.3178 22.4721 14.244C22.1154 14.8761 21.1893 15.8086 20.551 16.1653C19.7813 16.5971 18.7989 16.8724 18.0167 16.8724H17.7038L18.6299 15.9462C19.4622 15.1139 19.5623 14.9888 19.5936 14.7635C19.6562 14.2816 19.262 13.8873 18.7801 13.9499C18.5549 13.9812 18.4297 14.0813 17.5974 14.9137L16.6713 15.8399V15.5269C16.6713 14.7447 16.9467 13.7622 17.3784 12.9924C17.7351 12.3541 18.6612 11.4279 19.2995 11.0712C19.8377 10.7708 20.5322 10.5267 21.1142 10.4329C21.3395 10.3953 21.8964 10.364 22.3469 10.364ZM6.84696 12.9924L7.67295 12.9987C8.68668 13.0049 9.41256 13.1113 10.1697 13.3679C11.9907 13.9749 13.5363 15.3017 14.3811 16.9851C14.8191 17.8612 15.1695 19.1879 15.1695 20.0015V20.2768L13.9618 19.0753L12.7541 17.8737H12.4662C11.9719 17.8737 11.6215 18.2993 11.7153 18.7874C11.7341 18.9188 12.0845 19.3131 12.9043 20.1392L14.0682 21.3157H13.749C13.5738 21.3157 13.1859 21.2719 12.8792 21.2218C9.82556 20.6899 7.47271 18.3368 6.94082 15.2829C6.89076 14.9637 6.84696 14.3629 6.84696 13.8623V12.9924Z" fill="currentColor"/>
</svg>
