<svg width="30" height="30" viewBox="0 0 30 30" fill="none" xmlns="http://www.w3.org/2000/svg">
<path d="M28.5 6.66667H19.5C19.1022 6.66667 18.7206 6.84226 18.4393 7.15482C18.158 7.46738 18 7.89131 18 8.33333V13.3333H15V1.66667C15 1.22464 14.842 0.800716 14.5607 0.488155C14.2794 0.175595 13.8978 0 13.5 0H1.5C1.10218 0 0.720644 0.175595 0.43934 0.488155C0.158035 0.800716 0 1.22464 0 1.66667V28.3333C0 28.7754 0.158035 29.1993 0.43934 29.5118C0.720644 29.8244 1.10218 30 1.5 30H28.5C28.8978 30 29.2794 29.8244 29.5607 29.5118C29.842 29.1993 30 28.7754 30 28.3333V8.33333C30 7.89131 29.842 7.46738 29.5607 7.15482C29.2794 6.84226 28.8978 6.66667 28.5 6.66667ZM9 5H12V8.33333H9V5ZM6 21.6667H3V18.3333H6V21.6667ZM6 15H3V11.6667H6V15ZM6 8.33333H3V5H6V8.33333ZM12 21.6667H9V18.3333H12V21.6667ZM12 15H9V11.6667H12V15ZM25.5 21.6667H22.5V18.3333H25.5V21.6667ZM25.5 15H22.5V11.6667H25.5V15Z" fill="currentColor"/>
</svg>
