<svg width="60" height="60" viewBox="0 0 60 60" fill="none" xmlns="http://www.w3.org/2000/svg">
<path d="M5.71991 2.2282C4.50215 2.54774 3.75731 2.98563 2.79965 3.94425C1.842 4.90287 1.40455 5.64846 1.08533 6.91479C0.8607 7.76689 0.848877 8.22845 0.848877 13.7553C0.848877 20.371 0.872523 20.5485 1.64101 22.0397C2.43314 23.5545 3.88736 24.7262 5.63715 25.2706C6.31105 25.4718 7.07954 25.4836 19.9665 25.4836H33.5865L33.9175 25.2351C34.5323 24.7735 34.8042 24.2528 34.7451 23.6137C34.6978 23.1285 34.4614 22.7024 32.8416 20.2763L30.9973 17.4951V12.7375C30.9973 7.44735 30.9381 6.95029 30.2642 5.56562C29.7913 4.607 28.6209 3.37618 27.675 2.84361C27.2967 2.63058 26.5873 2.35838 26.0789 2.2282C25.204 2.00334 24.7666 1.9915 15.8758 2.00334C7.11501 2.00334 6.53569 2.01517 5.71991 2.2282ZM22.3665 8.87937C23.5843 9.49478 23.7144 11.057 22.6266 11.8736C22.3193 12.0984 22.0946 12.1103 16.1595 12.1458C12.7782 12.1576 9.89339 12.1458 9.75152 12.1103C9.29042 12.0038 8.66381 11.3528 8.53376 10.8558C8.2973 9.98 8.81751 8.99771 9.66875 8.73735C9.85792 8.69001 12.6718 8.63084 15.9231 8.63084C21.8345 8.619 21.8463 8.619 22.3665 8.87937ZM16.8098 15.566C17.3773 15.9211 17.6374 16.4063 17.6374 17.1282C17.6374 17.6726 17.5901 17.791 17.1763 18.2407L16.7034 18.7378L13.2038 18.7733C9.77516 18.8088 9.6924 18.7969 9.2786 18.5484C8.85298 18.288 8.41553 17.5425 8.41553 17.0809C8.41553 16.6785 8.85298 15.8619 9.17219 15.6489C9.71605 15.3057 10.1771 15.2583 13.322 15.282C16.2541 15.3057 16.4196 15.3175 16.8098 15.566Z" fill="currentColor"/>
<path d="M23.9995 33.9997C23.9995 35.6025 24.4021 38.2167 23.9055 39.909C23.5154 41.2109 22.7114 42.8677 22.0139 43.8027L21.4937 44.4891L22.4513 45.211C25.1115 47.1638 28.6338 50.3355 29.6506 53.3652L29.9343 54.1937L43.1878 54.2292L56.4294 54.2528L56.4767 55.5428C56.5122 56.9275 56.6186 57.2115 57.2925 57.7086C58.0492 58.2767 59.2551 57.9808 59.7398 57.105L59.9999 56.6435V45.7436C59.9999 35.0449 59.9999 34.8201 59.7635 34.3703C59.6098 34.0626 59.3615 33.8141 59.0541 33.6603C58.593 33.4236 58.392 33.4236 41.8518 33.4236C25.3116 33.4236 23.9995 32.9996 23.9995 33.9997Z" fill="currentColor"/>
<path d="M47.5244 21.6834C54.228 21.6834 58.1295 26.583 58.6143 29.9796C58.658 30.279 58.4263 30.5477 58.1236 30.5477H36.9252C36.6225 30.5477 36.3908 30.279 36.4345 29.9796C36.9193 26.583 40.8208 21.6834 47.5244 21.6834Z" fill="currentColor"/>
<path d="M45.6316 8.3432C42.9005 9.00595 40.8315 11.6096 40.8315 14.3908C40.8315 17.8821 43.6217 20.6988 47.0977 20.6988C49.4741 20.6988 51.6613 19.3496 52.6781 17.2548C53.5884 15.3731 53.6003 13.5387 52.6899 11.6096C52.2761 10.722 50.8219 9.26632 49.9115 8.82843C48.5519 8.17751 47.0267 7.99999 45.6316 8.3432Z" fill="currentColor"/>
<path d="M0.608948 57.363C0.237709 57.363 -0.047223 57.034 0.00716232 56.6659C0.601854 52.4989 5.38776 46.4868 13.6129 46.4868C21.8381 46.4868 26.624 52.4977 27.2187 56.6659C27.2719 57.034 26.9882 57.363 26.6169 57.363" fill="currentColor"/>
<path d="M11.2908 30.1205C7.94023 30.9335 5.40186 34.1277 5.40186 37.5409C5.40186 41.8239 8.82577 45.2797 13.0903 45.2797C16.0058 45.2797 18.6896 43.624 19.9369 41.0546C21.0542 38.7457 21.0684 36.4947 19.9511 34.1289C19.4439 33.0401 17.6586 31.2542 16.5426 30.7169C14.8744 29.9181 13.0028 29.7003 11.292 30.1216L11.2908 30.1205Z" fill="currentColor"/>

</svg>
