<svg width="30" height="30" viewBox="0 0 30 30" fill="none" xmlns="http://www.w3.org/2000/svg">
<path d="M11.4286 5.71427H17.1429V2.85713H11.4286V5.71427ZM22.8571 29.9999C20.8809 29.9999 19.1967 29.3032 17.8043 27.9099C16.4119 26.5166 15.7152 24.8323 15.7143 22.8571C15.7133 20.8818 16.41 19.1976 17.8043 17.8042C19.1986 16.4109 20.8829 15.7142 22.8571 15.7142C24.8314 15.7142 26.5162 16.4109 27.9114 17.8042C29.3067 19.1976 30.0028 20.8818 30 22.8571C29.9971 24.8323 29.3005 26.5171 27.91 27.9113C26.5195 29.3056 24.8352 30.0018 22.8571 29.9999ZM2.85714 27.1428C2.07143 27.1428 1.39905 26.8633 0.84 26.3042C0.280952 25.7452 0.000952381 25.0723 0 24.2856V8.5714C0 7.78569 0.28 7.11331 0.84 6.55427C1.4 5.99522 2.07238 5.71522 2.85714 5.71427H8.57143V2.85713C8.57143 2.07142 8.85143 1.39904 9.41143 0.839998C9.97143 0.280952 10.6438 0.000952378 11.4286 0H17.1429C17.9286 0 18.6014 0.279999 19.1614 0.839998C19.7214 1.4 20.0009 2.07237 20 2.85713V5.71427H25.7143C26.5 5.71427 27.1728 5.99427 27.7328 6.55427C28.2928 7.11426 28.5724 7.78664 28.5714 8.5714V12.7142C28.5714 13.1428 28.3871 13.4642 28.0186 13.6785C27.65 13.8928 27.2628 13.9047 26.8571 13.7142C26.2381 13.4285 25.5895 13.2142 24.9114 13.0714C24.2333 12.9285 23.5486 12.8571 22.8571 12.8571C20.0952 12.8571 17.7381 13.8333 15.7857 15.7857C13.8333 17.738 12.8571 20.0952 12.8571 22.8571C12.8571 23.2856 12.8871 23.7204 12.9471 24.1614C13.0071 24.6023 13.0962 25.0366 13.2143 25.4642C13.3333 25.869 13.2681 26.2499 13.0186 26.6071C12.769 26.9642 12.4414 27.1428 12.0357 27.1428H2.85714ZM23.5714 22.5714V19.2857C23.5714 19.0952 23.5 18.9285 23.3571 18.7857C23.2143 18.6428 23.0476 18.5714 22.8571 18.5714C22.6667 18.5714 22.5 18.6428 22.3571 18.7857C22.2143 18.9285 22.1429 19.0952 22.1429 19.2857V22.5356C22.1429 22.7261 22.1786 22.9109 22.25 23.0899C22.3214 23.269 22.4286 23.4295 22.5714 23.5714L24.7143 25.7142C24.8571 25.8571 25.0238 25.9285 25.2143 25.9285C25.4048 25.9285 25.5714 25.8571 25.7143 25.7142C25.8571 25.5714 25.9286 25.4047 25.9286 25.2142C25.9286 25.0237 25.8571 24.8571 25.7143 24.7142L23.5714 22.5714Z" fill="currentColor"/>
</svg>
