<svg width="100" height="100" viewBox="0 0 100 100" fill="none" xmlns="http://www.w3.org/2000/svg">
<path d="M15.3914 0.410156C14.9421 0.644531 14.4929 1.09375 14.2585 1.5625C13.8679 2.32422 13.8679 2.65625 13.8679 34.375V66.4062H86.1335V17.5781H78.5164C71.2507 17.5781 70.8406 17.5586 70.1179 17.1875C69.6101 16.9336 69.2 16.5234 68.946 16.0156C68.575 15.293 68.5554 14.8828 68.5554 7.61719V0H42.3445C16.6218 0.0195313 16.0945 0.0195312 15.3914 0.410156ZM45.0007 11.1328C47.2078 11.6992 48.7117 12.5586 50.3914 14.2578C52.0906 15.9375 52.95 17.4414 53.5164 19.6484C54.3757 23.0078 53.614 26.7773 51.5046 29.5312L50.821 30.4297L51.9734 31.1523C56.9343 34.2187 60.2546 39.7461 60.6648 45.6445C60.782 47.168 60.7429 47.4609 60.3718 48.2031C60.0984 48.75 59.7078 49.1406 59.1804 49.4141C58.4382 49.8047 58.0671 49.8047 42.1687 49.8047H25.9187L25.0984 49.3359C23.8679 48.6133 23.5359 47.7148 23.7117 45.5078C24.1414 39.8047 27.1882 34.6094 32.0124 31.4258L33.5359 30.4102L32.8523 29.5117C31.407 27.6172 30.489 24.8438 30.4695 22.3438C30.4695 20.8008 31.075 18.457 31.8757 16.9336C32.696 15.3711 35.0593 13.0078 36.6609 12.1484C39.239 10.7813 42.2468 10.4297 45.0007 11.1328ZM76.7585 22.8516C77.6375 23.3008 78.321 24.4141 78.321 25.3906C78.321 26.3672 77.6375 27.4805 76.7585 27.9297C76.0554 28.2812 75.6257 28.3203 71.4656 28.3203C67.3054 28.3203 66.9148 28.3008 66.1726 27.8906C64.1999 26.7773 64.1804 24.1016 66.1335 22.9297C66.8757 22.4805 67.0124 22.4609 71.446 22.4609C75.6257 22.4609 76.0554 22.5 76.7585 22.8516ZM76.7585 33.5938C77.6375 34.043 78.321 35.1562 78.321 36.1328C78.321 37.1094 77.6375 38.2227 76.7585 38.6719C76.0554 39.0234 75.6257 39.0625 71.4656 39.0625C67.3054 39.0625 66.9148 39.043 66.1726 38.6328C64.1999 37.5195 64.1804 34.8437 66.1335 33.6719C66.8757 33.2227 67.0124 33.2031 71.446 33.2031C75.6257 33.2031 76.0554 33.2422 76.7585 33.5938ZM76.7585 44.3359C77.6375 44.7852 78.321 45.8984 78.321 46.875C78.321 47.8516 77.6375 48.9648 76.7585 49.4141C76.0554 49.7656 75.6257 49.8047 71.4656 49.8047C67.3054 49.8047 66.9148 49.7852 66.1726 49.375C64.1999 48.2617 64.1804 45.5859 66.1335 44.4141C66.8757 43.9648 67.0124 43.9453 71.446 43.9453C75.6257 43.9453 76.0554 43.9844 76.7585 44.3359ZM76.7585 55.0781C77.6375 55.5273 78.321 56.6406 78.321 57.6172C78.321 58.5938 77.6375 59.707 76.7585 60.1562C75.9968 60.5469 75.6648 60.5469 49.9812 60.5469H23.9851L23.2039 60.1172C21.2312 59.0039 21.2117 56.3281 23.1648 55.1562L23.9265 54.6875H49.9617C75.6648 54.6875 75.9968 54.6875 76.7585 55.0781Z" fill="currentColor"/>
<path d="M40.2925 16.9531C35.3902 18.7109 34.98 25.3906 39.6089 27.6758C41.191 28.457 43.1831 28.457 44.7652 27.6758C46.855 26.6406 47.9488 24.8633 47.9488 22.4609C47.9488 20.8008 47.5386 19.6875 46.5035 18.4961C45.0972 16.914 42.3433 16.2109 40.2925 16.9531Z" fill="currentColor"/>
<path d="M39.4531 34.4922C35.9375 35.2344 32.4609 37.9688 30.8984 41.211C30.4492 42.129 30.0391 43.1055 29.9609 43.3985L29.8438 43.9454H54.5313L54.4141 43.3985C54.3359 43.1055 53.9258 42.129 53.4766 41.211C51.875 37.9297 48.418 35.2149 44.8242 34.4727C43.1445 34.1211 41.1328 34.1211 39.4531 34.4922Z" fill="currentColor"/>
<path d="M74.4143 6.05463V11.7187H80.0784C84.4729 11.7187 85.7425 11.6601 85.7425 11.4648C85.7425 11.0937 85.2346 9.57026 84.805 8.59369C83.301 5.21479 79.9026 2.08979 76.426 0.859319C74.219 0.0780687 74.4143 -0.429744 74.4143 6.05463Z" fill="currentColor"/>
<path d="M1.52417 16.0352C1.07495 16.2695 0.625732 16.7187 0.391357 17.1875C0.000732422 17.9492 0.000732422 18.3008 0.000732422 42.1875V66.4062H8.00854V15.625H5.13745C2.63745 15.6445 2.14917 15.7031 1.52417 16.0352Z" fill="currentColor"/>
<path d="M91.9915 41.0156V66.4062H99.9993V42.1875C99.9993 18.2812 99.9993 17.9492 99.6086 17.1875C98.9446 15.8789 98.1829 15.625 94.8235 15.625H91.9915V41.0156Z" fill="currentColor"/>
<path d="M0.000732422 76.9527C0.000732422 81.2886 0.0397949 81.7183 0.391357 82.4214C0.645264 82.9293 1.05542 83.3394 1.56323 83.5933C2.32495 83.9839 2.59839 83.9839 50.0007 83.9839C97.4031 83.9839 97.6765 83.9839 98.4382 83.5933C98.946 83.3394 99.3562 82.9293 99.6101 82.4214C99.9617 81.7183 100.001 81.2886 100.001 76.9527V72.2652H0.000732422V76.9527Z" fill="currentColor"/>
<path d="M72.8491 99.6094C73.728 99.1602 74.4116 98.0469 74.4116 97.0703C74.4116 96.1914 73.728 94.9805 72.9858 94.5898C72.5366 94.3359 71.7554 94.2188 70.1147 94.1406L67.8687 94.043L67.3804 91.9336L66.9116 89.8438H33.0835L32.6147 91.9336L32.1265 94.043L29.8804 94.1406C28.2397 94.2188 27.4585 94.3359 27.0093 94.5898C26.2671 94.9805 25.5835 96.1914 25.5835 97.0703C25.5835 98.0469 26.2671 99.1602 27.146 99.6094" fill="currentColor"/>

</svg>
