<svg width="100" height="100" viewBox="0 0 100 100" fill="none" xmlns="http://www.w3.org/2000/svg">
<path d="M28.7014 0.294528C26.7073 0.902968 25.2605 2.17873 24.3612 4.12181L23.8529 5.2013L23.7943 18.901L23.7356 32.6203L24.674 31.8353C26.8246 30.0296 30.285 28.0472 33.0416 27.0266C36.6779 25.6723 39.806 25.1228 43.9898 25.1228C49.2097 25.1228 53.7649 26.2219 58.1442 28.5575L59.7669 29.4408H72.8656C85.5929 29.4408 85.9644 29.4604 86.7073 29.8333C87.587 30.2847 88.2713 31.4035 88.2713 32.3848C88.2713 33.268 87.587 34.4849 86.8441 34.8775C86.2772 35.1915 85.3192 35.2307 76.5802 35.3289L66.9419 35.427L67.8998 36.6243C68.4277 37.2916 69.327 38.587 69.9135 39.5291L70.9692 41.217H78.457C85.5734 41.217 85.9839 41.2366 86.7073 41.6095C87.587 42.061 88.2713 43.1797 88.2713 44.1611C88.2713 45.1424 87.587 46.2612 86.7073 46.7126C85.9839 47.0855 85.5734 47.1051 79.6692 47.1051C73.7649 47.1051 73.3935 47.1248 73.4912 47.4388C73.804 48.5183 74.1755 50.2651 74.2928 51.1287C74.3515 51.6586 74.4492 52.3063 74.5079 52.5418L74.5861 52.9933H80.2752C85.5734 52.9933 85.9839 53.0129 86.7073 53.3858C87.587 53.8372 88.2713 54.956 88.2713 55.9373C88.2713 56.9187 87.587 58.0374 86.7073 58.4888C85.9839 58.8618 85.5734 58.8814 80.2752 58.8814H74.5861L74.5079 59.3132C74.4492 59.5683 74.3515 60.1964 74.2928 60.746C74.1755 61.6095 73.804 63.3564 73.4912 64.4162C73.3935 64.7499 73.7845 64.7695 79.6692 64.7695C85.5538 64.7695 85.9839 64.7891 86.7073 65.162C87.587 65.6135 88.2713 66.7322 88.2713 67.7136C88.2713 68.6949 87.587 69.8137 86.7073 70.2651C85.9839 70.638 85.5734 70.6576 78.457 70.6576H70.9692L70.3045 71.7764C66.9419 77.5467 61.0768 82.4731 54.7425 84.848C50.7737 86.3397 47.587 86.8303 42.8363 86.693C38.9849 86.5752 37.8314 86.3789 34.2537 85.2406L31.9468 84.5144L27.8412 88.636L23.7161 92.7381L23.8138 93.8568C24.0093 96.1925 25.456 98.2926 27.6261 99.3524L28.936 100H94.8207L96.1305 99.3524C97.6359 98.6066 98.6721 97.5467 99.3954 95.9962L99.9038 94.8971L99.9624 59.215L100.002 23.5526H78.848L78.066 23.1208C77.5968 22.846 77.1276 22.375 76.9125 21.9432C76.5606 21.2563 76.5411 20.6282 76.5411 10.5987V0.00012207L53.0416 0.0197492C34.1559 0.0197492 29.3661 0.0786304 28.7014 0.294528ZM69.112 18.057C69.9917 18.5085 70.676 19.6272 70.676 20.6086C70.676 21.5899 69.9917 22.7087 69.112 23.1601C68.3691 23.5526 67.9976 23.5526 53.0611 23.5526H37.7923L37.0103 23.1208C35.0357 22.0021 35.0162 19.3132 36.9712 18.1355L37.7337 17.6645H53.0416C67.9976 17.6645 68.3691 17.6645 69.112 18.057ZM86.7073 76.9383C87.587 77.3897 88.2713 78.5085 88.2713 79.4898C88.2713 80.4712 87.587 81.5899 86.7073 82.0413C85.9839 82.4143 85.5734 82.4339 77.5186 82.4339C69.4639 82.4339 69.0533 82.4143 68.3299 82.0413C67.4502 81.5899 66.7659 80.4712 66.7659 79.4898C66.7659 78.5085 67.4502 77.3897 68.2908 76.9579C68.9751 76.585 69.4443 76.5654 77.4795 76.5458C85.5734 76.5458 85.9644 76.5654 86.7073 76.9383Z" fill="currentColor"/>
<path d="M82.4067 9.71533V17.6643H98.3403L90.4224 9.71533C86.0627 5.33849 82.4849 1.76636 82.4654 1.76636C82.4263 1.76636 82.4067 5.33849 82.4067 9.71533Z" fill="currentColor"/>
<path d="M39.4929 31.3053C30.226 33.1895 23.1488 39.372 20.2358 48.0864C18.6522 52.7969 18.6522 59.0776 20.2358 63.7881C21.2133 66.7322 23.5593 70.8146 25.1038 72.3062C25.6708 72.8558 25.7099 72.8754 25.7099 72.4633C25.7099 71.6782 26.8438 68.9304 27.7236 67.5761C29.0921 65.476 30.7539 63.9059 32.8457 62.7086C33.3932 62.4142 33.8624 62.1394 33.9015 62.1002C33.9406 62.0609 33.706 61.6095 33.3736 61.0992C30.7734 57.0364 30.4997 52.5418 32.572 48.2827C34.1947 44.9657 37.6551 42.2572 41.2524 41.5113C44.1067 40.9029 46.8242 41.2758 49.5613 42.6105C52.8653 44.2395 55.5632 47.7135 56.3062 51.3249C57.01 54.7007 56.3648 58.0373 54.4098 61.0992C54.0774 61.6095 53.8428 62.0609 53.8819 62.1002C53.921 62.1198 54.4489 62.4338 55.0354 62.7675C58.0461 64.475 60.3726 67.3013 61.5652 70.6183C61.8389 71.4034 62.0735 72.2474 62.0735 72.4633C62.0735 72.8558 62.1126 72.8558 62.6796 72.3062C64.224 70.8146 66.5701 66.7322 67.5476 63.7881C69.0334 59.3524 69.1312 53.5231 67.8018 48.8715C65.7685 41.7665 60.2944 35.6821 53.2759 32.7773C50.2456 31.5212 48.4469 31.1679 44.4782 31.0894C41.878 31.0501 40.4704 31.109 39.4929 31.3053Z" fill="currentColor"/>
<path d="M41.9967 47.3803C39.983 48.0476 38.5558 49.3037 37.6565 51.2272C37.2264 52.13 37.1482 52.5815 37.1482 53.975C37.1482 55.4667 37.2264 55.8003 37.7934 56.9583C38.5363 58.4696 39.592 59.5098 41.1365 60.236C42.0553 60.6678 42.505 60.7463 43.8931 60.7463C45.2811 60.7463 45.7308 60.6678 46.6497 60.236C48.1941 59.5098 49.2499 58.4696 49.9928 56.9583C50.5597 55.8003 50.6379 55.4667 50.6379 53.975C50.6379 52.5815 50.5597 52.13 50.1296 51.2076C48.9957 48.7738 46.8256 47.3018 44.2254 47.184C43.3848 47.1251 42.4854 47.2233 41.9967 47.3803Z" fill="currentColor"/>
<path d="M38.0869 66.9284C35.8386 67.3798 33.1602 69.4995 32.124 71.6585C31.4397 73.0717 30.6773 77.1345 31.0292 77.37C31.7917 77.8803 35.0175 79.3523 36.3664 79.7841C41.1172 81.3151 47.1582 81.2365 52.0263 79.5879C53.3166 79.1364 55.819 77.9785 56.7574 77.37C57.1093 77.1345 56.3469 73.0717 55.6626 71.6585C54.5874 69.4014 51.9872 67.3994 49.5434 66.9284C48.3312 66.6929 39.2599 66.7125 38.0869 66.9284Z" fill="currentColor"/>
<path d="M9.56112 82.0806C-0.2727 91.9922 0.00100518 91.6389 0.00100518 94.3082C0.0205555 96.6438 1.13492 98.4299 3.18771 99.4505C4.10658 99.9019 4.55624 100 5.76836 100C8.349 100 8.25125 100.059 18.046 90.2258L26.7068 81.531L25.5729 80.7263C23.3637 79.1561 20.0988 75.7999 18.6716 73.6409C18.3783 73.2091 18.2219 73.3465 9.56112 82.0806Z" fill="currentColor"/>

</svg>
