<svg width="28" height="28" viewBox="0 0 28 28" fill="none" xmlns="http://www.w3.org/2000/svg">
<path d="M6.51767 9.00787H0.89662C0.647149 9.00787 0.445007 9.21011 0.445007 9.45949V27.5175C0.445007 27.767 0.647149 27.9691 0.89662 27.9691H6.51767C6.76714 27.9691 6.96928 27.767 6.96928 27.5175V9.45949C6.96928 9.21011 6.76714 9.00787 6.51767 9.00787Z" fill="currentColor"/>
<path d="M3.70919 0.0308228C1.66392 0.0308228 0 1.69294 0 3.73595C0 5.77985 1.66392 7.4426 3.70919 7.4426C5.75283 7.4426 7.41539 5.77976 7.41539 3.73595C7.41548 1.69294 5.75283 0.0308228 3.70919 0.0308228Z" fill="currentColor"/>
<path d="M20.8152 8.55908C18.5576 8.55908 16.8887 9.5296 15.8764 10.6323V9.45951C15.8764 9.21013 15.6743 9.0079 15.4248 9.0079H10.0417C9.79223 9.0079 9.59009 9.21013 9.59009 9.45951V27.5175C9.59009 27.767 9.79223 27.9691 10.0417 27.9691H15.6505C15.8999 27.9691 16.1021 27.767 16.1021 27.5175V18.583C16.1021 15.5723 16.9199 14.3993 19.0186 14.3993C21.3043 14.3993 21.4859 16.2797 21.4859 18.7379V27.5176C21.4859 27.7671 21.6881 27.9692 21.9375 27.9692H27.5484C27.7979 27.9692 28 27.7671 28 27.5176V17.6125C28 13.1356 27.1464 8.55908 20.8152 8.55908Z" fill="currentColor"/>
</svg>
