<svg width="17" height="17" viewBox="0 0 17 17" fill="none" xmlns="http://www.w3.org/2000/svg">
<path d="M9.25379 14.961C10.9968 13.427 14.0978 10.293 14.0978 7.41699C14.0978 5.82569 13.4657 4.29957 12.3404 3.17435C11.2152 2.04913 9.68909 1.41699 8.09779 1.41699C6.50649 1.41699 4.98037 2.04913 3.85515 3.17435C2.72993 4.29957 2.09779 5.82569 2.09779 7.41699C2.09779 10.293 5.19779 13.427 6.94179 14.961C7.25991 15.2449 7.67139 15.4019 8.09779 15.4019C8.52419 15.4019 8.93568 15.2449 9.25379 14.961ZM6.09779 7.41699C6.09779 6.88656 6.30851 6.37785 6.68358 6.00278C7.05865 5.62771 7.56736 5.41699 8.09779 5.41699C8.62823 5.41699 9.13693 5.62771 9.51201 6.00278C9.88708 6.37785 10.0978 6.88656 10.0978 7.41699C10.0978 7.94742 9.88708 8.45613 9.51201 8.8312C9.13693 9.20628 8.62823 9.41699 8.09779 9.41699C7.56736 9.41699 7.05865 9.20628 6.68358 8.8312C6.30851 8.45613 6.09779 7.94742 6.09779 7.41699Z" fill="currentColor"/>
</svg>
