<svg width="100" height="100" viewBox="0 0 100 100" fill="none" xmlns="http://www.w3.org/2000/svg">
<path d="M42.2037 0.526481C40.9173 1.42311 40.8394 1.61804 40.2352 6.64698C39.9233 9.20044 39.592 11.3446 39.514 11.4225C39.436 11.5005 38.5005 11.8319 37.4285 12.1827C35.4014 12.8454 32.6727 13.9955 31.2499 14.8141C30.7821 15.087 30.2948 15.3014 30.1584 15.3014C30.0024 15.3014 28.5211 14.2294 26.8449 12.9039C22.7908 9.70723 22.6934 9.64876 21.8553 9.45383C20.3545 9.12247 20.0426 9.33688 14.9555 14.4048C12.3437 16.9778 10.0243 19.3948 9.80988 19.7651C9.32261 20.5448 9.28362 21.8118 9.71242 22.6305C9.88784 22.9423 11.2132 24.6966 12.6555 26.5484C14.1174 28.3806 15.3063 30.0179 15.3063 30.1544C15.3063 30.2908 15.0919 30.7781 14.819 31.2459C14.0004 32.6688 12.8505 35.3977 12.1878 37.4249C11.8369 38.497 11.4861 39.4326 11.4276 39.53C11.3497 39.608 9.20566 39.9199 6.65235 40.2318C1.6237 40.836 1.42879 40.914 0.551702 42.2005C0.103412 42.8437 0.103412 42.9022 0.103412 49.9973C0.103412 59.5679 -0.325388 58.9246 6.5549 59.7628C9.06922 60.0747 11.1937 60.3475 11.3107 60.406C11.4276 60.445 11.681 60.9908 11.8759 61.6145C12.5191 63.7392 13.2208 65.4739 14.2538 67.5986C14.8385 68.7486 15.3063 69.7817 15.3063 69.8986C15.3063 70.0156 14.1174 71.6139 12.6555 73.4462C11.2132 75.2979 9.88784 77.0522 9.71242 77.3641C9.24464 78.2607 9.32261 79.4887 9.90733 80.3464C10.1997 80.7557 12.5191 83.1727 15.0529 85.7067C18.8926 89.5271 19.8282 90.3458 20.4714 90.5212C21.8553 90.8916 22.4205 90.5992 26.2992 87.5389C28.2872 85.9796 30.0219 84.6931 30.1584 84.6931C30.2948 84.6931 30.8016 84.927 31.2888 85.1999C32.6727 85.9991 35.3235 87.1296 37.448 87.8118C38.5005 88.1627 39.436 88.494 39.514 88.572C39.592 88.65 39.9233 90.7941 40.2352 93.3476C40.8394 98.3765 40.9173 98.5714 42.2037 99.4486C42.8469 99.8969 42.9054 99.8969 50.0001 99.8969C59.5896 99.8969 58.9074 100.345 59.765 93.3476C60.0769 90.7941 60.4082 88.65 60.4862 88.572C60.5642 88.494 61.4997 88.1627 62.5717 87.8118C64.5988 87.1491 67.3275 85.9991 68.7504 85.1804C69.2181 84.9075 69.7054 84.6931 69.8418 84.6931C69.9978 84.6931 71.4791 85.7652 73.1553 87.0906C77.7941 90.7356 77.5212 90.5602 78.6127 90.5797C79.2754 90.5992 79.7822 90.4822 80.2305 90.1899C80.6008 89.9754 83.0177 87.6559 85.5905 85.044C90.5607 80.054 90.7945 79.7226 90.5802 78.2607C90.4632 77.4421 90.3463 77.2666 87.1887 73.2708C85.8049 71.536 84.6939 70.0156 84.6939 69.8986C84.6939 69.7817 85.1227 68.8266 85.6489 67.774C86.6625 65.7663 87.4031 63.9536 88.0463 61.8874C88.2607 61.1857 88.4946 60.562 88.5726 60.484C88.6311 60.406 90.7945 60.0747 93.3479 59.7628C98.3765 59.1585 98.5714 59.0806 99.4485 57.7941C99.8968 57.1509 99.8968 57.0924 99.8968 49.9973C99.8968 40.4072 100.345 41.0894 93.3479 40.2318C90.7945 39.9199 88.6506 39.5885 88.5726 39.5106C88.4946 39.4326 88.1633 38.497 87.8124 37.4249C87.1497 35.3977 85.9998 32.6688 85.1812 31.2459C84.9083 30.7781 84.6939 30.2908 84.6939 30.1544C84.6939 29.9984 85.9023 28.3416 87.3836 26.4509C88.8844 24.5407 90.2098 22.7864 90.3268 22.533C90.7166 21.8118 90.6581 20.5058 90.1903 19.7651C89.9759 19.3948 87.6565 16.9778 85.0447 14.3853C81.1076 10.4869 80.172 9.64875 79.5288 9.47333C78.145 9.10298 77.5797 9.39536 73.701 12.4556C71.713 14.015 69.9978 15.3014 69.8808 15.3014C69.7834 15.3014 68.8088 14.8531 67.7368 14.3074C65.6513 13.2743 63.9751 12.5921 61.8895 11.9488C61.1879 11.7344 60.5642 11.5005 60.4862 11.4225C60.4082 11.3641 60.0769 9.20044 59.765 6.64698C59.1608 1.61804 59.0829 1.42311 57.7965 0.526481C57.1533 0.0976562 57.0948 0.0976562 50.0001 0.0976562C42.9054 0.0976562 42.8469 0.0976562 42.2037 0.526481ZM54.7754 25.5348C65.2615 27.6984 73.0578 35.9045 74.6561 46.4887C76.7026 59.9577 67.0936 72.7055 53.411 74.6547C45.946 75.7268 38.364 73.2903 32.8676 68.0274C22.7129 58.3399 22.479 42.4539 32.3219 32.4934C36.2006 28.5365 41.2682 26.0221 46.8036 25.2619C48.6552 24.989 52.9042 25.1449 54.7754 25.5348Z" fill="currentColor" stroke="currentColor" stroke-width="0.0584727" stroke-miterlimit="10"/>
<path d="M46.4543 30.1095C38.9561 31.6279 33.2297 36.612 30.8733 43.635C29.5927 47.432 29.5927 52.4941 30.8733 56.2912C31.6646 58.6633 33.563 61.9556 34.8124 63.1563C35.2704 63.5987 35.3035 63.6143 35.3035 63.283C35.3035 62.6495 36.2216 60.4352 36.933 59.3436C38.0401 57.6517 39.3849 56.3847 41.0767 55.4199C41.5192 55.1821 41.8993 54.9618 41.9304 54.9287C41.9616 54.8955 41.7726 54.533 41.5036 54.1217C39.4005 50.847 39.1783 47.2235 40.8545 43.7909C42.1682 41.1166 44.9671 38.9335 47.8791 38.3332C50.1887 37.842 52.3873 38.1441 54.6015 39.2181C57.2756 40.5319 59.4586 43.3309 60.0589 46.243C60.6281 48.9641 60.1057 51.654 58.525 54.1217C58.256 54.533 58.067 54.8975 58.0981 54.9287C58.1293 54.9443 58.5562 55.1977 59.0318 55.4667C61.4681 56.8428 63.3509 59.1214 64.3157 61.7938C64.5379 62.4273 64.727 63.1075 64.727 63.281C64.727 63.5968 64.7582 63.5968 65.2182 63.1543C66.4675 61.9517 68.366 58.6614 69.1573 56.2892C70.3599 52.7144 70.4378 48.0148 69.3639 44.2665C67.7189 38.5398 63.2886 33.6356 57.6109 31.2946C55.1589 30.2829 53.7029 29.9964 50.4928 29.934C48.3897 29.9028 47.2495 29.9496 46.4582 30.1075L46.4543 30.1095Z" fill="currentColor"/>
<path d="M48.4806 43.0657C46.8512 43.6037 45.6973 44.6153 44.9684 46.1669C44.6195 46.8939 44.5571 47.2584 44.5571 48.3812C44.5571 49.5838 44.6195 49.8528 45.0795 50.7865C45.6798 52.0047 46.5355 52.8429 47.7848 53.4277C48.5274 53.7766 48.8919 53.8389 50.0146 53.8389C51.1373 53.8389 51.5017 53.7766 52.2443 53.4277C53.4937 52.8429 54.3474 52.0047 54.9497 50.7865C55.4077 49.8528 55.472 49.5838 55.472 48.3812C55.472 47.2584 55.4097 46.8939 55.0608 46.1513C54.1428 44.1904 52.3866 43.0033 50.2836 42.9078C49.6033 42.861 48.8763 42.939 48.4806 43.0657Z" fill="currentColor"/>
<path d="M45.3141 58.8232C43.4956 59.1877 41.3282 60.8952 40.4901 62.6359C39.9366 63.7742 39.3187 67.0489 39.6052 67.2399C40.2231 67.6512 42.8329 68.8382 43.9244 69.1852C47.768 70.419 52.6563 70.3567 56.5954 69.0273C57.6402 68.6628 59.6653 67.7291 60.4235 67.2399C60.708 67.0508 60.0921 63.7761 59.5386 62.6359C58.6693 60.8172 56.5643 59.2033 54.5879 58.8232C53.6075 58.6341 46.2672 58.6497 45.318 58.8232H45.3141Z" fill="currentColor"/>
</svg>
