<svg width="16" height="16" viewBox="0 0 16 16" fill="none" xmlns="http://www.w3.org/2000/svg">
<path d="M1.33333 15.5H14.6667C15.125 15.5 15.5 14.9375 15.5 14.25C15.5 13.5625 15.125 13 14.6667 13H1.33333C0.875 13 0.5 13.5625 0.5 14.25C0.5 14.9375 0.875 15.5 1.33333 15.5ZM1.33333 9.25H14.6667C15.125 9.25 15.5 8.6875 15.5 8C15.5 7.3125 15.125 6.75 14.6667 6.75H1.33333C0.875 6.75 0.5 7.3125 0.5 8C0.5 8.6875 0.875 9.25 1.33333 9.25ZM0.5 1.75C0.5 2.4375 0.875 3 1.33333 3H14.6667C15.125 3 15.5 2.4375 15.5 1.75C15.5 1.0625 15.125 0.5 14.6667 0.5H1.33333C0.875 0.5 0.5 1.0625 0.5 1.75Z" fill="currentColor"/>
</svg>
