<svg width="30" height="30" viewBox="0 0 30 30" fill="none" xmlns="http://www.w3.org/2000/svg">
<path d="M11.465 10.8334C12.3051 9.81671 13.5767 9.1667 15.0001 9.1667C16.4234 9.1667 17.6951 9.81671 18.5351 10.8334C19.0881 11.5039 19.4391 12.3179 19.5471 13.1803C19.6551 14.0427 19.5156 14.9181 19.1449 15.7043C18.7743 16.4904 18.1877 17.155 17.4537 17.6205C16.7196 18.0859 15.8684 18.333 14.9992 18.333C14.1301 18.333 13.2788 18.0859 12.5448 17.6205C11.8107 17.155 11.2242 16.4904 10.8535 15.7043C10.4829 14.9181 10.3434 14.0427 10.4514 13.1803C10.5594 12.3179 10.9103 11.5039 11.4634 10.8334M21.2484 13.7501C21.2484 12.6967 20.9884 11.7034 20.5284 10.8334H27.5001C28.1632 10.8334 28.799 11.0968 29.2679 11.5656C29.7367 12.0345 30.0001 12.6703 30.0001 13.3334V14.1667C30.0001 16.8117 27.9901 19.5201 24.4751 20.4734C24.1139 19.8245 23.5858 19.284 22.9455 18.9078C22.3053 18.5315 21.5761 18.3332 20.8334 18.3334H19.2501C19.8818 17.7489 20.3856 17.0399 20.7299 16.2511C21.0741 15.4623 21.2512 14.6107 21.2501 13.7501M20.8334 20.0001C21.162 19.9992 21.4875 20.0633 21.7912 20.1886C22.0949 20.3139 22.3708 20.498 22.6032 20.7304C22.8355 20.9627 23.0196 21.2386 23.1449 21.5423C23.2702 21.8461 23.3343 22.1715 23.3334 22.5001V23.3334C23.3334 26.6184 20.2334 30.0001 15.0001 30.0001C9.76671 30.0001 6.66669 26.6184 6.66669 23.3334V22.5001C6.66581 22.1715 6.72988 21.8461 6.8552 21.5423C6.98053 21.2386 7.16465 20.9627 7.39697 20.7304C7.62929 20.498 7.90524 20.3139 8.20895 20.1886C8.51266 20.0633 8.83815 19.9992 9.1667 20.0001H20.8334ZM0 14.1667C0 16.8117 2.01001 19.5201 5.52502 20.4734C5.88624 19.8245 6.41432 19.284 7.05459 18.9078C7.69487 18.5315 8.42406 18.3332 9.1667 18.3334H10.75C10.1183 17.7489 9.61448 17.0399 9.27027 16.2511C8.92606 15.4623 8.74893 14.6107 8.75004 13.7501C8.75004 12.6967 9.01004 11.7034 9.47171 10.8334H2.50001C1.83697 10.8334 1.20108 11.0968 0.732236 11.5656C0.263393 12.0345 0 12.6703 0 13.3334V14.1667ZM12.9167 4.58335C12.9167 3.36777 12.4338 2.20198 11.5743 1.34243C10.7147 0.482888 9.54895 0 8.33337 0C7.11779 0 5.95199 0.482888 5.09245 1.34243C4.2329 2.20198 3.75002 3.36777 3.75002 4.58335C3.75002 5.79893 4.2329 6.96473 5.09245 7.82427C5.95199 8.68382 7.11779 9.1667 8.33337 9.1667C9.54895 9.1667 10.7147 8.68382 11.5743 7.82427C12.4338 6.96473 12.9167 5.79893 12.9167 4.58335ZM26.2501 4.58335C26.2501 3.36777 25.7672 2.20198 24.9077 1.34243C24.0481 0.482888 22.8823 0 21.6668 0C20.4512 0 19.2854 0.482888 18.4258 1.34243C17.5663 2.20198 17.0834 3.36777 17.0834 4.58335C17.0834 5.79893 17.5663 6.96473 18.4258 7.82427C19.2854 8.68382 20.4512 9.1667 21.6668 9.1667C22.8823 9.1667 24.0481 8.68382 24.9077 7.82427C25.7672 6.96473 26.2501 5.79893 26.2501 4.58335Z" fill="currentColor"/>
</svg>
