<svg width="16" height="17" viewBox="0 0 16 17" fill="none" xmlns="http://www.w3.org/2000/svg">
<path d="M7.99987 2.0166C7.15118 2.0166 6.33725 2.35374 5.73713 2.95386C5.13701 3.55398 4.79987 4.36791 4.79987 5.2166C4.79987 6.06529 5.13701 6.87923 5.73713 7.47934C6.33725 8.07946 7.15118 8.4166 7.99987 8.4166C8.84857 8.4166 9.6625 8.07946 10.2626 7.47934C10.8627 6.87923 11.1999 6.06529 11.1999 5.2166C11.1999 4.36791 10.8627 3.55398 10.2626 2.95386C9.6625 2.35374 8.84857 2.0166 7.99987 2.0166ZM4.00707 9.2166C3.79635 9.21565 3.58752 9.25634 3.39257 9.33632C3.19761 9.4163 3.02038 9.53401 2.87104 9.68268C2.72171 9.83135 2.60321 10.008 2.52235 10.2026C2.44149 10.3972 2.39987 10.6059 2.39987 10.8166C2.39987 12.1694 3.06627 13.1894 4.10787 13.8542C5.13347 14.5078 6.51587 14.8166 7.99987 14.8166C9.48387 14.8166 10.8663 14.5078 11.8919 13.8542C12.9335 13.1902 13.5999 12.1686 13.5999 10.8166C13.5999 10.3923 13.4313 9.98529 13.1312 9.68523C12.8312 9.38517 12.4242 9.2166 11.9999 9.2166H4.00707Z" fill="currentColor"/>
</svg>
