<svg width="60" height="60" viewBox="0 0 60 60" fill="none" xmlns="http://www.w3.org/2000/svg">
<path d="M27.438 3.069C28.578 1.02 29.148 0 30 0C30.852 0 31.422 1.02 32.562 3.069L32.856 3.597C33.18 4.179 33.342 4.467 33.594 4.659C33.849 4.851 34.164 4.923 34.794 5.064L35.364 5.196C37.578 5.697 38.685 5.946 38.949 6.792C39.213 7.641 38.457 8.523 36.948 10.287L36.558 10.743C36.129 11.244 35.913 11.493 35.817 11.805C35.721 12.117 35.754 12.45 35.817 13.119L35.877 13.728C36.105 16.083 36.219 17.262 35.532 17.784C34.842 18.309 33.804 17.829 31.731 16.875L31.197 16.629C30.606 16.359 30.312 16.221 30 16.221C29.688 16.221 29.394 16.359 28.803 16.629L28.269 16.875C26.196 17.829 25.158 18.309 24.468 17.784C23.778 17.262 23.895 16.083 24.123 13.728L24.183 13.119C24.246 12.45 24.279 12.117 24.183 11.805C24.087 11.496 23.871 11.244 23.442 10.743L23.052 10.287C21.543 8.523 20.787 7.641 21.051 6.792C21.315 5.946 22.422 5.697 24.636 5.196L25.206 5.064C25.836 4.923 26.151 4.854 26.406 4.659C26.658 4.467 26.82 4.179 27.144 3.597L27.438 3.069ZM33 24H27C22.758 24 20.637 24 19.32 25.32C18 26.634 18 28.755 18 33V60H42V33C42 28.758 42 26.637 40.68 25.32C39.366 24 37.245 24 33 24Z" fill="currentColor"/>
<path opacity="0.5" d="M16.68 52.32C15.366 51 13.245 51 9 51C4.758 51 2.637 51 1.32 52.32C1.78814e-07 53.634 0 55.755 0 60H18C18 55.758 18 53.637 16.68 52.32ZM42 51V60H60V51C60 46.758 60 44.637 58.68 43.32C57.366 42 55.245 42 51 42C46.758 42 44.637 42 43.32 43.32C42 44.634 42 46.755 42 51Z" fill="currentColor"/>
</svg>
