<svg width="30" height="30" viewBox="0 0 30 30" fill="none" xmlns="http://www.w3.org/2000/svg">
<path d="M30 4.6875C30 5.74219 29.1621 6.71484 27.75 7.5C26.0449 8.44336 23.502 9.11133 20.584 9.31055C20.3672 9.20508 20.1504 9.10547 19.9219 9.01758C17.6133 8.05078 14.543 7.5 11.25 7.5C10.7637 7.5 10.2891 7.51172 9.81445 7.53516L9.75 7.5C8.33789 6.71484 7.5 5.74219 7.5 4.6875C7.5 2.09766 12.5391 0 18.75 0C24.9609 0 30 2.09766 30 4.6875ZM9.41602 9.43945C10.0137 9.39844 10.6289 9.375 11.25 9.375C14.8945 9.375 18.1289 10.0957 20.1855 11.2148C21.6387 12.0059 22.5 12.9902 22.5 14.0625C22.5 14.2969 22.459 14.5254 22.377 14.748C22.1074 15.5215 21.3809 16.2305 20.3262 16.8281C20.3203 16.834 20.3086 16.834 20.3027 16.8398C20.2852 16.8516 20.2676 16.8574 20.25 16.8691C18.1992 18.0059 14.9297 18.7441 11.25 18.7441C7.75781 18.7441 4.63477 18.082 2.56641 17.0391C2.45508 16.9863 2.34961 16.9277 2.24414 16.8691C0.837891 16.0898 0 15.1172 0 14.0625C0 12.0234 3.12891 10.2832 7.5 9.64453C8.11523 9.55664 8.75391 9.48633 9.41602 9.43945ZM24.375 14.0625C24.375 12.7793 23.7539 11.7246 22.9629 10.9336C24.6211 10.6758 26.1387 10.2656 27.4277 9.73242C28.3828 9.33398 29.2734 8.8418 30 8.23828V10.3125C30 11.4434 29.0332 12.4863 27.4336 13.2949C26.5781 13.7285 25.5352 14.0977 24.3633 14.3789C24.3691 14.2734 24.375 14.1738 24.375 14.0684V14.0625ZM22.5 19.6875C22.5 20.7422 21.6621 21.7148 20.25 22.5C20.1445 22.5586 20.0391 22.6113 19.9277 22.6699C17.8652 23.7129 14.7422 24.375 11.25 24.375C7.57031 24.375 4.30078 23.6367 2.25 22.5C0.837891 21.7148 0 20.7422 0 19.6875V17.6133C0.732422 18.2168 1.61719 18.709 2.57227 19.1074C4.88672 20.0742 7.95703 20.625 11.25 20.625C14.543 20.625 17.6133 20.0742 19.9277 19.1074C20.3848 18.9199 20.8242 18.7031 21.2402 18.4688C21.5977 18.2695 21.9316 18.0469 22.248 17.8125C22.3359 17.748 22.418 17.6777 22.5 17.6133V18.1465V19.6875ZM24.375 19.6875V16.2949C25.4883 16.0488 26.5137 15.7383 27.4277 15.3574C28.3828 14.959 29.2734 14.4668 30 13.8633V15.9375C30 16.5527 29.707 17.168 29.127 17.748C28.1719 18.7031 26.4902 19.4883 24.3633 19.998C24.3691 19.8984 24.375 19.793 24.375 19.6875ZM11.25 26.25C14.543 26.25 17.6133 25.6992 19.9277 24.7324C20.8828 24.334 21.7734 23.8418 22.5 23.2383V25.3125C22.5 27.9023 17.4609 30 11.25 30C5.03906 30 0 27.9023 0 25.3125V23.2383C0.732422 23.8418 1.61719 24.334 2.57227 24.7324C4.88672 25.6992 7.95703 26.25 11.25 26.25Z" fill="currentColor"/>
</svg>
