<svg width="100" height="100" viewBox="0 0 100 100" fill="none" xmlns="http://www.w3.org/2000/svg">
<path d="M48.0412 10.3106C46.8454 10.723 45.8557 11.6302 45.1546 12.8879C44.5979 13.9395 44.5361 14.1869 44.4742 16.723L44.3918 19.4653H25.1134C3.89691 19.4653 5.01031 19.4034 4.30928 20.7436C4.04124 21.2797 4.02062 21.5271 4.20619 22.1869C4.61856 23.5477 5.03093 23.6715 9.29897 23.7952L13.0309 23.8983L6.51546 37.9189L0 51.9395L0.0206186 53.7952C0.0412371 56.1044 0.453608 57.8158 1.64948 60.1869C3.31959 63.5684 5.71134 65.9807 9.07216 67.6096C11.4845 68.7849 12.9072 69.156 15.567 69.3003C24.4742 69.7952 32.1031 63.0735 32.8247 54.1044L32.9485 52.5581L26.9072 39.4653C23.5876 32.2694 20.6186 25.7952 20.2887 25.0735L19.7113 23.7952H44.433V80.7024H38.9072C32.8866 80.7024 32.1443 80.8055 30.2887 82.0014C27.4639 83.7952 26.0825 86.4756 26.0825 90.1251C26.0825 92.0014 26.1031 92.1044 26.6804 92.6818L27.2784 93.2797H72.7216L73.3196 92.6818C73.8969 92.1044 73.9175 92.0014 73.9175 90.1457C73.9175 86.5993 72.8247 84.3312 70.1856 82.3312C68.268 80.8673 67.3608 80.7024 61.0928 80.7024H55.567V23.7952H67.9588C74.7629 23.7952 80.2887 23.857 80.2474 23.9395C80.1856 24.0426 77.1959 30.4962 73.6082 38.3312L67.0516 52.5374L67.1753 54.1044C67.5051 58.0838 69.2371 61.8158 72.0412 64.5787C77.1546 69.6096 84.9072 70.7849 91.2371 67.5065C94.3918 65.8364 96.7629 63.424 98.3505 60.1869C99.5464 57.8158 99.9588 56.1044 99.9794 53.7952L100 51.9395L93.4845 37.9189L86.9897 23.8983L90.7216 23.7952C94.9691 23.6715 95.3814 23.5477 95.7938 22.1869C95.9794 21.5271 95.9588 21.2797 95.6907 20.7436C94.9897 19.4034 96.1031 19.4653 74.8866 19.4653H55.6082L55.5258 16.723C55.4639 14.1869 55.4021 13.9395 54.8454 12.8879C54.5155 12.29 53.9175 11.5271 53.5258 11.1972C52.1237 10.0426 49.8351 9.67145 48.0412 10.3106ZM94.6804 50.7436C94.6392 50.7849 89.6289 50.7849 83.5464 50.7642L72.4948 50.7024L77.5464 39.7745C80.3299 33.7539 82.8454 28.3312 83.1134 27.7127L83.6289 26.5787L89.1753 38.6199C92.2474 45.2591 94.7216 50.7024 94.6804 50.7436ZM22.0206 38.7849L27.5052 50.7024L16.4536 50.7642C10.3711 50.7849 5.36082 50.7849 5.31959 50.7436C5.21649 50.6199 16.2268 26.8879 16.3918 26.8879C16.4536 26.8879 18.9897 32.2488 22.0206 38.7849Z" fill="currentColor"/>
</svg>
