<svg width="100" height="100" viewBox="0 0 100 100" fill="none" xmlns="http://www.w3.org/2000/svg">
<path d="M91.0713 -0.00012207C90.4867 0.19536 71.8647 5.75574 49.7132 12.3804C27.5617 19.0051 9.02635 24.6306 8.52832 24.8696C7.42399 25.4126 6.18974 26.7375 5.58345 28.0842C4.91219 29.5177 4.93384 32.1458 5.6051 33.6445C6.14644 34.8174 7.09919 35.9252 8.13855 36.5768C8.50666 36.794 16.6917 40.2475 26.3708 44.244L43.9317 51.5203L53.4376 41.9634C58.6561 36.7071 63.2033 32.2762 63.5497 32.0807C63.9828 31.8635 64.5458 31.7766 65.2604 31.8635C66.7545 31.9938 67.8155 33.0581 67.9454 34.5568C68.032 35.2736 67.9454 35.8383 67.7289 36.2727C67.534 36.6202 63.1167 41.1815 57.8766 46.416L48.349 55.9512L55.5813 73.5663C59.5655 83.2536 63.0084 91.4638 63.2466 91.8331C63.8962 92.8974 65.0005 93.8531 66.1698 94.3961C67.6639 95.0694 70.284 95.0911 71.7131 94.4178C73.0556 93.8096 74.3115 92.6367 74.8745 91.4855C75.1344 90.9643 80.9158 71.8287 87.715 48.9573C99.5161 9.27442 100.079 7.29788 99.9925 5.99467C99.7976 3.47512 98.2386 1.25965 95.965 0.238801" fill="currentColor"/>
<path d="M11.6035 50.6082C10.8673 50.9992 1.59957 60.1434 0.646822 61.4249C-1.12876 63.8141 1.01493 67.0722 3.85153 66.2902C4.50114 66.1165 5.75704 65.0087 10.0444 60.7299C13.0109 57.7759 15.5661 55.1043 15.7393 54.7785C17.0601 52.259 14.1369 49.305 11.6035 50.6082Z" fill="currentColor"/>
<path d="M28.7308 67.311C28.0595 67.55 25.6993 69.7871 18.2505 77.2372C12.9671 82.5369 8.50647 87.1199 8.33325 87.4457C7.61868 88.8141 8.11671 90.6603 9.45923 91.5508C10.2171 92.0504 11.7112 92.0938 12.534 91.6594C12.8588 91.4857 17.471 86.9679 22.7978 81.603C33.278 71.0469 33.1914 71.1555 32.715 69.3527C32.4769 68.4622 31.1993 67.2024 30.5497 67.2024C30.3332 67.2024 30.03 67.159 29.8568 67.0938C29.7052 67.0504 29.1855 67.1373 28.7308 67.311Z" fill="currentColor"/>
<path d="M44.9504 84.3397C44.604 84.5569 41.9406 87.1199 39.0607 90.0304C33.5391 95.6342 33.171 96.1555 33.5824 97.5891C34.0371 99.2181 35.0332 100 36.6355 100C37.9997 100 38.4327 99.6525 44.3225 93.6794C49.6059 88.3145 49.8225 88.0322 49.5193 86.4249C49.1296 84.3832 46.6611 83.2537 44.9504 84.3397Z" fill="currentColor"/>

</svg>
