<svg width="30" height="30" viewBox="0 0 30 30" fill="none" xmlns="http://www.w3.org/2000/svg">
<path d="M21.6364 1.56493e-06C20.5018 -0.000253552 19.382 0.269158 18.3612 0.787951C17.3404 1.30674 16.4453 2.0614 15.7432 2.99509C15.0411 3.92878 14.5504 5.01717 14.308 6.17831C14.0656 7.33945 14.0778 8.54308 14.3437 9.69857L3.01047 21.5714C2.6409 21.9509 2.3468 22.4033 2.14516 22.9025C1.94352 23.4018 1.83836 23.9379 1.83574 24.48C1.83313 25.0221 1.93312 25.5594 2.12993 26.0607C2.32675 26.5621 2.61648 27.0176 2.98237 27.4009C3.34826 27.7842 3.78306 28.0877 4.26163 28.2939C4.74019 28.5001 5.25302 28.6048 5.77047 28.6021C6.28791 28.5994 6.79971 28.4892 7.27626 28.278C7.75281 28.0667 8.18466 27.7586 8.54684 27.3714L19.8827 15.4986C20.4473 15.6414 21.0318 15.7133 21.6364 15.7143C22.8257 15.7148 23.9981 15.4189 25.0568 14.8512C26.1155 14.2835 27.0301 13.4601 27.7252 12.449C28.4203 11.438 28.8759 10.2683 29.0544 9.03641C29.2329 7.80456 29.1292 6.54589 28.7518 5.36429C28.6965 5.19111 28.5999 5.03562 28.4711 4.91256C28.3424 4.78951 28.1857 4.70298 28.016 4.66118C27.8463 4.61939 27.6693 4.62373 27.5016 4.67377C27.334 4.72382 27.1814 4.81792 27.0582 4.94714L23.7255 8.43857C23.5337 8.63922 23.2738 8.75192 23.0027 8.75192C22.7317 8.75192 22.4718 8.63922 22.28 8.43857L21.0814 7.18429C20.8899 6.98339 20.7823 6.71107 20.7823 6.42714C20.7823 6.14322 20.8899 5.87089 21.0814 5.67L24.4155 2.17714C24.5385 2.048 24.628 1.88809 24.6755 1.71257C24.7229 1.53705 24.7269 1.35173 24.6869 1.17418C24.6468 0.996627 24.5642 0.832718 24.4468 0.697986C24.3294 0.563253 24.1811 0.462161 24.0159 0.404287C23.2487 0.135992 22.4452 -0.000533205 21.6364 1.56493e-06Z" fill="currentColor"/>
</svg>
