<svg width="30" height="30" viewBox="0 0 30 30" fill="none" xmlns="http://www.w3.org/2000/svg">
<path d="M13.7579 0C14.9512 0.000254866 16.0956 0.474524 16.9394 1.31849L28.5043 12.8834C29.4633 13.8426 30.002 15.1435 30.002 16.4999C30.002 17.8563 29.4633 19.1571 28.5043 20.1163L20.1163 28.5043C19.1571 29.4633 17.8563 30.002 16.4999 30.002C15.1435 30.002 13.8426 29.4633 12.8834 28.5043L1.31849 16.9394C0.474524 16.0956 0.000254866 14.9512 0 13.7579V5.99995C0 4.40866 0.632136 2.88255 1.75734 1.75734C2.88255 0.632136 4.40866 0 5.99995 0H13.7579ZM8.24993 5.24995C7.49307 5.24972 6.76409 5.53556 6.20912 6.05019C5.65416 6.56482 5.31422 7.2702 5.25745 8.02493L5.24995 8.24993C5.24995 8.84327 5.4259 9.42328 5.75554 9.91662C6.08518 10.41 6.55371 10.7945 7.10189 11.0215C7.65006 11.2486 8.25326 11.308 8.83519 11.1923C9.41713 11.0765 9.95168 10.7908 10.3712 10.3712C10.7908 9.95168 11.0765 9.41713 11.1923 8.83519C11.308 8.25326 11.2486 7.65006 11.0215 7.10189C10.7945 6.55371 10.41 6.08518 9.91662 5.75554C9.42328 5.4259 8.84327 5.24995 8.24993 5.24995Z" fill="currentColor"/>
</svg>
