<svg width="100" height="100" viewBox="0 0 100 100" fill="none" xmlns="http://www.w3.org/2000/svg">
<path d="M75.0731 43.1086C75.3816 42.6575 76.5416 41.1617 78.0199 39.2851V42.4369C78.0199 43.4211 78.0198 44.3682 78.0179 45.2801L76.2038 45.2586C76.0104 45.2567 75.823 45.2118 75.6531 45.1278C75.4851 45.0458 75.3328 44.9267 75.2117 44.7763C74.7509 44.2412 74.706 43.6437 75.0731 43.1086Z" fill="currentColor"/>
<path d="M85.8388 21.328C85.6767 21.7128 85.3721 22.1191 85.1495 22.2402C84.8859 22.3808 83.3881 22.4628 81.3826 22.4628H79.7325C78.7873 22.4628 78.0199 23.2284 78.0199 24.1757V34.5663C76.3522 36.662 73.2863 40.5312 72.6575 41.4511C71.5425 43.078 71.6636 45.1151 72.9602 46.6542C73.753 47.6151 74.9208 48.1737 76.1686 48.1894L77.9593 48.2089L77.9769 49.7655L77.7992 62.8319C77.6723 63.0683 77.6723 63.1796 77.2993 63.2323C77.2993 62.8339 77.2993 62.4589 77.3013 62.1073C77.311 58.7187 77.3169 56.8515 76.1647 55.1269C74.6709 52.8925 72.3627 52.623 69.9197 52.3378C69.6503 52.3066 69.3612 52.2714 69.0508 52.2343C68.6582 52.1855 68.295 52.1405 67.965 52.0956C67.6272 51.1523 67.1858 50.0566 66.7308 49.0741C66.891 48.8651 67.0687 48.6366 67.262 48.3886C69.4042 45.662 69.6971 45.1659 69.8651 44.8105C70.734 43.0722 70.6306 40.7421 69.6073 39.0526C69.3886 38.6816 68.9394 38.0175 65.2194 34.3261C62.962 32.0898 61.802 30.9413 60.7749 30.3066L60.7631 28.4394L60.7182 24.2304C60.7085 23.3026 59.9625 22.5507 59.0369 22.5351L57.2169 22.5038L54.5396 22.4726C54.2858 22.4687 54.0358 22.4101 53.8132 22.3007C53.5886 22.1913 53.3875 22.0331 53.2274 21.8339C52.62 21.1249 52.5595 20.3359 53.0458 19.6269C54.4029 17.6405 68.256 0.298747 68.5801 0.177653C69.3105 -0.127035 69.8768 -0.0450034 70.4646 0.460856C71.2554 1.12882 85.5557 19.3027 85.8798 20.0526C86.081 20.537 86.081 20.7616 85.8388 21.328Z" fill="currentColor"/>
<path d="M38.3199 48.6772C38.3199 48.7885 38.3199 48.892 38.3179 48.9877C38.3003 49.8372 38.1988 50.1399 37.8531 50.5402C37.2263 51.249 36.2929 51.29 35.584 50.6222C35.17 50.2258 35.088 50.0051 35.0802 48.9467C35.0782 48.8686 35.0782 48.7866 35.0782 48.6987C35.0782 47.2185 35.2403 46.8143 35.9902 46.4081C36.658 46.0449 37.1033 46.1249 37.7321 46.7537C38.2593 47.3005 38.3199 47.4821 38.3199 48.6772Z" fill="currentColor"/>
<path d="M28.1724 54.552C27.8482 54.9581 27.5846 55.0792 26.9968 55.0792C26.409 55.0792 26.1493 54.9679 25.4736 54.2903C25.3819 54.1985 25.2823 54.0989 25.1749 53.9857C24.0188 52.7495 23.8977 52.2028 24.5675 51.3514C24.8917 50.9471 25.1534 50.8261 25.7412 50.8261C26.409 50.8261 26.6531 50.9666 27.5651 51.9196C27.608 51.9665 27.651 52.0114 27.69 52.0563C28.727 53.1987 28.8148 53.7357 28.1724 54.552Z" fill="currentColor"/>
<path d="M48.2244 53.9857C48.115 54.099 48.0154 54.2005 47.9236 54.2923C47.248 54.9679 46.9902 55.0793 46.4005 55.0793C45.8107 55.0793 45.551 54.9582 45.2268 54.552C44.5707 53.7221 44.6683 53.1499 45.6975 52.0622C45.7463 52.0095 45.799 51.9548 45.8537 51.8982C47.1093 50.6425 47.9197 50.4804 48.7516 51.3319C49.5405 52.1013 49.3999 52.7301 48.2244 53.9857Z" fill="currentColor"/>
<path d="M41.6611 67.6382C40.8917 67.6382 36.2733 65.1054 35.545 64.2755C35.0978 63.7893 35.0782 63.6272 35.0782 59.5556C35.0782 55.1814 35.1192 54.9783 35.9902 54.5116C36.658 54.1484 37.1033 54.2285 37.7321 54.8572L38.3199 55.445V62.3305L40.3039 63.4866C41.3779 64.1134 42.4715 64.8223 42.7351 65.0664C43.6666 65.9373 42.9577 67.6382 41.6611 67.6382Z" fill="currentColor"/>
<path d="M22.3832 64.9583C22.0434 64.9857 21.6743 64.97 21.2838 64.9056C20.2722 64.722 19.6844 64.1753 19.6844 63.4059C19.6844 62.5154 19.8856 62.1502 20.5749 61.8456C20.9752 61.6484 21.6079 61.5859 22.3793 61.6425C22.391 61.6425 22.4047 61.6425 22.4183 61.6445C23.4104 61.7245 23.715 61.8261 24.0802 62.2713C25.1679 63.5328 24.1817 64.8216 22.3832 64.9583Z" fill="currentColor"/>
<path d="M53.1864 64.4193C52.7411 64.845 52.4775 64.9056 51.2824 64.9056C51.1984 64.9056 51.1184 64.9056 51.0442 64.9036C50.0502 64.8958 49.7924 64.8157 49.3784 64.4193C48.4665 63.5679 48.8121 62.1912 50.0678 61.705C50.1869 61.6464 50.5696 61.619 51.0129 61.6151C51.1789 61.6151 51.3547 61.6171 51.5265 61.623C52.417 61.6835 52.8212 61.8065 53.2079 62.1697C53.8952 62.8181 53.8952 63.7495 53.1864 64.4193Z" fill="currentColor"/>
<path d="M27.6881 74.5149C27.649 74.5598 27.608 74.6048 27.5651 74.6497C26.6531 75.6007 26.409 75.7432 25.7412 75.7432C25.1534 75.7432 24.8917 75.6222 24.5675 75.216C23.8977 74.3665 24.0188 73.8198 25.1749 72.5836C25.2823 72.4723 25.3779 72.3727 25.4678 72.2829C26.1493 71.5994 26.4071 71.4901 26.9968 71.4901C27.5865 71.4901 27.8482 71.6112 28.1724 72.0173C28.8148 72.8355 28.727 73.3726 27.6881 74.5149Z" fill="currentColor"/>
<path d="M48.7525 75.2375C48.4283 75.5812 48.0436 75.7432 47.5769 75.7432C47.0106 75.7432 46.7059 75.5616 45.835 74.6497C45.7901 74.6028 45.7491 74.5559 45.7081 74.511C44.6731 73.3706 44.5833 72.8336 45.2277 72.0173C45.5518 71.6112 45.8155 71.4901 46.4013 71.4901C46.9871 71.4901 47.2508 71.5994 47.9342 72.2849C48.0221 72.3747 48.1198 72.4743 48.2252 72.5836C49.4008 73.8393 49.5414 74.4681 48.7525 75.2375Z" fill="currentColor"/>
<path d="M38.3199 77.8921C38.3199 79.0872 38.2593 79.2688 37.7321 79.8156C37.0837 80.4444 36.7186 80.5244 36.0312 80.1593C35.2598 79.755 35.0978 79.3293 35.0782 77.8511C35.0782 77.771 35.0782 77.6948 35.0802 77.6226C35.088 76.5837 35.1661 76.3494 35.545 76.0076C35.7871 75.785 36.1308 75.5409 36.2929 75.4804C36.7791 75.3183 37.3669 75.5409 37.8727 76.0682C38.2027 76.4529 38.3023 76.7556 38.3179 77.607C38.3199 77.6968 38.3199 77.7905 38.3199 77.8921Z" fill="currentColor"/>
<path d="M99.8579 44.3944C99.7368 44.6854 99.5064 44.9921 99.3384 45.0839C99.1393 45.1913 98.0066 45.2519 96.4913 45.2519H95.2435C94.5287 45.2519 93.9488 45.8319 93.9488 46.5468V60.3495C93.9488 67.037 93.9292 71.5253 93.8843 73.8554C93.8648 74.9003 93.0114 75.7382 91.9647 75.7382H82.6012C81.4744 75.7382 80.5664 74.8163 80.58 73.6913L80.9061 49.7694L80.8729 46.5878C80.8651 45.8866 80.3027 45.3202 79.6017 45.3065L78.2269 45.2831L78.0179 45.2801L76.2038 45.2586C76.0104 45.2567 75.823 45.2118 75.6531 45.1278C75.4851 45.0458 75.3328 44.9267 75.2117 44.7763C74.7509 44.2412 74.706 43.6437 75.0731 43.1086C75.3816 42.6575 76.5416 41.1617 78.0199 39.2851C81.4646 34.912 86.6454 28.4745 86.8153 28.4101C87.3659 28.1796 87.7955 28.2421 88.2388 28.6229C88.8364 29.1288 99.645 42.8632 99.8891 43.4296C100.041 43.7987 100.041 43.9667 99.8579 44.3944Z" fill="currentColor"/>
<path d="M68.5782 56.1112C66.6996 55.8827 65.1237 55.6386 65.0652 55.5819C65.0085 55.5234 64.7644 54.8359 64.5067 54.0468C64.0185 52.5566 63.1729 50.5487 62.5715 49.5019C62.3703 49.1581 62.2121 48.8007 62.2121 48.6991C62.2121 48.5858 63.1026 47.3671 64.1903 45.9765C65.2956 44.5702 66.27 43.2812 66.3559 43.0937C66.643 42.5644 66.6 41.6034 66.2544 41.0585C66.0982 40.7851 64.3914 39.0077 62.4719 37.1015C59.5759 34.2343 58.8866 33.6171 58.414 33.4882C57.3966 33.2167 56.9806 33.4316 54.1296 35.6816C52.6669 36.83 51.4054 37.7753 51.3195 37.7753C51.2473 37.7753 50.5306 37.4452 49.7417 37.0448C48.2087 36.2851 46.9765 35.7831 45.4417 35.3085C44.9261 35.1523 44.4672 34.9804 44.4106 34.9218C44.352 34.8788 44.1099 33.287 43.8794 31.4101C43.4362 27.7109 43.3776 27.5683 42.4324 26.9081C41.9598 26.5937 41.9169 26.5937 36.6991 26.5937C31.4812 26.5937 31.4383 26.5937 30.9657 26.9081C30.0186 27.5683 29.962 27.7109 29.5167 31.4101C29.2882 33.287 29.0442 34.8651 28.9875 34.9218C28.9289 34.9804 28.2416 35.2226 27.4526 35.4823C25.9627 35.9687 23.9552 36.8144 22.9085 37.4159C22.5648 37.6171 22.2075 37.7753 22.1059 37.7753C21.9927 37.7753 20.903 36.9862 19.6688 36.0116C16.6889 33.6601 16.6166 33.6171 15.9996 33.4745C14.8962 33.2304 14.6678 33.3886 10.9262 37.1151C9.00471 39.0077 7.29993 40.7851 7.14175 41.0585C6.78439 41.6327 6.7551 42.5644 7.0695 43.1659C7.19838 43.3944 8.17477 44.6855 9.23513 46.0468C10.3092 47.3944 11.184 48.5995 11.184 48.6991C11.184 48.7987 11.0258 49.1581 10.8247 49.5019C10.2232 50.5487 9.37769 52.5566 8.89144 54.0468C8.63172 54.8359 8.37396 55.5233 8.331 55.5956C8.27437 55.6523 6.69652 55.8827 4.81989 56.1112C1.12133 56.5566 0.978773 56.6132 0.332403 57.5605C0.0043355 58.0331 0.00433549 58.0761 0.00433549 63.2948C0.00433549 70.3339 -0.312015 69.8612 4.74764 70.4765C6.59693 70.7069 8.15915 70.9062 8.24507 70.9491C8.331 70.9784 8.51846 71.3808 8.66102 71.8378C9.13359 73.4023 9.65108 74.6777 10.4107 76.2402C10.8403 77.0859 11.184 77.8456 11.184 77.9316C11.184 78.0175 10.3092 79.1933 9.23513 80.5409C8.17477 81.9023 7.19838 83.1933 7.0695 83.4218C6.72581 84.0819 6.78439 84.9862 7.21401 85.6171C7.42881 85.9179 9.13359 87.6952 10.9985 89.5585C13.8222 92.3691 14.5096 92.9706 14.9822 93.0995C15.9996 93.373 16.4155 93.1581 19.2685 90.9062C20.7312 89.7597 22.0063 88.8124 22.1059 88.8124C22.2055 88.8124 22.5804 88.9843 22.9378 89.1855C23.9552 89.7734 25.9041 90.6054 27.4683 91.1073C28.2416 91.3652 28.9289 91.6093 28.9875 91.6659C29.0442 91.7226 29.2882 93.3007 29.5167 95.1776C29.962 98.8769 30.0186 99.0214 30.9657 99.6659C31.4383 99.996 31.4812 99.996 36.6991 99.996C43.7505 99.996 43.2487 100.326 43.8794 95.1776C44.1099 93.3007 44.352 91.7226 44.4106 91.6659C44.4672 91.6093 45.1546 91.3652 45.9435 91.1073C47.4354 90.6191 49.441 89.7733 50.4876 89.1718C50.8313 88.9706 51.1906 88.8124 51.2902 88.8124C51.4054 88.8124 52.4951 89.6015 53.7273 90.5761C57.1388 93.2577 56.9377 93.1288 57.7403 93.1425C58.2285 93.1581 58.6014 93.0702 58.9315 92.8554C59.2029 92.6991 60.9799 90.9921 62.8722 89.0722C66.5278 85.4003 66.6996 85.1581 66.5415 84.0819C66.4555 83.4804 66.3696 83.3515 64.0478 80.412C63.0304 79.1366 62.2121 78.0175 62.2121 77.9316C62.2121 77.8456 62.5285 77.1425 62.9151 76.3691C63.6611 74.8925 64.2059 73.5585 64.6785 72.039C64.8367 71.5233 65.0085 71.0644 65.0652 71.0077C65.1081 70.9491 66.6996 70.7069 68.5782 70.4765C72.2748 70.0331 72.4193 69.9745 73.0637 69.0292C73.3938 68.5566 73.3938 68.5136 73.3938 63.2948C73.3938 56.2401 73.7238 56.7421 68.5782 56.1112ZM39.2064 81.4296C33.7172 82.2187 28.142 80.4257 24.0997 76.5546C16.6303 69.4296 16.4585 57.746 23.6974 50.4198C26.5504 47.5097 30.2764 45.6601 34.3479 45.1015C35.709 44.9003 38.8334 45.0155 40.2102 45.3026C47.9217 46.8925 53.6551 52.9296 54.8306 60.7128C56.3362 70.621 49.2691 79.996 39.2064 81.4296Z" fill="currentColor"/>
</svg>
