<svg width="100" height="100" viewBox="0 0 100 100" fill="none" xmlns="http://www.w3.org/2000/svg">
<path d="M44.8021 0.469395C43.0653 1.15002 41.7041 2.39392 40.9061 4.06027C39.9673 5.98479 39.803 7.32257 40.2724 9.10627C41.2112 12.7676 43.7929 14.739 47.947 14.9737L50.0358 15.0911V18.1891L47.8766 18.7523C41.8684 20.2779 36.3764 23.3994 31.6355 27.9525C30.2039 29.3372 28.7253 30.8862 28.3263 31.426L27.6222 32.3883H21.215C14.1506 32.3883 13.5169 32.4822 12.8597 33.773C12.3903 34.6648 12.3903 35.2751 12.8597 36.1669C13.4699 37.3873 14.2679 37.5516 19.5251 37.5516C22.1068 37.5516 24.2191 37.5986 24.2191 37.6455C24.2191 37.6924 23.8201 38.6078 23.3038 39.6874C22.8109 40.767 22.3415 41.8466 22.2711 42.0578C22.1303 42.4568 21.6139 42.4803 15.7465 42.4803C10.2311 42.4803 9.29231 42.5272 8.72903 42.8793C7.36779 43.6772 7.13309 45.6018 8.23617 46.7283L8.91679 47.4089H20.769L20.6047 48.16C20.5343 48.5824 20.3935 49.4977 20.3231 50.2018C20.2527 50.9294 20.1588 51.7508 20.0884 52.0325L19.9945 52.5723H1.40646L0.72584 53.2529C-0.28336 54.2621 -0.23642 55.6234 0.843189 56.703L1.64116 57.5009H19.9945L20.0884 58.0173C20.1588 58.3224 20.2762 59.1908 20.3466 59.9653C20.4405 60.7398 20.5578 61.6081 20.6282 61.8898L20.7456 62.4296H15.324C9.48007 62.4296 8.68209 62.5704 7.93106 63.6265C7.46167 64.3306 7.4382 65.6919 7.93106 66.3725C8.65862 67.4052 9.01067 67.4756 15.7465 67.5929L22.1537 67.7103L23.0925 69.8226C23.5854 70.9726 24.0783 72.0522 24.1252 72.2165C24.2191 72.4277 22.9987 72.5216 19.0792 72.5685L13.8924 72.6389L13.2822 73.2492C12.9067 73.6247 12.625 74.2114 12.5546 74.8216C12.4373 75.69 12.5077 75.8778 13.2587 76.6288L14.0801 77.4502H27.4579L28.3498 78.5533C33.7713 85.2891 41.4224 89.9362 50.1297 91.8137C54.0961 92.6821 64.1881 92.4944 65.7371 91.5556C65.9953 91.3913 65.9718 91.0627 65.6198 89.7484C65.2912 88.5514 65.1973 87.2606 65.1738 84.7728V81.4401C65.1738 81.6044 61.8881 82.2146 60.0574 82.4024C48.1582 83.5993 36.3999 76.3706 31.9641 65.1521C30.509 61.4439 30.2039 59.7306 30.2273 54.9193C30.2273 51.0233 30.2978 50.3427 30.8376 48.3243C33.208 39.57 39.1459 32.7403 47.2429 29.5015C50.9512 27.9994 53.1808 27.6004 57.5462 27.6004C60.8085 27.6004 61.7707 27.6943 63.6248 28.1403C71.7454 30.1587 78.0118 34.97 81.9313 42.2456C85.217 48.3712 85.9446 56.8438 83.7384 63.4153L83.2221 65.0113H85.0293C87.1181 65.0113 89.6763 65.4572 91.6947 66.1613C92.4457 66.4429 93.1498 66.5837 93.2437 66.4664C93.4549 66.2317 94.2998 62.8755 94.6753 60.7867C94.8631 59.7071 94.9804 57.3366 94.957 54.6846C94.9335 51.1641 94.8396 49.8733 94.4172 47.8783C92.4222 38.4435 87.4232 30.5342 79.8424 24.8545C76.1108 22.0381 70.7596 19.5268 66.3708 18.5176L65.0565 18.1891V15.0207H66.5351C69.2341 15.0207 71.5811 14.1288 73.0832 12.5329C73.4352 12.1573 73.9985 11.2186 74.374 10.444C76.1342 6.59501 74.2332 1.97146 70.2198 0.445926C69.1168 0.0234698 68.3423 0 57.4757 0C46.7501 0.0234698 45.8582 0.0469396 44.8021 0.469395Z" fill="currentColor"/>
<path d="M54.7995 32.6465C40.7881 34.4536 31.8696 48.3712 36.1176 61.8429C38.3707 68.9542 43.9565 74.3992 51.373 76.6758C53.2505 77.239 53.7903 77.3094 57.4282 77.3094C60.8782 77.3329 61.6527 77.2625 63.1782 76.8166C66.6283 75.8074 67.5671 75.3145 68.3651 74.0237C69.8906 71.6532 73.7631 68.1797 76.1336 67.1001C76.9081 66.748 77.9407 64.847 78.8795 62.0541C81.5786 53.957 79.4897 45.1558 73.4111 39.0537C68.5763 34.1955 61.5354 31.7546 54.7995 32.6465ZM58.719 35.2751C59.0476 35.4394 59.4935 35.9322 59.7047 36.3782C60.0802 37.1057 60.1272 38.068 60.1272 45.6487V54.0978L63.6476 57.6183C67.4967 61.4673 67.8957 62.0776 67.3089 63.4388C66.7457 64.8 65.2201 65.3633 63.9293 64.6827C62.967 64.1664 55.4802 56.5387 55.1985 55.7877C55.0577 55.3652 54.9638 51.8447 54.9638 46.165C54.9638 38.0914 55.0108 37.1292 55.3863 36.3782C55.8087 35.4863 56.6302 34.97 57.5455 34.97C57.8741 34.97 58.3904 35.1108 58.719 35.2751Z" fill="currentColor"/>
<path d="M1.17048 42.8792C-0.894863 44.1935 -0.0264821 47.4089 2.3909 47.4089C3.21235 47.4089 3.51745 47.2681 4.19808 46.5874C4.94911 45.8364 5.01952 45.6486 4.90217 44.7803C4.83176 44.1935 4.55012 43.5833 4.19808 43.2547C3.47051 42.5037 2.01539 42.3159 1.17048 42.8792Z" fill="currentColor"/>
<path d="M1.54604 62.7585C-0.58971 63.6973 -0.425422 66.631 1.78074 67.3586C3.2828 67.8515 4.97263 66.5841 4.97263 65.0116C4.97263 64.1432 4.26853 63.1106 3.44709 62.7585C2.48483 62.3595 2.46136 62.3595 1.54604 62.7585Z" fill="currentColor"/>
<path d="M83.5975 70.0809C81.5557 70.386 80.1944 70.785 78.4576 71.6299C75.6413 72.9677 73.0127 75.5963 71.6749 78.4127C70.4545 80.9943 70.1259 82.4729 70.1493 85.3128C70.1963 90.8986 73.3412 95.8976 78.3168 98.362C81.0628 99.6998 82.7057 100.052 85.6863 99.9344C89.7935 99.7467 92.8446 98.4324 95.661 95.616C98.4774 92.7996 99.7917 89.7486 99.9794 85.6414C100.097 82.6607 99.7447 81.0178 98.407 78.2718C96.2477 73.9065 92.164 70.9728 87.118 70.1748C85.6159 69.9401 84.7475 69.9166 83.5975 70.0809ZM90.967 77.779C91.9528 78.2014 92.516 78.9759 92.516 79.9617C92.516 80.478 91.6007 82.5903 89.7231 86.322C86.719 92.3068 86.6017 92.4711 84.8414 92.4711C84.0669 92.4711 83.7149 92.2129 80.9924 89.4904C77.7301 86.275 77.2372 85.4771 77.7301 84.2332C78.1525 83.224 79.0444 82.6138 80.124 82.6138C80.9689 82.6138 81.2505 82.778 82.7057 84.1862C83.621 85.0781 84.419 85.6648 84.4659 85.5475C84.5128 85.4067 85.3578 83.7168 86.367 81.7923C87.916 78.7882 88.2915 78.2014 88.9956 77.8729C89.6527 77.5286 90.3099 77.4973 90.967 77.779Z" fill="currentColor"/>

</svg>
