<svg width="100" height="100" viewBox="0 0 100 100" fill="none" xmlns="http://www.w3.org/2000/svg">
<path d="M48.1311 0.0587093C44.6939 0.449754 43.6442 0.606172 41.8535 0.938561C38.7045 1.54468 33.8471 3.16752 30.4717 4.7317C21.3332 8.99409 14.3559 15.3681 9.4368 23.9125L8.22246 26.0241L6.84346 23.3454C5.34097 20.3931 4.847 19.9042 3.38568 19.7478C1.67736 19.5523 0.216038 20.6668 0.0102178 22.3287C-0.0721104 23.0913 0.174874 23.6974 2.95345 29.1916C4.6206 32.5154 6.12309 35.3896 6.30833 35.6047C6.94637 36.2695 7.79024 36.5432 8.90167 36.4454C9.70437 36.3868 11.3715 35.7025 16.1054 33.5517C23.0415 30.3843 23.2268 30.2474 23.2268 28.3899C23.2268 26.7084 22.0536 25.5548 20.3247 25.5548C19.6043 25.5548 18.8016 25.809 16.9493 26.6302C15.632 27.2363 14.5 27.686 14.4382 27.6469C14.3971 27.5883 14.891 26.6889 15.5291 25.6331C21.8478 15.1922 32.7357 8.17289 45.5583 6.25677C48.6456 5.78752 55.2319 5.80707 58.1134 6.25677C62.8472 7.03886 67.0254 8.36842 71.327 10.4996C74.4349 12.0247 75.464 12.0247 76.8019 10.5192C77.8721 9.30692 77.6869 7.66454 76.3697 6.56961C75.3817 5.74841 70.0304 3.28483 67.2724 2.40498C64.6585 1.56423 61.4888 0.840799 58.7308 0.430202C56.7755 0.136918 49.6541 -0.117261 48.1311 0.0587093Z" fill="currentColor"/>
<path d="M82.8118 13.4325C81.9679 13.7649 81.2681 14.7034 81.0829 15.7983C80.98 16.3653 80.6712 19.5328 80.4242 22.8176C79.9714 28.5855 79.9714 28.8006 80.3213 29.524C80.8771 30.5994 81.7621 31.1273 83.0587 31.1273C84.1908 31.1273 84.9111 30.7754 85.6727 29.7977C86.002 29.3871 86.1255 28.7419 86.3107 26.6498C86.4342 25.1834 86.5783 23.9516 86.64 23.893C86.7018 23.8343 87.3398 24.7533 88.0396 25.9264C94.7699 37.0907 95.2639 51.0315 89.398 62.6846C85.8579 69.6648 81.2475 74.6506 74.229 79.0499C72.7677 79.9688 71.4505 80.9269 71.2652 81.1811C71.0594 81.4743 70.9359 82.0805 70.9359 82.6279C70.9359 85.0133 73.2617 86.2646 75.5669 85.1697C76.0403 84.9351 77.2752 84.2117 78.2837 83.5664C85.8167 78.7957 92.0119 71.8155 95.5726 64.0533C101.974 50.1516 100.78 34.021 92.4236 21.4489C91.7444 20.4322 91.2092 19.5915 91.2092 19.5719C91.2298 19.5719 92.2178 19.6306 93.4115 19.7283C96.6841 20.0021 98.2071 19.8847 98.8658 19.2982C99.6273 18.6334 99.9978 17.8904 99.9978 17.0497C99.9978 15.9352 99.1745 14.7621 98.1454 14.371C97.5691 14.1559 86.4342 13.237 84.4583 13.2565C83.7791 13.2565 83.0382 13.3347 82.8118 13.4325Z" fill="currentColor"/>
<path d="M5.40168 42.6439C5.05178 42.8003 4.53723 43.2109 4.26967 43.5629C3.6522 44.4036 3.52871 46.2806 3.87861 49.7805C4.90771 60.4365 9.53867 69.8606 17.4216 77.4274C26.9305 86.5778 39.4444 91.4854 52.514 91.2117C54.1812 91.1726 55.5396 91.1726 55.5396 91.2117C55.5396 91.2313 54.7575 92.3653 53.7901 93.6948C52.2259 95.8847 52.0406 96.2366 52.0406 97.0383C52.0406 98.055 52.4317 98.8762 53.1932 99.4432C54.3458 100.304 56.1982 100.147 57.2273 99.1304C57.9683 98.3678 64.9662 88.6504 65.2131 88.0247C65.5219 87.2621 65.4601 86.4605 65.0691 85.6784C64.7809 85.131 63.6489 84.2902 59.2238 81.3965C56.1982 79.4021 53.4402 77.6424 53.0903 77.486C51.1144 76.5084 48.7475 77.9357 48.7475 80.106C48.7475 81.3769 49.2621 82.0221 51.4437 83.4299C54.9015 85.6589 54.9839 85.4633 50.5999 85.3069C48.5005 85.2483 46.0513 85.0723 45.1456 84.9159C30.45 82.4914 18.2655 73.2236 12.8318 60.3778C11.0617 56.1545 10.1356 52.0485 9.88857 47.0627C9.74449 44.5796 9.68275 44.1299 9.27111 43.602C8.44782 42.4875 6.78068 42.0769 5.40168 42.6439Z" fill="currentColor"/>
<path d="M48.0876 22.1918C47.4599 22.6083 47.4208 22.6982 47.1265 25.0308C46.9742 26.2157 46.8116 27.2109 46.7745 27.2461C46.7375 27.2813 46.2805 27.4357 45.7557 27.598C44.7657 27.905 43.434 28.4387 42.7384 28.8181C42.5099 28.9451 42.2712 29.0449 42.2053 29.0449C42.1291 29.0449 41.4067 28.5482 40.5875 27.9323C38.6075 26.4503 38.5602 26.4229 38.1506 26.331C37.4179 26.1765 37.2656 26.2763 34.7813 28.6284C33.5053 29.8211 32.3732 30.9434 32.2683 31.1154C32.0295 31.4772 32.011 32.0657 32.2209 32.445C32.3074 32.5897 32.9537 33.4031 33.6576 34.2634C34.3718 35.1139 34.9522 35.8725 34.9522 35.937C34.9522 36.0016 34.8472 36.2264 34.7134 36.4434C34.3141 37.1043 33.7522 38.3693 33.4291 39.3098C33.2583 39.8064 33.0874 40.2405 33.0586 40.2855C33.0216 40.3206 31.974 40.4653 30.7267 40.61C28.2712 40.8896 28.1766 40.9268 27.7464 41.5231C27.5282 41.8223 27.5282 41.8477 27.5282 45.1403C27.5282 49.5806 27.3183 49.2814 30.6793 49.6705C31.9081 49.8152 32.9454 49.9423 33.001 49.9697C33.0586 49.9873 33.1821 50.2415 33.2768 50.5308C33.5917 51.5163 33.9334 52.3218 34.4376 53.3073C34.7237 53.841 34.9522 54.3201 34.9522 54.3748C34.9522 54.4296 34.3718 55.1706 33.6576 56.0211C32.9537 56.8794 32.3053 57.6948 32.2209 57.8395C31.9925 58.2559 32.0316 58.8249 32.3156 59.2238C32.4576 59.4134 33.5917 60.5357 34.8287 61.7108C36.7037 63.4822 37.1606 63.8635 37.4755 63.9437C38.1506 64.1157 38.4264 63.9789 40.322 62.5594C41.2935 61.8359 42.1394 61.2396 42.2074 61.2396C42.2753 61.2396 42.5223 61.3471 42.759 61.4742C43.434 61.8457 44.7287 62.3697 45.766 62.6865C46.2805 62.8487 46.7375 63.0032 46.7745 63.0384C46.8116 63.0736 46.9742 64.0688 47.1265 65.2537C47.4208 67.5863 47.4599 67.6762 48.0876 68.0848C48.4026 68.2921 48.4293 68.2921 51.8953 68.2921C56.5777 68.2921 56.2464 68.4994 56.6642 65.2537C56.8165 64.0688 56.9791 63.0736 57.0161 63.0384C57.0532 63.0032 57.5101 62.8487 58.035 62.6865C59.025 62.3795 60.3566 61.8457 61.0523 61.4664C61.2808 61.3393 61.5195 61.2396 61.5854 61.2396C61.6615 61.2396 62.3839 61.7362 63.2031 62.3521C65.4692 64.0434 65.3354 63.9613 65.8685 63.9711C66.1916 63.9808 66.4386 63.9261 66.6588 63.7912C66.84 63.6915 68.0193 62.6161 69.2769 61.4038C71.7035 59.0889 71.8188 58.9344 71.7138 58.2579C71.6562 57.8786 71.6006 57.7964 70.0569 55.9429C69.3819 55.1373 68.8385 54.4335 68.8385 54.3787C68.8385 54.324 69.0484 53.8821 69.3057 53.3933C69.7997 52.4626 70.1619 51.6218 70.4768 50.6618C70.5818 50.3373 70.695 50.0479 70.7341 50.0107C70.7629 49.9755 71.8188 49.8211 73.066 49.6764C75.5215 49.3968 75.6161 49.3597 76.0463 48.7633C76.2645 48.4642 76.2645 48.4387 76.2645 45.1461C76.2645 40.698 76.4827 41.0128 73.066 40.6159C71.8188 40.4712 70.7711 40.3167 70.7341 40.2815C70.697 40.2463 70.5344 39.8123 70.3636 39.3137C70.0405 38.3732 69.4786 37.1082 69.0793 36.4473C68.9455 36.2303 68.8405 36.0035 68.8405 35.9409C68.8405 35.8686 69.4312 35.1002 70.1537 34.2223C70.8864 33.3366 71.5347 32.5232 71.5903 32.4039C71.7797 32.0696 71.7529 31.4635 71.5244 31.1194C71.4195 30.9473 70.2875 29.827 69.0114 28.6245C67.089 26.8159 66.6321 26.4268 66.3172 26.3467C65.6421 26.1746 65.3663 26.3115 63.4707 27.731C62.4992 28.4544 61.6615 29.0507 61.6059 29.0507C61.5586 29.0507 61.0832 28.8435 60.5583 28.5893C59.5395 28.1103 58.7203 27.7935 57.7036 27.4944C57.3619 27.3947 57.0573 27.2871 57.0182 27.25C56.9812 27.2226 56.8186 26.2196 56.6662 25.0347C56.3719 22.7021 56.3328 22.6122 55.7051 22.1957C55.3902 21.9963 55.3634 21.9963 51.8974 21.9963C48.4314 21.9963 48.4046 21.9963 48.0897 22.1957L48.0876 22.1918ZM54.2273 33.7941C59.3481 34.7971 63.1558 38.604 63.9358 43.5155C64.9361 49.7644 60.2434 55.6789 53.5604 56.5823C49.9153 57.0789 46.2126 55.9488 43.5267 53.5086C38.5664 49.0136 38.4532 41.6443 43.2612 37.0241C45.1547 35.1882 47.6307 34.0229 50.3331 33.669C51.2367 33.5419 53.3134 33.6142 54.2273 33.7961V33.7941Z" fill="currentColor" stroke="currentColor" stroke-width="0.195523" stroke-miterlimit="10"/>
</svg>
