<svg width="840" height="670" viewBox="0 0 840 670" fill="none" xmlns="http://www.w3.org/2000/svg">
<g opacity="0.8">
<path d="M420 197H272.961L0 670H420V197Z" fill="url(#paint0_linear_410_2916)"/>
<path d="M420 197H567.039L840 670H420V197Z" fill="url(#paint1_linear_410_2916)"/>
</g>
<path d="M425.781 0C560.181 0 560.181 100.8 560.181 100.8C560.181 100.8 552.501 207.36 418.101 207.36C283.701 207.36 283.701 106.56 283.701 106.56C283.701 106.56 291.381 0 425.781 0Z" fill="#9146FF"/>
<mask id="mask0_410_2916" style="mask-type:luminance" maskUnits="userSpaceOnUse" x="360" y="30" width="125" height="126">
<path d="M360 30H484.436V155.287H360V30Z" fill="white"/>
</mask>
<g mask="url(#mask0_410_2916)">
<path d="M483.696 84.65C481.971 76.0351 475.945 64.0147 475.845 63.8279C473.975 60.3348 471.671 56.8985 468.929 53.5285C467.761 52.0935 467.967 51.137 468.455 49.5193C469.351 46.5445 470.082 43.373 470.033 40.2972C469.967 36.0944 467.997 32.558 463.893 30.8094C459.764 29.05 456.081 30.3687 452.776 33.0164C451.778 33.8158 450.702 34.7022 450.117 35.7931C448.93 38.0059 447.557 37.7889 445.539 36.9755C434.49 32.5215 422.995 31.3305 411.349 33.5884C406.6 34.5092 401.97 36.0394 397.276 37.5223C394.71 38.3334 391.884 37.53 390.189 35.4398C389.792 34.9499 389.37 34.4704 388.919 34.021C385.545 30.6664 381.534 28.8474 376.797 30.8076C372.068 32.7646 370.101 36.9841 370.503 41.6222C370.872 45.8985 372.632 50.0543 373.779 54.263C374.09 54.3139 373.422 56.0783 372.824 56.9431C371.62 58.685 370.517 60.4439 369.516 62.2192C369.396 62.4312 369.264 62.6347 369.12 62.8309C364.615 68.9668 361.562 76.2233 360.541 84.1339C357.299 109.258 368.928 128.335 387.266 143.982C392.517 148.463 398.344 151.995 404.857 154.749C409.36 156.654 414.259 153.256 414.091 148.37C414.09 148.339 414.089 148.308 414.088 148.277C413.894 141.973 415.267 140.721 421.608 140.642C427.844 140.565 434.108 140.817 440.311 140.318C465.981 138.252 488.884 110.56 483.696 84.65Z" fill="black"/>
</g>
<mask id="mask1_410_2916" style="mask-type:luminance" maskUnits="userSpaceOnUse" x="360" y="30" width="125" height="126">
<path d="M360 30H484.436V155.287H360V30Z" fill="white"/>
</mask>
<g mask="url(#mask1_410_2916)">
<path d="M401.752 104.245C401.752 105.263 401.702 106.284 401.761 107.298C402.197 114.9 407.121 117.714 413.883 114.157C415.157 113.486 416.317 112.508 417.353 111.492C419.267 109.611 419.348 107.501 417.583 105.457C416.402 104.089 415.018 102.893 413.863 101.506C411.51 98.6809 412.101 95.0001 415.449 93.5876C419.973 91.6784 424.764 91.5967 429.278 93.6412C432.555 95.1259 433.073 98.8433 430.683 101.597C429.573 102.877 428.298 104.013 427.155 105.266C425.209 107.399 425.201 109.754 427.346 111.531C429.2 113.068 431.414 114.481 433.701 115.123C438.836 116.566 442.361 114.163 442.637 108.873C443.233 97.4556 441.453 86.4885 434.641 76.9145C427.406 66.7478 417.156 66.8737 409.89 76.9989C404.032 85.1631 402.36 94.534 401.752 104.245Z" fill="white"/>
</g>
<mask id="mask2_410_2916" style="mask-type:luminance" maskUnits="userSpaceOnUse" x="360" y="30" width="125" height="126">
<path d="M360 30H484.436V155.287H360V30Z" fill="white"/>
</mask>
<g mask="url(#mask2_410_2916)">
<path d="M419.07 126.172C421.242 126.662 423.497 126.653 425.665 126.145C427.962 125.607 430.248 125.06 432.39 124.166C435.236 122.979 435.263 120.477 432.492 119.164C425.81 115.999 418.901 116.012 412.203 119.099C409.248 120.461 409.326 122.994 412.413 124.271C414.507 125.138 416.749 125.648 419.07 126.172Z" fill="white"/>
</g>
<mask id="mask3_410_2916" style="mask-type:luminance" maskUnits="userSpaceOnUse" x="360" y="30" width="125" height="126">
<path d="M360 30H484.436V155.287H360V30Z" fill="white"/>
</mask>
<g mask="url(#mask3_410_2916)">
<path d="M435.684 58.2126C432.768 58.2126 430.335 60.2756 429.763 63.0212C427.461 62.3806 424.947 62.036 422.354 62.036C420.105 62.036 417.922 62.2949 415.885 62.7785C415.223 60.1561 412.855 58.2126 410.027 58.2126C406.685 58.2126 403.977 60.9212 403.977 64.2623C403.977 67.6034 406.685 70.312 410.027 70.312C413.368 70.312 416.076 67.6034 416.076 64.2623C416.076 64.2154 416.07 64.1703 416.069 64.1238C418.038 63.6456 420.16 63.3894 422.354 63.3894C424.918 63.3894 427.396 63.7376 429.64 64.3882C429.708 67.6706 432.385 70.312 435.684 70.312C439.025 70.312 441.734 67.6034 441.734 64.2623C441.734 60.9212 439.025 58.2126 435.684 58.2126Z" fill="white"/>
</g>
<path d="M465.5 20C532.5 26 543 92.5 543 92.5" stroke="#FEFEFE" stroke-width="10" stroke-linecap="round"/>
<path d="M431.88 102.96C720.28 102.96 720.28 153.36 720.28 153.36C720.28 153.36 703.8 206.64 415.4 206.64C127 206.64 127 156.24 127 156.24C127 156.24 143.48 102.96 431.88 102.96Z" fill="url(#paint2_linear_410_2916)"/>
<path d="M425.678 167.68C573.941 167.68 573.941 199.277 573.941 199.277C573.941 199.277 565.469 232.68 417.205 232.68C268.941 232.68 268.941 201.082 268.941 201.082C268.941 201.082 277.414 167.68 425.678 167.68Z" fill="#AF79FF"/>
<path d="M426.539 207.68C534.941 207.68 534.941 223.235 534.941 223.235C534.941 223.235 528.747 239.68 420.344 239.68C311.941 239.68 311.941 224.124 311.941 224.124C311.941 224.124 318.136 207.68 426.539 207.68Z" fill="#F0F0F0"/>
<path d="M85.1187 466.205C85.8422 460.598 92.1578 460.598 92.8813 466.205L95.1192 483.546L108.706 486.403C113.098 487.326 113.098 495.387 108.706 496.31L95.1192 499.167L92.8813 516.508C92.1578 522.114 85.8422 522.114 85.1187 516.508L82.8808 499.167L69.2942 496.31C64.9019 495.387 64.9019 487.326 69.2943 486.403L82.8808 483.546L85.1187 466.205Z" fill="white"/>
<path d="M752.547 442.199C753.097 437.934 757.903 437.934 758.453 442.199L760.156 455.394L770.494 457.567C773.835 458.27 773.835 464.403 770.493 465.106L760.156 467.279L758.453 480.474C757.903 484.739 753.097 484.739 752.547 480.474L750.844 467.279L740.506 465.106C737.164 464.403 737.165 458.27 740.506 457.567L750.844 455.394L752.547 442.199Z" fill="white"/>
<path d="M631.119 264.165C631.842 258.558 638.158 258.558 638.881 264.165L641.119 281.506L654.706 284.362C659.098 285.286 659.098 293.347 654.706 294.27L641.119 297.127L638.881 314.468C638.158 320.074 631.842 320.074 631.119 314.468L628.881 297.127L615.294 294.27C610.902 293.347 610.902 285.286 615.294 284.362L628.881 281.506L631.119 264.165Z" fill="white"/>
<defs>
<linearGradient id="paint0_linear_410_2916" x1="210" y1="197" x2="210" y2="670" gradientUnits="userSpaceOnUse">
<stop stop-color="#51E8FF"/>
<stop offset="1" stop-color="#51E8FF" stop-opacity="0"/>
</linearGradient>
<linearGradient id="paint1_linear_410_2916" x1="630" y1="197" x2="630" y2="670" gradientUnits="userSpaceOnUse">
<stop stop-color="#51E8FF"/>
<stop offset="1" stop-color="#51E8FF" stop-opacity="0"/>
</linearGradient>
<linearGradient id="paint2_linear_410_2916" x1="423.64" y1="102.96" x2="423.64" y2="206.64" gradientUnits="userSpaceOnUse">
<stop stop-color="#7313FF"/>
<stop offset="1" stop-color="#9146FF"/>
</linearGradient>
</defs>
</svg>
