<svg width="1792" height="813" viewBox="0 0 1792 813" fill="none" xmlns="http://www.w3.org/2000/svg">
<g clip-path="url(#clip0_718_131)">
<path d="M1648.21 271.67L1646.18 270.44L1641.28 273.62C1644.58 273.46 1647.88 273.45 1651.2 273.62C1649.81 272.7 1648.71 271.99 1648.21 271.67ZM1759.46 360.46C1757.36 344.48 1752.19 329.31 1744.38 316.29C1742.58 313.29 1740.67 310.38 1738.65 307.59C1735.22 302.85 1731.47 298.41 1727.4 294.29C1726.55 293.75 1725.6 293.12 1724.59 292.45C1720.21 289.62 1718.08 288.5 1716.84 288.5C1715.56 288.5 1713.32 289.62 1708.89 292.5C1708.11 292.99 1707.37 293.46 1706.68 293.88C1709.06 295.67 1711.35 297.54 1713.55 299.54C1716.89 302.52 1720.01 305.74 1722.87 309.16C1749.28 340.66 1754.24 384.11 1735.63 420.39C1733.36 424.8 1726.4 435.65 1726.09 435.29C1725.96 435.2 1725.11 433.5 1724.17 431.58C1715.11 412.8 1698.25 397.09 1678.89 389.29C1676.39 388.26 1674.33 387.24 1674.33 387.01C1674.37 386.74 1675.54 385.63 1676.92 384.42C1683.97 378.58 1689.72 368.72 1691.78 358.99C1697.94 330.17 1675.49 302.46 1646.04 302.46C1616.6 302.46 1594.16 330.17 1600.31 358.99C1602.36 368.72 1608.12 378.57 1615.17 384.42C1616.55 385.63 1617.8 386.74 1617.93 386.92C1618.06 387.14 1616.02 388.17 1613.43 389.2C1593.85 397.09 1577.02 412.71 1567.93 431.58C1566.99 433.5 1566.14 435.2 1566.01 435.29C1565.7 435.65 1558.74 424.8 1556.46 420.39C1537.86 384.12 1542.81 340.67 1569.23 309.16C1572.12 305.7 1575.26 302.47 1578.59 299.47C1580.82 297.44 1583.15 295.54 1585.55 293.74C1584.93 293.33 1584.27 292.9 1583.58 292.44C1579.19 289.55 1577.06 288.49 1575.78 288.49C1574.55 288.49 1572.3 289.61 1567.82 292.44C1566.54 293.25 1565.35 294 1564.37 294.6C1560.46 298.6 1556.85 302.88 1553.54 307.45C1551.48 310.29 1549.54 313.24 1547.71 316.29C1539.9 329.32 1534.73 344.49 1532.63 360.46C1531.92 365.95 1531.92 382.64 1532.63 388.12C1536.28 415.92 1548.52 439.42 1569.22 458.65C1580.64 469.32 1594.87 477.62 1610.35 482.7C1622.57 486.76 1632.25 488.23 1646.03 488.23C1656.21 488.23 1660.71 487.83 1669.68 486C1700.41 479.71 1727.85 459.99 1744.36 432.29C1752.17 419.26 1757.34 404.09 1759.44 388.13C1760.18 382.63 1760.18 365.94 1759.46 360.46ZM1615.18 362.02C1613.35 357.69 1612.81 354.79 1612.81 349.3C1612.81 343.81 1613.35 340.92 1615.18 336.59C1619.33 326.78 1628.79 318.75 1638.46 316.78C1639.8 316.51 1641.32 316.2 1641.81 316.11C1643.46 315.71 1652.02 316.24 1654.3 316.87C1666.3 320.22 1675.63 329.72 1678.66 341.73C1679.02 343.11 1679.28 346.41 1679.28 349.31C1679.28 354.8 1678.75 357.7 1676.92 362.03C1672.77 371.8 1663.98 379.29 1653.63 381.93C1650.47 382.73 1641.63 382.73 1638.46 381.93C1628.12 379.28 1619.32 371.79 1615.18 362.02ZM1712.17 450.22C1701.55 459.32 1690.49 465.65 1677.73 469.89C1657.16 476.76 1634.94 476.76 1614.37 469.89C1601.61 465.65 1590.54 459.31 1579.93 450.22L1576.05 446.87L1576.98 444.38C1577.47 443 1578.86 439.87 1580.06 437.42C1593.67 409.36 1624.8 392.58 1655.46 396.87C1670.63 398.96 1683.79 404.98 1695.12 415.03C1703.69 422.62 1711.23 433.72 1715.11 444.39L1716.05 446.88L1712.17 450.22ZM1588.56 291.56C1591.01 289.87 1593.53 288.29 1596.11 286.82C1604.13 282.26 1612.78 278.8 1621.76 276.54C1628.13 274.94 1634.67 273.95 1641.27 273.62H1641.28C1644.58 273.46 1647.88 273.45 1651.2 273.62C1652.53 273.69 1653.86 273.78 1655.19 273.91C1660.35 274.39 1665.48 275.29 1670.52 276.59C1679.5 278.88 1688.17 282.42 1696.21 287.02C1698.81 288.5 1701.35 290.1 1703.8 291.81C1704.02 291 1704.26 290.11 1704.51 289.19C1706.97 280.27 1706.97 280.33 1699.54 274.23L1696.93 272.08H1696.92C1691.85 269.54 1686.48 267.38 1680.96 265.61C1676.48 264.17 1671.91 262.99 1667.29 262.1C1664.98 261.65 1662.64 261.28 1660.32 260.97C1659.79 260.9 1659.05 260.83 1658.16 260.76C1658.25 261.14 1658.36 261.53 1658.46 261.95L1660.33 269.27L1658.41 268.1C1657.29 267.46 1654.68 265.75 1652.48 264.31C1646.5 260.3 1645.91 260.35 1638.54 265.16C1635.18 267.4 1632.35 269.17 1632.24 269.06C1632.19 268.95 1632.93 265.85 1633.95 262.16C1634.08 261.67 1634.21 261.2 1634.33 260.76C1633.64 260.83 1632.92 260.9 1632.22 260.97C1629.89 261.23 1627.51 261.58 1625.12 262.02C1620.63 262.86 1616.07 264.02 1611.56 265.46C1606.24 267.16 1601 269.26 1596.02 271.67L1592.83 274.33C1585.46 280.42 1585.46 280.42 1588.02 289.55C1588.21 290.25 1588.39 290.93 1588.56 291.56Z" fill="#9146FF"/>
<path d="M1679.8 235.2C1678.6 234.4 1676.4 234.1 1668.3 233.7L1658.2 233.2L1654.8 224.1C1652.2 217.3 1650.9 214.6 1649.8 213.5C1648 211.9 1645.6 211.6 1643.5 212.7C1641.7 213.7 1641.2 214.7 1637.6 224.4L1634.2 233.3L1625 233.7C1614.9 234.1 1612.9 234.5 1611.3 236.5C1610 238.2 1609.9 241.8 1611.2 243.4C1611.7 244 1615.3 247 1619.1 250C1623 253 1626.2 255.7 1626.4 255.8C1626.6 256 1626 258.5 1625.1 262C1624.8 263.2 1624.4 264.5 1624.1 265.9C1622.2 272.8 1621.7 275 1621.8 276.5C1621.8 276.9 1621.9 277.2 1622 277.6C1622.9 280.1 1625.4 281.7 1627.9 281.4C1629.1 281.2 1632.7 279.3 1638 275.8L1641.3 273.6L1646.2 270.4L1648.2 271.6C1648.7 271.9 1649.8 272.6 1651.2 273.5C1652.8 274.6 1654.8 275.9 1656.7 277.2C1663.5 281.7 1665 282.2 1667.9 280.7C1669.3 279.9 1670.3 278.3 1670.6 276.5C1670.6 276.2 1670.7 275.9 1670.7 275.6C1670.7 274.7 1669.6 270 1668.2 265.1C1667.9 263.9 1667.6 262.9 1667.4 262C1666.1 257.2 1666 256 1666.5 255.5C1666.9 255.1 1670.2 252.4 1674 249.5C1677.7 246.5 1681.2 243.5 1681.6 242.9C1683.1 240.7 1682.3 236.8 1679.8 235.2ZM1663.4 247.1C1660.2 249.6 1657.4 252.3 1657.1 253.1C1656.7 254.2 1656.8 255.7 1658.1 260.7C1658.2 261.1 1658.3 261.5 1658.4 261.9L1660.3 269.2L1658.4 268C1657.3 267.4 1654.7 265.7 1652.5 264.2C1646.5 260.2 1645.9 260.2 1638.6 265C1635.2 267.2 1632.4 269 1632.3 268.9C1632.2 268.8 1633 265.7 1634 262C1634.1 261.5 1634.3 261 1634.4 260.6C1636.5 252.9 1636.1 252.5 1629.3 247.1C1626.3 244.7 1623.8 242.6 1624 242.5C1624.1 242.4 1627.3 242.1 1631.1 241.9C1636.3 241.6 1638.3 241.3 1639.4 240.6C1640.9 239.6 1640.9 239.5 1644.3 230.9C1646.2 225.8 1646.4 225.6 1646.9 227.1C1647.2 227.9 1648.4 231 1649.6 234C1652.5 241.3 1652.7 241.4 1661.7 242C1665.6 242.2 1668.9 242.4 1669 242.4C1669 242.5 1666.5 244.6 1663.4 247.1Z" fill="#9146FF"/>
<path d="M1611.6 265.5C1611.3 264.7 1610.9 264 1610.4 263.4C1608.9 261.7 1608.6 261.6 1603.3 261.3C1600.3 261.1 1595.6 260.9 1592.8 260.9L1587.9 260.8L1585.8 255.3C1584.7 252.3 1583.1 248.1 1582.3 246.1C1581.5 244 1580.6 242 1580.2 241.5C1578.4 239.2 1574.3 238.7 1572.1 240.6C1571.1 241.5 1569.6 244.7 1567.3 250.6C1565.5 255.5 1563.8 259.7 1563.6 260.1C1563.3 260.6 1561.7 260.8 1558.8 260.9C1556.4 260.9 1551.8 261.1 1548.6 261.3C1542.9 261.7 1542.7 261.7 1541.3 263.4C1540.1 264.7 1539.7 265.6 1539.7 267.5C1539.7 270.2 1540.3 270.9 1550.3 278.7C1553.6 281.4 1556.2 283.8 1556.1 284.2C1556 284.5 1554.7 289.1 1553.3 294.2L1550.8 303.6L1551.8 305.6C1552.2 306.4 1552.8 307.1 1553.6 307.7C1554.9 308.7 1556.6 309.2 1558 308.9C1558.7 308.7 1562.9 306.1 1567.5 303.2L1575.7 297.8L1578.7 299.7L1584.1 303.3C1591.4 308.1 1592.8 308.8 1594.7 308.8C1596.7 308.9 1597.3 308.6 1598.6 307.1C1600.7 304.8 1600.6 303.4 1597.8 292.9C1597.2 290.7 1596.6 288.7 1596.2 287.1C1595.7 285.2 1595.4 283.9 1595.4 283.8C1595.4 283.6 1598.8 280.8 1602.9 277.5C1607 274.2 1610.8 271 1611.2 270.4C1611.9 268.9 1612.1 267.1 1611.6 265.5ZM1592.8 274.3C1585.4 280.4 1585.4 280.4 1588 289.5C1588.2 290.2 1588.4 290.9 1588.5 291.5C1589.2 294.2 1589.8 296.2 1589.7 296.3C1589.6 296.3 1587.9 295.2 1585.5 293.7C1584.9 293.3 1584.2 292.9 1583.5 292.4C1579.1 289.5 1577 288.5 1575.7 288.5C1574.5 288.5 1572.2 289.6 1567.7 292.4C1566.4 293.2 1565.2 294 1564.3 294.6C1562.6 295.6 1561.5 296.2 1561.5 296.1C1561.5 295.9 1562.3 293.1 1563.2 289.8C1565 283.2 1565.2 281 1564 279.2C1563.6 278.6 1560.9 276.2 1558.1 274C1555.3 271.8 1553 269.8 1552.9 269.7C1552.9 269.5 1556 269.3 1559.7 269.1C1564.4 268.9 1567.1 268.6 1568.1 268C1570 267 1570.1 266.7 1574.9 254L1575.3 252.9L1575.8 254C1576.1 254.6 1577.3 257.7 1578.5 260.9C1581.5 268.6 1581.5 268.6 1590.9 269.1L1598.3 269.5L1595.7 271.6L1592.8 274.3Z" fill="#9146FF"/>
<path d="M1751.4 263.3C1749.9 261.6 1749.6 261.5 1744.3 261.2C1741.3 261 1736.6 260.8 1733.9 260.8C1729.7 260.7 1728.9 260.6 1728.6 259.8C1728.4 259.3 1726.9 255.5 1725.4 251.4C1721.5 241.4 1721.4 241 1719.7 240.1C1717.7 239.1 1715.5 239.1 1713.6 240.4C1712.2 241.3 1711.5 242.6 1708.6 250.4C1706.7 255.4 1705 259.7 1704.7 260.1C1704.4 260.6 1702.7 260.8 1699.8 260.9C1697.5 260.9 1692.9 261.1 1689.7 261.3C1684 261.7 1683.8 261.7 1682.4 263.4C1681.8 264.1 1681.3 264.9 1681.1 265.7C1680.6 267.4 1680.9 269.2 1681.9 270.6C1682.5 271.4 1686.2 274.5 1690.2 277.7C1695.2 281.7 1697.4 283.7 1697.1 284.3C1696.8 285.2 1696.5 286.2 1696.3 287.2C1694 295.2 1692.1 303.4 1692.4 304.4C1692.9 306.3 1695.1 308.4 1697.2 308.8C1699.3 309.2 1700.6 308.5 1710.4 302L1713.7 299.8L1716.8 297.7L1724.3 302.7C1728.5 305.4 1732.6 308 1733.4 308.4C1735.2 309.3 1737.2 308.9 1738.8 307.8C1740.2 306.8 1741.2 305.2 1741.2 303.3C1741.2 302.2 1740.1 297.4 1738.8 292.6C1737.5 287.8 1736.4 283.8 1736.4 283.7C1736.4 283.6 1739.8 280.8 1743.9 277.5C1748 274.2 1751.8 271 1752.2 270.4C1753.4 268.2 1753.1 265.3 1751.4 263.3ZM1737.1 271.6C1735.6 272.8 1733 275.1 1731.2 276.5C1726.8 280.2 1726.6 280.9 1728.9 289.3C1730 293.2 1730.8 296.3 1730.7 296.3C1730.6 296.3 1729.3 295.5 1727.4 294.2C1726.6 293.7 1725.6 293 1724.6 292.4C1720.2 289.6 1718.1 288.5 1716.9 288.5C1715.6 288.5 1713.4 289.6 1708.9 292.5C1708.1 293 1707.4 293.5 1706.7 293.9C1704.3 295.4 1702.7 296.3 1702.7 296.3C1702.7 296.2 1703.2 294.4 1703.9 291.9C1704.1 291.1 1704.4 290.2 1704.6 289.3C1707.1 280.4 1707.1 280.4 1699.6 274.3L1697 272.1L1693.9 269.6L1700.9 269.3C1708.4 268.9 1710.6 268.3 1711.7 266C1712.2 265 1714.9 258.2 1716.4 253.9C1716.8 252.8 1716.9 253 1719.5 260C1720.8 263.5 1722.4 266.8 1723 267.4C1724.3 268.6 1727.8 269.2 1734.8 269.3L1739.9 269.4L1737.1 271.6Z" fill="#9146FF"/>
<path d="M979.9 86.4999C979.6 85.9999 979.2 85.3999 978.9 84.8999C976.9 81.6999 974.7 78.5999 972.4 75.5999C972.2 75.3999 972 75.0999 971.8 74.8999C971 75.6999 970 76.6999 968.9 77.8999L962.2 84.4999L955 77.2999C957.2 79.5999 959.2 81.9999 961.1 84.3999C963.5 87.3999 965.7 90.5999 967.7 93.8999C968 94.3999 968.3 94.8999 968.6 95.4999C977.2 110.3 981.7 127.2 981.7 144.5C981.7 156.9 979.4 169.1 974.9 180.4C973.2 184.8 971.1 189.1 968.7 193.2C967.8 194.7 966.9 196.2 966 197.7C965.5 198.4 965.1 199.1 964.6 199.8C963.1 202 961.5 204.2 959.7 206.3C958.3 208 956.9 209.6 955.5 211.1C953.8 213 951.9 214.8 950 216.6C949.7 216.9 949.4 217.1 949.1 217.4C947.8 218.6 946.5 219.7 945.1 220.8C942.6 222.8 940.1 224.7 937.4 226.4C921.5 236.8 903.2 242.3 883.9 242.3C864.6 242.3 846.3 236.8 830.4 226.4C827.8 224.7 825.2 222.8 822.7 220.8C821.3 219.7 820 218.6 818.7 217.4C818.4 217.1 818.1 216.8 817.8 216.6C812.9 212.1 808.5 207.2 804.6 201.9C804.2 201.3 803.7 200.7 803.3 200.1C802.3 198.7 801.4 197.2 800.4 195.7C798.1 192 796.1 188.1 794.3 184.1C788.8 171.7 785.9 158.2 785.9 144.5C785.9 90.5999 829.8 46.6999 883.7 46.6999C903.1 46.6999 921.9 52.3999 938 63.0999C938.4 63.3999 938.8 63.5999 939.1 63.8999C942.1 65.9999 945.1 68.2999 948 70.7999C949 71.5999 949.9 72.4999 950.8 73.3999L947.7 70.3999L954.3 63.6999C955.6 62.3999 956.7 61.2999 957.7 60.3999C957.6 60.2999 957.4 60.1999 957.3 60.0999C954.4 57.4999 951.3 55.0999 948.2 52.8999C947.8 52.5999 947.5 52.3999 947.1 52.0999C928.4 39.1999 906.4 32.3999 883.6 32.3999C821.8 32.3999 771.5 82.6999 771.5 144.5C771.5 165.3 777.2 185.6 788.1 203.2C789.6 205.6 791.2 208 792.9 210.3C797.3 216.4 802.4 222.1 808 227.2C809.8 228.8 811.6 230.4 813.6 232C833.4 247.9 858.3 256.6 883.7 256.6C909.1 256.6 934 247.8 953.8 232C955.6 230.5 957.5 228.9 959.4 227.2C960 226.6 960.7 226 961.3 225.4C962.8 223.9 964.3 222.4 965.7 220.9C967.3 219.1 969 217.3 970.6 215.3C972 213.6 973.2 212 974.5 210.3C975.1 209.5 975.7 208.7 976.2 207.9C977.9 205.4 979.5 202.9 981 200.3C990.8 183.4 995.9 164.1 995.9 144.4C996.1 124 990.5 103.9 979.9 86.4999Z" fill="#9146FF"/>
<path d="M966 98.1C965.7 97.9 965.3 97.7 964.9 97.5C962 95.9 958.8 95.1 955.5 95.1H951.8L942.9 104H955.6C956.9 104 958.3 104.3 959.5 104.8C959.9 105 960.3 105.1 960.7 105.4C964 107.3 966.1 110.8 966.1 114.6V207C966.1 208.4 965.8 209.7 965.3 210.9C967.1 208.6 968.9 206.3 970.5 203.9C972.1 201.6 973.6 199.2 975 196.8V114.5C974.9 107.8 971.5 101.7 966 98.1ZM814.8 217.4C810.6 213.5 806.8 209.2 803.4 204.6V114.5C803.4 108.7 808.1 104 813.9 104H914.4L923.3 95.1H813.9C803.2 95.1 794.5 103.8 794.5 114.6V207.6L795.3 208.8C799.6 214.8 804.6 220.3 810 225.3L811.2 226.4L812.8 226.5C813.2 226.5 813.6 226.5 813.9 226.5H949.6C951.4 225.1 953.1 223.6 954.8 222C956.8 220.1 958.8 218.2 960.7 216.1C959.2 217 957.4 217.5 955.5 217.5H814.8V217.4ZM798.9 206.9V206C803.1 211.7 807.8 217 813 221.8C805.2 221.4 798.9 214.9 798.9 206.9Z" fill="#9146FF"/>
<path d="M955.5 226.4H949.6C951.4 225 953.1 223.5 954.8 221.9C956.8 220 958.8 218.1 960.7 216C962.7 214.8 964.4 213 965.2 210.8C967 208.5 968.8 206.2 970.4 203.8C972 201.5 973.5 199.1 974.9 196.7V206.8" fill="#9146FF"/>
<path d="M813 221.9C805.1 221.5 798.9 214.9 798.9 207V206.1C803.1 211.8 807.8 217.1 813 221.9Z" fill="#9146FF"/>
<path d="M895.8 122.5L886.9 131.5H802.5V122.5H895.8Z" fill="#9146FF"/>
<path d="M966.9 122.5V131.5H915.3L924.3 122.5H966.9Z" fill="#9146FF"/>
<path d="M816.4 118.2C818.609 118.2 820.4 116.409 820.4 114.2C820.4 111.991 818.609 110.2 816.4 110.2C814.191 110.2 812.4 111.991 812.4 114.2C812.4 116.409 814.191 118.2 816.4 118.2Z" fill="#9146FF"/>
<path d="M830.7 118.2C832.909 118.2 834.7 116.409 834.7 114.2C834.7 111.991 832.909 110.2 830.7 110.2C828.491 110.2 826.7 111.991 826.7 114.2C826.7 116.409 828.491 118.2 830.7 118.2Z" fill="#9146FF"/>
<path d="M844.9 118.2C847.109 118.2 848.9 116.409 848.9 114.2C848.9 111.991 847.109 110.2 844.9 110.2C842.691 110.2 840.9 111.991 840.9 114.2C840.9 116.409 842.691 118.2 844.9 118.2Z" fill="#9146FF"/>
<path d="M987.54 70.4601C987.54 64.5701 987.05 63.7301 978.11 54.7601C969.34 45.9401 967.96 45.0701 962.64 44.8801C960.17 44.8101 958.91 44.9601 957.32 45.5701C956.19 45.9801 955.16 46.3301 955.08 46.3301C955.04 46.3301 952.63 48.6901 948.5 52.7901C945.77 55.5101 942.26 58.9901 938.18 63.0501C930.42 70.7801 920.58 80.6001 909.92 91.2601L865 136.19L861.31 147.21L857.66 158.2L857.81 161.47C858 165.45 859.25 168.31 861.91 170.78C864.8 173.48 867.24 174.54 871.07 174.73L874.3 174.88L885.51 171.2L896.7 167.5L940.98 123.19C941.19 122.98 941.41 122.76 941.62 122.55C948.54 115.63 954.41 109.74 959.41 104.73C961.81 102.33 964 100.14 966 98.1201C966.92 97.2001 967.8 96.3201 968.63 95.4801C972.99 91.0801 976.36 87.6501 978.95 84.9301C988.92 74.4601 987.54 74.4601 987.54 70.4601ZM890.04 156.75L881.19 159.72C876.33 161.32 872 162.65 871.58 162.65C870.59 162.65 869.91 161.96 869.91 160.97C869.91 160.51 871.2 156.26 872.8 151.44L875.69 142.69L907.5 110.88L939.28 79.0301L953.53 93.2901L890.04 156.75ZM968.92 77.8801L962.26 84.5301L955.16 77.3801L954.83 77.0501L951.08 73.3201L948.02 70.2701L954.67 63.6101C956 62.2801 957.11 61.1901 958.03 60.3001C960.63 57.8101 961.74 56.9601 962.27 56.9601C962.99 56.9601 964.71 58.4101 969.42 63.1501C974.09 67.8301 975.58 69.5401 975.58 70.2601C975.58 70.8101 974.63 72.0301 971.87 74.8801C971.05 75.7301 970.07 76.7301 968.92 77.8801Z" fill="#9146FF"/>
<path d="M138.8 255.82C137.95 255.91 135.32 256.22 133 256.44C118.28 258.05 101.99 263.58 88.83 271.43C72.1 281.42 58.49 295.03 48.5 311.76C40.69 324.79 35.52 339.96 33.42 355.93C32.71 361.42 32.71 378.1 33.42 383.59C37.08 411.39 49.3 434.9 70 454.13C81.42 464.79 95.65 473.09 111.13 478.18C123.35 482.24 133.04 483.71 146.82 483.71C156.99 483.71 161.5 483.31 170.47 481.48C201.21 475.19 228.65 455.47 245.15 427.76C252.96 414.73 258.13 399.56 260.23 383.59C260.94 378.1 260.94 361.42 260.23 355.93C258.13 339.96 252.96 324.79 245.15 311.76C235.16 295.03 221.55 281.42 204.82 271.43C191.93 263.71 176.53 258.45 161.1 256.44C157.18 255.91 141.56 255.51 138.8 255.82ZM155.97 269.38C181.98 271.79 207.1 284.86 223.65 304.63C250.06 336.13 255.01 379.58 236.41 415.85C234.13 420.27 227.17 431.11 226.86 430.75C226.73 430.66 225.88 428.97 224.94 427.05C215.88 408.27 199.02 392.56 179.66 384.76C177.16 383.73 175.11 382.71 175.11 382.48C175.15 382.21 176.31 381.1 177.7 379.89C184.75 374.05 190.5 364.19 192.56 354.46C198.72 325.64 176.28 297.93 146.83 297.93C117.38 297.93 94.94 325.64 101.1 354.46C103.15 364.19 108.91 374.05 115.96 379.89C117.34 381.09 118.59 382.21 118.73 382.39C118.86 382.61 116.81 383.64 114.22 384.67C94.63 392.57 77.81 408.18 68.71 427.05C67.77 428.97 66.93 430.66 66.79 430.75C66.48 431.11 59.52 420.27 57.24 415.85C38.64 379.58 43.59 336.12 70 304.63C90.75 279.87 123.54 266.4 155.97 269.38ZM155.08 312.35C167.08 315.7 176.41 325.2 179.44 337.2C179.8 338.58 180.06 341.88 180.06 344.78C180.06 350.27 179.52 353.17 177.7 357.5C173.55 367.27 164.76 374.77 154.41 377.4C151.24 378.2 142.41 378.2 139.24 377.4C128.89 374.76 120.1 367.27 115.95 357.5C114.12 353.17 113.59 350.27 113.59 344.78C113.59 339.29 114.13 336.39 115.95 332.06C120.1 322.24 129.56 314.21 139.24 312.25C140.58 311.98 142.1 311.67 142.59 311.58C144.24 311.19 152.81 311.72 155.08 312.35ZM156.24 392.34C171.41 394.44 184.57 400.46 195.9 410.5C204.47 418.08 212.01 429.19 215.89 439.86L216.83 442.36L212.95 445.71C202.33 454.81 191.27 461.15 178.51 465.39C157.94 472.26 135.72 472.26 115.16 465.39C102.4 461.15 91.34 454.82 80.72 445.71L76.84 442.36L77.78 439.86C78.27 438.48 79.65 435.35 80.86 432.9C94.45 404.83 125.59 388.06 156.24 392.34Z" fill="#9146FF"/>
<path d="M610.77 337.73C610.27 337.98 607.05 340.82 603.67 344.04C600.29 347.26 597.42 349.91 597.33 349.91C597.2 349.91 596.01 348.74 594.65 347.29C591.56 344.04 590.93 343.6 589.22 343.6C586.89 343.6 585.37 345.68 585.84 348.24C586 349.19 586.88 350.26 590.63 354.04C593.15 356.59 595.61 358.87 596.15 359.09C598.01 359.85 598.86 359.28 607.28 351.3C614.94 344.05 616.27 342.56 616.27 341.24C616.27 340.14 615.17 338.46 614.03 337.87C612.79 337.2 612.06 337.16 610.77 337.73Z" fill="#9146FF"/>
<path d="M622.28 350.86C622.28 349.22 623.04 347.86 624.3 347.26C625.15 346.85 628.43 346.75 648.18 346.76H671.08L672.33 347.43C674.22 348.69 674.55 350.8 673.38 352.66L673.342 352.723L673.312 352.774C673.291 352.809 673.271 352.844 673.251 352.879C673.138 353.074 673.038 353.245 672.914 353.396C672.006 354.496 669.775 354.505 651.273 354.573L649.25 354.58C637.1 354.65 626.54 354.58 625.78 354.49C623.76 354.17 622.28 352.66 622.28 350.86Z" fill="#9146FF"/>
<path d="M624.3 377.98C621.71 379.02 621.62 383.44 624.17 384.76C625.56 385.49 670.41 385.49 671.92 384.76C673.81 383.85 674.54 381.51 673.53 379.56C673.512 379.526 673.495 379.492 673.478 379.458L673.431 379.364C673.327 379.154 673.235 378.97 673.113 378.809C672.251 377.669 669.877 377.672 650.654 377.697L648.08 377.7C635.37 377.7 624.65 377.82 624.3 377.98Z" fill="#9146FF"/>
<path d="M603.67 405.55C607.05 402.33 610.27 399.49 610.77 399.27C612.06 398.67 612.79 398.7 614.03 399.38C615.17 399.97 616.27 401.65 616.27 402.75C616.27 404.07 614.94 405.56 607.28 412.81C598.86 420.79 598.04 421.39 596.15 420.6C595.61 420.38 593.15 418.1 590.63 415.55C586.88 411.77 586 410.7 585.84 409.75C585.37 407.19 586.89 405.11 589.22 405.11C590.9 405.11 591.5 405.52 594.65 408.8C596.04 410.25 597.24 411.42 597.33 411.42C597.42 411.42 600.29 408.77 603.67 405.55Z" fill="#9146FF"/>
<path d="M624.62 408.57C624.27 408.7 623.58 409.26 623.14 409.83C621.37 411.91 622.41 415.07 625.06 415.82C626.83 416.29 670.04 416.23 671.49 415.73C672.09 415.51 672.88 414.88 673.29 414.28C674.55 412.39 674.11 410.31 672.15 408.98L671.08 408.25L648.18 408.28C635.59 408.29 625 408.42 624.62 408.57Z" fill="#9146FF"/>
<path d="M611.24 375.39L606.98 379.41L611.12 383.24C613.12 385.1 613.24 388.23 611.38 390.23C610.4 391.28 609.08 391.81 607.75 391.81C606.54 391.81 605.33 391.37 604.38 390.49L599.75 386.2L595.08 390.6C594.13 391.5 592.91 391.95 591.69 391.95C590.38 391.95 589.06 391.43 588.09 390.4C586.22 388.42 586.31 385.28 588.3 383.41L592.49 379.46L588.12 375.4C586.12 373.54 586 370.41 587.86 368.41C589.72 366.41 592.85 366.29 594.85 368.15L599.71 372.66L604.46 368.19C606.44 366.32 609.57 366.41 611.45 368.4C613.32 370.38 613.23 373.52 611.24 375.39Z" fill="#9146FF"/>
<path fill-rule="evenodd" clip-rule="evenodd" d="M625 283.86C620.17 285.03 615.54 288.65 613.46 292.88L612.42 295.02H606.08C597.31 295.02 597.06 295.18 597.06 301.2V304.48H589.1C583.17 304.48 580.62 304.61 579.13 304.95C573.07 306.4 568.03 311.45 566.8 317.35C566.55 318.55 566.45 335.52 566.45 375.58V375.585C566.45 431.03 566.45 432.2 567.08 434.18C568.66 439.26 573.04 443.07 578.85 444.37C580.87 444.81 586.36 444.84 630.96 444.78L680.8 444.69L682.91 443.87C686.79 442.36 690.2 439.58 691.68 436.68C691.763 436.516 691.841 436.368 691.916 436.228C691.998 436.073 692.075 435.928 692.148 435.78C693.264 433.507 693.264 430.685 693.26 384.383C693.26 381.572 693.26 378.601 693.26 375.46C693.26 372.638 693.26 369.953 693.26 367.397C693.264 320.39 693.264 317.169 692.042 314.51C691.952 314.315 691.856 314.122 691.752 313.915C691.661 313.732 691.563 313.538 691.46 313.32C690.36 311.02 686.73 307.42 684.36 306.29C681.11 304.74 679.31 304.49 670.64 304.49H662.66V301.21C662.66 297.36 662.41 296.51 661.02 295.66C660.07 295.09 659.41 295.03 653.45 295.03H646.92L645.91 292.89C644.52 290.02 641.18 286.68 638.31 285.29C634.49 283.48 629 282.88 625 283.86ZM633.95 291.56C637.1 293.17 638.9 295.31 639.85 298.5C640.95 302.35 641.52 302.6 649.06 302.6H654.77V318.06H604.93V302.63L610.73 302.54C617.7 302.41 617.86 302.35 619.15 298.94C620.35 295.72 620.82 294.93 622.59 293.36C624.89 291.28 626.85 290.58 630 290.71C631.87 290.8 632.91 291.02 633.95 291.56ZM597.11 317.48C597.2 322.53 597.27 323 597.9 323.91C598.28 324.45 599 325.08 599.48 325.27C600.14 325.52 608.28 325.62 630.23 325.55L660.07 325.46L660.92 324.67C662.43 323.28 662.65 322.27 662.65 316.91V311.99L670.79 312.12L678.9 312.21L680.7 313.09C682.62 314.04 683.7 315.11 684.83 317.22L685.52 318.51L685.61 374.5C685.67 417.96 685.61 430.8 685.29 431.91C684.82 433.71 682.83 435.73 680.75 436.52C679.27 437.09 677.53 437.12 630.66 437.21L624.684 437.22C582.895 437.294 580.06 437.299 577.964 436.057C577.811 435.967 577.662 435.87 577.503 435.766C577.407 435.703 577.307 435.638 577.2 435.57C575.72 434.62 574.83 433.46 574.36 431.75C574.08 430.8 574.01 416.29 574.08 374.5C574.17 320.53 574.21 318.48 574.77 317.41C576.28 314.54 578.3 312.9 580.98 312.39C581.74 312.23 585.65 312.11 589.69 312.07L596.98 312.04L597.11 317.48Z" fill="#9146FF"/>
<path fill-rule="evenodd" clip-rule="evenodd" d="M629.3 255.7C566.892 255.7 516.3 306.292 516.3 368.7C516.3 431.108 566.892 481.7 629.3 481.7C691.708 481.7 742.3 431.108 742.3 368.7C742.3 306.292 691.708 255.7 629.3 255.7ZM532.3 368.7C532.3 315.128 575.728 271.7 629.3 271.7C682.872 271.7 726.3 315.128 726.3 368.7C726.3 422.272 682.872 465.7 629.3 465.7C575.728 465.7 532.3 422.272 532.3 368.7Z" fill="#9146FF"/>
<path d="M783.7 541.7C780.662 541.7 778.2 544.162 778.2 547.2C778.2 550.238 780.662 552.7 783.7 552.7H831.5C834.538 552.7 837 550.238 837 547.2C837 544.162 834.538 541.7 831.5 541.7H783.7Z" fill="#9146FF"/>
<path d="M783.3 559.1C780.262 559.1 777.8 561.562 777.8 564.6C777.8 567.638 780.262 570.1 783.3 570.1H816.3C819.337 570.1 821.8 567.638 821.8 564.6C821.8 561.562 819.337 559.1 816.3 559.1H783.3Z" fill="#9146FF"/>
<path fill-rule="evenodd" clip-rule="evenodd" d="M848.909 516.943C861.898 511.842 876.012 509 890.8 509C953.9 509 1005.2 560.3 1005.2 623.4C1005.2 642.4 1000.6 660.5 991.9 676.9L992 677.1C990.3 680.3 988.4 683.5 986.3 686.6C985.9 687.15 985.53 687.7 985.15 688.249C984.77 688.799 984.4 689.35 984 689.9L983.97 689.814C983.95 689.768 983.93 689.723 983.92 689.677L983.9 689.7C982.8 691.2 981.7 692.7 980.5 694.2C978.4 696.9 976.1 699.5 973.7 702C970.5 705.4 967 708.6 963.4 711.6C963.25 711.75 963.1 711.875 962.95 712C962.8 712.125 962.65 712.25 962.5 712.4C956.9 716.8 951 720.8 944.7 724.1C928.2 732.9 909.7 737.6 890.8 737.6C874.262 737.6 858.022 733.928 843.168 727.176L843.2 727.4C841.3 726.6 839.5 725.7 837.7 724.7C835 723.3 832.4 721.8 829.9 720.2L829.891 720.022L829.7 719.9C826.1 717.6 822.5 715 819.1 712.3C818.9 712.2 818.8 712.1 818.6 711.9C816.3 710.1 814.1 708.1 812 706.1C808.5 702.7 805.2 699.2 802.1 695.4C801.2 694.3 800.3 693.1 799.5 692C784.6 672.3 776.5 648 776.5 623.2C776.5 616.101 777.169 609.185 778.413 602.451C766.623 601.642 757.2 591.737 757.2 579.7V534.8C757.2 522.162 767.362 512 780 512H834.8C838.83 512 842.395 513.086 845.537 514.72L845.586 514.745L845.634 514.772C846.787 515.401 847.883 516.129 848.909 516.943ZM856.935 529.146C857.021 529.467 857.1 529.792 857.171 530.118L857.193 530.217L857.211 530.316C857.477 531.776 857.6 533.308 857.6 534.8V585.2H856.837C856.025 588.5 854.495 591.518 852.41 594.093L853.873 609.152C855.143 621.536 841.357 629.623 831.143 622.772L831.133 622.765L800.735 602.5H792.925C791.524 609.186 790.8 616.133 790.8 623.2C790.8 637.4 793.8 651.3 799.5 664.1C802.8 671.5 807 678.5 812 684.9L813.2 686.4C817.6 691.8 822.6 696.8 828.1 701.2C828.678 701.585 829.215 702.012 829.737 702.427C830.027 702.658 830.314 702.886 830.6 703.1L830.729 703.198C832.754 689.072 838.443 675.644 847.4 663.9C855.5 653.4 865.8 645 877.4 639.2L880.8 637.6C883.2 636.5 885.7 635.5 888.2 634.7C876.5 626.2 869.1 612.4 869.1 597.1C869.1 584.7 873.9 573 882.7 564.2C891.5 555.4 903.1 550.6 915.5 550.6H915.6C940.2 550.6 961 570.6 961.9 595.2C962.5 611 954.9 625.6 942.8 634.5C945.3 635.3 947.8 636.3 950.3 637.4L953.7 639C962.9 643.7 971.3 649.9 978.5 657.7C980.06 659.363 981.44 660.93 982.81 662.682C984.1 659.788 985.2 656.794 986.2 653.7C989.3 644 990.9 633.8 990.9 623.3C990.9 568.1 946 523.2 890.8 523.2C878.977 523.2 867.521 525.329 856.935 529.146ZM976.35 675.175C974.29 672.059 971.94 669.132 969.4 666.3C957 652.8 940.1 644.6 921.9 643L915.6 642.5L909.3 643C888.8 644.7 869.9 655.1 857.4 671.5C848.549 683.037 843.456 696.651 842.515 710.866C842.664 710.953 842.809 711.039 842.952 711.124C843.433 711.41 843.89 711.682 844.4 711.9C848.6 714.2 853.1 716.1 857.6 717.7C859.7 718.4 861.8 719.1 863.9 719.7C872.5 722.1 881.5 723.3 890.8 723.3C901.8 723.3 912.6 721.5 922.9 718C923.65 717.7 924.4 717.425 925.15 717.15C925.9 716.875 926.65 716.6 927.4 716.3C931.5 714.8 935.4 712.9 939.2 710.8C944.2 708 949 704.8 953.5 701.2C959.3 696.5 964.7 691.2 969.3 685.3C970.8 683.3 972.3 681.3 973.7 679.3L976.35 675.175ZM915.5 631.4L921.3 630.4C937.9 627.5 950 612.6 949.5 595.6C948.8 577.7 933.6 563 915.6 563H915.5C906.4 563 897.9 566.5 891.5 572.9C885 579.3 881.5 587.8 881.5 596.9C881.5 613.5 893.4 627.6 909.7 630.4L915.5 631.4ZM768.2 534.8C768.2 528.238 773.438 523 780 523H834.8C836.752 523 838.572 523.505 840.413 524.454C843.388 526.094 845.636 529.023 846.406 532.383C846.53 533.101 846.6 533.932 846.6 534.8V574.2H846.5V579.7C846.5 583.054 845.145 586.046 842.871 588.252L840.97 590.095L842.928 610.25L842.929 610.268C843.241 613.269 839.846 615.368 837.267 613.635L837.259 613.629L807.081 593.511C806.756 593.265 806.667 593.189 806.589 593.111L804.978 591.5H779.665C773.374 591.336 768.2 586.084 768.2 579.7V534.8Z" fill="#9146FF"/>
<path d="M1127.8 251.7C1064.7 251.7 1013.4 303 1013.4 366.1C1013.4 390.9 1021.5 415.2 1036.4 434.9C1037.2 436 1038.1 437.2 1039 438.3C1042.1 442.1 1045.4 445.6 1048.9 449C1051 451 1053.2 453 1055.5 454.8C1055.7 455 1055.8 455.1 1056 455.2C1061.7 459.8 1067.9 463.9 1074.4 467.3C1085.4 473.1 1097.3 477.1 1109.6 479C1115.5 480 1121.6 480.4 1127.6 480.4C1136 480.4 1144.3 479.5 1152.5 477.6C1162.6 475.3 1172.4 471.7 1181.5 466.9C1187.8 463.6 1193.7 459.6 1199.3 455.2C1199.6 454.9 1199.9 454.7 1200.2 454.4C1203.8 451.4 1207.3 448.2 1210.5 444.8C1212.9 442.3 1215.2 439.7 1217.3 437C1219.3 434.4 1221.2 431.8 1223 429.2C1235.4 410.5 1242 388.9 1242 366.1C1242.2 303 1190.9 251.7 1127.8 251.7ZM1210.8 422.1C1209.4 424.1 1207.9 426.1 1206.4 428.1C1201.8 434 1196.4 439.3 1190.6 444C1186.1 447.6 1181.3 450.8 1176.3 453.6C1172.5 455.7 1168.6 457.6 1164.5 459.1C1163.3 459.6 1162.1 460 1160.9 460.4C1160.6 460.5 1160.3 460.6 1159.9 460.7C1156 462 1152 463.1 1148 463.9C1141.4 465.3 1134.6 466 1127.8 466C1122.7 466 1117.6 465.6 1112.6 464.9C1108.6 464.3 1104.7 463.5 1100.8 462.4C1100.2 462.2 1099.7 462.1 1099.2 461.9C1097.6 461.4 1096.1 460.9 1094.5 460.4C1090 458.8 1085.5 456.9 1081.3 454.6C1075.6 451.6 1070.2 448 1065.1 443.9C1059.6 439.5 1054.6 434.5 1050.2 429.1C1049.8 428.6 1049.4 428.1 1049 427.6C1044 421.2 1039.8 414.2 1036.5 406.8C1030.8 394 1027.8 380.1 1027.8 365.9C1027.8 310.7 1072.7 265.8 1127.9 265.8C1183.1 265.8 1228 310.7 1228 365.9C1228 376.4 1226.4 386.6 1223.3 396.3C1220.4 405.5 1216.2 414.1 1210.8 422.1Z" fill="#9146FF"/>
<path d="M1163.7 298.4C1163.4 297.6 1163 296.9 1162.5 296.3C1161 294.6 1160.7 294.5 1155.4 294.2C1152.4 294 1147.7 293.8 1144.9 293.8L1140 293.7L1137.9 288.2C1136.8 285.2 1135.2 281 1134.4 279C1133.6 276.9 1132.7 274.9 1132.3 274.4C1130.5 272.1 1126.4 271.6 1124.2 273.5C1123.2 274.4 1121.7 277.6 1119.4 283.5C1117.6 288.4 1115.9 292.6 1115.7 293C1115.4 293.5 1113.8 293.7 1110.9 293.8C1108.5 293.8 1103.9 294 1100.7 294.2C1095 294.6 1094.8 294.6 1093.4 296.3C1092.2 297.6 1091.8 298.5 1091.8 300.4C1091.8 303.1 1092.4 303.8 1102.4 311.6C1105.7 314.3 1108.3 316.7 1108.2 317.1C1108.1 317.4 1106.8 322 1105.4 327.1L1102.9 336.5L1103.9 338.5C1104.3 339.3 1104.9 340 1105.7 340.6C1107 341.6 1108.7 342.1 1110.1 341.8C1110.8 341.6 1115 339 1119.6 336.1L1127.8 330.7L1130.8 332.6L1136.2 336.2C1143.5 341 1144.9 341.7 1146.8 341.7C1148.8 341.8 1149.4 341.5 1150.7 340C1152.8 337.7 1152.7 336.3 1149.9 325.8C1149.3 323.6 1148.7 321.6 1148.3 320C1147.8 318.1 1147.5 316.8 1147.5 316.7C1147.5 316.5 1150.9 313.7 1155 310.4C1159.1 307.1 1162.9 303.9 1163.3 303.3C1164.1 301.8 1164.2 300 1163.7 298.4ZM1145 307.2C1137.6 313.3 1137.6 313.3 1140.2 322.4C1140.4 323.1 1140.6 323.8 1140.7 324.4C1141.4 327.1 1142 329.1 1141.9 329.2C1141.8 329.2 1140.1 328.1 1137.7 326.6C1137.1 326.2 1136.4 325.8 1135.7 325.3C1131.3 322.4 1129.2 321.4 1127.9 321.4C1126.7 321.4 1124.4 322.5 1119.9 325.3C1118.6 326.1 1117.4 326.9 1116.5 327.5C1114.8 328.5 1113.7 329.1 1113.7 329C1113.7 328.8 1114.5 326 1115.4 322.7C1117.2 316.1 1117.4 313.9 1116.2 312.1C1115.8 311.5 1113.1 309.1 1110.3 306.9C1107.5 304.7 1105.2 302.7 1105.1 302.6C1105.1 302.4 1108.2 302.2 1111.9 302C1116.6 301.8 1119.3 301.5 1120.3 300.9C1122.2 299.9 1122.3 299.6 1127.1 286.9L1127.5 285.8L1128 286.9C1128.3 287.5 1129.5 290.6 1130.7 293.8C1133.7 301.5 1133.7 301.5 1143.1 302L1150.5 302.4L1147.9 304.5L1145 307.2Z" fill="#9146FF"/>
<path d="M1143.7 346.4H1116.6C1107.1 346.4 1099.3 354.6 1099.3 364.8V462C1099.3 469.6 1103.7 476.1 1109.9 478.9C1115.8 479.9 1121.9 480.3 1127.9 480.3C1136.3 480.3 1144.6 479.4 1152.8 477.5C1157.7 474.3 1161 468.5 1161 461.9V364.6C1160.9 354.6 1153.2 346.4 1143.7 346.4ZM1143.7 467.1H1116.6C1115 467.1 1113.6 466.3 1112.7 465C1112.1 464.2 1111.8 463.2 1111.8 462.1V364.8C1111.8 362 1113.9 359.7 1116.5 359.7H1143.6C1146.2 359.7 1148.3 362 1148.3 364.8V462C1148.3 462.7 1148.2 463.4 1147.9 464C1147.3 465.8 1145.6 467.1 1143.7 467.1Z" fill="#9146FF"/>
<path d="M1152.7 477.6C1150.1 479.4 1147 480.4 1143.6 480.4H1127.8C1136.2 480.4 1144.6 479.5 1152.7 477.6Z" fill="#9146FF"/>
<path d="M1127.8 480.4H1116.5C1114.1 480.4 1111.9 479.9 1109.8 479C1115.8 479.9 1121.8 480.4 1127.8 480.4Z" fill="#9146FF"/>
<path d="M1080.9 379.4H1053.8C1044.3 379.4 1036.5 387.1 1036.5 396.7V434.9C1037.3 436 1038.2 437.2 1039.1 438.3C1042.2 442.1 1045.5 445.6 1049 449V396.8C1049 394.2 1051.1 392.1 1053.7 392.1H1080.8C1083.4 392.1 1085.5 394.2 1085.5 396.8V450C1085.5 452.5 1083.6 454.5 1081.2 454.7C1081.1 454.7 1080.9 454.7 1080.8 454.7H1055.5C1055.7 454.9 1055.8 455 1056 455.1C1061.7 459.7 1067.9 463.8 1074.4 467.2H1080.7C1086.3 467.2 1091.2 464.6 1094.4 460.5C1096.6 457.6 1098 453.9 1098 450V396.7C1098.2 387.2 1090.4 379.4 1080.9 379.4Z" fill="#9146FF"/>
<path d="M1206 359.8H1178.9C1169.4 359.8 1161.6 367.5 1161.6 377.1V449.7C1161.6 453.2 1162.7 456.5 1164.5 459.2C1167.6 463.9 1172.9 467 1178.9 467H1181.8C1188.1 463.7 1194 459.7 1199.6 455.3C1199.9 455 1200.2 454.8 1200.5 454.5H1178.9C1177.9 454.5 1177 454.2 1176.3 453.7C1175 452.9 1174.2 451.4 1174.2 449.7V377C1174.2 374.4 1176.3 372.3 1178.9 372.3H1206C1208.6 372.3 1210.7 374.4 1210.7 377V444.8C1213.1 442.3 1215.4 439.7 1217.5 437C1219.5 434.4 1221.4 431.8 1223.2 429.2V377C1223.3 367.5 1215.5 359.8 1206 359.8Z" fill="#9146FF"/>
<path d="M104.8 502.7H100.9C100.8 502.2 100.7 501.7 100.5 501.4C100.3 501 100 500.7 99.7 500.4C99.4 500.1 99 499.9 98.5 499.8C98.1 499.7 97.6 499.6 97 499.6C96.1 499.6 95.2 499.8 94.5 500.3C93.8 500.8 93.3 501.4 92.9 502.3C92.5 503.2 92.3 504.3 92.3 505.5C92.3 506.8 92.5 507.9 92.9 508.8C93.3 509.7 93.8 510.3 94.5 510.8C95.2 511.3 96 511.5 96.9 511.5C97.4 511.5 97.9 511.4 98.3 511.3C98.7 511.2 99.1 511 99.5 510.7C99.9 510.4 100.1 510.1 100.4 509.7C100.7 509.3 100.8 508.9 100.9 508.4H104.8C104.7 509.2 104.4 510 104 510.8C103.6 511.6 103.1 512.3 102.4 512.9C101.7 513.5 100.9 514 100 514.3C99.1 514.7 98 514.8 96.9 514.8C95.3 514.8 93.8 514.4 92.6 513.7C91.3 513 90.3 511.9 89.6 510.5C88.9 509.1 88.5 507.4 88.5 505.4C88.5 503.4 88.9 501.7 89.6 500.3C90.3 498.9 91.4 497.8 92.6 497.1C93.8 496.4 95.3 496 96.9 496C98 496 98.9 496.1 99.8 496.4C100.7 496.7 101.5 497.1 102.2 497.7C102.9 498.3 103.5 499 103.9 499.8C104.4 500.7 104.7 501.7 104.8 502.7Z" fill="#9146FF"/>
<path d="M113.7 514.8C112.3 514.8 111.1 514.5 110.1 513.9C109.1 513.3 108.3 512.5 107.8 511.4C107.3 510.3 107 509.1 107 507.7C107 506.3 107.3 505.1 107.8 504C108.3 502.9 109.1 502.1 110.1 501.5C111.1 500.9 112.3 500.6 113.7 500.6C115.1 500.6 116.3 500.9 117.3 501.5C118.3 502.1 119.1 502.9 119.6 504C120.1 505.1 120.4 506.3 120.4 507.7C120.4 509.1 120.1 510.3 119.6 511.4C119.1 512.5 118.3 513.3 117.3 513.9C116.2 514.5 115.1 514.8 113.7 514.8ZM113.7 511.9C114.3 511.9 114.9 511.7 115.3 511.4C115.7 511 116 510.6 116.3 509.9C116.6 509.2 116.6 508.6 116.6 507.8C116.6 507 116.5 506.3 116.3 505.7C116.1 505.1 115.8 504.6 115.3 504.2C114.9 503.8 114.4 503.7 113.7 503.7C113.1 503.7 112.5 503.9 112.1 504.2C111.7 504.6 111.3 505.1 111.1 505.7C110.9 506.3 110.8 507 110.8 507.8C110.8 508.6 110.9 509.3 111.1 509.9C111.3 510.5 111.6 511 112.1 511.4C112.5 511.7 113.1 511.9 113.7 511.9Z" fill="#9146FF"/>
<path d="M122.9 514.6V501H126.5V503.4H126.7C127 502.6 127.5 502 128.1 501.5C128.8 501 129.6 500.8 130.5 500.8C131.4 500.8 132.2 501 132.9 501.5C133.6 502 134 502.6 134.2 503.4H134.3C134.6 502.6 135.1 502 135.8 501.5C136.5 501 137.4 500.8 138.4 500.8C139.7 500.8 140.7 501.2 141.5 502C142.3 502.8 142.7 504 142.7 505.4V514.6H138.9V506.2C138.9 505.4 138.7 504.9 138.3 504.5C137.9 504.1 137.4 503.9 136.8 503.9C136.1 503.9 135.6 504.1 135.2 504.6C134.8 505 134.6 505.6 134.6 506.3V514.6H130.9V506C130.9 505.3 130.7 504.8 130.3 504.4C129.9 504 129.4 503.8 128.8 503.8C128.4 503.8 128 503.9 127.7 504.1C127.4 504.3 127.1 504.6 126.9 505C126.7 505.4 126.6 505.8 126.6 506.3V514.5H122.9V514.6Z" fill="#9146FF"/>
<path d="M145.7 519.7V500.9H149.4V503.2H149.6C149.8 502.8 150 502.5 150.3 502.1C150.6 501.7 151 501.4 151.5 501.1C152 500.8 152.7 500.7 153.4 500.7C154.4 500.7 155.3 501 156.2 501.5C157.1 502 157.7 502.8 158.2 503.8C158.7 504.8 159 506.1 159 507.7C159 509.2 158.8 510.5 158.3 511.6C157.8 512.6 157.1 513.4 156.3 514C155.5 514.6 154.5 514.8 153.5 514.8C152.8 514.8 152.1 514.7 151.6 514.4C151.1 514.2 150.7 513.9 150.3 513.5C149.9 513.1 149.7 512.8 149.6 512.4H149.5V519.7H145.7ZM149.4 507.7C149.4 508.5 149.5 509.2 149.7 509.8C149.9 510.4 150.3 510.9 150.7 511.2C151.1 511.5 151.6 511.7 152.3 511.7C152.9 511.7 153.4 511.5 153.9 511.2C154.3 510.9 154.7 510.4 154.9 509.8C155.1 509.2 155.2 508.5 155.2 507.7C155.2 506.9 155.1 506.2 154.9 505.6C154.7 505 154.4 504.5 153.9 504.2C153.5 503.9 152.9 503.7 152.3 503.7C151.7 503.7 151.2 503.9 150.7 504.2C150.3 504.5 150 505 149.7 505.6C149.5 506.2 149.4 506.9 149.4 507.7Z" fill="#9146FF"/>
<path d="M165.4 514.8C164.5 514.8 163.8 514.6 163.1 514.3C162.4 514 161.9 513.5 161.5 512.9C161.1 512.3 160.9 511.5 160.9 510.6C160.9 509.8 161 509.2 161.3 508.7C161.6 508.2 162 507.8 162.4 507.5C162.8 507.2 163.4 506.9 164 506.8C164.6 506.6 165.3 506.5 165.9 506.5C166.7 506.4 167.3 506.3 167.8 506.3C168.3 506.2 168.6 506.1 168.9 506C169.1 505.9 169.2 505.6 169.2 505.3V505.2C169.2 504.6 169 504.2 168.7 503.9C168.3 503.6 167.8 503.4 167.2 503.4C166.5 503.4 166 503.5 165.6 503.8C165.2 504.1 164.9 504.5 164.8 504.9L161.3 504.6C161.5 503.8 161.8 503.1 162.3 502.4C162.8 501.8 163.5 501.3 164.3 501C165.1 500.7 166.1 500.5 167.2 500.5C168 500.5 168.7 500.6 169.4 500.8C170.1 501 170.7 501.3 171.3 501.6C171.8 502 172.3 502.5 172.6 503C172.9 503.6 173.1 504.3 173.1 505.1V514.3H169.5V512.4H169.4C169.2 512.8 168.9 513.2 168.5 513.5C168.1 513.8 167.7 514.1 167.2 514.3C166.7 514.5 166.1 514.8 165.4 514.8ZM166.5 512.2C167.1 512.2 167.5 512.1 168 511.9C168.4 511.7 168.8 511.4 169 511C169.2 510.6 169.4 510.2 169.4 509.7V508.3C169.3 508.4 169.1 508.4 168.9 508.5C168.7 508.6 168.5 508.6 168.2 508.7C167.9 508.7 167.7 508.8 167.4 508.8C167.1 508.8 166.9 508.9 166.7 508.9C166.3 509 165.9 509.1 165.5 509.2C165.2 509.3 164.9 509.5 164.7 509.8C164.5 510 164.4 510.3 164.4 510.7C164.4 511.2 164.6 511.6 165 511.9C165.4 512.2 165.9 512.2 166.5 512.2Z" fill="#9146FF"/>
<path d="M179.8 506.7V514.6H176V501H179.6V503.4H179.8C180.1 502.6 180.6 502 181.3 501.5C182 501 182.9 500.8 183.9 500.8C184.8 500.8 185.7 501 186.4 501.4C187.1 501.8 187.7 502.4 188 503.2C188.4 504 188.6 504.9 188.6 505.9V514.6H184.8V506.6C184.8 505.8 184.6 505.1 184.2 504.6C183.8 504.1 183.2 503.9 182.4 503.9C181.9 503.9 181.4 504 181.1 504.2C180.7 504.4 180.4 504.7 180.2 505.2C179.9 505.6 179.8 506.1 179.8 506.7Z" fill="#9146FF"/>
<path d="M193.9 519.7C193.4 519.7 193 519.7 192.6 519.6C192.2 519.5 191.8 519.4 191.6 519.3L192.5 516.5C192.9 516.6 193.3 516.7 193.7 516.7C194.1 516.7 194.4 516.6 194.6 516.5C194.9 516.3 195.1 516 195.2 515.6L195.4 515L190.5 501H194.5L197.3 511H197.4L200.3 501H204.3L199 516C198.7 516.7 198.4 517.4 198 517.9C197.6 518.4 197 518.9 196.4 519.2C195.6 519.5 194.8 519.7 193.9 519.7Z" fill="#9146FF"/>
<path d="M1587.6 504.3V501.1H1602.5V504.3H1596.9V519.3H1593.1V504.3H1587.6Z" fill="#9146FF"/>
<path d="M1611.1 519.6C1609.7 519.6 1608.5 519.3 1607.5 518.7C1606.5 518.1 1605.7 517.3 1605.2 516.2C1604.7 515.1 1604.4 513.9 1604.4 512.5C1604.4 511.1 1604.7 509.9 1605.2 508.8C1605.7 507.7 1606.5 506.9 1607.5 506.3C1608.5 505.7 1609.7 505.4 1611.1 505.4C1612.5 505.4 1613.7 505.7 1614.7 506.3C1615.7 506.9 1616.5 507.7 1617 508.8C1617.5 509.9 1617.8 511.1 1617.8 512.5C1617.8 513.9 1617.5 515.1 1617 516.2C1616.5 517.3 1615.7 518.1 1614.7 518.7C1613.7 519.3 1612.5 519.6 1611.1 519.6ZM1611.1 516.7C1611.7 516.7 1612.3 516.5 1612.7 516.2C1613.1 515.8 1613.4 515.4 1613.7 514.7C1614 514 1614 513.4 1614 512.6C1614 511.8 1613.9 511.1 1613.7 510.5C1613.5 509.9 1613.2 509.4 1612.7 509C1612.3 508.6 1611.8 508.5 1611.1 508.5C1610.5 508.5 1609.9 508.7 1609.5 509C1609.1 509.4 1608.7 509.9 1608.5 510.5C1608.3 511.1 1608.2 511.8 1608.2 512.6C1608.2 513.4 1608.3 514.1 1608.5 514.7C1608.7 515.3 1609 515.8 1609.5 516.2C1610 516.6 1610.5 516.7 1611.1 516.7Z" fill="#9146FF"/>
<path d="M1620.3 524.5V505.7H1624V508H1624.2C1624.4 507.6 1624.6 507.3 1624.9 506.9C1625.2 506.5 1625.6 506.2 1626.1 505.9C1626.6 505.6 1627.3 505.5 1628 505.5C1629 505.5 1629.9 505.8 1630.8 506.3C1631.6 506.8 1632.3 507.6 1632.8 508.6C1633.3 509.6 1633.6 510.9 1633.6 512.5C1633.6 514 1633.4 515.3 1632.9 516.4C1632.4 517.4 1631.7 518.2 1630.9 518.8C1630.1 519.3 1629.1 519.6 1628.1 519.6C1627.4 519.6 1626.7 519.5 1626.2 519.2C1625.7 519 1625.3 518.7 1624.9 518.3C1624.6 517.9 1624.3 517.6 1624.2 517.2H1624.1V524.5H1620.3ZM1624 512.5C1624 513.3 1624.1 514 1624.3 514.6C1624.5 515.2 1624.9 515.7 1625.3 516C1625.7 516.3 1626.2 516.5 1626.9 516.5C1627.5 516.5 1628 516.3 1628.5 516C1628.9 515.7 1629.3 515.2 1629.5 514.6C1629.7 514 1629.8 513.3 1629.8 512.5C1629.8 511.7 1629.7 511 1629.5 510.4C1629.3 509.8 1629 509.3 1628.5 509C1628.1 508.7 1627.5 508.5 1626.9 508.5C1626.3 508.5 1625.8 508.7 1625.3 509C1624.9 509.3 1624.6 509.8 1624.3 510.4C1624.1 511 1624 511.7 1624 512.5Z" fill="#9146FF"/>
<path d="M1641.3 504.3V501.1H1656.2V504.3H1650.6V519.3H1646.8V504.3H1641.3Z" fill="#9146FF"/>
<path d="M1662.5 519.6C1661.6 519.6 1660.9 519.4 1660.2 519.1C1659.5 518.8 1659 518.3 1658.6 517.7C1658.2 517.1 1658 516.3 1658 515.4C1658 514.6 1658.1 514 1658.4 513.5C1658.7 513 1659.1 512.6 1659.5 512.3C1660 512 1660.5 511.7 1661.1 511.6C1661.7 511.5 1662.4 511.3 1663 511.3C1663.8 511.2 1664.4 511.1 1664.9 511.1C1665.4 511 1665.7 510.9 1666 510.8C1666.2 510.7 1666.3 510.4 1666.3 510.1V510C1666.3 509.4 1666.1 509 1665.8 508.7C1665.4 508.4 1664.9 508.2 1664.3 508.2C1663.6 508.2 1663.1 508.3 1662.7 508.6C1662.3 508.9 1662 509.3 1661.9 509.7L1658.4 509.4C1658.6 508.6 1658.9 507.9 1659.4 507.2C1659.9 506.6 1660.6 506.1 1661.4 505.8C1662.2 505.5 1663.2 505.3 1664.3 505.3C1665.1 505.3 1665.8 505.4 1666.5 505.6C1667.2 505.8 1667.8 506.1 1668.4 506.4C1669 506.7 1669.4 507.3 1669.7 507.8C1670 508.4 1670.2 509.1 1670.2 509.9V519.1H1666.6V517.2H1666.5C1666.3 517.6 1666 518 1665.6 518.3C1665.2 518.6 1664.8 518.9 1664.3 519.1C1663.8 519.5 1663.2 519.6 1662.5 519.6ZM1663.6 517C1664.2 517 1664.6 516.9 1665.1 516.7C1665.5 516.5 1665.9 516.2 1666.1 515.8C1666.3 515.4 1666.5 515 1666.5 514.5V513C1666.4 513.1 1666.2 513.1 1666 513.2C1665.8 513.3 1665.6 513.3 1665.3 513.4C1665 513.4 1664.8 513.5 1664.5 513.5C1664.2 513.5 1664 513.6 1663.8 513.6C1663.4 513.7 1663 513.8 1662.6 513.9C1662.3 514 1662 514.2 1661.8 514.5C1661.6 514.7 1661.5 515 1661.5 515.4C1661.5 515.9 1661.7 516.3 1662.1 516.6C1662.6 516.9 1663 517 1663.6 517Z" fill="#9146FF"/>
<path d="M1676.9 501.2V519.4H1673.1V501.2H1676.9Z" fill="#9146FF"/>
<path d="M1686.2 519.6C1684.8 519.6 1683.6 519.3 1682.6 518.7C1681.6 518.1 1680.8 517.3 1680.3 516.3C1679.8 515.2 1679.5 514 1679.5 512.6C1679.5 511.2 1679.8 510 1680.3 508.9C1680.8 507.8 1681.6 507 1682.6 506.4C1683.6 505.8 1684.8 505.5 1686.1 505.5C1687 505.5 1687.8 505.6 1688.6 505.9C1689.4 506.2 1690.1 506.6 1690.6 507.2C1691.1 507.8 1691.6 508.5 1692 509.4C1692.3 510.3 1692.5 511.3 1692.5 512.4V513.4H1681V511.1H1689C1689 510.6 1688.9 510.1 1688.6 509.7C1688.4 509.3 1688 508.9 1687.6 508.7C1687.2 508.5 1686.7 508.3 1686.1 508.3C1685.5 508.3 1685 508.4 1684.6 508.7C1684.2 509 1683.8 509.3 1683.6 509.8C1683.4 510.2 1683.2 510.7 1683.2 511.3V513.5C1683.2 514.2 1683.3 514.8 1683.6 515.3C1683.9 515.8 1684.2 516.2 1684.7 516.4C1685.2 516.6 1685.7 516.8 1686.3 516.8C1686.7 516.8 1687.1 516.7 1687.5 516.6C1687.8 516.5 1688.1 516.3 1688.4 516.1C1688.6 515.9 1688.8 515.6 1689 515.2L1692.5 515.4C1692.3 516.2 1692 517 1691.4 517.6C1690.9 518.2 1690.1 518.7 1689.3 519.1C1688.3 519.5 1687.3 519.6 1686.2 519.6Z" fill="#9146FF"/>
<path d="M1698.7 511.5V519.4H1694.9V505.8H1698.5V508.2H1698.7C1699 507.4 1699.5 506.8 1700.2 506.3C1700.9 505.8 1701.8 505.6 1702.8 505.6C1703.7 505.6 1704.6 505.8 1705.3 506.2C1706 506.6 1706.6 507.2 1706.9 508C1707.3 508.8 1707.5 509.7 1707.5 510.7V519.4H1703.7V511.4C1703.7 510.6 1703.5 509.9 1703.1 509.4C1702.7 508.9 1702.1 508.7 1701.3 508.7C1700.8 508.7 1700.3 508.8 1700 509C1699.7 509.2 1699.3 509.5 1699.1 510C1698.8 510.4 1698.7 510.9 1698.7 511.5Z" fill="#9146FF"/>
<path d="M1717.7 505.7V508.5H1709.5V505.7H1717.7ZM1711.4 502.5H1715.2V515.2C1715.2 515.5 1715.3 515.8 1715.4 516C1715.5 516.2 1715.7 516.3 1715.8 516.4C1716 516.5 1716.2 516.5 1716.5 516.5C1716.7 516.5 1716.9 516.5 1717 516.5C1717.2 516.5 1717.3 516.4 1717.4 516.4L1718 519.2C1717.8 519.3 1717.5 519.3 1717.2 519.4C1716.9 519.5 1716.4 519.5 1715.9 519.5C1715 519.5 1714.2 519.4 1713.5 519.1C1712.8 518.8 1712.3 518.4 1711.9 517.8C1711.5 517.2 1711.3 516.5 1711.3 515.6V502.5H1711.4Z" fill="#9146FF"/>
<path d="M822.6 289.8V271.6H829.8C831.2 271.6 832.4 271.9 833.3 272.4C834.3 272.9 835 273.6 835.5 274.6C836 275.5 836.3 276.6 836.3 277.8C836.3 279 836 280.1 835.5 281C835 281.9 834.2 282.6 833.2 283.2C832.2 283.7 831 284 829.6 284H825V280.9H829C829.7 280.9 830.4 280.8 830.8 280.5C831.3 280.2 831.6 279.9 831.9 279.4C832.1 278.9 832.3 278.4 832.3 277.8C832.3 277.2 832.2 276.7 831.9 276.2C831.7 275.7 831.3 275.4 830.8 275.1C830.3 274.8 829.7 274.7 829 274.7H826.4V289.7H822.6V289.8Z" fill="#9146FF"/>
<path d="M844.9 290C843.5 290 842.3 289.7 841.3 289.1C840.3 288.5 839.5 287.7 839 286.6C838.5 285.5 838.2 284.3 838.2 282.9C838.2 281.5 838.5 280.3 839 279.2C839.5 278.1 840.3 277.3 841.3 276.7C842.3 276.1 843.5 275.8 844.9 275.8C846.3 275.8 847.5 276.1 848.5 276.7C849.5 277.3 850.3 278.1 850.8 279.2C851.3 280.3 851.6 281.5 851.6 282.9C851.6 284.3 851.3 285.5 850.8 286.6C850.3 287.7 849.5 288.5 848.5 289.1C847.5 289.7 846.3 290 844.9 290ZM844.9 287.1C845.5 287.1 846.1 286.9 846.5 286.6C846.9 286.2 847.2 285.8 847.5 285.1C847.7 284.5 847.8 283.8 847.8 283C847.8 282.2 847.7 281.5 847.5 280.9C847.3 280.3 847 279.8 846.5 279.4C846.1 279 845.6 278.9 844.9 278.9C844.3 278.9 843.7 279.1 843.3 279.4C842.9 279.8 842.5 280.3 842.3 280.9C842.1 281.5 842 282.2 842 283C842 283.8 842.1 284.5 842.3 285.1C842.5 285.7 842.8 286.2 843.3 286.6C843.8 286.9 844.3 287.1 844.9 287.1Z" fill="#9146FF"/>
<path d="M865.4 280L861.9 280.2C861.8 279.9 861.7 279.6 861.5 279.4C861.3 279.2 861 279 860.7 278.8C860.4 278.7 860 278.6 859.6 278.6C859 278.6 858.5 278.7 858.1 279C857.7 279.2 857.5 279.6 857.5 280C857.5 280.3 857.6 280.6 857.9 280.8C858.2 281 858.6 281.2 859.2 281.3L861.7 281.8C863 282.1 864 282.5 864.7 283.1C865.4 283.7 865.7 284.5 865.7 285.5C865.7 286.4 865.4 287.2 864.9 287.9C864.4 288.6 863.7 289.1 862.8 289.5C861.9 289.9 860.8 290.1 859.7 290.1C857.9 290.1 856.5 289.7 855.4 289C854.3 288.2 853.7 287.2 853.5 285.9L857.2 285.7C857.3 286.3 857.6 286.7 858 287C858.4 287.3 859 287.4 859.7 287.4C860.4 287.4 860.9 287.3 861.3 287C861.7 286.7 861.9 286.4 861.9 286C861.9 285.7 861.7 285.4 861.5 285.2C861.2 285 860.8 284.8 860.2 284.7L857.8 284.2C856.5 283.9 855.5 283.5 854.8 282.8C854.2 282.1 853.8 281.3 853.8 280.3C853.8 279.4 854 278.7 854.5 278C855 277.4 855.6 276.9 856.5 276.5C857.4 276.2 858.4 276 859.6 276C861.3 276 862.7 276.4 863.7 277.1C864.7 277.8 865.3 278.7 865.4 280Z" fill="#9146FF"/>
<path d="M875.4 276.1V278.9H867.2V276.1H875.4ZM869 272.8H872.8V285.5C872.8 285.8 872.9 286.1 873 286.3C873.1 286.5 873.3 286.6 873.4 286.7C873.6 286.8 873.8 286.8 874.1 286.8C874.3 286.8 874.5 286.8 874.6 286.8C874.8 286.8 874.9 286.7 875 286.7L875.6 289.5C875.4 289.6 875.1 289.6 874.8 289.7C874.5 289.8 874 289.8 873.5 289.8C872.6 289.8 871.8 289.7 871.1 289.4C870.4 289.1 869.9 288.7 869.5 288.1C869.1 287.5 868.9 286.8 868.9 285.9V272.8H869Z" fill="#9146FF"/>
<path d="M887.6 290C886.7 290 886 289.8 885.3 289.5C884.6 289.2 884.1 288.7 883.7 288.1C883.3 287.5 883.1 286.7 883.1 285.8C883.1 285 883.2 284.4 883.5 283.9C883.8 283.4 884.2 283 884.6 282.7C885 282.4 885.6 282.1 886.2 282C886.8 281.8 887.5 281.7 888.1 281.7C888.9 281.6 889.5 281.5 890 281.5C890.5 281.4 890.8 281.3 891.1 281.2C891.3 281.1 891.4 280.8 891.4 280.5V280.4C891.4 279.8 891.2 279.4 890.9 279.1C890.5 278.8 890 278.6 889.4 278.6C888.7 278.6 888.2 278.7 887.8 279C887.4 279.3 887.1 279.7 887 280.1L883.5 279.8C883.7 279 884 278.3 884.5 277.6C885 277 885.7 276.5 886.5 276.2C887.3 275.9 888.3 275.7 889.4 275.7C890.2 275.7 890.9 275.8 891.6 276C892.3 276.2 892.9 276.5 893.5 276.8C894 277.2 894.5 277.7 894.8 278.2C895.1 278.8 895.3 279.5 895.3 280.3V289.5H891.7V287.6H891.6C891.4 288 891.1 288.4 890.7 288.7C890.3 289 889.9 289.3 889.4 289.5C888.9 289.7 888.2 290 887.6 290ZM888.6 287.4C889.2 287.4 889.6 287.3 890.1 287.1C890.5 286.9 890.9 286.6 891.1 286.2C891.3 285.8 891.5 285.4 891.5 284.9V283.5C891.4 283.6 891.2 283.6 891 283.7C890.8 283.8 890.6 283.8 890.3 283.9C890 284 889.8 284 889.5 284C889.2 284 889 284.1 888.8 284.1C888.4 284.2 888 284.3 887.6 284.4C887.2 284.5 887 284.7 886.8 285C886.6 285.2 886.5 285.5 886.5 285.9C886.5 286.4 886.7 286.8 887.1 287.1C887.5 287.4 888.1 287.4 888.6 287.4Z" fill="#9146FF"/>
<path d="M911.3 271.6H915.1V284.3C915.1 285.5 914.8 286.5 914.3 287.4C913.8 288.3 913 288.9 912.1 289.4C911.2 289.9 910.1 290.1 908.9 290.1C907.8 290.1 906.8 289.9 905.9 289.5C905 289.1 904.3 288.5 903.8 287.7C903.3 286.9 903 285.9 903 284.7H906.8C906.8 285.2 906.9 285.6 907.1 285.9C907.3 286.2 907.5 286.5 907.9 286.7C908.2 286.9 908.6 287 909.1 287C909.6 287 910 286.9 910.3 286.7C910.6 286.5 910.9 286.2 911.1 285.8C911.3 285.4 911.4 284.9 911.4 284.3V271.6H911.3Z" fill="#9146FF"/>
<path d="M924.4 290C923 290 921.8 289.7 920.8 289.1C919.8 288.5 919 287.7 918.5 286.6C918 285.5 917.7 284.3 917.7 282.9C917.7 281.5 918 280.3 918.5 279.2C919 278.1 919.8 277.3 920.8 276.7C921.8 276.1 923 275.8 924.4 275.8C925.8 275.8 927 276.1 928 276.7C929 277.3 929.8 278.1 930.3 279.2C930.8 280.3 931.1 281.5 931.1 282.9C931.1 284.3 930.8 285.5 930.3 286.6C929.8 287.7 929 288.5 928 289.1C927 289.7 925.8 290 924.4 290ZM924.4 287.1C925 287.1 925.6 286.9 926 286.6C926.4 286.2 926.7 285.8 927 285.1C927.2 284.5 927.3 283.8 927.3 283C927.3 282.2 927.2 281.5 927 280.9C926.8 280.3 926.5 279.8 926 279.4C925.6 279 925.1 278.9 924.4 278.9C923.8 278.9 923.2 279.1 922.8 279.4C922.4 279.8 922 280.3 921.8 280.9C921.6 281.5 921.5 282.2 921.5 283C921.5 283.8 921.6 284.5 921.8 285.1C922 285.7 922.3 286.2 922.8 286.6C923.3 286.9 923.8 287.1 924.4 287.1Z" fill="#9146FF"/>
<path d="M933.7 289.8V271.6H937.5V278.4H937.6C937.8 278 938 277.7 938.3 277.3C938.6 276.9 939 276.6 939.5 276.3C940 276 940.7 275.9 941.4 275.9C942.4 275.9 943.3 276.2 944.2 276.7C945 277.2 945.7 278 946.2 279C946.7 280 947 281.3 947 282.9C947 284.4 946.8 285.7 946.3 286.8C945.8 287.8 945.1 288.6 944.3 289.2C943.5 289.7 942.5 290 941.5 290C940.8 290 940.1 289.9 939.6 289.6C939.1 289.4 938.7 289.1 938.3 288.7C937.9 288.3 937.7 288 937.6 287.6H937.4V289.8H933.7ZM937.4 282.9C937.4 283.7 937.5 284.4 937.7 285C937.9 285.6 938.3 286.1 938.7 286.4C939.1 286.7 939.6 286.9 940.3 286.9C940.9 286.9 941.4 286.7 941.9 286.4C942.3 286.1 942.7 285.6 942.9 285C943.1 284.4 943.2 283.7 943.2 282.9C943.2 282.1 943.1 281.4 942.9 280.8C942.7 280.2 942.4 279.7 941.9 279.4C941.5 279.1 940.9 278.9 940.3 278.9C939.7 278.9 939.2 279.1 938.7 279.4C938.3 279.7 938 280.2 937.7 280.8C937.5 281.4 937.4 282.1 937.4 282.9Z" fill="#9146FF"/>
<path d="M1037.7 518.5V500.3H1044.9C1046.3 500.3 1047.4 500.5 1048.4 501C1049.4 501.5 1050.1 502.2 1050.6 503.1C1051.1 504 1051.4 505 1051.4 506.2C1051.4 507.4 1051.1 508.4 1050.6 509.3C1050.1 510.2 1049.3 510.8 1048.3 511.3C1047.3 511.8 1046.1 512 1044.7 512H1039.9V508.9H1044.1C1044.8 508.9 1045.4 508.8 1045.9 508.6C1046.4 508.4 1046.7 508.1 1047 507.7C1047.2 507.3 1047.4 506.8 1047.4 506.2C1047.4 505.6 1047.3 505.1 1047 504.7C1046.8 504.3 1046.4 504 1045.9 503.8C1045.4 503.6 1044.8 503.5 1044.1 503.5H1041.5V518.5H1037.7ZM1047.5 510.2L1052 518.5H1047.8L1043.4 510.2H1047.5Z" fill="#9146FF"/>
<path d="M1057.9 518.7C1057 518.7 1056.3 518.5 1055.6 518.2C1054.9 517.9 1054.4 517.4 1054 516.8C1053.6 516.2 1053.4 515.4 1053.4 514.5C1053.4 513.7 1053.5 513.1 1053.8 512.6C1054.1 512.1 1054.5 511.7 1054.9 511.4C1055.4 511.1 1055.9 510.8 1056.5 510.7C1057.1 510.6 1057.8 510.4 1058.4 510.4C1059.2 510.3 1059.8 510.2 1060.3 510.2C1060.8 510.1 1061.1 510 1061.4 509.9C1061.6 509.8 1061.7 509.5 1061.7 509.2V509.1C1061.7 508.5 1061.5 508.1 1061.2 507.8C1060.8 507.5 1060.3 507.3 1059.7 507.3C1059 507.3 1058.5 507.4 1058.1 507.7C1057.7 508 1057.4 508.4 1057.3 508.8L1053.8 508.5C1054 507.7 1054.3 507 1054.8 506.3C1055.3 505.7 1056 505.2 1056.8 504.9C1057.6 504.6 1058.6 504.4 1059.7 504.4C1060.5 504.4 1061.2 504.5 1061.9 504.7C1062.6 504.9 1063.2 505.2 1063.8 505.5C1064.4 505.8 1064.8 506.4 1065.1 506.9C1065.4 507.5 1065.6 508.2 1065.6 509V518.2H1062V516.3H1061.9C1061.7 516.7 1061.4 517.1 1061 517.4C1060.6 517.7 1060.2 518 1059.7 518.2C1059.2 518.6 1058.6 518.7 1057.9 518.7ZM1059 516.1C1059.6 516.1 1060 516 1060.5 515.8C1060.9 515.6 1061.3 515.3 1061.5 514.9C1061.7 514.5 1061.9 514.1 1061.9 513.6V512.2C1061.8 512.3 1061.6 512.3 1061.4 512.4C1061.2 512.5 1061 512.5 1060.7 512.6C1060.4 512.6 1060.2 512.7 1059.9 512.7C1059.6 512.7 1059.4 512.8 1059.2 512.8C1058.8 512.9 1058.4 513 1058 513.1C1057.7 513.2 1057.4 513.4 1057.2 513.7C1057 513.9 1056.9 514.2 1056.9 514.6C1056.9 515.1 1057.1 515.5 1057.5 515.8C1058 516 1058.4 516.1 1059 516.1Z" fill="#9146FF"/>
<path d="M1072.3 510.6V518.5H1068.5V504.9H1072.1V507.3H1072.3C1072.6 506.5 1073.1 505.9 1073.8 505.4C1074.5 504.9 1075.4 504.7 1076.4 504.7C1077.3 504.7 1078.2 504.9 1078.9 505.3C1079.6 505.7 1080.2 506.3 1080.5 507.1C1080.9 507.9 1081.1 508.8 1081.1 509.8V518.5H1077.3V510.5C1077.3 509.7 1077.1 509 1076.7 508.5C1076.3 508 1075.7 507.8 1074.9 507.8C1074.4 507.8 1073.9 507.9 1073.6 508.1C1073.3 508.3 1072.9 508.6 1072.7 509.1C1072.5 509.5 1072.3 510 1072.3 510.6Z" fill="#9146FF"/>
<path d="M1084.1 518.5V500.3H1087.9V518.5H1084.1ZM1087.5 514.5V510H1088.1L1092.5 504.8H1096.8L1090.9 511.7H1090L1087.5 514.5ZM1092.6 518.5L1088.6 512.6L1091.1 509.9L1097 518.5H1092.6Z" fill="#9146FF"/>
<path d="M1107.7 518.5H1103.6L1109.9 500.3H1114.9L1121.2 518.5H1117.1L1112.5 504.5H1112.4L1107.7 518.5ZM1107.4 511.3H1117.1V514.3H1107.4V511.3Z" fill="#9146FF"/>
<path d="M1123.2 523.6V504.8H1126.9V507.1H1127.1C1127.3 506.7 1127.5 506.4 1127.8 506C1128.1 505.6 1128.5 505.3 1129 505C1129.5 504.7 1130.2 504.6 1130.9 504.6C1131.9 504.6 1132.8 504.9 1133.7 505.4C1134.5 505.9 1135.2 506.7 1135.7 507.7C1136.2 508.7 1136.5 510 1136.5 511.6C1136.5 513.1 1136.3 514.4 1135.8 515.5C1135.3 516.5 1134.6 517.3 1133.8 517.9C1133 518.4 1132 518.7 1131 518.7C1130.3 518.7 1129.6 518.6 1129.1 518.3C1128.6 518.1 1128.2 517.8 1127.8 517.4C1127.5 517 1127.2 516.7 1127.1 516.3H1127V523.6H1123.2ZM1126.9 511.7C1126.9 512.5 1127 513.2 1127.2 513.8C1127.4 514.4 1127.8 514.9 1128.2 515.2C1128.6 515.5 1129.1 515.7 1129.8 515.7C1130.4 515.7 1130.9 515.5 1131.4 515.2C1131.8 514.9 1132.2 514.4 1132.4 513.8C1132.6 513.2 1132.7 512.5 1132.7 511.7C1132.7 510.9 1132.6 510.2 1132.4 509.6C1132.2 509 1131.9 508.5 1131.4 508.2C1131 507.9 1130.4 507.7 1129.8 507.7C1129.2 507.7 1128.7 507.9 1128.2 508.2C1127.8 508.5 1127.5 509 1127.2 509.6C1127 510.1 1126.9 510.8 1126.9 511.7Z" fill="#9146FF"/>
<path d="M1139 523.6V504.8H1142.7V507.1H1142.9C1143.1 506.7 1143.3 506.4 1143.6 506C1143.9 505.6 1144.3 505.3 1144.8 505C1145.3 504.7 1146 504.6 1146.7 504.6C1147.7 504.6 1148.6 504.9 1149.5 505.4C1150.3 505.9 1151 506.7 1151.5 507.7C1152 508.7 1152.3 510 1152.3 511.6C1152.3 513.1 1152.1 514.4 1151.6 515.5C1151.1 516.5 1150.4 517.3 1149.6 517.9C1148.8 518.4 1147.8 518.7 1146.8 518.7C1146.1 518.7 1145.4 518.6 1144.9 518.3C1144.4 518.1 1144 517.8 1143.6 517.4C1143.3 517 1143 516.7 1142.9 516.3H1142.8V523.6H1139ZM1142.7 511.7C1142.7 512.5 1142.8 513.2 1143 513.8C1143.2 514.4 1143.6 514.9 1144 515.2C1144.4 515.5 1144.9 515.7 1145.6 515.7C1146.2 515.7 1146.7 515.5 1147.2 515.2C1147.6 514.9 1148 514.4 1148.2 513.8C1148.4 513.2 1148.5 512.5 1148.5 511.7C1148.5 510.9 1148.4 510.2 1148.2 509.6C1148 509 1147.7 508.5 1147.2 508.2C1146.8 507.9 1146.2 507.7 1145.6 507.7C1145 507.7 1144.5 507.9 1144 508.2C1143.6 508.5 1143.3 509 1143 509.6C1142.8 510.1 1142.7 510.8 1142.7 511.7Z" fill="#9146FF"/>
<path d="M1158.6 500.3V518.5H1154.8V500.3H1158.6Z" fill="#9146FF"/>
<path d="M1163.5 503.1C1162.9 503.1 1162.5 502.9 1162.1 502.5C1161.7 502.1 1161.5 501.7 1161.5 501.1C1161.5 500.5 1161.7 500.1 1162.1 499.7C1162.5 499.3 1163 499.1 1163.5 499.1C1164.1 499.1 1164.5 499.3 1164.9 499.7C1165.3 500.1 1165.5 500.5 1165.5 501.1C1165.5 501.7 1165.3 502.1 1164.9 502.5C1164.6 502.9 1164.1 503.1 1163.5 503.1ZM1161.6 518.5V504.9H1165.4V518.5H1161.6Z" fill="#9146FF"/>
<path d="M1174.6 518.7C1173.2 518.7 1172 518.4 1171 517.8C1170 517.2 1169.2 516.4 1168.7 515.3C1168.2 514.2 1167.9 513 1167.9 511.6C1167.9 510.2 1168.2 509 1168.7 507.9C1169.2 506.8 1170 506 1171 505.4C1172 504.8 1173.2 504.5 1174.6 504.5C1175.8 504.5 1176.8 504.7 1177.7 505.1C1178.6 505.5 1179.3 506.1 1179.8 506.9C1180.3 507.7 1180.6 508.6 1180.7 509.7H1177.1C1177 509 1176.7 508.5 1176.3 508.1C1175.9 507.7 1175.3 507.5 1174.6 507.5C1174 507.5 1173.5 507.7 1173.1 508C1172.7 508.3 1172.3 508.8 1172.1 509.4C1171.9 510 1171.7 510.7 1171.7 511.6C1171.7 512.5 1171.8 513.2 1172.1 513.8C1172.3 514.4 1172.7 514.9 1173.1 515.2C1173.5 515.5 1174.1 515.7 1174.6 515.7C1175 515.7 1175.4 515.6 1175.8 515.4C1176.1 515.2 1176.4 515 1176.7 514.6C1176.9 514.3 1177.1 513.8 1177.1 513.4H1180.7C1180.6 514.4 1180.4 515.4 1179.9 516.2C1179.4 517 1178.7 517.6 1177.8 518.1C1176.9 518.5 1175.8 518.7 1174.6 518.7Z" fill="#9146FF"/>
<path d="M1187 518.7C1186.1 518.7 1185.4 518.5 1184.7 518.2C1184 517.9 1183.5 517.4 1183.1 516.8C1182.7 516.2 1182.5 515.4 1182.5 514.5C1182.5 513.7 1182.6 513.1 1182.9 512.6C1183.2 512.1 1183.6 511.7 1184 511.4C1184.5 511.1 1185 510.8 1185.6 510.7C1186.2 510.6 1186.9 510.4 1187.5 510.4C1188.3 510.3 1188.9 510.2 1189.4 510.2C1189.9 510.1 1190.2 510 1190.5 509.9C1190.7 509.8 1190.8 509.5 1190.8 509.2V509.1C1190.8 508.5 1190.6 508.1 1190.3 507.8C1189.9 507.5 1189.4 507.3 1188.8 507.3C1188.1 507.3 1187.6 507.4 1187.2 507.7C1186.8 508 1186.5 508.4 1186.4 508.8L1182.9 508.5C1183.1 507.7 1183.4 507 1183.9 506.3C1184.4 505.7 1185.1 505.2 1185.9 504.9C1186.7 504.6 1187.7 504.4 1188.8 504.4C1189.6 504.4 1190.3 504.5 1191 504.7C1191.7 504.9 1192.3 505.2 1192.9 505.5C1193.5 505.8 1193.9 506.4 1194.2 506.9C1194.5 507.5 1194.7 508.2 1194.7 509V518.2H1191.1V516.3H1191C1190.8 516.7 1190.5 517.1 1190.1 517.4C1189.7 517.7 1189.3 518 1188.8 518.2C1188.3 518.6 1187.7 518.7 1187 518.7ZM1188.1 516.1C1188.7 516.1 1189.1 516 1189.6 515.8C1190 515.6 1190.4 515.3 1190.6 514.9C1190.8 514.5 1191 514.1 1191 513.6V512.2C1190.9 512.3 1190.7 512.3 1190.5 512.4C1190.3 512.5 1190.1 512.5 1189.8 512.6C1189.5 512.6 1189.3 512.7 1189 512.7C1188.7 512.7 1188.5 512.8 1188.3 512.8C1187.9 512.9 1187.5 513 1187.1 513.1C1186.8 513.2 1186.5 513.4 1186.3 513.7C1186.1 513.9 1186 514.2 1186 514.6C1186 515.1 1186.2 515.5 1186.6 515.8C1187 516 1187.5 516.1 1188.1 516.1Z" fill="#9146FF"/>
<path d="M1201.4 510.6V518.5H1197.6V504.9H1201.2V507.3H1201.4C1201.7 506.5 1202.2 505.9 1202.9 505.4C1203.6 504.9 1204.5 504.7 1205.5 504.7C1206.4 504.7 1207.3 504.9 1208 505.3C1208.7 505.7 1209.3 506.3 1209.6 507.1C1210 507.9 1210.2 508.8 1210.2 509.8V518.5H1206.4V510.5C1206.4 509.7 1206.2 509 1205.8 508.5C1205.4 508 1204.8 507.8 1204 507.8C1203.5 507.8 1203 507.9 1202.7 508.1C1202.4 508.3 1202 508.6 1201.8 509.1C1201.5 509.5 1201.4 510 1201.4 510.6Z" fill="#9146FF"/>
<path d="M1220.4 504.8V507.6H1212.2V504.8H1220.4ZM1214.1 501.6H1217.9V514.3C1217.9 514.6 1218 514.9 1218.1 515.1C1218.2 515.3 1218.4 515.4 1218.5 515.5C1218.7 515.6 1218.9 515.6 1219.2 515.6C1219.4 515.6 1219.6 515.6 1219.7 515.6C1219.9 515.6 1220 515.5 1220.1 515.5L1220.7 518.3C1220.5 518.4 1220.2 518.4 1219.9 518.5C1219.6 518.6 1219.1 518.6 1218.6 518.6C1217.7 518.6 1216.9 518.5 1216.2 518.2C1215.5 517.9 1215 517.5 1214.6 516.9C1214.2 516.3 1214 515.6 1214 514.7V501.6H1214.1Z" fill="#9146FF"/>
<path d="M1234.3 508.7L1230.8 508.9C1230.7 508.6 1230.6 508.3 1230.4 508.1C1230.2 507.9 1229.9 507.7 1229.6 507.5C1229.3 507.4 1228.9 507.3 1228.5 507.3C1227.9 507.3 1227.4 507.4 1227 507.7C1226.6 507.9 1226.4 508.3 1226.4 508.7C1226.4 509 1226.5 509.3 1226.8 509.5C1227.1 509.7 1227.5 509.9 1228.1 510L1230.6 510.5C1231.9 510.8 1232.9 511.2 1233.6 511.8C1234.3 512.4 1234.6 513.2 1234.6 514.2C1234.6 515.1 1234.3 515.9 1233.8 516.6C1233.3 517.3 1232.6 517.8 1231.6 518.2C1230.6 518.6 1229.6 518.8 1228.5 518.8C1226.7 518.8 1225.3 518.4 1224.2 517.7C1223.1 517 1222.5 515.9 1222.3 514.6L1226 514.4C1226.1 515 1226.4 515.4 1226.8 515.7C1227.2 516 1227.8 516.1 1228.5 516.1C1229.2 516.1 1229.7 516 1230.1 515.7C1230.5 515.4 1230.7 515.1 1230.7 514.7C1230.7 514.4 1230.5 514.1 1230.3 513.9C1230 513.7 1229.6 513.5 1229 513.4L1226.6 512.9C1225.3 512.6 1224.3 512.2 1223.6 511.5C1222.9 510.8 1222.6 510 1222.6 509C1222.6 508.1 1222.8 507.4 1223.3 506.7C1223.8 506 1224.4 505.6 1225.3 505.2C1226.2 504.9 1227.2 504.7 1228.4 504.7C1230.1 504.7 1231.5 505.1 1232.5 505.8C1233.5 506.5 1234.1 507.5 1234.3 508.7Z" fill="#9146FF"/>
<path d="M763.1 765.2V762H778V765.2H772.4V780.2H768.6V765.2H763.1Z" fill="#9146FF"/>
<path d="M786.7 780.5C785.3 780.5 784.1 780.2 783.1 779.6C782.1 779 781.3 778.2 780.8 777.2C780.3 776.1 780 774.9 780 773.5C780 772.1 780.3 770.9 780.8 769.8C781.3 768.7 782.1 767.9 783.1 767.3C784.1 766.7 785.3 766.4 786.6 766.4C787.5 766.4 788.3 766.5 789.1 766.8C789.9 767.1 790.6 767.5 791.1 768.1C791.6 768.7 792.1 769.4 792.5 770.3C792.9 771.2 793 772.2 793 773.3V774.3H781.5V772H789.5C789.5 771.5 789.4 771 789.1 770.6C788.9 770.2 788.5 769.8 788.1 769.6C787.7 769.4 787.2 769.2 786.6 769.2C786 769.2 785.5 769.3 785.1 769.6C784.7 769.9 784.3 770.2 784.1 770.7C783.9 771.1 783.7 771.6 783.7 772.2V774.4C783.7 775.1 783.8 775.7 784.1 776.2C784.4 776.7 784.7 777.1 785.2 777.3C785.7 777.5 786.2 777.7 786.8 777.7C787.2 777.7 787.6 777.6 788 777.5C788.3 777.4 788.6 777.2 788.9 777C789.1 776.8 789.3 776.5 789.5 776.1L793 776.3C792.8 777.1 792.5 777.9 791.9 778.5C791.3 779.1 790.6 779.6 789.8 780C789 780.4 787.8 780.5 786.7 780.5Z" fill="#9146FF"/>
<path d="M801.6 780.5C800.2 780.5 799 780.2 798 779.6C797 779 796.2 778.2 795.7 777.1C795.2 776 794.9 774.8 794.9 773.4C794.9 772 795.2 770.8 795.7 769.7C796.2 768.6 797 767.8 798 767.2C799 766.6 800.2 766.3 801.6 766.3C802.8 766.3 803.8 766.5 804.7 766.9C805.6 767.3 806.3 767.9 806.8 768.7C807.3 769.5 807.6 770.4 807.7 771.5H804.1C804 770.8 803.7 770.3 803.3 769.9C802.9 769.5 802.3 769.3 801.6 769.3C801 769.3 800.5 769.5 800.1 769.8C799.7 770.1 799.3 770.6 799.1 771.2C798.9 771.8 798.7 772.5 798.7 773.4C798.7 774.3 798.8 775 799.1 775.6C799.3 776.2 799.7 776.7 800.1 777C800.5 777.3 801.1 777.5 801.6 777.5C802 777.5 802.4 777.4 802.8 777.2C803.1 777 803.4 776.8 803.7 776.4C803.9 776.1 804.1 775.6 804.1 775.2H807.7C807.6 776.2 807.4 777.2 806.9 778C806.4 778.8 805.7 779.4 804.8 779.9C803.9 780.3 802.8 780.5 801.6 780.5Z" fill="#9146FF"/>
<path d="M813.9 772.4V780.3H810.1V762.1H813.8V769.1H814C814.3 768.3 814.8 767.7 815.5 767.2C816.2 766.7 817 766.5 818.1 766.5C819 766.5 819.9 766.7 820.6 767.1C821.3 767.5 821.9 768.1 822.3 768.9C822.7 769.7 822.9 770.6 822.9 771.6V780.3H819V772.3C819 771.5 818.8 770.8 818.4 770.3C818 769.8 817.4 769.6 816.6 769.6C816.1 769.6 815.6 769.7 815.2 769.9C814.8 770.1 814.5 770.4 814.3 770.9C814 771.3 813.9 771.8 813.9 772.4Z" fill="#9146FF"/>
<path d="M829.5 772.4V780.3H825.7V766.7H829.3V769.1H829.5C829.8 768.3 830.3 767.7 831 767.2C831.7 766.7 832.6 766.5 833.6 766.5C834.5 766.5 835.4 766.7 836.1 767.1C836.8 767.5 837.4 768.1 837.7 768.9C838.1 769.7 838.3 770.6 838.3 771.6V780.3H834.5V772.3C834.5 771.5 834.3 770.8 833.9 770.3C833.5 769.8 832.9 769.6 832.1 769.6C831.6 769.6 831.1 769.7 830.8 769.9C830.4 770.1 830.1 770.4 829.9 770.9C829.6 771.3 829.5 771.8 829.5 772.4Z" fill="#9146FF"/>
<path d="M843.2 764.9C842.6 764.9 842.2 764.7 841.8 764.3C841.4 763.9 841.2 763.5 841.2 762.9C841.2 762.3 841.4 761.9 841.8 761.5C842.2 761.1 842.7 760.9 843.2 760.9C843.8 760.9 844.2 761.1 844.6 761.5C845 761.9 845.2 762.3 845.2 762.9C845.2 763.5 845 763.9 844.6 764.3C844.2 764.7 843.8 764.9 843.2 764.9ZM841.3 780.3V766.7H845.1V780.3H841.3Z" fill="#9146FF"/>
<path d="M854.3 780.5C852.9 780.5 851.7 780.2 850.7 779.6C849.7 779 848.9 778.2 848.4 777.1C847.9 776 847.6 774.8 847.6 773.4C847.6 772 847.9 770.8 848.4 769.7C848.9 768.6 849.7 767.8 850.7 767.2C851.7 766.6 852.9 766.3 854.3 766.3C855.5 766.3 856.5 766.5 857.4 766.9C858.3 767.3 859 767.9 859.5 768.7C860 769.5 860.3 770.4 860.4 771.5H856.8C856.7 770.8 856.4 770.3 856 769.9C855.6 769.5 855 769.3 854.3 769.3C853.7 769.3 853.2 769.5 852.8 769.8C852.4 770.1 852 770.6 851.8 771.2C851.6 771.8 851.4 772.5 851.4 773.4C851.4 774.3 851.5 775 851.8 775.6C852 776.2 852.4 776.7 852.8 777C853.2 777.3 853.8 777.5 854.3 777.5C854.7 777.5 855.1 777.4 855.5 777.2C855.8 777 856.1 776.8 856.4 776.4C856.6 776.1 856.8 775.6 856.8 775.2H860.4C860.3 776.2 860.1 777.2 859.6 778C859.1 778.8 858.4 779.4 857.5 779.9C856.5 780.3 855.5 780.5 854.3 780.5Z" fill="#9146FF"/>
<path d="M866.7 780.5C865.8 780.5 865.1 780.3 864.4 780C863.7 779.7 863.2 779.2 862.8 778.6C862.4 778 862.2 777.2 862.2 776.3C862.2 775.5 862.3 774.9 862.6 774.4C862.9 773.9 863.3 773.5 863.7 773.2C864.1 772.9 864.7 772.6 865.3 772.5C865.9 772.3 866.6 772.2 867.2 772.2C868 772.1 868.6 772 869.1 772C869.6 771.9 869.9 771.8 870.2 771.7C870.4 771.6 870.5 771.3 870.5 771C870.5 770.4 870.3 770 870 769.7C869.6 769.4 869.1 769.2 868.5 769.2C867.8 769.2 867.3 769.3 866.9 769.6C866.5 769.9 866.2 770.3 866.1 770.7L862.6 770.4C862.8 769.6 863.1 768.9 863.6 768.2C864.1 767.6 864.8 767.1 865.6 766.8C866.4 766.5 867.4 766.3 868.5 766.3C869.3 766.3 870 766.4 870.7 766.6C871.4 766.8 872 767.1 872.6 767.4C873.1 767.8 873.6 768.3 873.9 768.8C874.2 769.4 874.4 770.1 874.4 770.9V780.1H870.8V778.2H870.7C870.5 778.6 870.2 779 869.8 779.3C869.4 779.6 869 779.9 868.5 780.1C868 780.3 867.4 780.5 866.7 780.5ZM867.8 777.9C868.4 777.9 868.8 777.8 869.3 777.6C869.7 777.4 870.1 777.1 870.3 776.7C870.5 776.3 870.7 775.9 870.7 775.4V774C870.6 774.1 870.4 774.1 870.2 774.2C870 774.3 869.8 774.3 869.5 774.4C869.2 774.4 869 774.5 868.7 774.5C868.4 774.5 868.2 774.6 868 774.6C867.6 774.7 867.2 774.8 866.8 774.9C866.5 775 866.2 775.2 866 775.5C865.8 775.7 865.7 776 865.7 776.4C865.7 776.9 865.9 777.3 866.3 777.6C866.7 777.9 867.2 777.9 867.8 777.9Z" fill="#9146FF"/>
<path d="M881.1 762.1V780.3H877.3V762.1H881.1Z" fill="#9146FF"/>
<path d="M893.8 762.1V780.3H890V762.1H893.8Z" fill="#9146FF"/>
<path d="M900.7 772.4V780.3H896.9V766.7H900.5V769.1H900.7C901 768.3 901.5 767.7 902.2 767.2C902.9 766.7 903.8 766.5 904.8 766.5C905.7 766.5 906.6 766.7 907.3 767.1C908 767.5 908.6 768.1 908.9 768.9C909.3 769.7 909.5 770.6 909.5 771.6V780.3H905.7V772.3C905.7 771.5 905.5 770.8 905.1 770.3C904.7 769.8 904.1 769.6 903.3 769.6C902.8 769.6 902.3 769.7 902 769.9C901.7 770.1 901.3 770.4 901.1 770.9C900.8 771.3 900.7 771.8 900.7 772.4Z" fill="#9146FF"/>
<path d="M919.8 766.6V769.4H911.6V766.6H919.8ZM913.4 763.3H917.2V776C917.2 776.3 917.3 776.6 917.4 776.8C917.5 777 917.7 777.1 917.8 777.2C918 777.3 918.2 777.3 918.5 777.3C918.7 777.3 918.9 777.3 919 777.3C919.2 777.3 919.3 777.2 919.4 777.2L920 780C919.8 780.1 919.5 780.1 919.2 780.2C918.9 780.3 918.4 780.3 917.9 780.3C917 780.3 916.2 780.2 915.5 779.9C914.8 779.6 914.3 779.2 913.9 778.6C913.5 778 913.3 777.3 913.3 776.4V763.3H913.4Z" fill="#9146FF"/>
<path d="M928.4 780.5C927 780.5 925.8 780.2 924.8 779.6C923.8 779 923 778.2 922.5 777.2C922 776.1 921.7 774.9 921.7 773.5C921.7 772.1 922 770.9 922.5 769.8C923 768.7 923.8 767.9 924.8 767.3C925.8 766.7 927 766.4 928.3 766.4C929.2 766.4 930 766.5 930.8 766.8C931.6 767.1 932.3 767.5 932.8 768.1C933.4 768.7 933.8 769.4 934.2 770.3C934.6 771.2 934.7 772.2 934.7 773.3V774.3H923.2V772H931.2C931.2 771.5 931.1 771 930.8 770.6C930.6 770.2 930.2 769.8 929.8 769.6C929.4 769.4 928.9 769.2 928.3 769.2C927.7 769.2 927.2 769.3 926.8 769.6C926.4 769.9 926 770.2 925.8 770.7C925.6 771.1 925.4 771.6 925.4 772.2V774.4C925.4 775.1 925.5 775.7 925.8 776.2C926.1 776.7 926.4 777.1 926.9 777.3C927.4 777.6 927.9 777.7 928.5 777.7C928.9 777.7 929.3 777.6 929.7 777.5C930 777.4 930.3 777.2 930.6 777C930.8 776.8 931 776.5 931.2 776.1L934.7 776.3C934.5 777.1 934.2 777.9 933.6 778.5C933 779.1 932.3 779.6 931.5 780C930.7 780.4 929.6 780.5 928.4 780.5Z" fill="#9146FF"/>
<path d="M937.2 780.3V766.7H940.9V769.1H941C941.2 768.3 941.7 767.6 942.3 767.2C942.9 766.8 943.6 766.5 944.3 766.5C944.5 766.5 944.7 766.5 944.9 766.5C945.1 766.5 945.3 766.6 945.5 766.6V770C945.3 769.9 945.1 769.9 944.8 769.9C944.5 769.9 944.2 769.8 943.9 769.8C943.3 769.8 942.8 769.9 942.4 770.2C942 770.4 941.6 770.8 941.4 771.2C941.1 771.6 941 772.1 941 772.7V780.4H937.2V780.3Z" fill="#9146FF"/>
<path d="M960.1 766.6L955.3 780.2H951L946.2 766.6H950.2L953 776.4H953.1L955.9 766.6H960.1Z" fill="#9146FF"/>
<path d="M963.9 764.9C963.3 764.9 962.9 764.7 962.5 764.3C962.1 763.9 961.9 763.5 961.9 762.9C961.9 762.3 962.1 761.9 962.5 761.5C962.9 761.1 963.4 760.9 963.9 760.9C964.5 760.9 964.9 761.1 965.3 761.5C965.7 761.9 965.9 762.3 965.9 762.9C965.9 763.5 965.7 763.9 965.3 764.3C964.9 764.7 964.5 764.9 963.9 764.9ZM962 780.3V766.7H965.8V780.3H962Z" fill="#9146FF"/>
<path d="M975.1 780.5C973.7 780.5 972.5 780.2 971.5 779.6C970.5 779 969.7 778.2 969.2 777.2C968.7 776.1 968.4 774.9 968.4 773.5C968.4 772.1 968.7 770.9 969.2 769.8C969.7 768.7 970.5 767.9 971.5 767.3C972.5 766.7 973.7 766.4 975 766.4C975.9 766.4 976.7 766.5 977.5 766.8C978.3 767.1 979 767.5 979.5 768.1C980.1 768.7 980.5 769.4 980.9 770.3C981.2 771.2 981.4 772.2 981.4 773.3V774.3H969.9V772H977.9C977.9 771.5 977.8 771 977.5 770.6C977.3 770.2 976.9 769.8 976.5 769.6C976.1 769.4 975.6 769.2 975 769.2C974.4 769.2 973.9 769.3 973.5 769.6C973.1 769.9 972.7 770.2 972.5 770.7C972.3 771.1 972.1 771.6 972.1 772.2V774.4C972.1 775.1 972.2 775.7 972.5 776.2C972.8 776.7 973.1 777.1 973.6 777.3C974.1 777.6 974.6 777.7 975.2 777.7C975.6 777.7 976 777.6 976.4 777.5C976.8 777.4 977 777.2 977.3 777C977.5 776.8 977.7 776.5 977.9 776.1L981.4 776.3C981.2 777.1 980.9 777.9 980.3 778.5C979.8 779.1 979 779.6 978.2 780C977.4 780.4 976.2 780.5 975.1 780.5Z" fill="#9146FF"/>
<path d="M986.5 780.3L982.8 766.7H986.6L988.7 775.9H988.8L991 766.7H994.8L997 775.8H997.1L999.2 766.7H1003L999.3 780.3H995.3L993 771.7H992.8L990.5 780.3H986.5Z" fill="#9146FF"/>
<path d="M1016.4 770.5L1012.9 770.7C1012.8 770.4 1012.7 770.1 1012.5 769.9C1012.3 769.7 1012 769.5 1011.7 769.3C1011.4 769.2 1011 769.1 1010.6 769.1C1010 769.1 1009.5 769.2 1009.1 769.5C1008.7 769.7 1008.5 770.1 1008.5 770.5C1008.5 770.8 1008.6 771.1 1008.9 771.3C1009.2 771.5 1009.6 771.7 1010.2 771.8L1012.7 772.3C1014 772.6 1015 773 1015.7 773.6C1016.4 774.2 1016.7 775 1016.7 776C1016.7 776.9 1016.4 777.7 1015.9 778.4C1015.4 779.1 1014.7 779.6 1013.7 780C1012.7 780.4 1011.7 780.6 1010.6 780.6C1008.8 780.6 1007.4 780.2 1006.3 779.5C1005.2 778.8 1004.6 777.7 1004.4 776.4L1008.1 776.2C1008.2 776.8 1008.5 777.2 1008.9 777.5C1009.3 777.8 1009.9 777.9 1010.6 777.9C1011.3 777.9 1011.8 777.8 1012.2 777.5C1012.6 777.2 1012.8 776.9 1012.8 776.5C1012.8 776.2 1012.6 775.9 1012.4 775.7C1012.1 775.5 1011.7 775.3 1011.1 775.2L1008.7 774.7C1007.4 774.4 1006.4 774 1005.7 773.3C1005 772.6 1004.7 771.8 1004.7 770.8C1004.7 769.9 1004.9 769.2 1005.4 768.5C1005.9 767.8 1006.5 767.4 1007.4 767C1008.3 766.7 1009.3 766.5 1010.5 766.5C1012.2 766.5 1013.6 766.9 1014.6 767.6C1015.6 768.3 1016.3 769.2 1016.4 770.5Z" fill="#9146FF"/>
<path d="M535.5 520.3V502.1H539.3V509.6H547.1V502.1H550.9V520.3H547.1V512.8H539.3V520.3H535.5Z" fill="#9146FF"/>
<path d="M556 504.9C555.4 504.9 555 504.7 554.6 504.3C554.2 503.9 554 503.5 554 502.9C554 502.3 554.2 501.9 554.6 501.5C555 501.1 555.5 500.9 556 500.9C556.6 500.9 557 501.1 557.4 501.5C557.8 501.9 558 502.3 558 502.9C558 503.5 557.8 503.9 557.4 504.3C557 504.7 556.5 504.9 556 504.9ZM554.1 520.3V506.7H557.9V520.3H554.1Z" fill="#9146FF"/>
<path d="M560.9 520.3V506.7H564.6V509.1H564.7C564.9 508.3 565.4 507.6 566 507.2C566.6 506.8 567.3 506.5 568 506.5C568.2 506.5 568.4 506.5 568.6 506.5C568.8 506.5 569 506.6 569.2 506.6V510C569 509.9 568.8 509.9 568.5 509.9C568.2 509.9 567.9 509.8 567.6 509.8C567 509.8 566.5 509.9 566.1 510.2C565.7 510.4 565.3 510.8 565.1 511.2C564.8 511.6 564.7 512.1 564.7 512.7V520.4H560.9V520.3Z" fill="#9146FF"/>
<path d="M577.3 520.5C575.9 520.5 574.7 520.2 573.7 519.6C572.7 519 571.9 518.2 571.4 517.2C570.9 516.1 570.6 514.9 570.6 513.5C570.6 512.1 570.9 510.9 571.4 509.8C571.9 508.7 572.7 507.9 573.7 507.3C574.7 506.7 575.9 506.4 577.2 506.4C578.1 506.4 578.9 506.5 579.7 506.8C580.5 507.1 581.2 507.5 581.7 508.1C582.2 508.7 582.7 509.4 583.1 510.3C583.5 511.2 583.6 512.2 583.6 513.3V514.3H572.1V512H580.1C580.1 511.5 580 511 579.7 510.6C579.5 510.2 579.1 509.8 578.7 509.6C578.3 509.4 577.8 509.2 577.2 509.2C576.6 509.2 576.1 509.3 575.7 509.6C575.3 509.9 574.9 510.2 574.7 510.7C574.5 511.1 574.3 511.6 574.3 512.2V514.4C574.3 515.1 574.4 515.7 574.7 516.2C575 516.7 575.3 517.1 575.8 517.3C576.3 517.5 576.8 517.7 577.4 517.7C577.8 517.7 578.2 517.6 578.6 517.5C578.9 517.4 579.2 517.2 579.5 517C579.7 516.8 579.9 516.5 580.1 516.1L583.6 516.3C583.4 517.1 583.1 517.9 582.5 518.5C581.9 519.1 581.2 519.6 580.4 520C579.6 520.4 578.4 520.5 577.3 520.5Z" fill="#9146FF"/>
<path d="M595.7 520.5C594.8 520.5 594.1 520.3 593.4 520C592.7 519.7 592.2 519.2 591.8 518.6C591.4 518 591.2 517.2 591.2 516.3C591.2 515.5 591.3 514.9 591.6 514.4C591.9 513.9 592.3 513.5 592.7 513.2C593.1 512.9 593.7 512.6 594.3 512.5C594.9 512.3 595.6 512.2 596.2 512.2C597 512.1 597.6 512 598.1 512C598.6 511.9 598.9 511.8 599.2 511.7C599.4 511.6 599.5 511.3 599.5 511C599.5 510.4 599.3 510 599 509.7C598.6 509.4 598.1 509.2 597.5 509.2C596.8 509.2 596.3 509.3 595.9 509.6C595.5 509.9 595.2 510.3 595.1 510.7L591.6 510.4C591.8 509.6 592.1 508.9 592.6 508.2C593.1 507.6 593.8 507.1 594.6 506.8C595.4 506.5 596.4 506.3 597.5 506.3C598.3 506.3 599 506.4 599.7 506.6C600.4 506.8 601 507.1 601.6 507.4C602.1 507.8 602.6 508.3 602.9 508.8C603.2 509.4 603.4 510.1 603.4 510.9V520.1H599.8V518.2H599.7C599.5 518.6 599.2 519 598.8 519.3C598.4 519.6 598 519.9 597.5 520.1C597 520.3 596.4 520.5 595.7 520.5ZM596.8 517.9C597.4 517.9 597.8 517.8 598.3 517.6C598.7 517.4 599.1 517.1 599.3 516.7C599.5 516.3 599.7 515.9 599.7 515.4V514C599.6 514.1 599.4 514.1 599.2 514.2C599 514.3 598.8 514.3 598.5 514.4C598.2 514.4 598 514.5 597.7 514.5C597.4 514.5 597.2 514.6 597 514.6C596.6 514.7 596.2 514.8 595.8 514.9C595.5 515 595.2 515.2 595 515.5C594.8 515.7 594.7 516 594.7 516.4C594.7 516.9 594.9 517.3 595.3 517.6C595.7 517.9 596.2 517.9 596.8 517.9Z" fill="#9146FF"/>
<path d="M610.1 512.4V520.3H606.3V506.7H609.9V509.1H610.1C610.4 508.3 610.9 507.7 611.6 507.2C612.3 506.7 613.2 506.5 614.2 506.5C615.1 506.5 616 506.7 616.7 507.1C617.4 507.5 618 508.1 618.3 508.9C618.7 509.7 618.9 510.6 618.9 511.6V520.3H615.1V512.3C615.1 511.5 614.9 510.8 614.5 510.3C614.1 509.8 613.5 509.6 612.7 509.6C612.2 509.6 611.7 509.7 611.4 509.9C611 510.1 610.7 510.4 610.5 510.9C610.3 511.3 610.2 511.8 610.1 512.4Z" fill="#9146FF"/>
<path d="M626.9 520.5C625.9 520.5 624.9 520.2 624.1 519.7C623.3 519.2 622.6 518.4 622.1 517.3C621.6 516.3 621.4 515 621.4 513.4C621.4 511.8 621.7 510.5 622.2 509.5C622.7 508.5 623.4 507.7 624.2 507.2C625 506.7 626 506.4 627 506.4C627.8 506.4 628.4 506.5 628.9 506.8C629.4 507.1 629.8 507.4 630.1 507.8C630.4 508.2 630.7 508.6 630.8 508.9H630.9V502.1H634.7V520.3H631V518.1H630.8C630.6 518.5 630.4 518.9 630 519.2C629.6 519.5 629.3 519.9 628.7 520.1C628.3 520.4 627.7 520.5 626.9 520.5ZM628.1 517.5C628.7 517.5 629.2 517.3 629.7 517C630.1 516.7 630.4 516.2 630.7 515.6C630.9 515 631 514.3 631 513.5C631 512.7 630.9 512 630.7 511.4C630.5 510.8 630.1 510.3 629.7 510C629.3 509.7 628.8 509.5 628.1 509.5C627.5 509.5 627 509.7 626.5 510C626.1 510.3 625.8 510.8 625.5 511.4C625.3 512 625.2 512.7 625.2 513.5C625.2 514.3 625.3 515 625.5 515.6C625.7 516.2 626 516.7 626.5 517C627 517.3 627.5 517.5 628.1 517.5Z" fill="#9146FF"/>
<path d="M643.7 502.1H648.4L653.4 514.3H653.6L658.6 502.1H663.3V520.3H659.6V508.5H659.4L654.7 520.3H652.2L647.5 508.5H647.3V520.4H643.6V502.1H643.7Z" fill="#9146FF"/>
<path d="M670.4 520.5C669.5 520.5 668.8 520.3 668.1 520C667.4 519.7 666.9 519.2 666.5 518.6C666.1 518 665.9 517.2 665.9 516.3C665.9 515.5 666 514.9 666.3 514.4C666.6 513.9 667 513.5 667.4 513.2C667.8 512.9 668.4 512.6 669 512.5C669.6 512.3 670.3 512.2 670.9 512.2C671.7 512.1 672.3 512 672.8 512C673.3 511.9 673.6 511.8 673.9 511.7C674.1 511.6 674.2 511.3 674.2 511C674.2 510.4 674 510 673.7 509.7C673.3 509.4 672.8 509.2 672.2 509.2C671.5 509.2 671 509.3 670.6 509.6C670.2 509.9 669.9 510.3 669.8 510.7L666.3 510.4C666.5 509.6 666.8 508.9 667.3 508.2C667.8 507.6 668.5 507.1 669.3 506.8C670.1 506.5 671.1 506.3 672.2 506.3C673 506.3 673.7 506.4 674.4 506.6C675.1 506.8 675.7 507.1 676.3 507.4C676.8 507.8 677.3 508.3 677.6 508.8C677.9 509.4 678.1 510.1 678.1 510.9V520.1H674.5V518.2H674.4C674.2 518.6 673.9 519 673.5 519.3C673.1 519.6 672.7 519.9 672.2 520.1C671.7 520.3 671.1 520.5 670.4 520.5ZM671.5 517.9C672.1 517.9 672.5 517.8 673 517.6C673.4 517.4 673.8 517.1 674 516.7C674.2 516.3 674.4 515.9 674.4 515.4V514C674.3 514.1 674.1 514.1 673.9 514.2C673.7 514.3 673.5 514.3 673.2 514.4C672.9 514.4 672.7 514.5 672.4 514.5C672.1 514.5 671.9 514.6 671.7 514.6C671.3 514.7 670.9 514.8 670.5 514.9C670.2 515 669.9 515.2 669.7 515.5C669.5 515.7 669.4 516 669.4 516.4C669.4 516.9 669.6 517.3 670 517.6C670.4 517.9 670.9 517.9 671.5 517.9Z" fill="#9146FF"/>
<path d="M684.8 512.4V520.3H681V506.7H684.6V509.1H684.8C685.1 508.3 685.6 507.7 686.3 507.2C687 506.7 687.9 506.5 688.9 506.5C689.8 506.5 690.7 506.7 691.4 507.1C692.1 507.5 692.7 508.1 693 508.9C693.4 509.7 693.6 510.6 693.6 511.6V520.3H689.8V512.3C689.8 511.5 689.6 510.8 689.2 510.3C688.8 509.8 688.2 509.6 687.4 509.6C686.9 509.6 686.4 509.7 686.1 509.9C685.7 510.1 685.4 510.4 685.2 510.9C684.9 511.3 684.8 511.8 684.8 512.4Z" fill="#9146FF"/>
<path d="M700.5 520.5C699.6 520.5 698.9 520.3 698.2 520C697.5 519.7 697 519.2 696.6 518.6C696.2 518 696 517.2 696 516.3C696 515.5 696.1 514.9 696.4 514.4C696.7 513.9 697.1 513.5 697.5 513.2C697.9 512.9 698.5 512.6 699.1 512.5C699.7 512.3 700.4 512.2 701 512.2C701.8 512.1 702.4 512 702.9 512C703.4 511.9 703.7 511.8 704 511.7C704.2 511.6 704.3 511.3 704.3 511C704.3 510.4 704.1 510 703.8 509.7C703.4 509.4 702.9 509.2 702.3 509.2C701.6 509.2 701.1 509.3 700.7 509.6C700.3 509.9 700 510.3 699.9 510.7L696.4 510.4C696.6 509.6 696.9 508.9 697.4 508.2C697.9 507.6 698.6 507.1 699.4 506.8C700.2 506.5 701.2 506.3 702.3 506.3C703.1 506.3 703.8 506.4 704.5 506.6C705.2 506.8 705.8 507.1 706.4 507.4C706.9 507.8 707.4 508.3 707.7 508.8C708 509.4 708.2 510.1 708.2 510.9V520.1H704.6V518.2H704.5C704.3 518.6 704 519 703.6 519.3C703.2 519.6 702.8 519.9 702.3 520.1C701.8 520.3 701.1 520.5 700.5 520.5ZM701.5 517.9C702.1 517.9 702.5 517.8 703 517.6C703.4 517.4 703.8 517.1 704 516.7C704.2 516.3 704.4 515.9 704.4 515.4V514C704.3 514.1 704.1 514.1 703.9 514.2C703.7 514.3 703.5 514.3 703.2 514.4C702.9 514.4 702.7 514.5 702.4 514.5C702.1 514.5 701.9 514.6 701.7 514.6C701.3 514.7 700.9 514.8 700.5 514.9C700.2 515 699.9 515.2 699.7 515.5C699.5 515.7 699.4 516 699.4 516.4C699.4 516.9 699.6 517.3 700 517.6C700.4 517.9 701 517.9 701.5 517.9Z" fill="#9146FF"/>
<path d="M717.2 525.7C716 525.7 714.9 525.5 714.1 525.2C713.3 524.9 712.5 524.4 712 523.8C711.5 523.2 711.1 522.6 711 521.9L714.5 521.4C714.6 521.7 714.8 521.9 715 522.2C715.2 522.4 715.5 522.6 715.9 522.8C716.3 522.9 716.7 523 717.3 523C718.1 523 718.8 522.8 719.3 522.4C719.8 522 720.1 521.3 720.1 520.4V517.9H720C719.8 518.3 719.6 518.6 719.3 519C719 519.3 718.5 519.6 718 519.8C717.5 520 716.9 520.1 716.1 520.1C715.1 520.1 714.1 519.9 713.3 519.4C712.5 518.9 711.8 518.2 711.3 517.2C710.8 516.2 710.6 515 710.6 513.5C710.6 512 710.9 510.7 711.4 509.6C711.9 508.5 712.6 507.8 713.4 507.3C714.2 506.8 715.2 506.5 716.2 506.5C717 506.5 717.6 506.6 718.1 506.9C718.6 507.2 719 507.5 719.3 507.9C719.6 508.3 719.9 508.7 720 509H720.1V506.7H723.9V520.5C723.9 521.7 723.6 522.6 723 523.4C722.4 524.2 721.6 524.8 720.6 525.2C719.6 525.6 718.5 525.7 717.2 525.7ZM717.3 517.2C717.9 517.2 718.4 517 718.9 516.7C719.3 516.4 719.6 516 719.9 515.4C720.2 514.8 720.2 514.1 720.2 513.3C720.2 512.5 720.1 511.8 719.9 511.2C719.7 510.6 719.3 510.2 718.9 509.8C718.5 509.5 718 509.3 717.3 509.3C716.7 509.3 716.2 509.5 715.7 509.8C715.3 510.1 715 510.6 714.7 511.2C714.5 511.8 714.4 512.5 714.4 513.3C714.4 514.1 714.5 514.8 714.7 515.3C714.9 515.9 715.2 516.3 715.7 516.6C716.2 517.1 716.7 517.2 717.3 517.2Z" fill="#9146FF"/>
<path d="M733.1 520.5C731.7 520.5 730.5 520.2 729.5 519.6C728.5 519 727.7 518.2 727.2 517.2C726.7 516.1 726.4 514.9 726.4 513.5C726.4 512.1 726.7 510.9 727.2 509.8C727.7 508.7 728.5 507.9 729.5 507.3C730.5 506.7 731.7 506.4 733 506.4C733.9 506.4 734.7 506.5 735.5 506.8C736.3 507.1 737 507.5 737.5 508.1C738 508.7 738.5 509.4 738.9 510.3C739.3 511.2 739.4 512.2 739.4 513.3V514.3H727.9V512H735.9C735.9 511.5 735.8 511 735.5 510.6C735.3 510.2 734.9 509.8 734.5 509.6C734.1 509.4 733.6 509.2 733 509.2C732.4 509.2 731.9 509.3 731.5 509.6C731.1 509.9 730.7 510.2 730.5 510.7C730.3 511.1 730.1 511.6 730.1 512.2V514.4C730.1 515.1 730.2 515.7 730.5 516.2C730.8 516.7 731.1 517.1 731.6 517.3C732.1 517.5 732.6 517.7 733.2 517.7C733.6 517.7 734 517.6 734.4 517.5C734.7 517.4 735 517.2 735.3 517C735.5 516.8 735.7 516.5 735.9 516.1L739.4 516.3C739.2 517.1 738.9 517.9 738.3 518.5C737.7 519.1 737 519.6 736.2 520C735.4 520.4 734.3 520.5 733.1 520.5Z" fill="#9146FF"/>
<path d="M393.18 345.18C390.23 346.69 388.97 350.08 390.26 352.86C390.62 353.6 395.9 359.05 406.5 369.65C415.14 378.27 422.22 385.43 422.22 385.54C422.22 385.68 398.74 385.76 370.05 385.76C323.58 385.76 317.74 385.82 316.83 386.17C312.18 388.12 312.18 394.95 316.83 396.91C317.74 397.27 323.58 397.32 370.05 397.32C398.74 397.32 422.22 397.4 422.22 397.51C422.22 397.62 414.98 404.97 406.14 413.84L390.06 429.95L389.76 431.46C388.85 435.86 392.76 439.5 397.11 438.34C398.32 438.01 399.81 436.58 419.82 416.62C432.95 403.54 441.49 394.82 441.82 394.15C442.59 392.66 442.59 390.41 441.82 388.92C440.97 387.3 399.26 345.7 397.94 345.15C396.62 344.63 394.22 344.63 393.18 345.18Z" fill="#9146FF"/>
<path d="M1402.74 328.09C1399.79 329.6 1398.53 332.99 1399.82 335.77C1400.18 336.51 1405.46 341.96 1416.06 352.56C1424.7 361.18 1431.78 368.34 1431.78 368.45C1431.78 368.59 1408.3 368.67 1379.61 368.67C1333.14 368.67 1327.3 368.73 1326.39 369.08C1321.74 371.03 1321.74 377.86 1326.39 379.82C1327.3 380.18 1333.14 380.23 1379.61 380.23C1408.3 380.23 1431.78 380.31 1431.78 380.42C1431.78 380.53 1424.54 387.88 1415.7 396.75L1399.62 412.86L1399.32 414.37C1398.41 418.77 1402.32 422.41 1406.67 421.25C1407.88 420.92 1409.37 419.49 1429.38 399.53C1442.51 386.45 1451.05 377.73 1451.38 377.06C1452.15 375.57 1452.15 373.32 1451.38 371.83C1450.53 370.21 1408.82 328.61 1407.5 328.06C1406.18 327.54 1403.78 327.54 1402.74 328.09Z" fill="#9146FF"/>
<path d="M1030.15 124.01C1027.24 124.03 1026.82 124.21 1025.8 125.72C1025.16 126.67 1025.16 128.97 1025.8 129.93C1026.84 131.47 1027.15 131.59 1031.03 131.79C1033 131.89 1035.56 132.08 1036.7 132.23C1053.48 134.33 1068.92 142.75 1080.75 156.23C1084 159.95 1086.23 162.93 1088.63 166.85C1096.16 179.08 1100.31 192.59 1101.17 207.59C1101.28 209.82 1101.39 211.8 1101.39 211.99C1101.39 212.18 1097.55 208.1 1092.84 202.91C1088.11 197.7 1084.03 193.27 1083.72 193.05C1083.04 192.56 1081.27 192.54 1080.43 193.03C1079.52 193.54 1078.73 194.69 1078.55 195.7C1078.2 197.78 1077.98 197.49 1090.89 211.78C1097.51 219.1 1103.19 225.21 1103.54 225.38C1104.36 225.8 1105.22 225.77 1106.19 225.33C1106.74 225.06 1110.54 221.05 1118.36 212.41C1124.59 205.51 1129.97 199.44 1130.33 198.93C1131.81 196.7 1130.62 193.28 1128.19 192.76C1126.34 192.37 1126.2 192.49 1117.04 202.62L1108.49 212.04L1108.36 209.64C1107.9 201.42 1107.37 197.11 1106.02 191.02C1098.09 155.39 1070.85 128.75 1038.01 124.54C1036.38 124.32 1034.52 124.12 1033.93 124.08C1033.33 124.01 1031.63 123.98 1030.15 124.01Z" fill="#9146FF"/>
<path d="M1128.6 555.05C1128.58 552.14 1128.4 551.72 1126.89 550.7C1125.94 550.06 1123.64 550.06 1122.68 550.7C1121.14 551.74 1121.02 552.05 1120.82 555.93C1120.72 557.9 1120.53 560.46 1120.38 561.6C1118.28 578.38 1109.86 593.82 1096.38 605.65C1092.66 608.9 1089.68 611.13 1085.76 613.53C1073.53 621.06 1060.02 625.21 1045.02 626.07C1042.79 626.18 1040.81 626.29 1040.62 626.29C1040.43 626.29 1044.51 622.45 1049.7 617.74C1054.91 613.01 1059.34 608.93 1059.56 608.62C1060.05 607.94 1060.07 606.17 1059.58 605.33C1059.07 604.42 1057.92 603.63 1056.91 603.45C1054.83 603.1 1055.12 602.88 1040.83 615.79C1033.51 622.41 1027.4 628.09 1027.23 628.44C1026.81 629.26 1026.84 630.12 1027.28 631.09C1027.55 631.64 1031.56 635.44 1040.2 643.26C1047.1 649.49 1053.17 654.87 1053.68 655.23C1055.91 656.71 1059.33 655.52 1059.85 653.09C1060.24 651.24 1060.12 651.1 1049.99 641.94L1040.57 633.39L1042.97 633.26C1051.19 632.8 1055.5 632.27 1061.59 630.92C1097.22 622.99 1123.86 595.75 1128.07 562.91C1128.29 561.28 1128.49 559.42 1128.53 558.83C1128.6 558.23 1128.63 556.53 1128.6 555.05Z" fill="#9146FF"/>
<path d="M733.17 647.61C736.08 647.59 736.5 647.41 737.52 645.9C738.16 644.95 738.16 642.65 737.52 641.69C736.48 640.15 736.17 640.03 732.29 639.83C730.32 639.73 727.76 639.54 726.62 639.39C709.84 637.29 694.4 628.87 682.57 615.39C679.32 611.67 677.09 608.69 674.69 604.77C667.16 592.54 663.01 579.03 662.15 564.03C662.04 561.8 661.93 559.82 661.93 559.63C661.93 559.44 665.77 563.52 670.48 568.71C675.21 573.92 679.29 578.35 679.6 578.57C680.28 579.06 682.05 579.08 682.89 578.59C683.8 578.08 684.59 576.93 684.77 575.92C685.12 573.84 685.34 574.13 672.43 559.84C665.81 552.52 660.13 546.41 659.78 546.24C658.96 545.82 658.1 545.85 657.13 546.29C656.58 546.56 652.78 550.57 644.96 559.21C638.73 566.11 633.35 572.18 632.99 572.69C631.51 574.92 632.7 578.34 635.13 578.86C636.98 579.25 637.12 579.13 646.28 569L654.83 559.58L654.96 561.98C655.42 570.2 655.95 574.51 657.3 580.6C665.23 616.23 692.47 642.87 725.31 647.08C726.94 647.3 728.8 647.5 729.39 647.54C729.99 647.61 731.69 647.63 733.17 647.61Z" fill="#9146FF"/>
</g>
<defs>
<clipPath id="clip0_718_131">
<rect width="1728" height="749" fill="white" transform="translate(32 32)"/>
</clipPath>
</defs>
</svg>
