<?xml version="1.0" standalone="no"?>
<!DOCTYPE svg PUBLIC "-//W3C//DTD SVG 1.1//EN" "http://www.w3.org/Graphics/SVG/1.1/DTD/svg11.dtd" >
<svg xmlns="http://www.w3.org/2000/svg">
    <defs>
        <font id="MonumentExtended-Regular">
            <font-face font-family="MonumentExtended-Regular"
                       units-per-em="1000"
                       ascent="900"
                       descent="-300"
                       bbox="-1063 -335 2309 1082"
                    />
            <missing-glyph horiz-adv-x="0" />
            
            <glyph glyph-name="!" unicode="&#x21;" horiz-adv-x="223" d=" M223,700 L219,217 L47,217 L43,700 M47,134 L218,134 L218,0 L47,0"/> 
            <glyph glyph-name="&quot;" unicode="&#x22;" horiz-adv-x="489" d=" M223,720 L209,400 L57,400 L43,720 M489,720 L475,400 L323,400 L309,720"/> 
            <glyph glyph-name="#" unicode="&#x23;" horiz-adv-x="1238" d=" M1238,409 L1010,409 L945,191 L1138,191 L1138,49 L902,49 L843,-150 L667,-150 L726,49 L437,49 L378,-150 L202,-150 L261,49 L63,49 L63,191 L304,191 L369,409 L163,409 L163,551 L411,551 L462,720 L638,720 L587,551 L876,551 L927,720 L1103,720 L1052,551 L1238,551 M769,191 L834,409 L545,409 L480,191"/> 
            <glyph glyph-name="$" unicode="&#x24;" horiz-adv-x="957" d=" M957,215 Q957,151 930.5,107.5 Q904,64 851,39.5 Q798,15 732,4 Q666,-7 574,-9 L574,-100 L454,-100 L454,-9 Q324,-5 241.5,17.5 Q159,40 111,95 Q63,150 63,241 L243,241 Q243,190 289,165 Q335,140 454,135 L454,291 Q252,305 168,352 Q84,399 84,507 Q84,611 177.5,657.5 Q271,704 454,709 L454,800 L574,800 L574,708 Q927,690 927,471 L747,471 Q747,517 707,538.5 Q667,560 574,565 L574,418 Q654,413 706.5,407 Q759,401 811,387.5 Q863,374 892,353 Q921,332 939,297.5 Q957,263 957,215 M264,498 Q264,461 300.5,447 Q337,433 454,426 L454,567 Q342,566 303,551 Q264,536 264,498 M574,133 Q689,136 733,153 Q777,170 777,209 Q777,248 739.5,262.5 Q702,277 574,285"/> 
            <glyph glyph-name="%" unicode="&#x25;" horiz-adv-x="1627" d=" M368,259 Q214,259 138.5,335.5 Q63,412 63,535 Q63,657 138.5,733.5 Q214,810 368,810 Q522,810 598,733.5 Q674,657 674,535 Q674,412 598.5,335.5 Q523,259 368,259 M1062,800 L802,-70 L626,-70 L886,800 M234,402 Q502,402 502,535 Q502,667 368,667 Q234,667 234,535 M1321,-80 Q1167,-80 1091.5,-3.5 Q1016,73 1016,196 Q1016,318 1091.5,394.5 Q1167,471 1321,471 Q1475,471 1551,394.5 Q1627,318 1627,196 Q1627,73 1551.5,-3.5 Q1476,-80 1321,-80 M1187,63 Q1455,63 1455,196 Q1455,328 1321,328 Q1187,328 1187,196"/> 
            <glyph glyph-name="&amp;" unicode="&#x26;" horiz-adv-x="1035" d=" M1035,125 L958,0 Q784,83 772,89 Q612,-10 394,-10 Q43,-10 43,193 Q43,347 254,390 Q196,455 196,534 Q196,620 272.5,665 Q349,710 494,710 Q620,710 704,665 Q788,620 788,544 Q788,476 724.5,431.5 Q661,387 536,354 Q614,312 732,258 Q795,312 845,381 L999,323 Q952,246 893,186 M494,584 Q367,584 367,514 Q367,470 427,423 Q617,464 617,525 Q617,553 584.5,568.5 Q552,584 494,584 M401,133 Q503,133 597,173 Q425,258 346,313 Q284,298 249,276.5 Q214,255 214,221 Q214,133 401,133"/> 
            <glyph glyph-name="'" unicode="&#x27;" horiz-adv-x="223" d=" M223,720 L209,400 L57,400 L43,720"/> 
            <glyph glyph-name="(" unicode="&#x28;" horiz-adv-x="613" d=" M43,156 Q43,446 73,541 Q103,636 173,694 Q243,752 348,776 Q453,800 613,800 L613,649 Q501,649 431,634.5 Q361,620 312,581 Q263,542 243,475 Q223,408 223,301 Q223,194 243.5,126.5 Q264,59 313,19.5 Q362,-20 432,-34.5 Q502,-49 613,-49 L613,-200 Q453,-200 348,-176 Q243,-152 173,-93.5 Q103,-35 43,156"/> 
            <glyph glyph-name=")" unicode="&#x29;" horiz-adv-x="613" d=" M613,446 Q613,156 583,60.5 Q553,-35 483,-93.5 Q413,-152 308,-176 Q203,-200 43,-200 L43,-49 Q154,-49 224,-34.5 Q294,-20 343,19.5 Q392,59 412.5,126.5 Q433,194 433,301 Q433,408 413,475 Q393,542 344,581 Q295,620 225,634.5 Q155,649 43,649 L43,800 Q203,800 308,776 Q413,752 483,694 Q553,636 613,446"/> 
            <glyph glyph-name="*" unicode="&#x2A;" horiz-adv-x="540" d=" M43,513 L186,583 L43,654 L106,763 L238,675 L228,799 L354,800 L344,675 L476,763 L540,654 L397,583 L540,513 L477,404 L344,492 L354,367 L229,367 L239,492 L106,404"/> 
            <glyph glyph-name="+" unicode="&#x2B;" horiz-adv-x="863" d=" M863,411 L863,269 L540,269 L540,0 L369,0 L369,269 L63,269 L63,411 L369,411 L369,680 L540,680 L540,411"/> 
            <glyph glyph-name="," unicode="&#x2C;" horiz-adv-x="214" d=" M43,134 L214,134 L214,0 L133,-197 L51,-197 L102,0 L43,0"/> 
            <glyph glyph-name="-" unicode="&#x2D;" horiz-adv-x="863" d=" M63,411 L863,411 L863,269 L63,269"/> 
            <glyph glyph-name="." unicode="&#x2E;" horiz-adv-x="214" d=" M43,134 L214,134 L214,0 L43,0"/> 
            <glyph glyph-name="/" unicode="&#x2F;" horiz-adv-x="478" d=" M478,720 L218,-150 L42,-150 L302,720"/> 
            <glyph glyph-name="0" unicode="&#x30;" horiz-adv-x="853" d=" M443,-10 Q237,-10 135,82 Q33,174 33,351 Q33,710 443,710 Q648,710 750.5,618 Q853,526 853,351 Q853,175 750.5,82.5 Q648,-10 443,-10 M327,141 Q559,141 616,195.5 Q673,250 673,351 Q673,451 616,505 Q559,559 443,559 Q327,559 270,505.5 Q213,452 213,351 Q213,250 327,141"/> 
            <glyph glyph-name="1" unicode="&#x31;" horiz-adv-x="703" d=" M463,151 L703,151 L703,0 L43,0 L43,151 L284,151 L285,481 Q250,450 202,434 Q154,418 124,416 Q94,414 43,414 L43,566 Q73,566 89.5,566.5 Q106,567 135,569.5 Q164,572 181,576.5 Q198,581 220,591 Q242,601 254,615 Q266,629 274.5,650.5 Q283,672 283,700 L463,700"/> 
            <glyph glyph-name="2" unicode="&#x32;" horiz-adv-x="827" d=" M827,490 Q827,435 799.5,393.5 Q772,352 727,328 Q682,304 627.5,287 Q573,270 516.5,257.5 Q460,245 412,232 Q364,219 329,199 Q294,179 285,151 L817,151 L817,0 L33,0 L33,91 Q33,150 67,195 Q101,240 155,267 Q209,294 274.5,314.5 Q340,335 405.5,350 Q471,365 525,380.5 Q579,396 613,420 Q647,444 647,476 Q647,521 607,540 Q567,559 455,559 Q332,559 280.5,532 Q229,505 229,425 L49,425 Q49,493 68.5,544 Q88,595 121,626.5 Q154,658 205.5,677 Q257,696 314,703 Q371,710 445,710 Q638,710 732.5,662 Q827,614 827,490"/> 
            <glyph glyph-name="3" unicode="&#x33;" horiz-adv-x="827" d=" M719,350 Q827,298 827,197 Q827,85 730,37.5 Q633,-10 440,-10 Q343,-10 273,2 Q203,14 146.5,43.5 Q90,73 61.5,128.5 Q33,184 33,265 L213,265 Q213,187 267,164 Q321,141 450,141 Q562,141 604.5,156.5 Q647,172 647,220 Q647,271 593,283.5 Q539,296 350,296 L350,404 Q537,404 592,416.5 Q647,429 647,480 Q647,526 606.5,542.5 Q566,559 450,559 Q315,559 264,535 Q213,511 213,435 L33,435 Q33,516 61.5,571.5 Q90,627 146.5,656.5 Q203,686 273,698 Q343,710 440,710 Q633,710 730,662.5 Q827,615 827,503 Q827,402 719,350"/> 
            <glyph glyph-name="4" unicode="&#x34;" horiz-adv-x="857" d=" M857,266 L857,114 L717,114 L717,0 L537,0 L537,114 L43,114 L43,266 L537,700 L717,700 L717,266 M237,266 L537,266 L537,520"/> 
            <glyph glyph-name="5" unicode="&#x35;" horiz-adv-x="827" d=" M539,472 Q675,472 751,410.5 Q827,349 827,237 Q827,111 727,50.5 Q627,-10 445,-10 Q371,-10 312.5,-3.5 Q254,3 200,20 Q146,37 110.5,64.5 Q75,92 54,137 Q33,182 33,243 L213,243 Q213,186 270.5,163.5 Q328,141 450,141 Q557,141 602,170.5 Q647,200 647,257 Q647,311 609,340 Q571,369 474,369 Q371,369 216,307 L68,336 L158,700 L777,700 L777,557 L292,557 L247,408 Q328,443 392.5,457.5 Q457,472 539,472"/> 
            <glyph glyph-name="6" unicode="&#x36;" horiz-adv-x="843" d=" M506,472 Q843,472 843,235 Q843,113 746,51.5 Q649,-10 463,-10 Q242,-10 142.5,75 Q43,160 43,333 Q43,438 72.5,513.5 Q102,589 155.5,631 Q209,673 274,691.5 Q339,710 421,710 Q598,710 796,668 L796,525 Q789,526 754.5,533 Q720,540 708.5,542 Q697,544 666.5,549.5 Q636,555 617.5,557 Q599,559 571.5,562 Q544,565 518,566 Q492,567 465,567 Q350,567 295,532 Q240,497 227,396 Q325,472 506,472 M443,133 Q565,133 614,162.5 Q663,192 663,250 Q663,308 614,337 Q565,366 443,366 Q223,366 223,250 Q223,133 443,133"/> 
            <glyph glyph-name="7" unicode="&#x37;" horiz-adv-x="763" d=" M20,700 L763,700 L763,549 Q562,450 458,298.5 Q354,147 354,0 L174,0 Q174,71 192,143 Q210,215 248,288.5 Q286,362 354,430.5 Q422,499 514,549 L20,549"/> 
            <glyph glyph-name="8" unicode="&#x38;" horiz-adv-x="853" d=" M707,397 Q853,345 853,208 Q853,135 816,88.5 Q779,42 687,16 Q595,-10 443,-10 Q218,-10 125.5,43.5 Q33,97 33,208 Q33,345 179,397 Q103,443 103,526 Q103,621 183,665.5 Q263,710 443,710 Q622,710 702.5,665.5 Q783,621 783,526 Q783,443 707,397 M544,580 Q342,580 304,565 Q266,550 266,512 Q266,474 303.5,459 Q341,444 443,444 Q544,444 582,459 Q620,474 620,512 Q620,550 544,580 M315,129 Q571,129 622,152.5 Q673,176 673,229 Q673,280 622.5,303.5 Q572,327 443,327 Q314,327 263.5,304 Q213,281 213,229 Q213,176 315,129"/> 
            <glyph glyph-name="9" unicode="&#x39;" horiz-adv-x="833" d=" M413,710 Q634,710 733.5,625 Q833,540 833,367 Q833,262 803.5,186.5 Q774,111 720.5,69 Q667,27 602,8.5 Q537,-10 455,-10 Q278,-10 80,32 L80,175 Q87,174 121.5,167 Q156,160 167.5,158 Q179,156 209.5,150.5 Q240,145 258.5,143 Q277,141 304.5,138 Q332,135 358,134 Q384,133 411,133 Q526,133 581,168 Q636,203 649,304 Q551,228 370,228 Q33,228 33,465 Q33,587 130,648.5 Q227,710 413,710 M433,334 Q653,334 653,450 Q653,567 433,567 Q311,567 262,537.5 Q213,508 213,450 Q213,392 262,363 Q311,334 433,334"/> 
            <glyph glyph-name=":" unicode="&#x3A;" horiz-adv-x="214" d=" M43,434 L214,434 L214,300 L43,300 M43,134 L214,134 L214,0 L43,0"/> 
            <glyph glyph-name=";" unicode="&#x3B;" horiz-adv-x="214" d=" M43,434 L214,434 L214,300 L43,300 M43,0 L43,134 L214,134 L214,0 L133,-197 L51,-197 L102,0"/> 
            <glyph glyph-name="&lt;" unicode="&#x3C;" horiz-adv-x="773" d=" M773,600 L773,449 L200,340 L773,231 L773,80 L63,220 L63,460"/> 
            <glyph glyph-name="=" unicode="&#x3D;" horiz-adv-x="863" d=" M63,571 L863,571 L863,429 L63,429 M63,251 L863,251 L863,109 L63,109"/> 
            <glyph glyph-name="&gt;" unicode="&#x3E;" horiz-adv-x="773" d=" M63,600 L773,460 L773,220 L63,80 L63,231 L636,340 L63,449"/> 
            <glyph glyph-name="?" unicode="&#x3F;" horiz-adv-x="797" d=" M458,217 L287,217 Q287,264 305,297.5 Q323,331 352.5,349 Q382,367 417,379 Q452,391 487,399 Q522,407 551.5,416.5 Q581,426 599,443 Q617,460 617,486 Q617,559 440,559 Q324,559 273.5,533.5 Q223,508 223,436 L43,436 Q43,517 71,572 Q99,627 154,656.5 Q209,686 274.5,698 Q340,710 430,710 Q609,710 703,662.5 Q797,615 797,506 Q797,456 773,419.5 Q749,383 713,365 Q677,347 634,331 Q591,315 553.5,303 Q516,291 489,269.5 Q462,248 458,217 M287,134 L458,134 L458,0 L287,0"/> 
            <glyph glyph-name="@" unicode="&#x40;" horiz-adv-x="1170" d=" M662,810 Q934,810 1052,710.5 Q1170,611 1170,394 L1170,-17 L998,-17 L998,65 Q912,-25 733,-27 Q391,-31 391,263 Q391,330 409.5,381 Q428,432 459,463.5 Q490,495 535,515.5 Q580,536 627.5,544 Q675,552 733,553 Q908,556 996,465 Q992,518 968,556.5 Q944,595 912,616 Q880,637 834.5,649 Q789,661 752.5,664 Q716,667 672,667 Q597,667 533,654 Q469,641 413,611 Q357,581 318,535.5 Q279,490 256.5,422 Q234,354 234,268 Q234,206 243.5,155 Q253,104 269,64.5 Q285,25 313,-6 Q341,-37 372.5,-59 Q404,-81 450,-96.5 Q496,-112 541.5,-121.5 Q587,-131 650.5,-136 Q714,-141 773,-143 Q832,-145 911,-145 L901,-288 Q712,-288 577,-270.5 Q442,-253 341,-215 Q240,-177 180,-111.5 Q120,-46 91.5,46.5 Q63,139 63,268 Q63,529 221,669.5 Q379,810 662,810 M780,116 Q885,116 938.5,147 Q992,178 997,247 L997,280 Q992,348 938.5,379 Q885,410 780,410 Q669,410 615.5,375 Q562,340 562,263 Q562,186 615.5,151 Q669,116 780,116"/> 
            <glyph glyph-name="A" unicode="&#x41;" horiz-adv-x="999" d=" M800,0 L725,149 L306,149 L231,0 L33,0 L394,700 L637,700 L999,0 M373,283 L658,283 L516,567"/> 
            <glyph glyph-name="B" unicode="&#x42;" horiz-adv-x="911" d=" M812,380 Q911,319 911,204 Q911,111 854,55.5 Q797,0 683,0 L43,0 L43,700 L659,700 Q867,700 867,516 Q867,441 812,380 M223,570 L223,425 L594,425 L595,425 Q619,425 630.5,426.5 Q642,428 658,434 Q674,440 680.5,456 Q687,472 687,498 Q687,524 680.5,539.5 Q674,555 658,561 Q642,567 630,568.5 Q618,570 594,570 M639,139 Q658,139 667.5,139.5 Q677,140 691.5,144 Q706,148 713,155 Q720,162 725.5,177 Q731,192 731,213 Q731,234 725.5,249 Q720,264 713,271 Q706,278 691.5,282 Q677,286 667.5,286.5 Q658,287 639,287 L223,287 L223,139"/> 
            <glyph glyph-name="C" unicode="&#x43;" horiz-adv-x="910" d=" M33,351 Q33,529 139.5,619.5 Q246,710 473,710 Q883,710 910,402 L727,402 Q715,485 652,522 Q589,559 473,559 Q337,559 275,509 Q213,459 213,351 Q213,242 275,191.5 Q337,141 473,141 Q588,141 651.5,179 Q715,217 727,300 L910,300 Q883,-10 473,-10 Q246,-10 139.5,81 Q33,172 33,351"/> 
            <glyph glyph-name="D" unicode="&#x44;" horiz-adv-x="891" d=" M551,700 Q620,700 680.5,678.5 Q741,657 788.5,615 Q836,573 863.5,504.5 Q891,436 891,350 Q891,264 863.5,195.5 Q836,127 788.5,85 Q741,43 680.5,21.5 Q620,0 551,0 L43,0 L43,700 M483,151 Q539,151 577,158.5 Q615,166 647.5,186.5 Q680,207 695.5,247.5 Q711,288 711,350 Q711,412 695.5,452.5 Q680,493 647.5,513.5 Q615,534 577,541.5 Q539,549 483,549 L223,549 L223,151"/> 
            <glyph glyph-name="E" unicode="&#x45;" horiz-adv-x="783" d=" M783,557 L223,557 L223,415 L783,415 L783,285 L223,285 L223,143 L783,143 L783,0 L43,0 L43,700 L783,700"/> 
            <glyph glyph-name="F" unicode="&#x46;" horiz-adv-x="783" d=" M783,549 L223,549 L223,371 L723,371 L723,219 L223,219 L223,0 L43,0 L43,700 L783,700"/> 
            <glyph glyph-name="G" unicode="&#x47;" horiz-adv-x="910" d=" M466,258 L466,375 L910,375 L910,0 L777,0 L769,110 Q659,-10 449,-10 Q254,-10 143.5,84 Q33,178 33,350 Q33,524 148,617 Q263,710 479,710 Q684,710 793,635.5 Q902,561 910,427 L727,427 Q723,450 710,470.5 Q697,491 671,512.5 Q645,534 595.5,546.5 Q546,559 479,559 Q412,559 362,544.5 Q312,530 284,508.5 Q256,487 239.5,456.5 Q223,426 218,400.5 Q213,375 213,346 Q213,317 218,290.5 Q223,264 240,233 Q257,202 284.5,180.5 Q312,159 362,144 Q412,129 479,129 Q598,129 660.5,169.5 Q723,210 727,258"/> 
            <glyph glyph-name="H" unicode="&#x48;" horiz-adv-x="973" d=" M793,700 L973,700 L973,0 L793,0 L793,274 L223,274 L223,0 L43,0 L43,700 L223,700 L223,426 L793,426"/> 
            <glyph glyph-name="I" unicode="&#x49;" horiz-adv-x="223" d=" M223,700 L223,0 L43,0 L43,700"/> 
            <glyph glyph-name="J" unicode="&#x4A;" horiz-adv-x="883" d=" M883,700 L883,351 Q883,168 780,79 Q677,-10 463,-10 Q248,-10 145.5,78.5 Q43,167 43,351 L223,351 Q223,308 231,276 Q239,244 262.5,210.5 Q286,177 336.5,159 Q387,141 463,141 Q524,141 569.5,154 Q615,167 640,186.5 Q665,206 679.5,235.5 Q694,265 698.5,291.5 Q703,318 703,351 L703,549 L371,549 L371,700"/> 
            <glyph glyph-name="K" unicode="&#x4B;" horiz-adv-x="995" d=" M995,700 L571,389 L995,0 L746,0 L438,291 L223,134 L223,0 L43,0 L43,700 L223,700 L223,337 L722,700"/> 
            <glyph glyph-name="L" unicode="&#x4C;" horiz-adv-x="763" d=" M223,151 L763,151 L763,0 L43,0 L43,700 L223,700"/> 
            <glyph glyph-name="M" unicode="&#x4D;" horiz-adv-x="1115" d=" M1115,700 L1115,0 L935,0 L935,480 L644,0 L514,0 L223,480 L223,0 L43,0 L43,700 L286,700 L579,206 L872,700"/> 
            <glyph glyph-name="N" unicode="&#x4E;" horiz-adv-x="945" d=" M765,700 L945,700 L945,0 L700,0 L223,525 L223,0 L43,0 L43,700 L287,700 L765,174"/> 
            <glyph glyph-name="O" unicode="&#x4F;" horiz-adv-x="913" d=" M473,-10 Q246,-10 139.5,81 Q33,172 33,351 Q33,529 139.5,619.5 Q246,710 473,710 Q913,710 913,351 Q913,-10 473,-10 M473,141 Q611,141 672,191.5 Q733,242 733,351 Q733,459 672.5,509 Q612,559 473,559 Q334,559 273.5,509.5 Q213,460 213,351 Q213,242 273.5,191.5 Q334,141 473,141"/> 
            <glyph glyph-name="P" unicode="&#x50;" horiz-adv-x="861" d=" M593,700 Q713,700 787,629.5 Q861,559 861,443 Q861,327 787,257 Q713,187 593,187 L223,187 L223,0 L43,0 L43,700 M543,338 Q566,338 579,338.5 Q592,339 614,344.5 Q636,350 648.5,360.5 Q661,371 671,392 Q681,413 681,443 Q681,473 671,494.5 Q661,516 648.5,526.5 Q636,537 614,542.5 Q592,548 579,548.5 Q566,549 543,549 L223,549 L223,338"/> 
            <glyph glyph-name="Q" unicode="&#x51;" horiz-adv-x="973" d=" M973,38 L846,-89 L725,32 Q626,-10 473,-10 Q246,-10 139.5,81 Q33,172 33,351 Q33,529 139.5,619.5 Q246,710 473,710 Q913,710 913,351 Q913,229 863,148 M213,460 Q213,242 273.5,191.5 Q334,141 473,141 Q611,141 672,191.5 Q733,242 733,351 Q733,459 672.5,509 Q612,559 473,559 Q334,559 213,460"/> 
            <glyph glyph-name="R" unicode="&#x52;" horiz-adv-x="861" d=" M861,443 Q861,359 820.5,297.5 Q780,236 709,208 L838,0 L626,0 L513,187 L223,187 L223,0 L43,0 L43,700 L593,700 Q713,700 787,629.5 Q861,559 861,443 M223,549 L223,338 L543,338 Q566,338 579,338.5 Q592,339 614,344.5 Q636,350 648.5,360.5 Q661,371 671,392 Q681,413 681,443 Q681,473 671,494.5 Q661,516 648.5,526.5 Q636,537 614,542.5 Q592,548 579,548.5 Q566,549 543,549"/> 
            <glyph glyph-name="S" unicode="&#x53;" horiz-adv-x="927" d=" M33,241 L213,241 Q213,183 274.5,158 Q336,133 501,133 Q641,133 694,150 Q747,167 747,209 Q747,232 738,244.5 Q729,257 697.5,266 Q666,275 618.5,279.5 Q571,284 480,288 Q245,299 149.5,345.5 Q54,392 54,507 Q54,582 105.5,628 Q157,674 246.5,692 Q336,710 473,710 Q679,710 788,653 Q897,596 897,471 L717,471 Q717,527 657.5,547 Q598,567 453,567 Q323,567 278.5,552.5 Q234,538 234,498 Q234,458 279,444.5 Q324,431 480,422 Q542,419 579.5,416 Q617,413 666,408 Q715,403 743.5,396.5 Q772,390 806,379.5 Q840,369 859,354.5 Q878,340 895.5,320 Q913,300 920,274 Q927,248 927,215 Q927,147 896.5,101.5 Q866,56 804.5,32 Q743,8 669.5,-1 Q596,-10 491,-10 Q401,-10 333,-3.5 Q265,3 206.5,20 Q148,37 111,65 Q74,93 53.5,137 Q33,181 33,241"/> 
            <glyph glyph-name="T" unicode="&#x54;" horiz-adv-x="893" d=" M893,700 L893,549 L553,549 L553,0 L373,0 L373,549 L33,549 L33,700"/> 
            <glyph glyph-name="U" unicode="&#x55;" horiz-adv-x="923" d=" M923,351 Q923,167 817,78.5 Q711,-10 483,-10 Q254,-10 148.5,78 Q43,166 43,351 L43,700 L223,700 L223,351 Q223,317 227.5,291 Q232,265 247.5,235.5 Q263,206 290.5,186.5 Q318,167 367,154 Q416,141 483,141 Q550,141 599,154 Q648,167 675,186.5 Q702,206 718,235.5 Q734,265 738.5,291 Q743,317 743,351 L743,700 L923,700"/> 
            <glyph glyph-name="V" unicode="&#x56;" horiz-adv-x="999" d=" M797,700 L999,700 L639,0 L393,0 L33,700 L235,700 L516,133"/> 
            <glyph glyph-name="W" unicode="&#x57;" horiz-adv-x="1495" d=" M1300,700 L1495,700 L1219,0 L970,0 L764,527 L557,0 L309,0 L33,700 L227,700 L434,150 L653,700 L874,700 L1094,149"/> 
            <glyph glyph-name="X" unicode="&#x58;" horiz-adv-x="1065" d=" M33,0 L427,350 L33,700 L281,700 L549,460 L816,700 L1065,700 L671,350 L1065,0 L816,0 L549,240 L281,0"/> 
            <glyph glyph-name="Y" unicode="&#x59;" horiz-adv-x="1005" d=" M429,230 L33,700 L250,700 L519,381 L788,700 L1005,700 L609,230 L609,0 L429,0"/> 
            <glyph glyph-name="Z" unicode="&#x5A;" horiz-adv-x="833" d=" M833,700 L833,549 L301,151 L833,151 L833,0 L43,0 L43,151 L574,549 L43,549 L43,700"/> 
            <glyph glyph-name="[" unicode="&#x5B;" horiz-adv-x="613" d=" M613,649 L223,649 L223,-49 L613,-49 L613,-200 L43,-200 L43,800 L613,800"/> 
            <glyph glyph-name="\" unicode="&#x5C;" horiz-adv-x="479" d=" M43,720 L219,720 L479,-150 L303,-150"/> 
            <glyph glyph-name="]" unicode="&#x5D;" horiz-adv-x="613" d=" M613,800 L613,-200 L43,-200 L43,-49 L433,-49 L433,649 L43,649 L43,800"/> 
            <glyph glyph-name="^" unicode="&#x5E;" horiz-adv-x="864" d=" M864,350 L689,350 L464,706 L237,350 L63,350 L350,800 L578,800"/> 
            <glyph glyph-name="_" unicode="&#x5F;" horiz-adv-x="1063" d=" M63,-63 L1063,-63 L1063,-197 L63,-197"/> 
            <glyph glyph-name="`" unicode="&#x60;" horiz-adv-x="452" d=" M452,789 L452,671 L63,751 L63,869"/> 
            <glyph glyph-name="a" unicode="&#x61;" horiz-adv-x="831" d=" M443,599 Q635,599 732.5,529 Q830,459 831,297 L831,0 L659,0 L659,73 Q490,-10 301,-10 Q33,-10 33,176 Q33,231 61.5,271.5 Q90,312 141,334.5 Q192,357 253,367 Q314,377 388,377 Q535,377 659,335 Q659,456 435,456 Q288,456 143,413 L82,538 Q270,599 443,599 M659,183 L659,229 Q545,265 409,265 Q204,265 204,183 Q204,140 238.5,128 Q273,116 350,116 Q419,116 505.5,135 Q592,154 659,183"/> 
            <glyph glyph-name="b" unicode="&#x62;" horiz-adv-x="859" d=" M508,599 Q582,599 643,582.5 Q704,566 753.5,531.5 Q803,497 831,436.5 Q859,376 859,294 Q859,212 831,152 Q803,92 753.5,57.5 Q704,23 643,6.5 Q582,-10 508,-10 Q311,-10 214,92 L214,0 L43,0 L43,800 L214,800 L214,497 Q311,599 508,599 M333,133 Q569,133 628,171 Q687,209 687,294 Q687,380 628,418 Q569,456 451,456 Q333,456 273.5,417.5 Q214,379 214,294 Q214,209 333,133"/> 
            <glyph glyph-name="c" unicode="&#x63;" horiz-adv-x="844" d=" M33,294 Q33,451 141,525 Q249,599 441,599 Q613,599 718.5,539 Q824,479 844,354 L669,354 Q652,409 595.5,432.5 Q539,456 441,456 Q324,456 264,419 Q204,382 204,294 Q204,207 264,170 Q324,133 441,133 Q539,133 595.5,156.5 Q652,180 669,235 L844,235 Q824,110 718.5,50 Q613,-10 441,-10 Q249,-10 141,64 Q33,138 33,294"/> 
            <glyph glyph-name="d" unicode="&#x64;" horiz-adv-x="849" d=" M678,800 L849,800 L849,0 L678,0 L678,92 Q581,-10 384,-10 Q310,-10 249,6.5 Q188,23 138.5,57.5 Q89,92 61,152 Q33,212 33,294 Q33,376 61,436.5 Q89,497 138.5,531.5 Q188,566 249,582.5 Q310,599 384,599 Q581,599 678,497 M323,133 Q559,133 618.5,171 Q678,209 678,294 Q678,379 618.5,417.5 Q559,456 441,456 Q323,456 264,418 Q205,380 205,294 Q205,209 323,133"/> 
            <glyph glyph-name="e" unicode="&#x65;" horiz-adv-x="844" d=" M431,129 Q521,129 576.5,148 Q632,167 664,211 L834,211 Q805,100 701.5,45 Q598,-10 431,-10 Q252,-10 142.5,65 Q33,140 33,294 Q33,450 142.5,524.5 Q252,599 441,599 Q844,599 844,254 L208,254 Q233,129 431,129 M440,469 Q345,469 289,445.5 Q233,422 214,363 L661,363 Q624,469 440,469"/> 
            <glyph glyph-name="f" unicode="&#x66;" horiz-adv-x="609" d=" M486,684 Q413,684 387.5,664.5 Q362,645 360,589 L609,589 L609,446 L360,446 L360,0 L188,0 L188,446 L33,446 L33,589 L188,589 L188,633 Q188,724 246,767 Q304,810 432,810 Q522,810 609,800 L609,679 Q544,684 486,684"/> 
            <glyph glyph-name="g" unicode="&#x67;" horiz-adv-x="849" d=" M677,589 L849,589 L849,94 Q849,-79 745,-164.5 Q641,-250 465,-250 Q275,-250 96,-203 L96,-65 Q99,-66 134,-72.5 Q169,-79 184.5,-82 Q200,-85 237,-90.5 Q274,-96 300,-99 Q326,-102 361,-104.5 Q396,-107 427,-107 Q558,-107 615,-55 Q672,-3 677,112 Q582,7 379,7 Q220,7 126.5,80 Q33,153 33,303 Q33,453 126.5,526 Q220,599 379,599 Q583,599 677,494 M319,150 Q563,150 620,186.5 Q677,223 677,303 Q677,383 620,419.5 Q563,456 441,456 Q319,456 261.5,419.5 Q204,383 204,303 Q204,223 319,150"/> 
            <glyph glyph-name="h" unicode="&#x68;" horiz-adv-x="863" d=" M557,599 Q860,599 863,326 L861,0 L689,0 L689,261 Q689,359 648.5,405 Q608,451 506,451 Q423,451 339.5,415 Q256,379 214,330 L214,0 L43,0 L43,800 L214,800 L214,486 Q358,599 557,599"/> 
            <glyph glyph-name="i" unicode="&#x69;" horiz-adv-x="214" d=" M43,800 L214,800 L214,651 L43,651 M43,589 L214,589 L214,0 L43,0"/> 
            <glyph glyph-name="j" unicode="&#x6A;" horiz-adv-x="424" d=" M252,800 L424,800 L424,651 L252,651 M424,589 L424,27 Q424,-115 370.5,-182.5 Q317,-250 180,-250 Q89,-250 3,-235 L3,-97 Q85,-107 126,-107 Q205,-107 228.5,-81.5 Q252,-56 252,36 L252,589"/> 
            <glyph glyph-name="k" unicode="&#x6B;" horiz-adv-x="935" d=" M935,589 L553,348 L935,0 L697,0 L415,257 L214,136 L214,0 L43,0 L43,800 L214,800 L214,324 L643,589"/> 
            <glyph glyph-name="l" unicode="&#x6C;" horiz-adv-x="214" d=" M43,800 L214,800 L214,0 L43,0"/> 
            <glyph glyph-name="m" unicode="&#x6D;" horiz-adv-x="1319" d=" M1065,599 Q1316,599 1319,330 L1317,0 L1146,0 L1146,261 Q1146,363 1117.5,407 Q1089,451 1003,451 Q939,451 877,425 Q815,399 773,361 Q774,351 774,330 L772,0 L601,0 L601,261 Q601,363 572.5,407 Q544,451 458,451 Q388,451 321,420.5 Q254,390 214,347 L214,0 L43,0 L43,589 L214,589 L214,493 Q347,599 520,599 Q679,599 738,491 Q882,599 1065,599"/> 
            <glyph glyph-name="n" unicode="&#x6E;" horiz-adv-x="863" d=" M557,599 Q860,599 863,326 L861,0 L689,0 L689,261 Q689,359 648.5,405 Q608,451 506,451 Q423,451 339.5,415 Q256,379 214,330 L214,0 L43,0 L43,589 L214,589 L214,486 Q358,599 557,599"/> 
            <glyph glyph-name="o" unicode="&#x6F;" horiz-adv-x="849" d=" M441,-10 Q249,-10 141,64 Q33,138 33,294 Q33,451 141,525 Q249,599 441,599 Q632,599 740.5,524.5 Q849,450 849,294 Q849,138 740.5,64 Q632,-10 441,-10 M318,133 Q564,133 620.5,169 Q677,205 677,294 Q677,384 620.5,420 Q564,456 441,456 Q318,456 261,420 Q204,384 204,294 Q204,205 318,133"/> 
            <glyph glyph-name="p" unicode="&#x70;" horiz-adv-x="859" d=" M508,599 Q664,599 761.5,525.5 Q859,452 859,294 Q859,212 831.5,152 Q804,92 754.5,57.5 Q705,23 643.5,6.5 Q582,-10 508,-10 Q311,-10 215,91 L215,-250 L43,-250 L43,589 L215,589 L215,498 Q313,599 508,599 M333,133 Q569,133 628.5,171 Q688,209 688,294 Q688,379 628.5,417.5 Q569,456 451,456 Q333,456 274,418 Q215,380 215,294 Q215,209 333,133"/> 
            <glyph glyph-name="q" unicode="&#x71;" horiz-adv-x="849" d=" M677,589 L849,589 L849,-250 L677,-250 L677,91 Q581,-10 384,-10 Q310,-10 248.5,6.5 Q187,23 137.5,57.5 Q88,92 60.5,152 Q33,212 33,294 Q33,452 130.5,525.5 Q228,599 384,599 Q579,599 677,498 M323,133 Q559,133 618,171 Q677,209 677,294 Q677,380 618,418 Q559,456 441,456 Q323,456 263.5,417.5 Q204,379 204,294 Q204,209 323,133"/> 
            <glyph glyph-name="r" unicode="&#x72;" horiz-adv-x="675" d=" M516,599 Q595,599 675,579 L675,436 Q595,456 524,456 Q346,456 214,353 L214,0 L43,0 L43,589 L214,589 L214,489 Q337,599 516,599"/> 
            <glyph glyph-name="s" unicode="&#x73;" horiz-adv-x="847" d=" M33,207 L204,207 Q204,159 261,139.5 Q318,120 460,120 Q554,120 599,125.5 Q644,131 659.5,142.5 Q675,154 675,178 Q675,211 638,220 Q601,229 440,239 Q367,243 320.5,247.5 Q274,252 225.5,260 Q177,268 149,280 Q121,292 97.5,310.5 Q74,329 64,355 Q54,381 54,416 Q54,461 75,494 Q96,527 130,547 Q164,567 216.5,579 Q269,591 322.5,595 Q376,599 444,599 Q535,599 598.5,591.5 Q662,584 717,564.5 Q772,545 799.5,506 Q827,467 827,408 L655,408 Q655,444 606,456.5 Q557,469 434,469 Q314,469 270,459 Q226,449 226,423 Q226,408 233,400 Q240,392 268,385.5 Q296,379 336.5,375 Q377,371 460,365 Q651,351 710,336 Q819,309 841,234 Q847,212 847,185 Q847,136 829,101 Q811,66 780.5,44.5 Q750,23 700,11 Q650,-1 597,-5.5 Q544,-10 470,-10 Q395,-10 337,-5.5 Q279,-1 219,12.5 Q159,26 120.5,49 Q82,72 57.5,112 Q33,152 33,207"/> 
            <glyph glyph-name="t" unicode="&#x74;" horiz-adv-x="639" d=" M639,446 L360,446 L360,276 Q360,190 384.5,161.5 Q409,133 486,133 Q570,133 639,143 L639,5 Q554,-10 438,-10 Q320,-10 254,36 Q188,82 188,177 L188,446 L33,446 L33,589 L188,589 L188,711 L360,760 L360,589 L639,589"/> 
            <glyph glyph-name="u" unicode="&#x75;" horiz-adv-x="862" d=" M691,589 L862,589 L862,0 L691,0 L691,103 Q547,-10 348,-10 Q45,-10 42,263 L44,589 L216,589 L216,328 Q216,230 256.5,184 Q297,138 399,138 Q482,138 565.5,174 Q649,210 691,259"/> 
            <glyph glyph-name="v" unicode="&#x76;" horiz-adv-x="874" d=" M684,589 L874,589 L575,0 L331,0 L33,589 L223,589 L454,121"/> 
            <glyph glyph-name="w" unicode="&#x77;" horiz-adv-x="1365" d=" M1174,589 L1365,589 L1100,0 L872,0 L699,410 L526,0 L298,0 L33,589 L224,589 L417,134 L597,589 L801,589 L981,135"/> 
            <glyph glyph-name="x" unicode="&#x78;" horiz-adv-x="925" d=" M33,0 L364,294 L33,589 L263,589 L479,394 L695,589 L925,589 L593,294 L925,0 L695,0 L479,195 L263,0"/> 
            <glyph glyph-name="y" unicode="&#x79;" horiz-adv-x="894" d=" M705,589 L894,589 L496,-250 L307,-250 L426,0 L338,0 L33,589 L223,589 L475,103"/> 
            <glyph glyph-name="z" unicode="&#x7A;" horiz-adv-x="737" d=" M737,589 L737,446 L296,143 L737,143 L737,0 L43,0 L43,143 L484,446 L43,446 L43,589"/> 
            <glyph glyph-name="{" unicode="&#x7B;" horiz-adv-x="613" d=" M43,181 L43,421 Q77,421 93,422 Q109,423 132,427.5 Q155,432 165,442.5 Q175,453 183,472.5 Q191,492 191,521 Q191,591 201,635 Q211,679 236,713.5 Q261,748 310.5,765.5 Q360,783 431.5,791.5 Q503,800 613,800 L613,649 Q551,649 512.5,647 Q474,645 439,637.5 Q404,630 385,617 Q366,604 352,581.5 Q338,559 333,528 Q328,497 328,451 Q328,409 314,380.5 Q300,352 277,340.5 Q254,329 236.5,325 Q219,321 199,321 L199,281 Q219,281 236.5,277 Q254,273 277,261.5 Q300,250 314,221.5 Q328,193 328,151 Q328,105 333,73.5 Q338,42 352,19 Q366,-4 385,-16.5 Q404,-29 439,-37 Q474,-45 512.5,-47 Q551,-49 613,-49 L613,-200 Q518,-200 452,-195 Q386,-190 338,-175.5 Q290,-161 262,-142 Q234,-123 217.5,-89 Q201,-55 196,-16.5 Q191,22 191,81 Q191,110 183,129.5 Q175,149 165,159.5 Q155,170 132,174.5 Q109,179 93,180 Q77,181 43,181"/> 
            <glyph glyph-name="|" unicode="&#x7C;" horiz-adv-x="234" d=" M63,720 L234,720 L234,-150 L63,-150"/> 
            <glyph glyph-name="}" unicode="&#x7D;" horiz-adv-x="613" d=" M613,181 Q579,181 563,180 Q547,179 524,174.5 Q501,170 491,159.5 Q481,149 473,129.5 Q465,110 465,81 Q465,22 460,-16.5 Q455,-55 438.5,-89 Q422,-123 394,-142 Q366,-161 318,-175.5 Q270,-190 204,-195 Q138,-200 43,-200 L43,-49 Q105,-49 143.5,-47 Q182,-45 217,-37 Q252,-29 271,-16.5 Q290,-4 304,19 Q318,42 323,73.5 Q328,105 328,151 Q328,193 342,221.5 Q356,250 379,261.5 Q402,273 419.5,277 Q437,281 457,281 L457,321 Q437,321 419.5,325 Q402,329 379,340.5 Q356,352 342,380.5 Q328,409 328,451 Q328,497 323,528 Q318,559 304,581.5 Q290,604 271,617 Q252,630 217,637.5 Q182,645 143.5,647 Q105,649 43,649 L43,800 Q153,800 224.5,791.5 Q296,783 345.5,765.5 Q395,748 420,713.5 Q445,679 455,635 Q465,591 465,521 Q465,492 473,472.5 Q481,453 491,442.5 Q501,432 524,427.5 Q547,423 563,422 Q579,421 613,421"/> 
            <glyph glyph-name="~" unicode="&#x7E;" horiz-adv-x="863" d=" M63,180 Q63,339 113,419.5 Q163,500 283,500 Q332,500 372.5,482.5 Q413,465 440,440.5 Q467,416 491,391 Q515,366 545,348.5 Q575,331 609,331 Q658,331 679,367.5 Q700,404 700,500 L863,500 Q863,341 813,260.5 Q763,180 643,180 Q594,180 553.5,197.5 Q513,215 486,239.5 Q459,264 435,289 Q411,314 381,331.5 Q351,349 317,349 Q268,349 247,312.5 Q226,276 226,180"/> 
            <glyph glyph-name="¡" unicode="&#xA1;" horiz-adv-x="223" d=" M47,466 L47,600 L218,600 L218,466 M223,-100 L43,-100 L47,383 L219,383"/> 
            <glyph glyph-name="¢" unicode="&#xA2;" horiz-adv-x="874" d=" M533,192 Q673,205 699,291 L874,291 Q838,69 533,48 L533,-100 L413,-100 L413,48 Q247,58 155,132.5 Q63,207 63,350 Q63,494 155,568.5 Q247,643 413,653 L413,800 L533,800 L533,653 Q838,632 874,410 L699,410 Q673,496 533,509 M234,350 Q234,274 279.5,236.5 Q325,199 413,191 L413,510 Q325,502 279.5,464.5 Q234,427 234,350"/> 
            <glyph glyph-name="£" unicode="&#xA3;" horiz-adv-x="803" d=" M566,659 Q470,659 425.5,634.5 Q381,610 372.5,558 Q364,506 373,424 L687,424 L687,315 L381,315 Q378,142 243,51 L803,51 L803,-100 L63,-100 L63,51 Q139,111 172.5,166.5 Q206,222 205,315 L63,315 L63,424 L195,424 Q166,619 240,714.5 Q314,810 519,810 Q638,810 803,780 L803,629 Q653,659 566,659"/> 
            <glyph glyph-name="¤" unicode="&#xA4;" horiz-adv-x="879" d=" M879,344 Q879,179 753,102 L878,-23 L797,-103 L637,57 Q566,40 471,40 Q383,40 311,55 L153,-103 L72,-23 L194,99 Q63,175 63,344 Q63,510 190,588 L72,706 L153,786 L307,632 Q376,649 471,649 Q566,649 642,631 L797,786 L878,706 L757,584 Q879,506 879,344 M234,344 Q234,255 291,219 Q348,183 471,183 Q594,183 650.5,219 Q707,255 707,344 Q707,434 650.5,470 Q594,506 471,506 Q348,506 291,470 Q234,434 234,344"/> 
            <glyph glyph-name="¥" unicode="&#xA5;" horiz-adv-x="1035" d=" M1035,800 L676,374 L942,374 L942,266 L639,266 L639,194 L942,194 L942,86 L639,86 L639,-100 L459,-100 L459,86 L158,86 L158,194 L459,194 L459,266 L158,266 L158,374 L422,374 L63,800 L282,800 L549,481 L816,800"/> 
            <glyph glyph-name="¦" unicode="&#xA6;" horiz-adv-x="234" d=" M63,720 L234,720 L234,375 L63,375 M63,195 L234,195 L234,-150 L63,-150"/> 
            <glyph glyph-name="§" unicode="&#xA7;" horiz-adv-x="819" d=" M735,194 Q819,145 819,42 Q819,-7 799,-44 Q779,-81 746.5,-103 Q714,-125 665,-138.5 Q616,-152 566,-156.5 Q516,-161 452,-161 Q365,-161 298,-150 Q231,-139 178.5,-114.5 Q126,-90 98,-46 Q70,-2 70,60 L241,60 Q241,3 292,-16 Q343,-35 468,-35 Q570,-35 609,-20 Q648,-5 648,38 Q648,84 609.5,98.5 Q571,113 425,124 Q233,137 159,178.5 Q85,220 85,304 Q85,378 148,456 Q63,506 63,607 Q63,656 83,693 Q103,730 135.5,752 Q168,774 217,787.5 Q266,801 316,805.5 Q366,810 430,810 Q518,810 584.5,799 Q651,788 704,763.5 Q757,739 785,695 Q813,651 813,589 L641,589 Q641,646 590.5,665 Q540,684 414,684 Q312,684 273,669 Q234,654 234,611 Q234,565 272.5,550 Q311,535 457,524 Q650,509 723.5,469 Q797,429 797,346 Q797,272 735,194 M271,413 Q241,369 236,341 Q231,313 256,296.5 Q281,280 320.5,272 Q360,264 434,258 Q541,250 611,236 Q642,280 646.5,308 Q651,336 626,352.5 Q601,369 561.5,376.5 Q522,384 448,390 Q340,398 271,413"/> 
            <glyph glyph-name="¨" unicode="&#xA8;" horiz-adv-x="500" d=" M63,833 L240,833 L240,687 L63,687 M323,833 L500,833 L500,687 L323,687"/> 
            <glyph glyph-name="©" unicode="&#xA9;" horiz-adv-x="1068" d=" M566,-110 Q328,-110 195.5,19.5 Q63,149 63,351 Q63,553 195.5,681.5 Q328,810 566,810 Q805,810 936.5,681.5 Q1068,553 1068,351 Q1068,253 1035.5,169.5 Q1003,86 941,23.5 Q879,-39 782.5,-74.5 Q686,-110 566,-110 M384,-1 Q748,-1 853.5,91 Q959,183 959,351 Q959,519 853.5,610 Q748,701 566,701 Q384,701 277.5,610 Q171,519 171,351 Q171,183 384,-1 M276,129 Q276,571 567,571 Q836,571 856,382 L712,382 Q697,453 567,453 Q498,453 458,431.5 Q418,410 418,350 Q418,290 458,268.5 Q498,247 567,247 Q697,247 712,318 L856,318 Q836,129 567,129"/> 
            <glyph glyph-name="¿" unicode="&#xBF;" horiz-adv-x="797" d=" M553,466 L382,466 L382,600 L553,600 M382,383 L553,383 Q553,336 535,302.5 Q517,269 487.5,251 Q458,233 423,221 Q388,209 353,201 Q318,193 288.5,183.5 Q259,174 241,157 Q223,140 223,114 Q223,41 400,41 Q516,41 566.5,66.5 Q617,92 617,164 L797,164 Q797,83 769,28 Q741,-27 686,-56.5 Q631,-86 565.5,-98 Q500,-110 410,-110 Q231,-110 137,-62.5 Q43,-15 43,94 Q43,144 67,180.5 Q91,217 127,235 Q163,253 206,269 Q249,285 286.5,297 Q324,309 351,330.5 Q378,352 382,383"/> 
            <glyph glyph-name="À" unicode="&#xC0;" horiz-adv-x="999" d=" M710,900 L710,782 L321,862 L321,980 M800,0 L725,149 L306,149 L231,0 L33,0 L394,700 L637,700 L999,0 M373,283 L658,283 L516,567"/> 
            <glyph glyph-name="Á" unicode="&#xC1;" horiz-adv-x="999" d=" M710,980 L710,862 L321,782 L321,900 M800,0 L725,149 L306,149 L231,0 L33,0 L394,700 L637,700 L999,0 M373,283 L658,283 L516,567"/> 
            <glyph glyph-name="Â" unicode="&#xC2;" horiz-adv-x="999" d=" M723,782 L516,862 L309,782 L309,900 L516,980 L723,900 M800,0 L725,149 L306,149 L231,0 L33,0 L394,700 L637,700 L999,0 M373,283 L658,283 L516,567"/> 
            <glyph glyph-name="Ã" unicode="&#xC3;" horiz-adv-x="999" d=" M427,870 Q397,870 384.5,848 Q372,826 372,781 L226,781 Q226,872 264.5,931.5 Q303,991 383,991 Q421,991 454,975.5 Q487,960 506.5,941.5 Q526,923 552,907.5 Q578,892 604,892 Q635,892 647.5,914 Q660,936 660,981 L806,981 Q806,890 767,830.5 Q728,771 649,771 Q610,771 577,786.5 Q544,802 524.5,820.5 Q505,839 479,854.5 Q453,870 427,870 M800,0 L725,149 L306,149 L231,0 L33,0 L394,700 L637,700 L999,0 M373,283 L658,283 L516,567"/> 
            <glyph glyph-name="Ä" unicode="&#xC4;" horiz-adv-x="999" d=" M475,944 L475,798 L298,798 L298,944 M735,944 L735,798 L558,798 L558,944 M800,0 L725,149 L306,149 L231,0 L33,0 L394,700 L637,700 L999,0 M373,283 L658,283 L516,567"/> 
            <glyph glyph-name="Å" unicode="&#xC5;" horiz-adv-x="999" d=" M629,771 Q403,771 354.5,804.5 Q306,838 306,903 Q306,968 354.5,1001.5 Q403,1035 516,1035 Q629,1035 677.5,1001.5 Q726,968 726,903 Q726,838 629,771 M516,956 Q414,956 414,903 Q414,850 516,850 Q567,850 592,862 Q617,874 617,903 Q617,932 592,944 Q567,956 516,956 M800,0 L725,149 L306,149 L231,0 L33,0 L394,700 L637,700 L999,0 M373,283 L658,283 L516,567"/> 
            <glyph glyph-name="Æ" unicode="&#xC6;" horiz-adv-x="1370" d=" M1370,557 L810,557 L810,415 L1370,415 L1370,285 L810,285 L810,143 L1370,143 L1370,0 L630,0 L630,148 L305,148 L234,0 L33,0 L374,700 L1370,700 M630,561 L503,561 L370,283 L630,283"/> 
            <glyph glyph-name="Ç" unicode="&#xC7;" horiz-adv-x="910" d=" M473,141 Q588,141 651.5,179 Q715,217 727,300 L910,300 Q884,11 529,-8 L517,-47 Q542,-39 570.5,-36.5 Q599,-34 628,-38 Q657,-42 675.5,-62 Q694,-82 694,-116 Q694,-157 666.5,-184.5 Q639,-212 594,-223 Q549,-234 492.5,-236.5 Q436,-239 378,-230 L378,-145 Q565,-172 565,-107 Q565,-69 461,-93 L402,-35 L413,-8 Q218,4 125.5,94.5 Q33,185 33,351 Q33,529 139.5,619.5 Q246,710 473,710 Q883,710 910,402 L727,402 Q715,485 652,522 Q589,559 473,559 Q337,559 275,509 Q213,459 213,351 Q213,242 275,191.5 Q337,141 473,141"/> 
            <glyph glyph-name="È" unicode="&#xC8;" horiz-adv-x="783" d=" M607,900 L607,782 L218,862 L218,980 M783,557 L223,557 L223,415 L783,415 L783,285 L223,285 L223,143 L783,143 L783,0 L43,0 L43,700 L783,700"/> 
            <glyph glyph-name="É" unicode="&#xC9;" horiz-adv-x="783" d=" M607,980 L607,862 L218,782 L218,900 M783,557 L223,557 L223,415 L783,415 L783,285 L223,285 L223,143 L783,143 L783,0 L43,0 L43,700 L783,700"/> 
            <glyph glyph-name="Ê" unicode="&#xCA;" horiz-adv-x="783" d=" M620,782 L413,862 L206,782 L206,900 L413,980 L620,900 M783,557 L223,557 L223,415 L783,415 L783,285 L223,285 L223,143 L783,143 L783,0 L43,0 L43,700 L783,700"/> 
            <glyph glyph-name="Ë" unicode="&#xCB;" horiz-adv-x="783" d=" M372,944 L372,798 L195,798 L195,944 M632,944 L632,798 L455,798 L455,944 M783,557 L223,557 L223,415 L783,415 L783,285 L223,285 L223,143 L783,143 L783,0 L43,0 L43,700 L783,700"/> 
            <glyph glyph-name="Ì" unicode="&#xCC;" horiz-adv-x="327" d=" M327,900 L327,782 L-62,862 L-62,980 M223,700 L223,0 L43,0 L43,700"/> 
            <glyph glyph-name="Í" unicode="&#xCD;" horiz-adv-x="327" d=" M-62,900 L327,980 L327,862 L-62,782 M223,700 L223,0 L43,0 L43,700"/> 
            <glyph glyph-name="Î" unicode="&#xCE;" horiz-adv-x="340" d=" M133,980 L340,900 L340,782 L133,862 L-74,782 L-74,900 M43,0 L43,700 L223,700 L223,0"/> 
            <glyph glyph-name="Ï" unicode="&#xCF;" horiz-adv-x="352" d=" M-85,944 L92,944 L92,798 L-85,798 M175,944 L352,944 L352,798 L175,798 M223,700 L223,0 L43,0 L43,700"/> 
            <glyph glyph-name="Ð" unicode="&#xD0;" horiz-adv-x="964" d=" M624,700 Q693,700 753.5,678.5 Q814,657 861.5,615 Q909,573 936.5,504.5 Q964,436 964,350 Q964,264 936.5,195.5 Q909,127 861.5,85 Q814,43 753.5,21.5 Q693,0 624,0 L116,0 L116,291 L43,291 L43,409 L116,409 L116,700 M556,151 Q612,151 650,158.5 Q688,166 720.5,186.5 Q753,207 768.5,247.5 Q784,288 784,350 Q784,412 768.5,452.5 Q753,493 720.5,513.5 Q688,534 650,541.5 Q612,549 556,549 L296,549 L296,409 L523,409 L523,291 L296,291 L296,151"/> 
            <glyph glyph-name="Ñ" unicode="&#xD1;" horiz-adv-x="945" d=" M405,870 Q375,870 362.5,848 Q350,826 350,781 L204,781 Q204,872 242.5,931.5 Q281,991 361,991 Q399,991 432,975.5 Q465,960 484.5,941.5 Q504,923 530,907.5 Q556,892 582,892 Q613,892 625.5,914 Q638,936 638,981 L784,981 Q784,890 745,830.5 Q706,771 627,771 Q588,771 555,786.5 Q522,802 502.5,820.5 Q483,839 457,854.5 Q431,870 405,870 M765,700 L945,700 L945,0 L700,0 L223,525 L223,0 L43,0 L43,700 L287,700 L765,174"/> 
            <glyph glyph-name="Ò" unicode="&#xD2;" horiz-adv-x="913" d=" M667,900 L667,782 L278,862 L278,980 M473,-10 Q246,-10 139.5,81 Q33,172 33,351 Q33,529 139.5,619.5 Q246,710 473,710 Q913,710 913,351 Q913,-10 473,-10 M473,141 Q611,141 672,191.5 Q733,242 733,351 Q733,459 672.5,509 Q612,559 473,559 Q334,559 273.5,509.5 Q213,460 213,351 Q213,242 273.5,191.5 Q334,141 473,141"/> 
            <glyph glyph-name="Ó" unicode="&#xD3;" horiz-adv-x="913" d=" M278,900 L667,980 L667,862 L278,782 M473,-10 Q246,-10 139.5,81 Q33,172 33,351 Q33,529 139.5,619.5 Q246,710 473,710 Q913,710 913,351 Q913,-10 473,-10 M473,141 Q611,141 672,191.5 Q733,242 733,351 Q733,459 672.5,509 Q612,559 473,559 Q334,559 273.5,509.5 Q213,460 213,351 Q213,242 273.5,191.5 Q334,141 473,141"/> 
            <glyph glyph-name="Ô" unicode="&#xD4;" horiz-adv-x="913" d=" M680,782 L473,862 L266,782 L266,900 L473,980 L680,900 M473,710 Q913,710 913,351 Q913,-10 473,-10 Q246,-10 139.5,81 Q33,172 33,351 Q33,529 139.5,619.5 Q246,710 473,710 M473,141 Q611,141 672,191.5 Q733,242 733,351 Q733,459 672.5,509 Q612,559 473,559 Q334,559 273.5,509.5 Q213,460 213,351 Q213,242 273.5,191.5 Q334,141 473,141"/> 
            <glyph glyph-name="Õ" unicode="&#xD5;" horiz-adv-x="913" d=" M183,781 Q183,872 221.5,931.5 Q260,991 340,991 Q378,991 411,975.5 Q444,960 463.5,941.5 Q483,923 509,907.5 Q535,892 561,892 Q592,892 604.5,914 Q617,936 617,981 L763,981 Q763,890 724,830.5 Q685,771 606,771 Q567,771 534,786.5 Q501,802 481.5,820.5 Q462,839 436,854.5 Q410,870 384,870 Q354,870 341.5,848 Q329,826 329,781 M473,-10 Q246,-10 139.5,81 Q33,172 33,351 Q33,529 139.5,619.5 Q246,710 473,710 Q913,710 913,351 Q913,-10 473,-10 M473,141 Q611,141 672,191.5 Q733,242 733,351 Q733,459 672.5,509 Q612,559 473,559 Q334,559 273.5,509.5 Q213,460 213,351 Q213,242 273.5,191.5 Q334,141 473,141"/> 
            <glyph glyph-name="Ö" unicode="&#xD6;" horiz-adv-x="913" d=" M255,944 L432,944 L432,798 L255,798 M515,944 L692,944 L692,798 L515,798 M473,-10 Q246,-10 139.5,81 Q33,172 33,351 Q33,529 139.5,619.5 Q246,710 473,710 Q913,710 913,351 Q913,-10 473,-10 M473,141 Q611,141 672,191.5 Q733,242 733,351 Q733,459 672.5,509 Q612,559 473,559 Q334,559 273.5,509.5 Q213,460 213,351 Q213,242 273.5,191.5 Q334,141 473,141"/> 
            <glyph glyph-name="×" unicode="&#xD7;" horiz-adv-x="827" d=" M827,474 L587,336 L827,197 L756,74 L445,254 L134,74 L63,197 L303,336 L63,474 L134,597 L445,417 L756,597"/> 
            <glyph glyph-name="Ø" unicode="&#xD8;" horiz-adv-x="913" d=" M649,692 Q913,630 913,351 Q913,-10 473,-10 Q450,-10 440,-9 L417,-85 L269,-85 L297,8 Q33,70 33,351 Q33,529 139.5,619.5 Q246,710 473,710 Q496,710 506,709 L529,785 L677,785 M213,351 Q213,195 341,157 L461,559 Q328,557 270.5,507 Q213,457 213,351 M485,141 Q617,143 675,193.5 Q733,244 733,351 Q733,429 702.5,476 Q672,523 605,543"/> 
            <glyph glyph-name="Ù" unicode="&#xD9;" horiz-adv-x="923" d=" M677,900 L677,782 L288,862 L288,980 M923,351 Q923,167 817,78.5 Q711,-10 483,-10 Q254,-10 148.5,78 Q43,166 43,351 L43,700 L223,700 L223,351 Q223,317 227.5,291 Q232,265 247.5,235.5 Q263,206 290.5,186.5 Q318,167 367,154 Q416,141 483,141 Q550,141 599,154 Q648,167 675,186.5 Q702,206 718,235.5 Q734,265 738.5,291 Q743,317 743,351 L743,700 L923,700"/> 
            <glyph glyph-name="Ú" unicode="&#xDA;" horiz-adv-x="923" d=" M288,900 L677,980 L677,862 L288,782 M923,351 Q923,167 817,78.5 Q711,-10 483,-10 Q254,-10 148.5,78 Q43,166 43,351 L43,700 L223,700 L223,351 Q223,317 227.5,291 Q232,265 247.5,235.5 Q263,206 290.5,186.5 Q318,167 367,154 Q416,141 483,141 Q550,141 599,154 Q648,167 675,186.5 Q702,206 718,235.5 Q734,265 738.5,291 Q743,317 743,351 L743,700 L923,700"/> 
            <glyph glyph-name="Û" unicode="&#xDB;" horiz-adv-x="923" d=" M690,782 L483,862 L276,782 L276,900 L483,980 L690,900 M743,700 L923,700 L923,351 Q923,167 817,78.5 Q711,-10 483,-10 Q254,-10 148.5,78 Q43,166 43,351 L43,700 L223,700 L223,351 Q223,317 227.5,291 Q232,265 247.5,235.5 Q263,206 290.5,186.5 Q318,167 367,154 Q416,141 483,141 Q550,141 599,154 Q648,167 675,186.5 Q702,206 718,235.5 Q734,265 738.5,291 Q743,317 743,351"/> 
            <glyph glyph-name="Ü" unicode="&#xDC;" horiz-adv-x="923" d=" M265,944 L442,944 L442,798 L265,798 M525,944 L702,944 L702,798 L525,798 M923,351 Q923,167 817,78.5 Q711,-10 483,-10 Q254,-10 148.5,78 Q43,166 43,351 L43,700 L223,700 L223,351 Q223,317 227.5,291 Q232,265 247.5,235.5 Q263,206 290.5,186.5 Q318,167 367,154 Q416,141 483,141 Q550,141 599,154 Q648,167 675,186.5 Q702,206 718,235.5 Q734,265 738.5,291 Q743,317 743,351 L743,700 L923,700"/> 
            <glyph glyph-name="Ý" unicode="&#xDD;" horiz-adv-x="1005" d=" M324,900 L713,980 L713,862 L324,782 M429,230 L33,700 L250,700 L519,381 L788,700 L1005,700 L609,230 L609,0 L429,0"/> 
            <glyph glyph-name="Þ" unicode="&#xDE;" horiz-adv-x="861" d=" M593,608 Q713,608 787,537.5 Q861,467 861,351 Q861,235 787,165 Q713,95 593,95 L223,95 L223,0 L43,0 L43,700 L223,700 L223,608 M543,246 Q566,246 579,246.5 Q592,247 614,252.5 Q636,258 648.5,268.5 Q661,279 671,300 Q681,321 681,351 Q681,381 671,402 Q661,423 648.5,433.5 Q636,444 614,449.5 Q592,455 579,455.5 Q566,456 543,456 L223,456 L223,246"/> 
            <glyph glyph-name="ß" unicode="&#xDF;" horiz-adv-x="837" d=" M668,390 Q752,372 794.5,327.5 Q837,283 837,200 Q837,164 830.5,136.5 Q824,109 806.5,88 Q789,67 770,52.5 Q751,38 715.5,28.5 Q680,19 647.5,13 Q615,7 560.5,4.5 Q506,2 460,1 Q414,0 340,0 L340,143 Q544,143 604.5,156.5 Q665,170 665,221 Q665,239 660,251 Q655,263 639.5,272.5 Q624,282 603,287 Q582,292 542,295 Q502,298 457,299 Q412,300 340,300 L340,409 Q469,409 512,423 Q555,437 555,489 Q555,567 410,567 Q307,567 260.5,538 Q214,509 214,424 L214,0 L43,0 L43,424 Q43,588 131.5,649 Q220,710 414,710 Q564,710 645.5,665.5 Q727,621 727,514 Q727,441 668,390"/> 
            <glyph glyph-name="à" unicode="&#xE0;" horiz-adv-x="831" d=" M644,789 L644,671 L255,751 L255,869 M443,599 Q635,599 732.5,529 Q830,459 831,297 L831,0 L659,0 L659,73 Q490,-10 301,-10 Q33,-10 33,176 Q33,231 61.5,271.5 Q90,312 141,334.5 Q192,357 253,367 Q314,377 388,377 Q535,377 659,335 Q659,456 435,456 Q288,456 143,413 L82,538 Q270,599 443,599 M659,183 L659,229 Q545,265 409,265 Q204,265 204,183 Q204,140 238.5,128 Q273,116 350,116 Q419,116 505.5,135 Q592,154 659,183"/> 
            <glyph glyph-name="á" unicode="&#xE1;" horiz-adv-x="831" d=" M644,869 L644,751 L255,671 L255,789 M443,599 Q635,599 732.5,529 Q830,459 831,297 L831,0 L659,0 L659,73 Q490,-10 301,-10 Q33,-10 33,176 Q33,231 61.5,271.5 Q90,312 141,334.5 Q192,357 253,367 Q314,377 388,377 Q535,377 659,335 Q659,456 435,456 Q288,456 143,413 L82,538 Q270,599 443,599 M659,183 L659,229 Q545,265 409,265 Q204,265 204,183 Q204,140 238.5,128 Q273,116 350,116 Q419,116 505.5,135 Q592,154 659,183"/> 
            <glyph glyph-name="â" unicode="&#xE2;" horiz-adv-x="831" d=" M657,671 L450,751 L243,671 L243,789 L450,869 L657,789 M443,599 Q635,599 732.5,529 Q830,459 831,297 L831,0 L659,0 L659,73 Q490,-10 301,-10 Q33,-10 33,176 Q33,231 61.5,271.5 Q90,312 141,334.5 Q192,357 253,367 Q314,377 388,377 Q535,377 659,335 Q659,456 435,456 Q288,456 143,413 L82,538 Q270,599 443,599 M659,183 L659,229 Q545,265 409,265 Q204,265 204,183 Q204,140 238.5,128 Q273,116 350,116 Q419,116 505.5,135 Q592,154 659,183"/> 
            <glyph glyph-name="ã" unicode="&#xE3;" horiz-adv-x="831" d=" M361,759 Q331,759 318.5,737 Q306,715 306,670 L160,670 Q160,761 198.5,820.5 Q237,880 317,880 Q355,880 388,864.5 Q421,849 440.5,830.5 Q460,812 486,796.5 Q512,781 538,781 Q569,781 581.5,803 Q594,825 594,870 L740,870 Q740,779 701,719.5 Q662,660 583,660 Q544,660 511,675.5 Q478,691 458.5,709.5 Q439,728 413,743.5 Q387,759 361,759 M443,599 Q635,599 732.5,529 Q830,459 831,297 L831,0 L659,0 L659,73 Q490,-10 301,-10 Q33,-10 33,176 Q33,231 61.5,271.5 Q90,312 141,334.5 Q192,357 253,367 Q314,377 388,377 Q535,377 659,335 Q659,456 435,456 Q288,456 143,413 L82,538 Q270,599 443,599 M659,183 L659,229 Q545,265 409,265 Q204,265 204,183 Q204,140 238.5,128 Q273,116 350,116 Q419,116 505.5,135 Q592,154 659,183"/> 
            <glyph glyph-name="ä" unicode="&#xE4;" horiz-adv-x="831" d=" M409,833 L409,687 L232,687 L232,833 M669,833 L669,687 L492,687 L492,833 M443,599 Q635,599 732.5,529 Q830,459 831,297 L831,0 L659,0 L659,73 Q490,-10 301,-10 Q33,-10 33,176 Q33,231 61.5,271.5 Q90,312 141,334.5 Q192,357 253,367 Q314,377 388,377 Q535,377 659,335 Q659,456 435,456 Q288,456 143,413 L82,538 Q270,599 443,599 M659,183 L659,229 Q545,265 409,265 Q204,265 204,183 Q204,140 238.5,128 Q273,116 350,116 Q419,116 505.5,135 Q592,154 659,183"/> 
            <glyph glyph-name="å" unicode="&#xE5;" horiz-adv-x="831" d=" M563,660 Q337,660 288.5,693.5 Q240,727 240,792 Q240,857 288.5,890.5 Q337,924 450,924 Q563,924 611.5,890.5 Q660,857 660,792 Q660,727 563,660 M450,845 Q348,845 348,792 Q348,739 450,739 Q501,739 526,751 Q551,763 551,792 Q551,821 526,833 Q501,845 450,845 M443,599 Q635,599 732.5,529 Q830,459 831,297 L831,0 L659,0 L659,73 Q490,-10 301,-10 Q33,-10 33,176 Q33,231 61.5,271.5 Q90,312 141,334.5 Q192,357 253,367 Q314,377 388,377 Q535,377 659,335 Q659,456 435,456 Q288,456 143,413 L82,538 Q270,599 443,599 M659,183 L659,229 Q545,265 409,265 Q204,265 204,183 Q204,140 238.5,128 Q273,116 350,116 Q419,116 505.5,135 Q592,154 659,183"/> 
            <glyph glyph-name="æ" unicode="&#xE6;" horiz-adv-x="1481" d=" M1068,129 Q1158,129 1213.5,148 Q1269,167 1301,211 L1471,211 Q1442,100 1338.5,45 Q1235,-10 1068,-10 Q834,-10 733,107 Q658,49 543.5,19.5 Q429,-10 315,-10 Q33,-10 33,176 Q33,377 388,377 Q535,377 659,335 Q659,456 435,456 Q288,456 143,413 L82,538 Q270,599 443,599 Q666,599 758,507 Q862,599 1078,599 Q1481,599 1481,254 L845,254 Q870,129 1068,129 M1077,469 Q982,469 926,445.5 Q870,422 851,363 L1298,363 Q1261,469 1077,469 M659,194 L659,229 Q545,265 409,265 Q303,265 253.5,249 Q204,233 204,187 Q204,144 239.5,130 Q275,116 350,116 Q532,116 659,194"/> 
            <glyph glyph-name="ç" unicode="&#xE7;" horiz-adv-x="844" d=" M441,133 Q539,133 595.5,156.5 Q652,180 669,235 L844,235 Q809,12 498,-8 L486,-47 Q511,-39 539.5,-36.5 Q568,-34 597,-38 Q626,-42 644.5,-62 Q663,-82 663,-116 Q663,-157 635.5,-184.5 Q608,-212 563,-223 Q518,-234 461.5,-236.5 Q405,-239 347,-230 L347,-145 Q534,-172 534,-107 Q534,-69 430,-93 L371,-35 L382,-8 Q217,3 125,77 Q33,151 33,294 Q33,451 141,525 Q249,599 441,599 Q613,599 718.5,539 Q824,479 844,354 L669,354 Q652,409 595.5,432.5 Q539,456 441,456 Q324,456 264,419 Q204,382 204,294 Q204,207 264,170 Q324,133 441,133"/> 
            <glyph glyph-name="è" unicode="&#xE8;" horiz-adv-x="844" d=" M634,789 L634,671 L245,751 L245,869 M431,129 Q521,129 576.5,148 Q632,167 664,211 L834,211 Q805,100 701.5,45 Q598,-10 431,-10 Q252,-10 142.5,65 Q33,140 33,294 Q33,450 142.5,524.5 Q252,599 441,599 Q844,599 844,254 L208,254 Q233,129 431,129 M440,469 Q345,469 289,445.5 Q233,422 214,363 L661,363 Q624,469 440,469"/> 
            <glyph glyph-name="é" unicode="&#xE9;" horiz-adv-x="844" d=" M634,869 L634,751 L245,671 L245,789 M431,129 Q521,129 576.5,148 Q632,167 664,211 L834,211 Q805,100 701.5,45 Q598,-10 431,-10 Q252,-10 142.5,65 Q33,140 33,294 Q33,450 142.5,524.5 Q252,599 441,599 Q844,599 844,254 L208,254 Q233,129 431,129 M440,469 Q345,469 289,445.5 Q233,422 214,363 L661,363 Q624,469 440,469"/> 
            <glyph glyph-name="ê" unicode="&#xEA;" horiz-adv-x="844" d=" M647,671 L440,751 L233,671 L233,789 L440,869 L647,789 M431,129 Q521,129 576.5,148 Q632,167 664,211 L834,211 Q805,100 701.5,45 Q598,-10 431,-10 Q252,-10 142.5,65 Q33,140 33,294 Q33,450 142.5,524.5 Q252,599 441,599 Q844,599 844,254 L208,254 Q233,129 431,129 M440,469 Q345,469 289,445.5 Q233,422 214,363 L661,363 Q624,469 440,469"/> 
            <glyph glyph-name="ë" unicode="&#xEB;" horiz-adv-x="844" d=" M399,833 L399,687 L222,687 L222,833 M659,833 L659,687 L482,687 L482,833 M431,129 Q521,129 576.5,148 Q632,167 664,211 L834,211 Q805,100 701.5,45 Q598,-10 431,-10 Q252,-10 142.5,65 Q33,140 33,294 Q33,450 142.5,524.5 Q252,599 441,599 Q844,599 844,254 L208,254 Q233,129 431,129 M440,469 Q345,469 289,445.5 Q233,422 214,363 L661,363 Q624,469 440,469"/> 
            <glyph glyph-name="ì" unicode="&#xEC;" horiz-adv-x="323" d=" M323,789 L323,671 L-66,751 L-66,869 M43,589 L214,589 L214,0 L43,0"/> 
            <glyph glyph-name="í" unicode="&#xED;" horiz-adv-x="323" d=" M-66,789 L323,869 L323,751 L-66,671 M43,589 L214,589 L214,0 L43,0"/> 
            <glyph glyph-name="î" unicode="&#xEE;" horiz-adv-x="336" d=" M129,869 L336,789 L336,671 L129,751 L-78,671 L-78,789 M43,0 L43,589 L214,589 L214,0"/> 
            <glyph glyph-name="ï" unicode="&#xEF;" horiz-adv-x="348" d=" M-89,833 L88,833 L88,687 L-89,687 M171,833 L348,833 L348,687 L171,687 M43,589 L214,589 L214,0 L43,0"/> 
            <glyph glyph-name="ð" unicode="&#xF0;" horiz-adv-x="906" d=" M725,771 Q906,619 906,386 Q906,282 866.5,203 Q827,124 759.5,79 Q692,34 610.5,12 Q529,-10 435,-10 Q43,-10 43,278 Q43,412 125,486 Q207,560 381,560 Q583,560 733,415 Q720,598 557,699 L303,590 L239,688 L410,761 Q337,783 239,791 L263,940 Q456,929 611,847 L815,935 L878,837 M423,133 Q631,133 702,255 Q640,335 556.5,376 Q473,417 395,417 Q308,417 261,385.5 Q214,354 214,278 Q214,203 265,168 Q316,133 423,133"/> 
            <glyph glyph-name="ñ" unicode="&#xF1;" horiz-adv-x="863" d=" M403,759 Q373,759 360.5,737 Q348,715 348,670 L202,670 Q202,761 240.5,820.5 Q279,880 359,880 Q397,880 430,864.5 Q463,849 482.5,830.5 Q502,812 528,796.5 Q554,781 580,781 Q611,781 623.5,803 Q636,825 636,870 L782,870 Q782,779 743,719.5 Q704,660 625,660 Q586,660 553,675.5 Q520,691 500.5,709.5 Q481,728 455,743.5 Q429,759 403,759 M557,599 Q860,599 863,326 L861,0 L689,0 L689,261 Q689,359 648.5,405 Q608,451 506,451 Q423,451 339.5,415 Q256,379 214,330 L214,0 L43,0 L43,589 L214,589 L214,486 Q358,599 557,599"/> 
            <glyph glyph-name="ò" unicode="&#xF2;" horiz-adv-x="849" d=" M635,789 L635,671 L246,751 L246,869 M441,-10 Q249,-10 141,64 Q33,138 33,294 Q33,451 141,525 Q249,599 441,599 Q632,599 740.5,524.5 Q849,450 849,294 Q849,138 740.5,64 Q632,-10 441,-10 M318,133 Q564,133 620.5,169 Q677,205 677,294 Q677,384 620.5,420 Q564,456 441,456 Q318,456 261,420 Q204,384 204,294 Q204,205 318,133"/> 
            <glyph glyph-name="ó" unicode="&#xF3;" horiz-adv-x="849" d=" M246,789 L635,869 L635,751 L246,671 M441,-10 Q249,-10 141,64 Q33,138 33,294 Q33,451 141,525 Q249,599 441,599 Q632,599 740.5,524.5 Q849,450 849,294 Q849,138 740.5,64 Q632,-10 441,-10 M318,133 Q564,133 620.5,169 Q677,205 677,294 Q677,384 620.5,420 Q564,456 441,456 Q318,456 261,420 Q204,384 204,294 Q204,205 318,133"/> 
            <glyph glyph-name="ô" unicode="&#xF4;" horiz-adv-x="849" d=" M648,671 L441,751 L234,671 L234,789 L441,869 L648,789 M441,599 Q632,599 740.5,524.5 Q849,450 849,294 Q849,138 740.5,64 Q632,-10 441,-10 Q249,-10 141,64 Q33,138 33,294 Q33,451 141,525 Q249,599 441,599 M318,133 Q564,133 620.5,169 Q677,205 677,294 Q677,384 620.5,420 Q564,456 441,456 Q318,456 261,420 Q204,384 204,294 Q204,205 318,133"/> 
            <glyph glyph-name="õ" unicode="&#xF5;" horiz-adv-x="849" d=" M151,670 Q151,761 189.5,820.5 Q228,880 308,880 Q346,880 379,864.5 Q412,849 431.5,830.5 Q451,812 477,796.5 Q503,781 529,781 Q560,781 572.5,803 Q585,825 585,870 L731,870 Q731,779 692,719.5 Q653,660 574,660 Q535,660 502,675.5 Q469,691 449.5,709.5 Q430,728 404,743.5 Q378,759 352,759 Q322,759 309.5,737 Q297,715 297,670 M441,-10 Q249,-10 141,64 Q33,138 33,294 Q33,451 141,525 Q249,599 441,599 Q632,599 740.5,524.5 Q849,450 849,294 Q849,138 740.5,64 Q632,-10 441,-10 M318,133 Q564,133 620.5,169 Q677,205 677,294 Q677,384 620.5,420 Q564,456 441,456 Q318,456 261,420 Q204,384 204,294 Q204,205 318,133"/> 
            <glyph glyph-name="ö" unicode="&#xF6;" horiz-adv-x="849" d=" M223,833 L400,833 L400,687 L223,687 M483,833 L660,833 L660,687 L483,687 M441,-10 Q249,-10 141,64 Q33,138 33,294 Q33,451 141,525 Q249,599 441,599 Q632,599 740.5,524.5 Q849,450 849,294 Q849,138 740.5,64 Q632,-10 441,-10 M318,133 Q564,133 620.5,169 Q677,205 677,294 Q677,384 620.5,420 Q564,456 441,456 Q318,456 261,420 Q204,384 204,294 Q204,205 318,133"/> 
            <glyph glyph-name="÷" unicode="&#xF7;" horiz-adv-x="863" d=" M377,634 L548,634 L548,500 L377,500 M63,411 L863,411 L863,269 L63,269 M377,180 L548,180 L548,46 L377,46"/> 
            <glyph glyph-name="ø" unicode="&#xF8;" horiz-adv-x="849" d=" M601,583 Q849,528 849,294 Q849,138 740.5,64 Q632,-10 441,-10 L424,-10 L385,-141 L237,-141 L281,6 Q162,32 97.5,103 Q33,174 33,294 Q33,451 141,525 Q249,599 441,599 L458,599 L497,729 L645,729 M204,294 Q204,172 322,144 L415,456 Q306,452 255,415.5 Q204,379 204,294 M467,133 Q576,137 626.5,173.5 Q677,210 677,294 Q677,358 648,394.5 Q619,431 560,445"/> 
            <glyph glyph-name="ù" unicode="&#xF9;" horiz-adv-x="862" d=" M646,789 L646,671 L257,751 L257,869 M691,589 L862,589 L862,0 L691,0 L691,103 Q547,-10 348,-10 Q45,-10 42,263 L44,589 L216,589 L216,328 Q216,230 256.5,184 Q297,138 399,138 Q482,138 565.5,174 Q649,210 691,259"/> 
            <glyph glyph-name="ú" unicode="&#xFA;" horiz-adv-x="862" d=" M646,869 L646,751 L257,671 L257,789 M691,589 L862,589 L862,0 L691,0 L691,103 Q547,-10 348,-10 Q45,-10 42,263 L44,589 L216,589 L216,328 Q216,230 256.5,184 Q297,138 399,138 Q482,138 565.5,174 Q649,210 691,259"/> 
            <glyph glyph-name="û" unicode="&#xFB;" horiz-adv-x="862" d=" M659,671 L452,751 L245,671 L245,789 L452,869 L659,789 M691,589 L862,589 L862,0 L691,0 L691,103 Q547,-10 348,-10 Q45,-10 42,263 L44,589 L216,589 L216,328 Q216,230 256.5,184 Q297,138 399,138 Q482,138 565.5,174 Q649,210 691,259"/> 
            <glyph glyph-name="ü" unicode="&#xFC;" horiz-adv-x="862" d=" M411,833 L411,687 L234,687 L234,833 M671,833 L671,687 L494,687 L494,833 M691,589 L862,589 L862,0 L691,0 L691,103 Q547,-10 348,-10 Q45,-10 42,263 L44,589 L216,589 L216,328 Q216,230 256.5,184 Q297,138 399,138 Q482,138 565.5,174 Q649,210 691,259"/> 
            <glyph glyph-name="ý" unicode="&#xFD;" horiz-adv-x="894" d=" M658,869 L658,751 L269,671 L269,789 M705,589 L894,589 L496,-250 L307,-250 L426,0 L338,0 L33,589 L223,589 L475,103"/> 
            <glyph glyph-name="þ" unicode="&#xFE;" horiz-adv-x="859" d=" M511,599 Q582,599 640.5,584 Q699,569 750,536 Q801,503 830,441 Q859,379 859,294 Q859,209 830,147.5 Q801,86 750,53 Q699,20 640,5 Q581,-10 511,-10 Q306,-10 214,99 L214,-183 L43,-183 L43,800 L214,800 L214,490 Q307,599 511,599 M328,133 Q574,133 630.5,172 Q687,211 687,294 Q687,378 630.5,417 Q574,456 451,456 Q328,456 271,416.5 Q214,377 214,294 Q214,211 328,133"/> 
            <glyph glyph-name="ÿ" unicode="&#xFF;" horiz-adv-x="894" d=" M423,833 L423,687 L246,687 L246,833 M683,833 L683,687 L506,687 L506,833 M705,589 L894,589 L496,-250 L307,-250 L426,0 L338,0 L33,589 L223,589 L475,103"/> 
            <glyph glyph-name="Ā" unicode="&#x100;" horiz-adv-x="999" d=" M750,910 L750,792 L281,792 L281,910 M800,0 L725,149 L306,149 L231,0 L33,0 L394,700 L637,700 L999,0 M373,283 L658,283 L516,567"/> 
            <glyph glyph-name="ā" unicode="&#x101;" horiz-adv-x="831" d=" M684,799 L684,681 L215,681 L215,799 M443,599 Q635,599 732.5,529 Q830,459 831,297 L831,0 L659,0 L659,73 Q490,-10 301,-10 Q33,-10 33,176 Q33,231 61.5,271.5 Q90,312 141,334.5 Q192,357 253,367 Q314,377 388,377 Q535,377 659,335 Q659,456 435,456 Q288,456 143,413 L82,538 Q270,599 443,599 M659,183 L659,229 Q545,265 409,265 Q204,265 204,183 Q204,140 238.5,128 Q273,116 350,116 Q419,116 505.5,135 Q592,154 659,183"/> 
            <glyph glyph-name="Ă" unicode="&#x102;" horiz-adv-x="999" d=" M566,767 Q466,767 427.5,776.5 Q389,786 356.5,808.5 Q324,831 306.5,874.5 Q289,918 289,981 L397,981 Q397,870 516,870 Q634,870 634,981 L743,981 Q743,918 725.5,874.5 Q708,831 675.5,808.5 Q643,786 566,767 M800,0 L725,149 L306,149 L231,0 L33,0 L394,700 L637,700 L999,0 M373,283 L658,283 L516,567"/> 
            <glyph glyph-name="ă" unicode="&#x103;" horiz-adv-x="831" d=" M500,656 Q400,656 361.5,665.5 Q323,675 290.5,697.5 Q258,720 240.5,763.5 Q223,807 223,870 L331,870 Q331,759 450,759 Q568,759 568,870 L677,870 Q677,807 659.5,763.5 Q642,720 609.5,697.5 Q577,675 500,656 M443,599 Q635,599 732.5,529 Q830,459 831,297 L831,0 L659,0 L659,73 Q490,-10 301,-10 Q33,-10 33,176 Q33,231 61.5,271.5 Q90,312 141,334.5 Q192,357 253,367 Q314,377 388,377 Q535,377 659,335 Q659,456 435,456 Q288,456 143,413 L82,538 Q270,599 443,599 M659,183 L659,229 Q545,265 409,265 Q204,265 204,183 Q204,140 238.5,128 Q273,116 350,116 Q419,116 505.5,135 Q592,154 659,183"/> 
            <glyph glyph-name="Ą" unicode="&#x104;" horiz-adv-x="1041" d=" M881,-63 Q881,-96 920.5,-104.5 Q960,-113 1041,-113 L1041,-230 Q889,-230 821,-206 Q753,-182 753,-113 Q753,-52 833,0 L800,0 L725,149 L306,149 L231,0 L33,0 L394,700 L637,700 L999,0 L928,0 Q881,-38 881,-63 M373,283 L658,283 L516,567"/> 
            <glyph glyph-name="ą" unicode="&#x105;" horiz-adv-x="888" d=" M728,-63 Q728,-75 733.5,-84 Q739,-93 752,-98.5 Q765,-104 776.5,-107 Q788,-110 810.5,-111 Q833,-112 846.5,-112.5 Q860,-113 888,-113 L888,-230 Q736,-230 668,-206 Q600,-182 600,-113 Q600,-52 680,0 L659,0 L659,73 Q490,-10 301,-10 Q33,-10 33,176 Q33,231 61.5,271.5 Q90,312 141,334.5 Q192,357 253,367 Q314,377 388,377 Q535,377 659,335 Q659,456 435,456 Q288,456 143,413 L82,538 Q270,599 443,599 Q635,599 732.5,529 Q830,459 831,297 L831,0 L775,0 Q728,-38 728,-63 M659,183 L659,229 Q545,265 409,265 Q204,265 204,183 Q204,140 238.5,128 Q273,116 350,116 Q419,116 505.5,135 Q592,154 659,183"/> 
            <glyph glyph-name="Ć" unicode="&#x106;" horiz-adv-x="910" d=" M277,900 L666,980 L666,862 L277,782 M33,351 Q33,529 139.5,619.5 Q246,710 473,710 Q883,710 910,402 L727,402 Q715,485 652,522 Q589,559 473,559 Q337,559 275,509 Q213,459 213,351 Q213,242 275,191.5 Q337,141 473,141 Q588,141 651.5,179 Q715,217 727,300 L910,300 Q883,-10 473,-10 Q246,-10 139.5,81 Q33,172 33,351"/> 
            <glyph glyph-name="ć" unicode="&#x107;" horiz-adv-x="844" d=" M246,789 L635,869 L635,751 L246,671 M33,294 Q33,451 141,525 Q249,599 441,599 Q613,599 718.5,539 Q824,479 844,354 L669,354 Q652,409 595.5,432.5 Q539,456 441,456 Q324,456 264,419 Q204,382 204,294 Q204,207 264,170 Q324,133 441,133 Q539,133 595.5,156.5 Q652,180 669,235 L844,235 Q824,110 718.5,50 Q613,-10 441,-10 Q249,-10 141,64 Q33,138 33,294"/> 
            <glyph glyph-name="Ċ" unicode="&#x10A;" horiz-adv-x="910" d=" M375,944 L569,944 L569,798 L375,798 M33,351 Q33,529 139.5,619.5 Q246,710 473,710 Q883,710 910,402 L727,402 Q715,485 652,522 Q589,559 473,559 Q337,559 275,509 Q213,459 213,351 Q213,242 275,191.5 Q337,141 473,141 Q588,141 651.5,179 Q715,217 727,300 L910,300 Q883,-10 473,-10 Q246,-10 139.5,81 Q33,172 33,351"/> 
            <glyph glyph-name="ċ" unicode="&#x10B;" horiz-adv-x="844" d=" M344,833 L538,833 L538,687 L344,687 M33,294 Q33,451 141,525 Q249,599 441,599 Q613,599 718.5,539 Q824,479 844,354 L669,354 Q652,409 595.5,432.5 Q539,456 441,456 Q324,456 264,419 Q204,382 204,294 Q204,207 264,170 Q324,133 441,133 Q539,133 595.5,156.5 Q652,180 669,235 L844,235 Q824,110 718.5,50 Q613,-10 441,-10 Q249,-10 141,64 Q33,138 33,294"/> 
            <glyph glyph-name="Č" unicode="&#x10C;" horiz-adv-x="910" d=" M679,864 L472,784 L265,864 L265,982 L472,902 L679,982 M473,141 Q588,141 651.5,179 Q715,217 727,300 L910,300 Q883,-10 473,-10 Q246,-10 139.5,81 Q33,172 33,351 Q33,529 139.5,619.5 Q246,710 473,710 Q883,710 910,402 L727,402 Q715,485 652,522 Q589,559 473,559 Q337,559 275,509 Q213,459 213,351 Q213,242 275,191.5 Q337,141 473,141"/> 
            <glyph glyph-name="č" unicode="&#x10D;" horiz-adv-x="844" d=" M648,753 L441,673 L234,753 L234,871 L441,791 L648,871 M441,133 Q539,133 595.5,156.5 Q652,180 669,235 L844,235 Q824,110 718.5,50 Q613,-10 441,-10 Q249,-10 141,64 Q33,138 33,294 Q33,451 141,525 Q249,599 441,599 Q613,599 718.5,539 Q824,479 844,354 L669,354 Q652,409 595.5,432.5 Q539,456 441,456 Q324,456 264,419 Q204,382 204,294 Q204,207 264,170 Q324,133 441,133"/> 
            <glyph glyph-name="Ď" unicode="&#x10E;" horiz-adv-x="891" d=" M604,864 L397,784 L190,864 L190,982 L397,902 L604,982 M551,700 Q620,700 680.5,678.5 Q741,657 788.5,615 Q836,573 863.5,504.5 Q891,436 891,350 Q891,264 863.5,195.5 Q836,127 788.5,85 Q741,43 680.5,21.5 Q620,0 551,0 L43,0 L43,700 M483,151 Q539,151 577,158.5 Q615,166 647.5,186.5 Q680,207 695.5,247.5 Q711,288 711,350 Q711,412 695.5,452.5 Q680,493 647.5,513.5 Q615,534 577,541.5 Q539,549 483,549 L223,549 L223,151"/> 
            <glyph glyph-name="ď" unicode="&#x10F;" horiz-adv-x="1070" d=" M678,497 L678,800 L849,800 L849,0 L678,0 L678,92 Q581,-10 384,-10 Q310,-10 249,6.5 Q188,23 138.5,57.5 Q89,92 61,152 Q33,212 33,294 Q33,376 61,436.5 Q89,497 138.5,531.5 Q188,566 249,582.5 Q310,599 384,599 Q581,599 678,497 M899,800 L1070,800 L1070,666 L989,469 L907,469 L958,666 L899,666 M323,133 Q559,133 618.5,171 Q678,209 678,294 Q678,379 618.5,417.5 Q559,456 441,456 Q323,456 264,418 Q205,380 205,294 Q205,209 323,133"/> 
            <glyph glyph-name="Đ" unicode="&#x110;" horiz-adv-x="964" d=" M624,700 Q693,700 753.5,678.5 Q814,657 861.5,615 Q909,573 936.5,504.5 Q964,436 964,350 Q964,264 936.5,195.5 Q909,127 861.5,85 Q814,43 753.5,21.5 Q693,0 624,0 L116,0 L116,291 L43,291 L43,409 L116,409 L116,700 M556,151 Q612,151 650,158.5 Q688,166 720.5,186.5 Q753,207 768.5,247.5 Q784,288 784,350 Q784,412 768.5,452.5 Q753,493 720.5,513.5 Q688,534 650,541.5 Q612,549 556,549 L296,549 L296,409 L523,409 L523,291 L296,291 L296,151"/> 
            <glyph glyph-name="đ" unicode="&#x111;" horiz-adv-x="899" d=" M899,749 L899,631 L849,631 L849,0 L678,0 L678,92 Q581,-10 384,-10 Q310,-10 249,6.5 Q188,23 138.5,57.5 Q89,92 61,152 Q33,212 33,294 Q33,376 61,436.5 Q89,497 138.5,531.5 Q188,566 249,582.5 Q310,599 384,599 Q581,599 678,497 L678,631 L419,631 L419,749 L678,749 L678,800 L849,800 L849,749 M323,133 Q559,133 618.5,171 Q678,209 678,294 Q678,379 618.5,417.5 Q559,456 441,456 Q323,456 264,418 Q205,380 205,294 Q205,209 323,133"/> 
            <glyph glyph-name="Ē" unicode="&#x112;" horiz-adv-x="783" d=" M647,910 L647,792 L178,792 L178,910 M783,557 L223,557 L223,415 L783,415 L783,285 L223,285 L223,143 L783,143 L783,0 L43,0 L43,700 L783,700"/> 
            <glyph glyph-name="ē" unicode="&#x113;" horiz-adv-x="844" d=" M674,799 L674,681 L205,681 L205,799 M431,129 Q521,129 576.5,148 Q632,167 664,211 L834,211 Q805,100 701.5,45 Q598,-10 431,-10 Q252,-10 142.5,65 Q33,140 33,294 Q33,450 142.5,524.5 Q252,599 441,599 Q844,599 844,254 L208,254 Q233,129 431,129 M440,469 Q345,469 289,445.5 Q233,422 214,363 L661,363 Q624,469 440,469"/> 
            <glyph glyph-name="Ė" unicode="&#x116;" horiz-adv-x="783" d=" M510,944 L510,798 L316,798 L316,944 M783,557 L223,557 L223,415 L783,415 L783,285 L223,285 L223,143 L783,143 L783,0 L43,0 L43,700 L783,700"/> 
            <glyph glyph-name="ė" unicode="&#x117;" horiz-adv-x="844" d=" M537,833 L537,687 L343,687 L343,833 M431,129 Q521,129 576.5,148 Q632,167 664,211 L834,211 Q805,100 701.5,45 Q598,-10 431,-10 Q252,-10 142.5,65 Q33,140 33,294 Q33,450 142.5,524.5 Q252,599 441,599 Q844,599 844,254 L208,254 Q233,129 431,129 M440,469 Q345,469 289,445.5 Q233,422 214,363 L661,363 Q624,469 440,469"/> 
            <glyph glyph-name="Ę" unicode="&#x118;" horiz-adv-x="806" d=" M646,-63 Q646,-75 651.5,-84 Q657,-93 670,-98.5 Q683,-104 694.5,-107 Q706,-110 728.5,-111 Q751,-112 764.5,-112.5 Q778,-113 806,-113 L806,-230 Q654,-230 586,-206 Q518,-182 518,-113 Q518,-52 598,0 L43,0 L43,700 L783,700 L783,557 L223,557 L223,415 L783,415 L783,285 L223,285 L223,143 L783,143 L783,0 L693,0 Q646,-38 646,-63"/> 
            <glyph glyph-name="ę" unicode="&#x119;" horiz-adv-x="844" d=" M431,129 Q521,129 576.5,148 Q632,167 664,211 L834,211 Q789,35 555,-1 Q509,-38 509,-63 Q509,-96 548.5,-104.5 Q588,-113 669,-113 L669,-230 Q517,-230 449,-206 Q381,-182 381,-113 Q381,-58 446,-10 L431,-10 Q252,-10 142.5,65 Q33,140 33,294 Q33,450 142.5,524.5 Q252,599 441,599 Q844,599 844,254 L208,254 Q233,129 431,129 M440,469 Q345,469 289,445.5 Q233,422 214,363 L661,363 Q624,469 440,469"/> 
            <glyph glyph-name="Ě" unicode="&#x11A;" horiz-adv-x="783" d=" M620,864 L413,784 L206,864 L206,982 L413,902 L620,982 M783,557 L223,557 L223,415 L783,415 L783,285 L223,285 L223,143 L783,143 L783,0 L43,0 L43,700 L783,700"/> 
            <glyph glyph-name="ě" unicode="&#x11B;" horiz-adv-x="844" d=" M647,753 L440,673 L233,753 L233,871 L440,791 L647,871 M431,129 Q521,129 576.5,148 Q632,167 664,211 L834,211 Q805,100 701.5,45 Q598,-10 431,-10 Q252,-10 142.5,65 Q33,140 33,294 Q33,450 142.5,524.5 Q252,599 441,599 Q844,599 844,254 L208,254 Q233,129 431,129 M440,469 Q345,469 289,445.5 Q233,422 214,363 L661,363 Q624,469 440,469"/> 
            <glyph glyph-name="Ğ" unicode="&#x11E;" horiz-adv-x="910" d=" M522,767 Q422,767 383.5,776.5 Q345,786 312.5,808.5 Q280,831 262.5,874.5 Q245,918 245,981 L353,981 Q353,870 472,870 Q590,870 590,981 L699,981 Q699,918 681.5,874.5 Q664,831 631.5,808.5 Q599,786 522,767 M466,258 L466,375 L910,375 L910,0 L777,0 L769,110 Q659,-10 449,-10 Q254,-10 143.5,84 Q33,178 33,350 Q33,524 148,617 Q263,710 479,710 Q684,710 793,635.5 Q902,561 910,427 L727,427 Q723,450 710,470.5 Q697,491 671,512.5 Q645,534 595.5,546.5 Q546,559 479,559 Q412,559 362,544.5 Q312,530 284,508.5 Q256,487 239.5,456.5 Q223,426 218,400.5 Q213,375 213,346 Q213,317 218,290.5 Q223,264 240,233 Q257,202 284.5,180.5 Q312,159 362,144 Q412,129 479,129 Q598,129 660.5,169.5 Q723,210 727,258"/> 
            <glyph glyph-name="ğ" unicode="&#x11F;" horiz-adv-x="849" d=" M491,656 Q391,656 352.5,665.5 Q314,675 281.5,697.5 Q249,720 231.5,763.5 Q214,807 214,870 L322,870 Q322,759 441,759 Q559,759 559,870 L668,870 Q668,807 650.5,763.5 Q633,720 600.5,697.5 Q568,675 491,656 M677,589 L849,589 L849,94 Q849,-79 745,-164.5 Q641,-250 465,-250 Q275,-250 96,-203 L96,-65 Q99,-66 134,-72.5 Q169,-79 184.5,-82 Q200,-85 237,-90.5 Q274,-96 300,-99 Q326,-102 361,-104.5 Q396,-107 427,-107 Q558,-107 615,-55 Q672,-3 677,112 Q582,7 379,7 Q220,7 126.5,80 Q33,153 33,303 Q33,453 126.5,526 Q220,599 379,599 Q583,599 677,494 M319,150 Q563,150 620,186.5 Q677,223 677,303 Q677,383 620,419.5 Q563,456 441,456 Q319,456 261.5,419.5 Q204,383 204,303 Q204,223 319,150"/> 
            <glyph glyph-name="Ġ" unicode="&#x120;" horiz-adv-x="910" d=" M569,944 L569,798 L375,798 L375,944 M466,258 L466,375 L910,375 L910,0 L777,0 L769,110 Q659,-10 449,-10 Q254,-10 143.5,84 Q33,178 33,350 Q33,524 148,617 Q263,710 479,710 Q684,710 793,635.5 Q902,561 910,427 L727,427 Q723,450 710,470.5 Q697,491 671,512.5 Q645,534 595.5,546.5 Q546,559 479,559 Q412,559 362,544.5 Q312,530 284,508.5 Q256,487 239.5,456.5 Q223,426 218,400.5 Q213,375 213,346 Q213,317 218,290.5 Q223,264 240,233 Q257,202 284.5,180.5 Q312,159 362,144 Q412,129 479,129 Q598,129 660.5,169.5 Q723,210 727,258"/> 
            <glyph glyph-name="ġ" unicode="&#x121;" horiz-adv-x="849" d=" M538,833 L538,687 L344,687 L344,833 M677,589 L849,589 L849,94 Q849,-79 745,-164.5 Q641,-250 465,-250 Q275,-250 96,-203 L96,-65 Q99,-66 134,-72.5 Q169,-79 184.5,-82 Q200,-85 237,-90.5 Q274,-96 300,-99 Q326,-102 361,-104.5 Q396,-107 427,-107 Q558,-107 615,-55 Q672,-3 677,112 Q582,7 379,7 Q220,7 126.5,80 Q33,153 33,303 Q33,453 126.5,526 Q220,599 379,599 Q583,599 677,494 M319,150 Q563,150 620,186.5 Q677,223 677,303 Q677,383 620,419.5 Q563,456 441,456 Q319,456 261.5,419.5 Q204,383 204,303 Q204,223 319,150"/> 
            <glyph glyph-name="Ģ" unicode="&#x122;" horiz-adv-x="910" d=" M466,258 L466,375 L910,375 L910,0 L777,0 L769,110 Q659,-10 449,-10 Q254,-10 143.5,84 Q33,178 33,350 Q33,524 148,617 Q263,710 479,710 Q684,710 793,635.5 Q902,561 910,427 L727,427 Q723,450 710,470.5 Q697,491 671,512.5 Q645,534 595.5,546.5 Q546,559 479,559 Q412,559 362,544.5 Q312,530 284,508.5 Q256,487 239.5,456.5 Q223,426 218,400.5 Q213,375 213,346 Q213,317 218,290.5 Q223,264 240,233 Q257,202 284.5,180.5 Q312,159 362,144 Q412,129 479,129 Q598,129 660.5,169.5 Q723,210 727,258 M395,-225 L395,-117 L549,-117 L549,-225 L469,-335 L395,-335 L451,-225"/> 
            <glyph glyph-name="ģ" unicode="&#x123;" horiz-adv-x="849" d=" M518,814 L518,706 L364,706 L364,814 L444,924 L518,924 L462,814 M677,589 L849,589 L849,94 Q849,-79 745,-164.5 Q641,-250 465,-250 Q275,-250 96,-203 L96,-65 Q99,-66 134,-72.5 Q169,-79 184.5,-82 Q200,-85 237,-90.5 Q274,-96 300,-99 Q326,-102 361,-104.5 Q396,-107 427,-107 Q558,-107 615,-55 Q672,-3 677,112 Q582,7 379,7 Q220,7 126.5,80 Q33,153 33,303 Q33,453 126.5,526 Q220,599 379,599 Q583,599 677,494 M319,150 Q563,150 620,186.5 Q677,223 677,303 Q677,383 620,419.5 Q563,456 441,456 Q319,456 261.5,419.5 Q204,383 204,303 Q204,223 319,150"/> 
            <glyph glyph-name="Ķ" unicode="&#x136;" horiz-adv-x="995" d=" M995,700 L571,389 L995,0 L746,0 L438,291 L223,134 L223,0 L43,0 L43,700 L223,700 L223,337 L722,700 M442,-225 L442,-117 L596,-117 L596,-225 L516,-335 L442,-335 L498,-225"/> 
            <glyph glyph-name="ķ" unicode="&#x137;" horiz-adv-x="935" d=" M935,589 L553,348 L935,0 L697,0 L415,257 L214,136 L214,0 L43,0 L43,800 L214,800 L214,324 L643,589 M362,-225 L362,-117 L516,-117 L516,-225 L436,-335 L362,-335 L418,-225"/> 
            <glyph glyph-name="Ĺ" unicode="&#x139;" horiz-adv-x="763" d=" M432,980 L432,862 L43,782 L43,900 M223,151 L763,151 L763,0 L43,0 L43,700 L223,700"/> 
            <glyph glyph-name="ĺ" unicode="&#x13A;" horiz-adv-x="323" d=" M-66,1000 L323,1080 L323,962 L-66,882 M43,800 L214,800 L214,0 L43,0"/> 
            <glyph glyph-name="Ļ" unicode="&#x13B;" horiz-adv-x="763" d=" M223,151 L763,151 L763,0 L43,0 L43,700 L223,700 M326,-225 L326,-117 L480,-117 L480,-225 L400,-335 L326,-335 L382,-225"/> 
            <glyph glyph-name="ļ" unicode="&#x13C;" horiz-adv-x="214" d=" M43,800 L214,800 L214,0 L43,0 M52,-117 L206,-117 L206,-225 L126,-335 L52,-335 L108,-225 L52,-225"/> 
            <glyph glyph-name="Ľ" unicode="&#x13D;" horiz-adv-x="763" d=" M445,864 L238,784 L31,864 L31,982 L238,902 L445,982 M223,151 L763,151 L763,0 L43,0 L43,700 L223,700"/> 
            <glyph glyph-name="ľ" unicode="&#x13E;" horiz-adv-x="336" d=" M129,1002 L336,1082 L336,964 L129,884 L-78,964 L-78,1082 M43,0 L43,800 L214,800 L214,0"/> 
            <glyph glyph-name="Ł" unicode="&#x141;" horiz-adv-x="846" d=" M306,151 L846,151 L846,0 L126,0 L126,250 L43,216 L43,362 L126,396 L126,700 L306,700 L306,470 L565,577 L565,431 L306,324"/> 
            <glyph glyph-name="ł" unicode="&#x142;" horiz-adv-x="565" d=" M565,621 L565,475 L378,398 L378,0 L207,0 L207,328 L43,260 L43,406 L207,474 L207,800 L378,800 L378,544"/> 
            <glyph glyph-name="Ń" unicode="&#x143;" horiz-adv-x="945" d=" M688,980 L688,862 L299,782 L299,900 M765,700 L945,700 L945,0 L700,0 L223,525 L223,0 L43,0 L43,700 L287,700 L765,174"/> 
            <glyph glyph-name="ń" unicode="&#x144;" horiz-adv-x="863" d=" M686,869 L686,751 L297,671 L297,789 M557,599 Q860,599 863,326 L861,0 L689,0 L689,261 Q689,359 648.5,405 Q608,451 506,451 Q423,451 339.5,415 Q256,379 214,330 L214,0 L43,0 L43,589 L214,589 L214,486 Q358,599 557,599"/> 
            <glyph glyph-name="Ņ" unicode="&#x145;" horiz-adv-x="945" d=" M765,700 L945,700 L945,0 L700,0 L223,525 L223,0 L43,0 L43,700 L287,700 L765,174 M417,-225 L417,-117 L571,-117 L571,-225 L491,-335 L417,-335 L473,-225"/> 
            <glyph glyph-name="ņ" unicode="&#x146;" horiz-adv-x="863" d=" M557,599 Q860,599 863,326 L861,0 L689,0 L689,261 Q689,359 648.5,405 Q608,451 506,451 Q423,451 339.5,415 Q256,379 214,330 L214,0 L43,0 L43,589 L214,589 L214,486 Q358,599 557,599 M375,-225 L375,-117 L529,-117 L529,-225 L449,-335 L375,-335 L431,-225"/> 
            <glyph glyph-name="Ň" unicode="&#x147;" horiz-adv-x="945" d=" M701,864 L494,784 L287,864 L287,982 L494,902 L701,982 M765,700 L945,700 L945,0 L700,0 L223,525 L223,0 L43,0 L43,700 L287,700 L765,174"/> 
            <glyph glyph-name="ň" unicode="&#x148;" horiz-adv-x="863" d=" M699,753 L492,673 L285,753 L285,871 L492,791 L699,871 M557,599 Q860,599 863,326 L861,0 L689,0 L689,261 Q689,359 648.5,405 Q608,451 506,451 Q423,451 339.5,415 Q256,379 214,330 L214,0 L43,0 L43,589 L214,589 L214,486 Q358,599 557,599"/> 
            <glyph glyph-name="Ŋ" unicode="&#x14A;" horiz-adv-x="945" d=" M765,700 L945,700 L945,0 Q945,-133 878,-201.5 Q811,-270 667,-270 Q576,-270 490,-249 L490,-111 Q568,-127 637,-127 Q712,-127 738.5,-96 Q765,-65 765,0 L700,0 L223,525 L223,0 L43,0 L43,700 L287,700 L765,174"/> 
            <glyph glyph-name="ŋ" unicode="&#x14B;" horiz-adv-x="863" d=" M557,599 Q860,599 863,326 L861,0 Q861,-132 794.5,-195.5 Q728,-259 583,-259 Q492,-259 406,-244 L406,-111 Q488,-121 519,-121 Q614,-121 651.5,-97 Q689,-73 689,0 L689,261 Q689,359 648.5,405 Q608,451 506,451 Q423,451 339.5,415 Q256,379 214,330 L214,0 L43,0 L43,589 L214,589 L214,486 Q358,599 557,599"/> 
            <glyph glyph-name="Ō" unicode="&#x14C;" horiz-adv-x="913" d=" M238,910 L707,910 L707,792 L238,792 M473,-10 Q246,-10 139.5,81 Q33,172 33,351 Q33,529 139.5,619.5 Q246,710 473,710 Q913,710 913,351 Q913,-10 473,-10 M473,141 Q611,141 672,191.5 Q733,242 733,351 Q733,459 672.5,509 Q612,559 473,559 Q334,559 273.5,509.5 Q213,460 213,351 Q213,242 273.5,191.5 Q334,141 473,141"/> 
            <glyph glyph-name="ō" unicode="&#x14D;" horiz-adv-x="849" d=" M206,799 L675,799 L675,681 L206,681 M441,-10 Q249,-10 141,64 Q33,138 33,294 Q33,451 141,525 Q249,599 441,599 Q632,599 740.5,524.5 Q849,450 849,294 Q849,138 740.5,64 Q632,-10 441,-10 M318,133 Q564,133 620.5,169 Q677,205 677,294 Q677,384 620.5,420 Q564,456 441,456 Q318,456 261,420 Q204,384 204,294 Q204,205 318,133"/> 
            <glyph glyph-name="Ő" unicode="&#x150;" horiz-adv-x="913" d=" M236,912 L443,992 L443,870 L236,790 M503,912 L710,992 L710,870 L503,790 M473,-10 Q246,-10 139.5,81 Q33,172 33,351 Q33,529 139.5,619.5 Q246,710 473,710 Q913,710 913,351 Q913,-10 473,-10 M473,141 Q611,141 672,191.5 Q733,242 733,351 Q733,459 672.5,509 Q612,559 473,559 Q334,559 273.5,509.5 Q213,460 213,351 Q213,242 273.5,191.5 Q334,141 473,141"/> 
            <glyph glyph-name="ő" unicode="&#x151;" horiz-adv-x="849" d=" M204,801 L411,881 L411,759 L204,679 M471,801 L678,881 L678,759 L471,679 M441,-10 Q249,-10 141,64 Q33,138 33,294 Q33,451 141,525 Q249,599 441,599 Q632,599 740.5,524.5 Q849,450 849,294 Q849,138 740.5,64 Q632,-10 441,-10 M318,133 Q564,133 620.5,169 Q677,205 677,294 Q677,384 620.5,420 Q564,456 441,456 Q318,456 261,420 Q204,384 204,294 Q204,205 318,133"/> 
            <glyph glyph-name="Œ" unicode="&#x152;" horiz-adv-x="1522" d=" M1522,557 L962,557 L962,415 L1522,415 L1522,285 L962,285 L962,143 L1522,143 L1522,0 L782,0 L782,64 Q675,-10 473,-10 Q246,-10 139.5,81 Q33,172 33,351 Q33,529 139.5,619.5 Q246,710 473,710 Q674,710 782,637 L782,700 L1522,700 M473,141 Q611,141 672,191.5 Q733,242 733,351 Q733,459 672.5,509 Q612,559 473,559 Q334,559 273.5,509.5 Q213,460 213,351 Q213,242 273.5,191.5 Q334,141 473,141"/> 
            <glyph glyph-name="œ" unicode="&#x153;" horiz-adv-x="1510" d=" M1097,129 Q1187,129 1242.5,148 Q1298,167 1330,211 L1500,211 Q1471,100 1367.5,45 Q1264,-10 1097,-10 Q879,-10 775,93 Q672,-10 441,-10 Q249,-10 141,64 Q33,138 33,294 Q33,451 141,525 Q249,599 441,599 Q673,599 775,496 Q877,599 1107,599 Q1510,599 1510,254 L874,254 Q899,129 1097,129 M1106,469 Q1011,469 955,445.5 Q899,422 880,363 L1327,363 Q1290,469 1106,469 M318,133 Q564,133 620.5,169 Q677,205 677,294 Q677,384 620.5,420 Q564,456 441,456 Q318,456 261,420 Q204,384 204,294 Q204,205 318,133"/> 
            <glyph glyph-name="Ŕ" unicode="&#x154;" horiz-adv-x="861" d=" M623,980 L623,862 L234,782 L234,900 M861,443 Q861,359 820.5,297.5 Q780,236 709,208 L838,0 L626,0 L513,187 L223,187 L223,0 L43,0 L43,700 L593,700 Q713,700 787,629.5 Q861,559 861,443 M223,549 L223,338 L543,338 Q566,338 579,338.5 Q592,339 614,344.5 Q636,350 648.5,360.5 Q661,371 671,392 Q681,413 681,443 Q681,473 671,494.5 Q661,516 648.5,526.5 Q636,537 614,542.5 Q592,548 579,548.5 Q566,549 543,549"/> 
            <glyph glyph-name="ŕ" unicode="&#x155;" horiz-adv-x="675" d=" M553,869 L553,751 L164,671 L164,789 M516,599 Q595,599 675,579 L675,436 Q595,456 524,456 Q346,456 214,353 L214,0 L43,0 L43,589 L214,589 L214,489 Q337,599 516,599"/> 
            <glyph glyph-name="Ŗ" unicode="&#x156;" horiz-adv-x="861" d=" M861,443 Q861,359 820.5,297.5 Q780,236 709,208 L838,0 L626,0 L513,187 L223,187 L223,0 L43,0 L43,700 L593,700 Q713,700 787,629.5 Q861,559 861,443 M223,549 L223,338 L543,338 Q566,338 579,338.5 Q592,339 614,344.5 Q636,350 648.5,360.5 Q661,371 671,392 Q681,413 681,443 Q681,473 671,494.5 Q661,516 648.5,526.5 Q636,537 614,542.5 Q592,548 579,548.5 Q566,549 543,549 M352,-225 L352,-117 L506,-117 L506,-225 L426,-335 L352,-335 L408,-225"/> 
            <glyph glyph-name="ŗ" unicode="&#x157;" horiz-adv-x="675" d=" M516,599 Q595,599 675,579 L675,436 Q595,456 524,456 Q346,456 214,353 L214,0 L43,0 L43,589 L214,589 L214,489 Q337,599 516,599 M52,-225 L52,-117 L206,-117 L206,-225 L126,-335 L52,-335 L108,-225"/> 
            <glyph glyph-name="Ř" unicode="&#x158;" horiz-adv-x="861" d=" M636,864 L429,784 L222,864 L222,982 L429,902 L636,982 M861,443 Q861,359 820.5,297.5 Q780,236 709,208 L838,0 L626,0 L513,187 L223,187 L223,0 L43,0 L43,700 L593,700 Q713,700 787,629.5 Q861,559 861,443 M223,549 L223,338 L543,338 Q566,338 579,338.5 Q592,339 614,344.5 Q636,350 648.5,360.5 Q661,371 671,392 Q681,413 681,443 Q681,473 671,494.5 Q661,516 648.5,526.5 Q636,537 614,542.5 Q592,548 579,548.5 Q566,549 543,549"/> 
            <glyph glyph-name="ř" unicode="&#x159;" horiz-adv-x="675" d=" M566,753 L359,673 L152,753 L152,871 L359,791 L566,871 M516,599 Q595,599 675,579 L675,436 Q595,456 524,456 Q346,456 214,353 L214,0 L43,0 L43,589 L214,589 L214,489 Q337,599 516,599"/> 
            <glyph glyph-name="Ś" unicode="&#x15A;" horiz-adv-x="927" d=" M285,900 L674,980 L674,862 L285,782 M33,241 L213,241 Q213,183 274.5,158 Q336,133 501,133 Q641,133 694,150 Q747,167 747,209 Q747,232 738,244.5 Q729,257 697.5,266 Q666,275 618.5,279.5 Q571,284 480,288 Q245,299 149.5,345.5 Q54,392 54,507 Q54,582 105.5,628 Q157,674 246.5,692 Q336,710 473,710 Q679,710 788,653 Q897,596 897,471 L717,471 Q717,527 657.5,547 Q598,567 453,567 Q323,567 278.5,552.5 Q234,538 234,498 Q234,458 279,444.5 Q324,431 480,422 Q542,419 579.5,416 Q617,413 666,408 Q715,403 743.5,396.5 Q772,390 806,379.5 Q840,369 859,354.5 Q878,340 895.5,320 Q913,300 920,274 Q927,248 927,215 Q927,147 896.5,101.5 Q866,56 804.5,32 Q743,8 669.5,-1 Q596,-10 491,-10 Q401,-10 333,-3.5 Q265,3 206.5,20 Q148,37 111,65 Q74,93 53.5,137 Q33,181 33,241"/> 
            <glyph glyph-name="ś" unicode="&#x15B;" horiz-adv-x="847" d=" M245,789 L634,869 L634,751 L245,671 M33,207 L204,207 Q204,159 261,139.5 Q318,120 460,120 Q554,120 599,125.5 Q644,131 659.5,142.5 Q675,154 675,178 Q675,211 638,220 Q601,229 440,239 Q367,243 320.5,247.5 Q274,252 225.5,260 Q177,268 149,280 Q121,292 97.5,310.5 Q74,329 64,355 Q54,381 54,416 Q54,461 75,494 Q96,527 130,547 Q164,567 216.5,579 Q269,591 322.5,595 Q376,599 444,599 Q535,599 598.5,591.5 Q662,584 717,564.5 Q772,545 799.5,506 Q827,467 827,408 L655,408 Q655,444 606,456.5 Q557,469 434,469 Q314,469 270,459 Q226,449 226,423 Q226,408 233,400 Q240,392 268,385.5 Q296,379 336.5,375 Q377,371 460,365 Q651,351 710,336 Q819,309 841,234 Q847,212 847,185 Q847,136 829,101 Q811,66 780.5,44.5 Q750,23 700,11 Q650,-1 597,-5.5 Q544,-10 470,-10 Q395,-10 337,-5.5 Q279,-1 219,12.5 Q159,26 120.5,49 Q82,72 57.5,112 Q33,152 33,207"/> 
            <glyph glyph-name="Ş" unicode="&#x15E;" horiz-adv-x="927" d=" M927,215 Q927,151 900,107 Q873,63 819,38.5 Q765,14 698,3 Q631,-8 537,-10 L525,-47 Q550,-39 578.5,-36.5 Q607,-34 636,-38 Q665,-42 683.5,-62 Q702,-82 702,-116 Q702,-157 674.5,-184.5 Q647,-212 602,-223 Q557,-234 500.5,-236.5 Q444,-239 386,-230 L386,-145 Q573,-172 573,-107 Q573,-69 469,-93 L410,-35 L420,-9 Q225,-3 129,53 Q33,109 33,241 L213,241 Q213,183 274.5,158 Q336,133 501,133 Q641,133 694,150 Q747,167 747,209 Q747,232 738,244.5 Q729,257 697.5,266 Q666,275 618.5,279.5 Q571,284 480,288 Q245,299 149.5,345.5 Q54,392 54,507 Q54,582 105.5,628 Q157,674 246.5,692 Q336,710 473,710 Q679,710 788,653 Q897,596 897,471 L717,471 Q717,527 657.5,547 Q598,567 453,567 Q323,567 278.5,552.5 Q234,538 234,498 Q234,458 279,444.5 Q324,431 480,422 Q542,419 579.5,416 Q617,413 666,408 Q715,403 743.5,396.5 Q772,390 806,379.5 Q840,369 859,354.5 Q878,340 895.5,320 Q913,300 920,274 Q927,248 927,215"/> 
            <glyph glyph-name="ş" unicode="&#x15F;" horiz-adv-x="847" d=" M847,185 Q847,127 823,88 Q799,49 750,28.5 Q701,8 642,-0.5 Q583,-9 497,-10 L485,-47 Q510,-39 538.5,-36.5 Q567,-34 596,-38 Q625,-42 643.5,-62 Q662,-82 662,-116 Q662,-157 634.5,-184.5 Q607,-212 562,-223 Q517,-234 460.5,-236.5 Q404,-239 346,-230 L346,-145 Q533,-172 533,-107 Q533,-69 429,-93 L370,-35 L381,-8 Q304,-4 245.5,7 Q187,18 136.5,41.5 Q86,65 59.5,106.5 Q33,148 33,207 L204,207 Q204,159 261,139.5 Q318,120 460,120 Q554,120 599,125.5 Q644,131 659.5,142.5 Q675,154 675,178 Q675,211 638,220 Q601,229 440,239 Q367,243 320.5,247.5 Q274,252 225.5,260 Q177,268 149,280 Q121,292 97.5,310.5 Q74,329 64,355 Q54,381 54,416 Q54,461 75,494 Q96,527 130,547 Q164,567 216.5,579 Q269,591 322.5,595 Q376,599 444,599 Q535,599 598.5,591.5 Q662,584 717,564.5 Q772,545 799.5,506 Q827,467 827,408 L655,408 Q655,444 606,456.5 Q557,469 434,469 Q314,469 270,459 Q226,449 226,423 Q226,408 233,400 Q240,392 268,385.5 Q296,379 336.5,375 Q377,371 460,365 Q651,351 710,336 Q819,309 841,234 Q847,212 847,185"/> 
            <glyph glyph-name="Š" unicode="&#x160;" horiz-adv-x="927" d=" M687,864 L480,784 L273,864 L273,982 L480,902 L687,982 M480,422 Q542,419 579.5,416 Q617,413 666,408 Q715,403 743.5,396.5 Q772,390 806,379.5 Q840,369 859,354.5 Q878,340 895.5,320 Q913,300 920,274 Q927,248 927,215 Q927,147 896.5,101.5 Q866,56 804.5,32 Q743,8 669.5,-1 Q596,-10 491,-10 Q401,-10 333,-3.5 Q265,3 206.5,20 Q148,37 111,65 Q74,93 53.5,137 Q33,181 33,241 L213,241 Q213,183 274.5,158 Q336,133 501,133 Q641,133 694,150 Q747,167 747,209 Q747,232 738,244.5 Q729,257 697.5,266 Q666,275 618.5,279.5 Q571,284 480,288 Q245,299 149.5,345.5 Q54,392 54,507 Q54,582 105.5,628 Q157,674 246.5,692 Q336,710 473,710 Q679,710 788,653 Q897,596 897,471 L717,471 Q717,527 657.5,547 Q598,567 453,567 Q323,567 278.5,552.5 Q234,538 234,498 Q234,458 279,444.5 Q324,431 480,422"/> 
            <glyph glyph-name="š" unicode="&#x161;" horiz-adv-x="847" d=" M647,753 L440,673 L233,753 L233,871 L440,791 L647,871 M460,365 Q651,351 710,336 Q819,309 841,234 Q847,212 847,185 Q847,136 829,101 Q811,66 780.5,44.5 Q750,23 700,11 Q650,-1 597,-5.5 Q544,-10 470,-10 Q395,-10 337,-5.5 Q279,-1 219,12.5 Q159,26 120.5,49 Q82,72 57.5,112 Q33,152 33,207 L204,207 Q204,159 261,139.5 Q318,120 460,120 Q554,120 599,125.5 Q644,131 659.5,142.5 Q675,154 675,178 Q675,211 638,220 Q601,229 440,239 Q367,243 320.5,247.5 Q274,252 225.5,260 Q177,268 149,280 Q121,292 97.5,310.5 Q74,329 64,355 Q54,381 54,416 Q54,461 75,494 Q96,527 130,547 Q164,567 216.5,579 Q269,591 322.5,595 Q376,599 444,599 Q535,599 598.5,591.5 Q662,584 717,564.5 Q772,545 799.5,506 Q827,467 827,408 L655,408 Q655,444 606,456.5 Q557,469 434,469 Q314,469 270,459 Q226,449 226,423 Q226,408 233,400 Q240,392 268,385.5 Q296,379 336.5,375 Q377,371 460,365"/> 
            <glyph glyph-name="Ţ" unicode="&#x162;" horiz-adv-x="893" d=" M553,0 L523,0 L508,-47 Q533,-39 561.5,-36.5 Q590,-34 619,-38 Q648,-42 666.5,-62 Q685,-82 685,-116 Q685,-157 657.5,-184.5 Q630,-212 585,-223 Q540,-234 483.5,-236.5 Q427,-239 369,-230 L369,-145 Q556,-172 556,-107 Q556,-69 452,-93 L393,-35 L407,0 L373,0 L373,549 L33,549 L33,700 L893,700 L893,549 L553,549"/> 
            <glyph glyph-name="ţ" unicode="&#x163;" horiz-adv-x="639" d=" M639,446 L360,446 L360,276 Q360,190 384.5,161.5 Q409,133 486,133 Q570,133 639,143 L639,5 Q567,-7 473,-10 L461,-47 Q486,-39 514.5,-36.5 Q543,-34 572,-38 Q601,-42 619.5,-62 Q638,-82 638,-116 Q638,-157 610.5,-184.5 Q583,-212 538,-223 Q493,-234 436.5,-236.5 Q380,-239 322,-230 L322,-145 Q509,-172 509,-107 Q509,-69 405,-93 L346,-35 L358,-4 Q188,25 188,177 L188,446 L33,446 L33,589 L188,589 L188,711 L360,760 L360,589 L639,589"/> 
            <glyph glyph-name="Ť" unicode="&#x164;" horiz-adv-x="893" d=" M670,864 L463,784 L256,864 L256,982 L463,902 L670,982 M893,700 L893,549 L553,549 L553,0 L373,0 L373,549 L33,549 L33,700"/> 
            <glyph glyph-name="ť" unicode="&#x165;" horiz-adv-x="639" d=" M481,904 L274,824 L67,904 L67,1022 L274,942 L481,1022 M639,446 L360,446 L360,276 Q360,190 384.5,161.5 Q409,133 486,133 Q570,133 639,143 L639,5 Q554,-10 438,-10 Q320,-10 254,36 Q188,82 188,177 L188,446 L33,446 L33,589 L188,589 L188,711 L360,760 L360,589 L639,589"/> 
            <glyph glyph-name="Ŧ" unicode="&#x166;" horiz-adv-x="893" d=" M893,549 L553,549 L553,349 L694,349 L694,231 L553,231 L553,0 L373,0 L373,231 L214,231 L214,349 L373,349 L373,549 L33,549 L33,700 L893,700"/> 
            <glyph glyph-name="ŧ" unicode="&#x167;" horiz-adv-x="639" d=" M639,446 L360,446 L360,359 L567,359 L567,241 L361,241 Q365,178 391,155.5 Q417,133 486,133 Q570,133 639,143 L639,5 Q554,-10 438,-10 Q320,-10 254,36 Q188,82 188,177 L188,241 L87,241 L87,359 L188,359 L188,446 L33,446 L33,589 L188,589 L188,711 L360,760 L360,589 L639,589"/> 
            <glyph glyph-name="Ū" unicode="&#x16A;" horiz-adv-x="923" d=" M248,910 L717,910 L717,792 L248,792 M923,351 Q923,167 817,78.5 Q711,-10 483,-10 Q254,-10 148.5,78 Q43,166 43,351 L43,700 L223,700 L223,351 Q223,317 227.5,291 Q232,265 247.5,235.5 Q263,206 290.5,186.5 Q318,167 367,154 Q416,141 483,141 Q550,141 599,154 Q648,167 675,186.5 Q702,206 718,235.5 Q734,265 738.5,291 Q743,317 743,351 L743,700 L923,700"/> 
            <glyph glyph-name="ū" unicode="&#x16B;" horiz-adv-x="862" d=" M686,799 L686,681 L217,681 L217,799 M691,589 L862,589 L862,0 L691,0 L691,103 Q547,-10 348,-10 Q45,-10 42,263 L44,589 L216,589 L216,328 Q216,230 256.5,184 Q297,138 399,138 Q482,138 565.5,174 Q649,210 691,259"/> 
            <glyph glyph-name="Ů" unicode="&#x16E;" horiz-adv-x="923" d=" M596,771 Q370,771 321.5,804.5 Q273,838 273,903 Q273,968 321.5,1001.5 Q370,1035 483,1035 Q596,1035 644.5,1001.5 Q693,968 693,903 Q693,838 596,771 M483,850 Q534,850 559,862 Q584,874 584,903 Q584,932 559,944 Q534,956 483,956 Q381,956 381,903 Q381,850 483,850 M923,351 Q923,167 817,78.5 Q711,-10 483,-10 Q254,-10 148.5,78 Q43,166 43,351 L43,700 L223,700 L223,351 Q223,317 227.5,291 Q232,265 247.5,235.5 Q263,206 290.5,186.5 Q318,167 367,154 Q416,141 483,141 Q550,141 599,154 Q648,167 675,186.5 Q702,206 718,235.5 Q734,265 738.5,291 Q743,317 743,351 L743,700 L923,700"/> 
            <glyph glyph-name="ů" unicode="&#x16F;" horiz-adv-x="862" d=" M565,660 Q339,660 290.5,693.5 Q242,727 242,792 Q242,857 290.5,890.5 Q339,924 452,924 Q565,924 613.5,890.5 Q662,857 662,792 Q662,727 565,660 M452,845 Q350,845 350,792 Q350,739 452,739 Q503,739 528,751 Q553,763 553,792 Q553,821 528,833 Q503,845 452,845 M691,589 L862,589 L862,0 L691,0 L691,103 Q547,-10 348,-10 Q45,-10 42,263 L44,589 L216,589 L216,328 Q216,230 256.5,184 Q297,138 399,138 Q482,138 565.5,174 Q649,210 691,259"/> 
            <glyph glyph-name="Ű" unicode="&#x170;" horiz-adv-x="923" d=" M246,912 L453,992 L453,870 L246,790 M513,912 L720,992 L720,870 L513,790 M923,351 Q923,167 817,78.5 Q711,-10 483,-10 Q254,-10 148.5,78 Q43,166 43,351 L43,700 L223,700 L223,351 Q223,317 227.5,291 Q232,265 247.5,235.5 Q263,206 290.5,186.5 Q318,167 367,154 Q416,141 483,141 Q550,141 599,154 Q648,167 675,186.5 Q702,206 718,235.5 Q734,265 738.5,291 Q743,317 743,351 L743,700 L923,700"/> 
            <glyph glyph-name="ű" unicode="&#x171;" horiz-adv-x="862" d=" M422,881 L422,759 L215,679 L215,801 M689,881 L689,759 L482,679 L482,801 M691,589 L862,589 L862,0 L691,0 L691,103 Q547,-10 348,-10 Q45,-10 42,263 L44,589 L216,589 L216,328 Q216,230 256.5,184 Q297,138 399,138 Q482,138 565.5,174 Q649,210 691,259"/> 
            <glyph glyph-name="Ų" unicode="&#x172;" horiz-adv-x="923" d=" M743,700 L923,700 L923,351 Q923,195 847.5,108 Q772,21 612,-2 Q567,-36 567,-63 Q567,-96 606.5,-104.5 Q646,-113 727,-113 L727,-230 Q575,-230 507,-206 Q439,-182 439,-113 Q439,-57 505,-10 L483,-10 Q254,-10 148.5,78 Q43,166 43,351 L43,700 L223,700 L223,351 Q223,317 227.5,291 Q232,265 247.5,235.5 Q263,206 290.5,186.5 Q318,167 367,154 Q416,141 483,141 Q550,141 599,154 Q648,167 675,186.5 Q702,206 718,235.5 Q734,265 738.5,291 Q743,317 743,351"/> 
            <glyph glyph-name="ų" unicode="&#x173;" horiz-adv-x="917" d=" M757,-63 Q757,-96 796.5,-104.5 Q836,-113 917,-113 L917,-230 Q765,-230 697,-206 Q629,-182 629,-113 Q629,-52 709,0 L691,0 L691,103 Q547,-10 348,-10 Q45,-10 42,263 L44,589 L216,589 L216,328 Q216,230 256.5,184 Q297,138 399,138 Q482,138 565.5,174 Q649,210 691,259 L691,589 L862,589 L862,0 L804,0 Q757,-38 757,-63"/> 
            <glyph glyph-name="Ŵ" unicode="&#x174;" horiz-adv-x="1495" d=" M971,782 L764,862 L557,782 L557,900 L764,980 L971,900 M1300,700 L1495,700 L1219,0 L970,0 L764,527 L557,0 L309,0 L33,700 L227,700 L434,150 L653,700 L874,700 L1094,149"/> 
            <glyph glyph-name="ŵ" unicode="&#x175;" horiz-adv-x="1365" d=" M906,671 L699,751 L492,671 L492,789 L699,869 L906,789 M1174,589 L1365,589 L1100,0 L872,0 L699,410 L526,0 L298,0 L33,589 L224,589 L417,134 L597,589 L801,589 L981,135"/> 
            <glyph glyph-name="Ŷ" unicode="&#x176;" horiz-adv-x="1005" d=" M726,782 L519,862 L312,782 L312,900 L519,980 L726,900 M788,700 L1005,700 L609,230 L609,0 L429,0 L429,230 L33,700 L250,700 L519,381"/> 
            <glyph glyph-name="ŷ" unicode="&#x177;" horiz-adv-x="894" d=" M671,671 L464,751 L257,671 L257,789 L464,869 L671,789 M705,589 L894,589 L496,-250 L307,-250 L426,0 L338,0 L33,589 L223,589 L475,103"/> 
            <glyph glyph-name="Ÿ" unicode="&#x178;" horiz-adv-x="1005" d=" M301,944 L478,944 L478,798 L301,798 M561,944 L738,944 L738,798 L561,798 M429,230 L33,700 L250,700 L519,381 L788,700 L1005,700 L609,230 L609,0 L429,0"/> 
            <glyph glyph-name="Ź" unicode="&#x179;" horiz-adv-x="833" d=" M632,980 L632,862 L243,782 L243,900 M833,700 L833,549 L301,151 L833,151 L833,0 L43,0 L43,151 L574,549 L43,549 L43,700"/> 
            <glyph glyph-name="ź" unicode="&#x17A;" horiz-adv-x="737" d=" M584,869 L584,751 L195,671 L195,789 M737,589 L737,446 L296,143 L737,143 L737,0 L43,0 L43,143 L484,446 L43,446 L43,589"/> 
            <glyph glyph-name="Ż" unicode="&#x17B;" horiz-adv-x="833" d=" M535,944 L535,798 L341,798 L341,944 M833,700 L833,549 L301,151 L833,151 L833,0 L43,0 L43,151 L574,549 L43,549 L43,700"/> 
            <glyph glyph-name="ż" unicode="&#x17C;" horiz-adv-x="737" d=" M487,833 L487,687 L293,687 L293,833 M737,589 L737,446 L296,143 L737,143 L737,0 L43,0 L43,143 L484,446 L43,446 L43,589"/> 
            <glyph glyph-name="Ž" unicode="&#x17D;" horiz-adv-x="833" d=" M645,864 L438,784 L231,864 L231,982 L438,902 L645,982 M833,700 L833,549 L301,151 L833,151 L833,0 L43,0 L43,151 L574,549 L43,549 L43,700"/> 
            <glyph glyph-name="ž" unicode="&#x17E;" horiz-adv-x="737" d=" M597,753 L390,673 L183,753 L183,871 L390,791 L597,871 M737,589 L737,446 L296,143 L737,143 L737,0 L43,0 L43,143 L484,446 L43,446 L43,589"/> 
            <glyph glyph-name="Ș" unicode="&#x218;" horiz-adv-x="927" d=" M33,241 L213,241 Q213,183 274.5,158 Q336,133 501,133 Q641,133 694,150 Q747,167 747,209 Q747,232 738,244.5 Q729,257 697.5,266 Q666,275 618.5,279.5 Q571,284 480,288 Q245,299 149.5,345.5 Q54,392 54,507 Q54,582 105.5,628 Q157,674 246.5,692 Q336,710 473,710 Q679,710 788,653 Q897,596 897,471 L717,471 Q717,527 657.5,547 Q598,567 453,567 Q323,567 278.5,552.5 Q234,538 234,498 Q234,458 279,444.5 Q324,431 480,422 Q542,419 579.5,416 Q617,413 666,408 Q715,403 743.5,396.5 Q772,390 806,379.5 Q840,369 859,354.5 Q878,340 895.5,320 Q913,300 920,274 Q927,248 927,215 Q927,147 896.5,101.5 Q866,56 804.5,32 Q743,8 669.5,-1 Q596,-10 491,-10 Q401,-10 333,-3.5 Q265,3 206.5,20 Q148,37 111,65 Q74,93 53.5,137 Q33,181 33,241 M403,-117 L557,-117 L557,-225 L477,-335 L403,-335 L459,-225 L403,-225"/> 
            <glyph glyph-name="ș" unicode="&#x219;" horiz-adv-x="847" d=" M33,207 L204,207 Q204,159 261,139.5 Q318,120 460,120 Q554,120 599,125.5 Q644,131 659.5,142.5 Q675,154 675,178 Q675,211 638,220 Q601,229 440,239 Q367,243 320.5,247.5 Q274,252 225.5,260 Q177,268 149,280 Q121,292 97.5,310.5 Q74,329 64,355 Q54,381 54,416 Q54,461 75,494 Q96,527 130,547 Q164,567 216.5,579 Q269,591 322.5,595 Q376,599 444,599 Q535,599 598.5,591.5 Q662,584 717,564.5 Q772,545 799.5,506 Q827,467 827,408 L655,408 Q655,444 606,456.5 Q557,469 434,469 Q314,469 270,459 Q226,449 226,423 Q226,408 233,400 Q240,392 268,385.5 Q296,379 336.5,375 Q377,371 460,365 Q651,351 710,336 Q819,309 841,234 Q847,212 847,185 Q847,136 829,101 Q811,66 780.5,44.5 Q750,23 700,11 Q650,-1 597,-5.5 Q544,-10 470,-10 Q395,-10 337,-5.5 Q279,-1 219,12.5 Q159,26 120.5,49 Q82,72 57.5,112 Q33,152 33,207 M363,-117 L517,-117 L517,-225 L437,-335 L363,-335 L419,-225 L363,-225"/> 
            <glyph glyph-name="Ț" unicode="&#x21A;" horiz-adv-x="893" d=" M893,700 L893,549 L553,549 L553,0 L373,0 L373,549 L33,549 L33,700 M386,-225 L386,-117 L540,-117 L540,-225 L460,-335 L386,-335 L442,-225"/> 
            <glyph glyph-name="ț" unicode="&#x21B;" horiz-adv-x="639" d=" M639,446 L360,446 L360,276 Q360,190 384.5,161.5 Q409,133 486,133 Q570,133 639,143 L639,5 Q554,-10 438,-10 Q320,-10 254,36 Q188,82 188,177 L188,446 L33,446 L33,589 L188,589 L188,711 L360,760 L360,589 L639,589 M339,-225 L339,-117 L493,-117 L493,-225 L413,-335 L339,-335 L395,-225"/> 
            <glyph glyph-name="ˆ" unicode="&#x2C6;" horiz-adv-x="477" d=" M270,869 L477,789 L477,671 L270,751 L63,671 L63,789"/> 
            <glyph glyph-name="ˇ" unicode="&#x2C7;" horiz-adv-x="477" d=" M270,791 L477,871 L477,753 L270,673 L63,753 L63,871"/> 
            <glyph glyph-name="˘" unicode="&#x2D8;" horiz-adv-x="517" d=" M63,870 L171,870 Q171,759 290,759 Q408,759 408,870 L517,870 Q517,807 499.5,763.5 Q482,720 449.5,697.5 Q417,675 378.5,665.5 Q340,656 290,656 Q240,656 201.5,665.5 Q163,675 130.5,697.5 Q98,720 80.5,763.5 Q63,807 63,870"/> 
            <glyph glyph-name="˙" unicode="&#x2D9;" horiz-adv-x="257" d=" M63,833 L257,833 L257,687 L63,687"/> 
            <glyph glyph-name="˚" unicode="&#x2DA;" horiz-adv-x="483" d=" M386,660 Q160,660 111.5,693.5 Q63,727 63,792 Q63,857 111.5,890.5 Q160,924 273,924 Q386,924 434.5,890.5 Q483,857 483,792 Q483,727 386,660 M273,739 Q324,739 349,751 Q374,763 374,792 Q374,821 349,833 Q324,845 273,845 Q171,845 171,792 Q171,739 273,739"/> 
            <glyph glyph-name="˛" unicode="&#x2DB;" horiz-adv-x="351" d=" M351,-113 L351,-230 Q199,-230 131,-206 Q63,-182 63,-113 Q63,-52 143,0 L238,0 Q191,-38 191,-63 Q191,-96 230.5,-104.5 Q270,-113 351,-113"/> 
            <glyph glyph-name="˜" unicode="&#x2DC;" horiz-adv-x="643" d=" M63,670 Q63,761 101.5,820.5 Q140,880 220,880 Q258,880 291,864.5 Q324,849 343.5,830.5 Q363,812 389,796.5 Q415,781 441,781 Q472,781 484.5,803 Q497,825 497,870 L643,870 Q643,779 604,719.5 Q565,660 486,660 Q447,660 414,675.5 Q381,691 361.5,709.5 Q342,728 316,743.5 Q290,759 264,759 Q234,759 221.5,737 Q209,715 209,670"/> 
            <glyph glyph-name="˝" unicode="&#x2DD;" horiz-adv-x="537" d=" M63,801 L270,881 L270,759 L63,679 M330,801 L537,881 L537,759 L330,679"/> 
            <glyph glyph-name="̀" unicode="&#x300;" horiz-adv-x="-63" d=" M-63,789 L-63,671 L-452,751 L-452,869"/> 
            <glyph glyph-name="́" unicode="&#x301;" horiz-adv-x="-63" d=" M-452,789 L-63,869 L-63,751 L-452,671"/> 
            <glyph glyph-name="̂" unicode="&#x302;" horiz-adv-x="-63" d=" M-270,869 L-63,789 L-63,671 L-270,751 L-477,671 L-477,789"/> 
            <glyph glyph-name="̃" unicode="&#x303;" horiz-adv-x="-63" d=" M-643,670 Q-643,761 -604.5,820.5 Q-566,880 -486,880 Q-448,880 -415,864.5 Q-382,849 -362.5,830.5 Q-343,812 -317,796.5 Q-291,781 -265,781 Q-234,781 -221.5,803 Q-209,825 -209,870 L-63,870 Q-63,779 -102,719.5 Q-141,660 -220,660 Q-259,660 -292,675.5 Q-325,691 -344.5,709.5 Q-364,728 -390,743.5 Q-416,759 -442,759 Q-472,759 -484.5,737 Q-497,715 -497,670"/> 
            <glyph glyph-name="̄" unicode="&#x304;" horiz-adv-x="-63" d=" M-532,799 L-63,799 L-63,681 L-532,681"/> 
            <glyph glyph-name="̒" unicode="&#x312;" horiz-adv-x="-63" d=" M-63,706 L-217,706 L-217,814 L-137,924 L-63,924 L-119,814 L-63,814"/> 
            <glyph glyph-name="̦" unicode="&#x326;" horiz-adv-x="-63" d=" M-217,-56 L-63,-56 L-63,-164 L-143,-274 L-217,-274 L-161,-164 L-217,-164"/> 
            <glyph glyph-name="̧" unicode="&#x327;" horiz-adv-x="-63" d=" M-240,-47 Q-215,-39 -186.5,-36.5 Q-158,-34 -129,-38 Q-100,-42 -81.5,-62 Q-63,-82 -63,-116 Q-63,-157 -90.5,-184.5 Q-118,-212 -163,-223 Q-208,-234 -264.5,-236.5 Q-321,-239 -379,-230 L-379,-145 Q-192,-172 -192,-107 Q-192,-69 -296,-93 L-355,-35 L-341,0 L-225,0"/> 
            <glyph glyph-name="̨" unicode="&#x328;" horiz-adv-x="-63" d=" M-63,-113 L-63,-230 Q-215,-230 -283,-206 Q-351,-182 -351,-113 Q-351,-52 -271,0 L-176,0 Q-223,-38 -223,-63 Q-223,-96 -183.5,-104.5 Q-144,-113 -63,-113"/> 
            <glyph glyph-name="̵" unicode="&#x335;" horiz-adv-x="-63" d=" M-543,399 L-63,399 L-63,281 L-543,281"/> 
            <glyph glyph-name="̶" unicode="&#x336;" horiz-adv-x="-63" d=" M-1063,399 L-63,399 L-63,281 L-1063,281"/> 
            <glyph glyph-name="̷" unicode="&#x337;" horiz-adv-x="-43" d=" M-43,720 L-303,-150 L-479,-150 L-219,720"/> 
            </font>
</defs>
</svg>
