<svg width="144" height="144" viewBox="0 0 144 144" fill="none" xmlns="http://www.w3.org/2000/svg">
<mask id="mask0_678_5173" style="mask-type:luminance" maskUnits="userSpaceOnUse" x="4" y="4" width="136" height="136">
<path d="M4.625 4.24341H139.304V139.843H4.625V4.24341Z" fill="white"/>
</mask>
<g mask="url(#mask0_678_5173)">
<path d="M138.504 63.3913C136.637 54.0673 130.114 41.0574 130.006 40.8552C127.982 37.0746 125.489 33.3554 122.52 29.708C121.256 28.1548 121.48 27.1197 122.007 25.3688C122.977 22.1491 123.768 18.7166 123.716 15.3876C123.644 10.8388 121.512 7.01129 117.07 5.11875C112.601 3.2145 108.615 4.64171 105.038 7.50737C103.958 8.37258 102.794 9.33203 102.161 10.5127C100.876 12.9076 99.3892 12.6728 97.2051 11.7924C85.2469 6.97174 72.8058 5.68271 60.2006 8.1265C55.0611 9.12306 50.0495 10.7793 44.97 12.3842C42.1927 13.2621 39.1337 12.3925 37.2988 10.1304C36.8691 9.6001 36.4131 9.08106 35.9243 8.59474C32.273 4.96397 27.9318 2.99527 22.8045 5.1168C17.6864 7.23492 15.5576 11.8017 15.9922 16.8216C16.392 21.4499 18.2963 25.9479 19.538 30.5029C19.8754 30.5581 19.1517 32.4677 18.5048 33.4037C17.2016 35.289 16.0083 37.1927 14.9238 39.1141C14.7944 39.3436 14.6519 39.5638 14.4956 39.7762C9.62023 46.4171 6.31562 54.2709 5.21067 62.8328C1.70196 90.0255 14.2881 110.672 34.1358 127.608C39.8188 132.457 46.1252 136.28 53.1749 139.261C58.0483 141.323 63.3509 137.645 63.1688 132.357C63.1678 132.323 63.1664 132.29 63.1654 132.256C62.9554 125.433 64.4412 124.077 71.3048 123.992C78.0542 123.909 84.8333 124.181 91.5466 123.641C119.33 121.406 144.118 91.4342 138.504 63.3913Z" fill="#9146FF"/>
</g>
<mask id="mask1_678_5173" style="mask-type:luminance" maskUnits="userSpaceOnUse" x="4" y="4" width="136" height="136">
<path d="M4.625 4.24341H139.304V139.843H4.625V4.24341Z" fill="white"/>
</mask>
<g mask="url(#mask1_678_5173)">
<path d="M49.8137 84.5993C49.8137 85.7014 49.7595 86.8063 49.8225 87.9044C50.2951 96.1323 55.6246 99.1771 62.9423 95.3271C64.3221 94.6011 65.5775 93.543 66.6981 92.4429C68.7703 90.4078 68.8577 88.1242 66.9471 85.9113C65.6688 84.4304 64.1717 83.1365 62.9213 81.635C60.374 78.5775 61.0146 74.5937 64.6376 73.0649C69.5344 70.9986 74.7194 70.9102 79.6055 73.123C83.1523 74.7299 83.7123 78.7533 81.1259 81.7342C79.9243 83.1194 78.5445 84.3484 77.3077 85.7048C75.2013 88.0138 75.192 90.5621 77.5137 92.4859C79.5205 94.1489 81.9169 95.6782 84.392 96.3735C89.9495 97.9345 93.7648 95.3344 94.0636 89.609C94.7086 77.2514 92.7824 65.3815 85.4091 55.0194C77.5792 44.0158 66.4847 44.152 58.6216 55.1108C52.2814 63.947 50.4709 74.0893 49.8137 84.5993Z" fill="white"/>
</g>
<mask id="mask2_678_5173" style="mask-type:luminance" maskUnits="userSpaceOnUse" x="4" y="4" width="136" height="136">
<path d="M4.625 4.24341H139.304V139.843H4.625V4.24341Z" fill="white"/>
</mask>
<g mask="url(#mask2_678_5173)">
<path d="M68.5576 108.332C70.9081 108.862 73.349 108.852 75.6951 108.303C78.1814 107.72 80.6554 107.128 82.9733 106.161C86.0542 104.876 86.083 102.168 83.0841 100.747C75.8518 97.322 68.3745 97.3352 61.1246 100.677C57.927 102.151 58.0114 104.892 61.3527 106.275C63.6187 107.213 66.0449 107.765 68.5576 108.332Z" fill="white"/>
</g>
<mask id="mask3_678_5173" style="mask-type:luminance" maskUnits="userSpaceOnUse" x="4" y="4" width="136" height="136">
<path d="M4.625 4.24341H139.304V139.843H4.625V4.24341Z" fill="white"/>
</mask>
<g mask="url(#mask3_678_5173)">
<path d="M86.5388 34.7782C83.3831 34.7782 80.7498 37.0111 80.1302 39.9827C77.6396 39.2893 74.9184 38.9163 72.1118 38.9163C69.6773 38.9163 67.3146 39.1965 65.1105 39.72C64.3933 36.8817 61.8303 34.7782 58.7694 34.7782C55.1533 34.7782 52.2217 37.7098 52.2217 41.3259C52.2217 44.942 55.1533 47.8736 58.7694 47.8736C62.3855 47.8736 65.3171 44.942 65.3171 41.3259C65.3171 41.2751 65.3107 41.2263 65.3093 41.176C67.4401 40.6584 69.7374 40.3811 72.1118 40.3811C74.8872 40.3811 77.5688 40.758 79.9979 41.4621C80.0711 45.0148 82.9685 47.8736 86.5388 47.8736C90.1549 47.8736 93.0865 44.942 93.0865 41.3259C93.0865 37.7098 90.1549 34.7782 86.5388 34.7782Z" fill="white"/>
</g>
</svg>
