<svg width="236" height="33" viewBox="0 0 236 33" fill="none" xmlns="http://www.w3.org/2000/svg">
<g clip-path="url(#clip0_349_3640)">
<mask id="mask0_349_3640" style="mask-type:luminance" maskUnits="userSpaceOnUse" x="-7" y="-7" width="250" height="47">
<path d="M-6.5 -6.5H242.793V39.5H-6.5V-6.5Z" fill="white"/>
</mask>
<g mask="url(#mask0_349_3640)">
<path d="M40.9589 11.128H46.8537C47.7625 11.128 48.4992 11.8647 48.4992 12.7734V24.3145C48.4992 25.2233 49.2359 25.96 50.1446 25.96H52.2622C53.171 25.96 53.9077 25.2233 53.9077 24.3145V12.7734C53.9077 11.8647 54.6445 11.128 55.5531 11.128H61.4481C62.3568 11.128 63.0935 10.3913 63.0935 9.48264V8.14876C63.0935 7.23997 62.3568 6.50326 61.4481 6.50326H40.9589C40.0501 6.50326 39.3135 7.23997 39.3135 8.14876V9.48264C39.3135 10.3913 40.0501 11.128 40.9589 11.128Z" fill="#9146FF"/>
</g>
<mask id="mask1_349_3640" style="mask-type:luminance" maskUnits="userSpaceOnUse" x="-7" y="-7" width="250" height="47">
<path d="M-6.5 -6.5H242.793V39.5H-6.5V-6.5Z" fill="white"/>
</mask>
<g mask="url(#mask1_349_3640)">
<path d="M76.5903 25.96H93.8374C94.7462 25.96 95.4829 25.2233 95.4829 24.3146V23.197C95.4829 22.2882 94.7462 21.5515 93.8374 21.5515H81.9989C81.0901 21.5515 80.3535 20.8148 80.3535 19.9061C80.3535 18.9973 81.0901 18.2606 81.9989 18.2606H93.8374C94.7462 18.2606 95.4829 17.5239 95.4829 16.6152V15.8481C95.4829 14.9394 94.7462 14.2027 93.8374 14.2027H81.9989C81.0901 14.2027 80.3535 13.466 80.3535 12.5572C80.3535 11.6485 81.0901 10.9118 81.9989 10.9118H93.8374C94.7462 10.9118 95.4829 10.1751 95.4829 9.26633V8.14876C95.4829 7.24009 94.7462 6.50338 93.8374 6.50338H76.5903C75.6815 6.50338 74.9448 7.24009 74.9448 8.14876V24.3146C74.9448 25.2233 75.6815 25.96 76.5903 25.96Z" fill="#9146FF"/>
</g>
<mask id="mask2_349_3640" style="mask-type:luminance" maskUnits="userSpaceOnUse" x="-7" y="-7" width="250" height="47">
<path d="M-6.5 -6.5H242.793V39.5H-6.5V-6.5Z" fill="white"/>
</mask>
<g mask="url(#mask2_349_3640)">
<path d="M148.724 12.7735C148.724 11.8647 149.461 11.1281 150.37 11.1281H155.476C159.205 11.1281 161.363 11.9633 161.363 16.2312C161.363 20.5 159.205 21.3353 155.476 21.3353H150.37C149.461 21.3353 148.724 20.5986 148.724 19.6898V12.7735ZM157.313 6.50338H144.961C144.053 6.50338 143.316 7.24009 143.316 8.14876V24.3146C143.316 25.2233 144.053 25.96 144.961 25.96H157.313C161.676 25.96 166.771 23.4122 166.771 16.2312C166.771 9.05119 161.676 6.50338 157.313 6.50338Z" fill="#9146FF"/>
</g>
<mask id="mask3_349_3640" style="mask-type:luminance" maskUnits="userSpaceOnUse" x="-7" y="-7" width="250" height="47">
<path d="M-6.5 -6.5H242.793V39.5H-6.5V-6.5Z" fill="white"/>
</mask>
<g mask="url(#mask3_349_3640)">
<path d="M184.194 12.7735C184.194 11.8647 184.931 11.1281 185.84 11.1281H190.946C194.675 11.1281 196.833 11.9633 196.833 16.2312C196.833 20.5 194.675 21.3353 190.946 21.3353H185.84C184.931 21.3353 184.194 20.5986 184.194 19.6898V12.7735ZM192.783 6.50338H180.432C179.523 6.50338 178.786 7.24009 178.786 8.14876V24.3146C178.786 25.2233 179.523 25.96 180.432 25.96H192.783C197.146 25.96 202.242 23.4122 202.242 16.2312C202.242 9.05119 197.146 6.50338 192.783 6.50338Z" fill="#9146FF"/>
</g>
<mask id="mask4_349_3640" style="mask-type:luminance" maskUnits="userSpaceOnUse" x="-7" y="-7" width="250" height="47">
<path d="M-6.5 -6.5H242.793V39.5H-6.5V-6.5Z" fill="white"/>
</mask>
<g mask="url(#mask4_349_3640)">
<path d="M231.01 7.08805L225.62 13.4792C224.963 14.2587 223.762 14.2587 223.104 13.4792L217.715 7.08805C217.402 6.71734 216.942 6.50338 216.457 6.50338H214.184C212.784 6.50338 212.024 8.13897 212.925 9.209L221.271 19.1142C221.521 19.411 221.658 19.7865 221.658 20.1745V24.3146C221.658 25.2233 222.395 25.96 223.303 25.96H225.421C226.33 25.96 227.067 25.2233 227.067 24.3146V20.1745C227.067 19.7865 227.204 19.411 227.454 19.1142L235.799 9.209C236.701 8.13897 235.94 6.50338 234.541 6.50338H232.268C231.783 6.50338 231.322 6.71734 231.01 7.08805Z" fill="#9146FF"/>
</g>
<mask id="mask5_349_3640" style="mask-type:luminance" maskUnits="userSpaceOnUse" x="-7" y="-7" width="250" height="47">
<path d="M-6.5 -6.5H242.793V39.5H-6.5V-6.5Z" fill="white"/>
</mask>
<g mask="url(#mask5_349_3640)">
<path d="M126.301 18.6329C125.88 18.6329 125.474 18.8419 125.267 19.208C124.343 20.8348 122.377 21.6058 119.224 21.6058C114.492 21.6058 112.473 19.9902 112.473 16.2044C112.473 12.4565 114.492 10.8574 119.224 10.8574C122.456 10.8574 124.403 11.6106 125.302 13.2585C125.507 13.6353 125.919 13.8539 126.348 13.8539H129.614C130.45 13.8539 131.043 13.0279 130.767 12.2392C129.373 8.25119 125.504 6.23262 119.224 6.23262C111.041 6.23262 107.064 9.49426 107.064 16.2044C107.064 22.9508 111.041 26.2305 119.224 26.2305C125.467 26.2305 129.325 24.2211 130.74 20.2532C131.022 19.4638 130.427 18.6329 129.589 18.6329H126.301Z" fill="#9146FF"/>
</g>
<mask id="mask6_349_3640" style="mask-type:luminance" maskUnits="userSpaceOnUse" x="-7" y="-7" width="250" height="47">
<path d="M-6.5 -6.5H242.793V39.5H-6.5V-6.5Z" fill="white"/>
</mask>
<g mask="url(#mask6_349_3640)">
<path d="M32.4707 14.4177C32.0197 12.1654 30.4441 9.02262 30.418 8.97378C29.9291 8.06051 29.3267 7.16209 28.6097 6.28102C28.3044 5.90582 28.3584 5.65577 28.4858 5.2328C28.72 4.45505 28.9112 3.62587 28.8985 2.8217C28.8811 1.72289 28.3662 0.798288 27.2932 0.341118C26.2136 -0.118882 25.2507 0.225882 24.3866 0.918123C24.1258 1.12713 23.8445 1.3589 23.6915 1.6441C23.3812 2.22264 23.022 2.1659 22.4944 1.95324C19.6058 0.788734 16.6003 0.47735 13.5555 1.06768C12.3139 1.30842 11.1033 1.7085 9.87629 2.0962C9.2054 2.30827 8.46645 2.0982 8.0232 1.55174C7.91929 1.42365 7.80924 1.29827 7.69117 1.18079C6.80915 0.303727 5.76047 -0.17184 4.52189 0.340647C3.28555 0.852308 2.7713 1.95548 2.87627 3.16811C2.97287 4.28615 3.43287 5.37269 3.73281 6.47303C3.81432 6.48636 3.63952 6.94766 3.48324 7.17377C3.16843 7.62917 2.88005 8.08905 2.6182 8.55318C2.58694 8.60861 2.55238 8.66181 2.51476 8.71312C1.33704 10.3173 0.538765 12.2145 0.271847 14.2828C-0.575732 20.8516 2.46463 25.839 7.25913 29.9301C8.63193 31.1016 10.1554 32.0251 11.8582 32.7452C13.0355 33.2431 14.3165 32.3548 14.2725 31.0774C14.2722 31.0692 14.2719 31.0611 14.2716 31.053C14.2209 29.4047 14.5798 29.0773 16.2379 29.0568C17.8683 29.0366 19.5059 29.1024 21.1275 28.972C27.8389 28.432 33.827 21.1919 32.4707 14.4177Z" fill="#9146FF"/>
</g>
<mask id="mask7_349_3640" style="mask-type:luminance" maskUnits="userSpaceOnUse" x="-7" y="-7" width="250" height="47">
<path d="M-6.5 -6.5H242.793V39.5H-6.5V-6.5Z" fill="white"/>
</mask>
<g mask="url(#mask7_349_3640)">
<path d="M11.0458 19.5408C11.0458 19.807 11.0327 20.0739 11.0479 20.3392C11.1621 22.3268 12.4495 23.0623 14.2172 22.1323C14.5505 21.9569 14.8537 21.7013 15.1244 21.4355C15.625 20.9439 15.6461 20.3923 15.1846 19.8577C14.8758 19.5 14.5142 19.1874 14.2121 18.8247C13.5968 18.0861 13.7515 17.1238 14.6267 16.7545C15.8096 16.2553 17.0621 16.234 18.2424 16.7685C19.0992 17.1567 19.2345 18.1286 18.6097 18.8487C18.3194 19.1833 17.9861 19.4802 17.6873 19.8078C17.1785 20.3656 17.1763 20.9812 17.7371 21.4459C18.2219 21.8477 18.8008 22.2171 19.3987 22.385C20.7411 22.7621 21.6628 22.134 21.735 20.751C21.8908 17.7658 21.4255 14.8985 19.6443 12.3954C17.7529 9.73727 15.0729 9.77017 13.1734 12.4174C11.6419 14.5519 11.2045 17.002 11.0458 19.5408Z" fill="white"/>
</g>
<mask id="mask8_349_3640" style="mask-type:luminance" maskUnits="userSpaceOnUse" x="-7" y="-7" width="250" height="47">
<path d="M-6.5 -6.5H242.793V39.5H-6.5V-6.5Z" fill="white"/>
</mask>
<g mask="url(#mask8_349_3640)">
<path d="M15.5745 25.2739C16.1423 25.402 16.732 25.3995 17.2987 25.2668C17.8993 25.1261 18.497 24.9831 19.0569 24.7495C19.8011 24.4389 19.8081 23.7848 19.0836 23.4417C17.3366 22.6143 15.5303 22.6174 13.779 23.4247C13.0066 23.7808 13.027 24.4429 13.8341 24.777C14.3815 25.0035 14.9676 25.1369 15.5745 25.2739Z" fill="white"/>
</g>
<mask id="mask9_349_3640" style="mask-type:luminance" maskUnits="userSpaceOnUse" x="-7" y="-7" width="250" height="47">
<path d="M-6.5 -6.5H242.793V39.5H-6.5V-6.5Z" fill="white"/>
</mask>
<g mask="url(#mask9_349_3640)">
<path d="M19.9172 7.50556C19.1549 7.50556 18.5188 8.04494 18.3692 8.76278C17.7675 8.59529 17.1102 8.50518 16.4322 8.50518C15.8441 8.50518 15.2734 8.57288 14.7409 8.69932C14.5677 8.01368 13.9486 7.50556 13.2091 7.50556C12.3356 7.50556 11.6274 8.21372 11.6274 9.08725C11.6274 9.96078 12.3356 10.6689 13.2091 10.6689C14.0827 10.6689 14.7908 9.96078 14.7908 9.08725C14.7908 9.07499 14.7893 9.06319 14.7889 9.05104C15.3037 8.92602 15.8586 8.85902 16.4322 8.85902C17.1026 8.85902 17.7504 8.95008 18.3372 9.12016C18.3549 9.97836 19.0548 10.6689 19.9172 10.6689C20.7908 10.6689 21.4989 9.96078 21.4989 9.08725C21.4989 8.21372 20.7908 7.50556 19.9172 7.50556Z" fill="white"/>
</g>
</g>
<defs>
<clipPath id="clip0_349_3640">
<rect width="236" height="33" fill="white"/>
</clipPath>
</defs>
</svg>
